<mxfile host="app.diagrams.net" agent="Mozilla/5.0 (Windows NT 10.0; Win64; x64) AppleWebKit/537.36 (KHTML, like Gecko) Chrome/129.0.0.0 Safari/537.36" version="24.7.17">
  <diagram name="Page-1" id="tj-gMtLkqob4OhatCBeq">
    <mxGraphModel dx="1834" dy="746" grid="0" gridSize="10" guides="1" tooltips="1" connect="1" arrows="1" fold="1" page="0" pageScale="1" pageWidth="1169" pageHeight="827" math="0" shadow="0">
      <root>
        <mxCell id="0" />
        <mxCell id="1" parent="0" />
        <mxCell id="ZC6dXS9VG-4Vkqp6-rwn-1" value="" style="shape=image;verticalLabelPosition=bottom;labelBackgroundColor=default;verticalAlign=top;aspect=fixed;imageAspect=0;image=data:image/png,iVBORw0KGgoAAAANSUhEUgAAAlYAAAHFCAIAAAC/3SA4AAAAAXNSR0IArs4c6QAAIABJREFUeAHsnQtcVEX7x2cXluUOgojcxEqsBFHferMsNVTUFC/9e983TQnT8FKo3SzLu6bY6y3rzS6mlq8X1FC7SBooUimatSYqouQFFeqtQEiUi8D8PUxOh7Ozs2eXs3B2ec6nj83OmZnzzHeG53dmzsw5CMMBBIAAEAACQKBFEkAtstZQaSAABIAAEAACGCQQOgEQAAJAAAi0UAIggS204aHaQAAIAAEgABIIfQAIAAEgAARaKAGQwBba8FBtIAAEgAAQAAmEPgAEgAAQAAItlABIYAtteKg2EAACQAAIgARCHwACQAAIAIEWSgAksIU2PFQbCAABIAAEQAKhD9iWwLp169Ctw8nJKSQkZMyYMZcvX5Zz1d71h5yUTZwmMzMTIZSZmSnnuvzE5CwhpNVqW7duHRcXd+TIETklqycNaeXz5883i0kzZswICwtzcnLy8fExZcCXX345aNCg1q1bu7i4hIaGPvnkkydPnjSVmBOPEJozZw4ngaWnxo0bFxkZ6ePj4+rqGhER8dJLL/3222+WFgLprSYAEmg1OsgoiwBxjuvWrcvOzt63b9/cuXP1ev1tt91WXl5uNr9qJbCsrCw7O7usrMxsFTDGciRw0aJF2dnZX3/99cqVK/38/Nzd3c+cOSOncJWk+fXXX7OzsysrK5venp07dyKEZsyY8e2335q6dZg2bRpCaODAgVu3bs3Kylq9evXdd9+t1+tTU1MtNVhxCRwxYsTKlSt37dq1d+/eN954w9vbu1OnTlVVVZYaBumtIwASaB03yCWXAJFAsW+aNWsWQmjDhg1mi1CtBJq1XJxAjgRu27aNZvn4448RQrNnz6YxCgauXbumYGlqKOr1119HCP3vf/8zZcymTZtuJpg0aZI4QXl5+T333OPu7n727FlxPA2bAmW1BFZXV9+4cYOWbyqwatUqhNDevXtNJYB4ZQmABCrLE0qTEjCWwF27diGEFi5ciDGuqKiYPn16+/btdTpdcHDwM888c+XKFVoElcC6uroOHTr079+fnsIYX7161dvb+5lnnqEjrU2bNr322mtBQUFeXl59+/bNy8sTp1+zZk10dLRer2/VqtXw4cNzc3Pp2YSEBA8Pj1OnTvXv39/d3b1t27bJyckY4+zs7AcffNDd3T0iIuKjjz6i6SWqduTIkccffzw8PNzV1TU8PHzEiBEXLlwwlZjGkwApSiyBJ0+eRAhNmDCBpjxz5szIkSMDAgJcXFzuuuuu//znP/QUxvjEiROxsbFubm6tW7d+5plnvvjiC/Ekbe/evSMjI7Oysh544AE3N7fHH38cY1xWVvbiiy9S7FOnThUPyrdu3Xrfffd5e3u7ubnddtttTz31FLlcbW3tggULOnbs6Orq6uPj07lz5zfffJOcMp4INUs7Pz//kUce8fDwCA0NfeGFFzgjyNra2jfeeOPOO+90cXEJCAiIj4+/dOkSuW54ePitWXbh/8wpysjIyFatWhlL2sGDBxFCSUlJpCjSB3JycmJjYz09Pe+//34C6umnn/bz8/Pw8BgwYMDp06clV+E0DWnZ9evXv/DCC8HBwRqN5tSpU+RanH+3bduGEMrKyuKkgVMKEgAJVBAmFMUgYCyBK1euRAh98MEHdXV1AwYMcHZ2njVr1ldffbV06VIPD49u3bpRb0glEGO8cuVKjUYjnh585513EELkiQ5xN+3btx81atSuXbs2b97crl27iIiImpoaYtOiRYsQQiNHjty1a9f69etvv/12Hx8fWlpCQoKLi8vdd9+9cuXK9PT0p556CiH06quvduzYcc2aNXv27ImLi0MIff/996Q0iQRu27Zt9uzZO3bsyMrKSklJ6d27d0BAAH2iI0ksYUTOiiWQaNiyZctIypMnTxK9Wb9+/VdfffXiiy9qtdq5c+eSs0VFRf7+/u3atfvoo4/S0tLi4+Pbt28vkUA/P7+wsLC33347MzMzKyvr2rVrXbt2bd269fLlyzMyMlauXOnj49OnT5+6ujqM8cGDBzUazYgRI9LS0vbt27du3br4+HhyreTkZCcnpzlz5uzdu3f37t1vvvkmNUMigTJpL126NCMjY/bs2RqNZt68eRIy9Of48eOJVu3evfu9994LCAgICwsjeA0Gw7hx4xBCu3fvzs7OptJI8xYVFSGEiPDTSBpo06bNnXfeSX4mJCTodLr27dsnJyfv3bt3z549dXV1MTExer1+4cKFX3311Zw5c26//XaxBPKbhrRsSEjIP/7xj88+++yLL74oLi6ml5YEbty4UV5e/u233951110PPfQQ7beSZPBTcQIggYojhQIbECDO8dChQzdu3Lh69eoXX3wREBDg5eX1yy+/7N69GyH073//m2bYsmULUUcSI5bAP/74w8vLa+rUqTRxp06dYmJiyE/ibgYNGkTPbt26FSGUnZ2NMb5y5Yqbm5v47MWLF/V6/RNPPEHSJyQkIITok6EbN24EBAQghAwGA0lQXFzs5OT0wgsviC/HXA5TU1NTXl7u4eGxcuVKs4np+HXLli03bty4fv36gQMH7rzzzk6dOtHR8IABA0JDQ8XPHZOSklxdXUtKSjDG06ZN02g04pUdAwYMkEigZGItOTlZq9WKp6Y/+eQThFBaWhrGeOnSpQih0tJSYrz437i4uK5du4pjaFgsgTJpb926lWYfNGgQlSIaSQKnTp1CCJGxPok5fPgwQui1114jP+fMmYMQojcckuyHDh1CCE2fPl0ST352797dzc2NhEkfWLt2LU355ZdfIoRoO2KMFy5cKJZAftOQPtmrVy9aoKlAdnY2HcsOGjTojz/+MJUS4hUnABKoOFIosAEB4hzpX/hNpencufO3336LMX755Zdverdff/2VZqirq7s5IUnv2cUSiDGeMmWKj48PmbLbu3evWLSIu3nvvfdoUXl5eQihlJQUjHFaWhpCSOxzMcaPPPJIYGAgSZ+QkKDRaCoqKmj2Bx54ICgoiP7EGAcFBT322GMkhlyOSuDVq1dffvnlO+64w8nJidZ04sSJzMTiMqkE0lwIoaCgILq0sqKiwtnZefLkyTdEB6kOUaz77ruvc+fO4jI/+ugjiQS2atVKnODBBx+Mjo4WlSfcmmg0mpdffhljnJWVhRDq37//li1bJAt358+fr9FoJk2atHv3brEkY4zFEmgF7enTp7u6uoqNpGHybOy7776jMRjju+++u3v37iSmMRJ43333ubu7k3KIBIrrRfrn77//Ti99/vx5KoFmm4Z0ErGC0nIkgfLy8iNHjmRlZa1cuTIoKKh79+7G07aSLPBTKQIggUqRhHLYBIhzXL9+/ZEjR44ePVpUVETTjRs3ztnZmf4kgTvuuKNfv34kLJHA/Px8rVb7/vvvY4wfffTR0NBQOl9E3I14OpF4q3Xr1mGM//vf/yKEvvnmG/G1xFcnz4HEZ8kjNHFMeHj44MGDSYxEAocMGeLu7p6cnJyRkfHdd98dOXIkICAgISGBmVhcJpXAN954gzjBGTNmaLXaLl26kNngy5cvi9VRHF6/fv3NqolxkZLJ2IXKc+/evTt16iS+aIcOHcTl0PDYsWNJsp07d/bp00ev1yOEIiMjN23aROJv3LixbNmybt26aTQaZ2fnPn360KGkWAKtoE1kTGwkDS9YsAAhJJnh7Nu3b4cOHUgavgTyJ0IDAwPp6DMhIYHKISlZ3ENITEVFBZVAs01DOonkxovWy1SADFuXL19uKgHEK0sAJFBZnlCalABxjtRXik+bGgWOGDGCJJNIIMZ48ODB0dHRFy9edHJyev3112lpfAk0NS5p27YtKaExElhaWqrRaOhTMYxxZWWlk5OTRRIoFm+yxHHJkiU35zmvXbvm5OQ0ZsyYI0YHGZ0YjwIJcLEERkZGUlAY4/vvv79z585G5R2hQ0+SuLKycv/+/WRa9eDBg+ISrly5sm3btoiICD8/PzJeEUugFbQ5EmhqFEiWq9y0ii+BGGOLlsOIq8kfBZptGuM+KS7cVLimpkar1dIpBFPJIF4pAiCBSpGEctgEOBK4Z88ehJD4hpcsh1u9ejUpy1gCv/rqq5vr5WJiYlxcXMTr4I3djXgUSJ5ODR06lJp46dIlvV4/atQoEtMYCSwrK0MIkRWkpLT//Oc/CCGrJbC6urpDhw7+/v7kmVC/fv26dOliaqOYnGeBEgl8/fXX3d3dz507R2lwAj/++CNC6J133jFOc3M5DF2OJJZAK2hzJJBMaE+ZMoUa8N1335GNgCTGrASa2hRx7733ijdFGPcBs88C+U1j3CdpFTgBMsO/dOlSTho4pSABkEAFYUJRDAIcCSQrQnU63dy5c9PT05ctW+bp6WlqRSgtulOnTgih0aNH0xg6nSgeS4klEGNM1ijGx8enpaX997//7dChg2RFqIeHh7hAiyZCe/Xq5efnt3r16vT09JkzZwYFBfn6+lotgRhjspZnwYIFGOOTJ0+2atXqvvvuW7duXWZm5meffbZ8+XK6DqiwsJCuCP3yyy/j4+PJPgG6qt64IuXl5d26dQsNDV22bFl6evqePXtWr179z3/+89ChQxjjWbNmPfXUUxs2bNi/f//OnTtjYmJ0Ot2JEycwxnFxcdOnT//kk0+ysrLWr1/fvn378PDw6upqybNAK2hzJBBjPH78eI1G89xzz+3Zs+f9999v06ZNWFgYfURnVgIxxi+99BJC6JFHHtm2bdvXX3+9evXqTp06SbbGG0tgbW1tr1699Hr9okWLTK0I5TSNHAn8/PPPhw4d+uGHH6anp6elpc2fP9/Pz69Dhw7M5Uji/glhpQiABCpFEsphE+BIINkX+Morr4SHh+t0uqCgoEmTJtGVkDeFzXgUiDGeO3fuzTd9EH9NL2nsbiQSiDH+8MMPo6OjXVxcfHx8hg0bJl5Faez+jJWD8yzw8uXLjz32WKtWrby8vAYOHHjixInw8PDGSCDGuHv37q1atSKu8Pz582PHjg0JCdHpdAEBAT169BBPAp84caJfv36urq5+fn7jxo0jO+uPHTtG4BhX5KYklJeXz5w5k+y0Izsunn/++V9++QVj/MUXXzzyyCMhISEuLi5t2rQZNGgQfYa6bNmyHj16kHeMtWvXbty4cXT7o3gUSK5rEW2+BJJ9gR07dtTpdK1btx49erT40aAcCSRLogYNGuTv76/T6UJCQuLj48UdAGNs3AcwxqWlpWPHjvX19XV3d4+NjSVDUvHuQ07TGPdJ2l1p4NSpU//4xz/IjlJXV9e77rpr2rRpnL0TNCMElCIAEqgUSSiniQjcc8899957bxNdzA4vk5iY6OnpaWri1A4rBCYDARsSAAm0IVwoWkECZWVlBw4cePXVVxFCO3bsULBkey9q3rx5q1ev3rt376effpqYmKjRaGbNmmXvlQL7gUDTEAAJbBrOcJXGEiDTSv7+/uJpqMYW6hD5Fy1a1LFjR3d3dxcXl5vfHFixYgV5z4tDVA4qAQRsSwAk0LZ8oXQgAASAABBQLQGQQNU2DRgGBIAAEAACtiUAEmhbvlA6EAACQAAIqJYASKBqmwYMAwJAAAgAAdsSAAlk8K2trb106VJpaWkZHEAACAABIGDPBEpLSy9dulRbW8vw9RiDBDKwXLp0ib47GAJAAAgAASBg7wTEr1MQO33bSmBWVlZcXFxQUJBkL9fVq1efffbZkJAQ8kKEVatWUZsqKyuTkpL8/f3d3d2HDBkitrukpGT06NHe9cfo0aPFrxEpKCiIi4tzd3f39/efPHmyeF9wTk5Or169XF1db364ed68eXLWi5eWlpKX09vzrQ/YDgSAABAAAmVkSGPqnXO2lcC0tLQZM2akpqZKJPDpp5++4447MjMzz58///777zs5Oe3cuZOo4MSJE0NCQtLT0w0GQ0xMTJcuXegHcQYOHBgVFXWw/oiKioqLiyNZampqoqKiYmJiDAZDenp6cHBwUlISOVVWVhYYGDhixIjjx4+npqZ6eXnJef8sefGx+MthVKEhAASAABAAAnZEgO/PbSuBFJNEAiMjI+fPn0/P/u1vf5s5cyZ5I59OpyOfOcUYFxYWarXa3bt3Y4xzc3PFb4Yk31nOy8sjb//TarWFhYWkwM2bN+v1eiJgq1at8vHxIZ9ewxgnJycHBwebHQjykVGzIQAEgAAQAAIqJ8D3580jgRMmTLj33nsvX75cV1e3b98+T09P8ipe8qGQkpISyjQ6Onr27NkY4zVr1vj4+NB4jLGPj8/atWvJu+2jo6PpqZKSEoTQvn37MMbx8fHiT+QYDAaEkNnPxPCR0QtBAAgAASAABFROgO/Pm0cCq6qqnnzySYSQs7Ozi4sL+f41xnjjxo0uLi5ioLGxsePHj8cYL1y4MCIiQnwqIiJi0aJFNweLiYmJsbGx4lMuLi7kU9exsbGJiYn0VGFhIUJI8v1PcrayspLOmpO5Y5gIpdwgAASAABCwUwJqlMAlS5Z07Njxs88+O3bs2Ntvv+3p6Zmens6UwH79+k2YMIFIYMeOHcVt0KFDB/Kd0sTExP79+4tP6XS6zZs3Y4ypgpKzly9fRghlZ2eLE5Mw+eSKeNUTSKAxJYgBAs1LoLa2tgIOIMAiQFeNSLqo6iTw+vXrOp3uiy++oIaOGzduwIABGONmnAiFUSBtDggAAXUSqKqqysvLy4UDCJggUFRUZLzUQ3USSAxKS0ujf2bjx48nM5mlpaU6nW7Lli3kVFFRkWQ5zOHDh8mpQ4cOIYTEy2GKiorIqZSUFPFyGF9fX7pHYvHixbAchmKHABCwIwJ1dXUXLlzIz8+/du0aawwAcS2awPXr13///ffc3FwqBLRvN6cEXr169Wj9gRBavnz50aNHCwoKyNfAIyMjMzMzz507t27dOldXV7o1cOLEiaGhoRkZGQaDoU+fPpJNEdHR0dn1R+fOnSWbIvr27WswGDIyMkJDQ+mmiNLS0sDAwJEjRx4/fnz79u3e3t6wKYL2DAgAATsiUF1dnZuba2p3lx1VBEy1HQGigpIZ0eaUQPKNN/EDtoSEBIzxzz//PGbMmODgYFdX1zvvvHPZsmV09FpRUZGUlOTn5+fm5hYXF3fx4kXKq7i4eNSoUV71x6hRoyRb4wcPHuzm5ubn55eUlER3QWCMc3Jyevbsqdfr27ZtO3fuXHohWqxxgI/MOD3EAAEgYGsCFRUVubm5169ft/WFoHz7JXD9+vXc3NyKigpxFfj+vIlWhIoNUn+Yj0z99oOFQMDxCBAJlHg3x6sm1KgxBJidhO/PQQIZwPnIGBkgCgjYIYGaGpyZiTdtEv6tqVG4AooXzvRuChsNxdk5AWYn4ftzkEBGm/ORMTJAFBCQTUBxbZB95QYJU1NxaChG6M//QkNxamqDBI35YYvCmd6tMUY2V97evXtPnTqVf/Xz588jhI4ePcpPZt1Z8nxK/CDJunJUmIvZSfj+HCSQ0Y58ZIwMEAUE5BGwhTbIu3KDVKmpWKP5S/8QEn5qNMqooI0KZ3q3BrVqkh/ilQ3iMFnlIMeE4uLiP/74g5+ypqbm559/vnHjBj+ZdWdlSqAcqbbOANvlYnYSvj8HCWQ0Bx8ZIwNEAQEZBGykDTKu3CBJTU2D8R8dCGo0OCyssTOitiuc6d0aVIz1Q/Ex98+3jjfffNPb2/vWr5/FS1Wrq6tZtqglDiRQ3BIggWIaf4ZBAhlQIKpxBGynDZbalZnZYPxHJZAEMjMtLa9BetsVboUE2nTMvW7dOvrWYjJvuWXLlt69e+v1+rVr1/7+++8jRowICQlxc3OLiooi72skpMSjq/Dw8IULFz711FOenp5hYWHvv/8+SSOeCCWKlZGRcc8997i5uT3wwANkPzRJuWDBgoCAAE9Pz3Hjxr3yyitdunRp0B63fuzatSsiIsLV1fXhhx9et24dQohMhJqyMyEhQTzGPX/+fE1NzdixY9u3b+/q6tqxY8c333zzVtkq+j+zk/D9OUggo/34yBgZIAoImCNgO20wd2Xp+U2beBK4aZM0vUW/bVc407txbLP1mNtYAtu3b5+amnru3LnCwsLLly8vWbLk6NGjZ8+efeutt5ycnA4dOkSslUign5/fO++8k5+fn5ycrNVqT506hTE2lsDu3bvv37//5MmTPXv27NGjBylqw4YNrq6ua9euPX369Lx587y9vZkSePHiRb1eP3Xq1Ly8vA0bNgQGBlIJNGVnaWnpAw88kJiYSIa5NTU11dXVs2fP/u67786dO7dhwwZ3d3f6DhNOKzTxKWYn4ftzkEBGG/GRMTJAFBAwR8B22mDuytLzNhVj2xXO9G7Sut363QRjbmMJ5AyMBg0a9OKLLxLrJBI4evRoEl9XV9emTZt3332XKYEZGRkk2a5duxBCZHNI9+7dn3322VuVxg8++CBTAl999dW7776bbol+5ZVXqATSvCRgyk5JMozxM88889hjjxnHN28Ms5Pw/TlIIKPJ+MgYGSAKCJgjYDttMHdl6XkiD5LlMGRFjFLPAm1RONO7Set263cT0DaWwG+//fbW9XFNTc3rr7/euXNnPz8/Dw8PZ2fnf/7zn+SsRAL//e9/01zR0dHz5s1jSuCvv/5KkpEvvpHXbPn6+n788cc0+/PPP8+UwOHDhz/11FM02c6dO6kEyrST5H333Xfvueee1q1be3h46HS6v//977RMlQSYnYTvz0ECGW3HR8bIAFFAwBwBmwqPuYtLz5NJQrFQKb4iVPHCmd5NWrFbv5tgzG0sgeI9DG+88Ya/v/9///vfH3/8MT8/f/DgwcOGDSPWSSRwxYoVt6zGNwVszpw5TAmkexiOHj2KEDp//jzG2NfXl35p7uYnx5977jmmBA4bNsyUBMq0E2O8ZcsWV1fXd955x2Aw5Ofnjx8/nnktWpdmCTA7Cd+fgwQyWoqPjJEBooCADAI2FR4Z12+QRLJUJCxMmR0R5Bq2KJzp3RpUSfSjWUaBYgm8+XLHsWPHEotqa2s7duxoCwns3r07fR8yxvihhx5iyhKZCKV4pk+fTkeBHDtjY2PFhSclJfXp04cW0rdvX+a1aIJmCTA7Cd+fgwQyWoqPjJEBooCAPAK20AZ5V2akUnzDgPgaihfO9G7iK4rDTTDm5o8Cn3vuubCwsAMHDuTm5j799NPe3t62kMANGza4ubl99NFHZ86cWbBggbe3d9euXcUcSLigoMDFxeX555/Py8vbuHHjzbclUwnk2JmYmPj3v//9/Pnzv/32W21tLdkEsnv37tOnT8+cOdPU0hvjqzdlDLOT8P05SCCjgfjIGBkgCgjIJqC4Nsi+sn0nZHo3TpVsPebmS2BxcfGwYcM8PT3btGkzc+bMJ5980hYSiDGeP39+69atPT09x44dO2XKlPvvv5/J5PPPP7/5jXG9Xt+zZ8+1a9dSCeTYefr06fvvv9/NzY3Mu1ZWVo4ZM8bHx8fX13fSpEnTp0+HUSATtSNEggQ6QitCHRyLgKUSiLEwtSt+CZyyk70qpNuvXz+6vlSF5jWBScxOwvfnMApktAsfGSMDRAEBIGBjAkzvZvaajj3mvnbt2rJly06cOHHq1KnZs2cjhNLT080yceAEzE7C9+cggYz+wEfGyABRQAAI2JgA07vZ+JpqL/769et9+/Zt1aqVu7t7t27dUhV807naq862j9lJ+P4cJJCBko+MkQGigAAQsDEBpnez8TWheDsjwOwkfH8OEshoYz4yRgaIAgJAwMYEmN7NxteE4u2MALOT8P05SCCjjfnIGBkgCggAARsTYHo3G18TirczAsxOwvfnIIGMNuYjY2SAKCAABGxMgOndbHxNKN7OCDA7Cd+fgwQy2piPjJEBooAAELAxAaZ3s/E1oXg7I8DsJHx/DhLIaGM+MkYGiAICQMDGBJjezcbXhOLtjACzk/D9OUggo435yBgZIAoIAAEbE2B6NxtfE4q3MwLMTsL35yCBjDbmI2NkgCggAARsTIDp3Wx8TWWKJ599p596UKZQS0oRv8uNky88PFz82QpOSotONWX1mZ2E789BAhmtyUfGyABRQAAI2JgA07vZ+Jrs4hMSElD94ezsfNttt7344ovl5eXspPWxTakBTDOuX7/+v//9j3lKHMmRwOLi4qlTp4aHh+t0urZt244ZM4Z8sFCc3VRYkeqvWrWqc+fOXvXH/fffn5aWxrwcs5Pw/TlIIIMkHxkjA0QBASBgYwJM72bja7KLT0hIGDhw4M8//3zx4sWNGze6ublNnDiRnbQ+VhEN4JSv1ClTElhcXBwREREZGblr166CgoKsrKyePXu2adPm7NmzxpeuqqqSRFpRfeNCPvvss127dp2uP1577TWdTnfixAnJhTDGzE7C9+cggcYYMR8ZIwNEAQEgYGMCTO9m42uyi09ISKCffcAYP/30023btsUYV1ZWTp48OSAgQK/XP/jgg9999x3JTzWgvLzcy8tr27ZttNzPPvvM3d39jz/+OH/+PEIoNTX14YcfdnNzi46OPnjwIE32ySefdOrUycXFJTw8fOnSpTQ+PDx8wYIF8fHxHh4e7dq127lz56+//jp06FAPD4+oqKgjR46QlOKJ0J9++mno0KFt2rTx8PC49957xe8UNSWBEydO9PDw+Pnnn+l1r1+/HhISMnDgQBLTu3fvZ5999vnnn/f39+/VqxfGeNeuXREREa6urg8//PC6devohykwxgcOHOjZs6erq2toaOjkyZPpAJrUJSEhwdvb+8knn6TXYgZatWr14YcfGp9idhK+PwcJNMYIEshgAlFAoHkJNPBudXW4vNxW/9XV8WsqkcDJkyf7+/tjjKdMmRIcHJyWlnby5MmEhIRWrVoVFxdjjKkEYowTExMHDRpEy3/00UeJuycSeNddd33xxRenT5/+xz/+ER4efuPGDYzx999/r9Vq58+ff/r06XXr1rm5ua1bt46UEB4e7ufn99577505c2aEyYGhAAAgAElEQVTSpEleXl4DBw7cunXr6dOnhw8ffvfdd9fV10UsgT/++ON7772Xk5Nz5syZGTNmuLq60ilNpgTe/FKgr6/v+PHjqc0ksHDhQo1GQyrYu3dvT0/PadOm5eXlnTp16uLFi3q9furUqXl5eRs2bAgMDKQSmJOT4+npuWLFijNnzhw4cKBbt25jxoyhdfH29l6yZEl+/SG5HP1ZU1OzefNmFxeXkydP0kgaaNBJbsWCBN4iIfv/fGSyi4GEQKABAcf+akGDqtrgRwPvVl6OEbLVf9wHexhjsQQePnzY39//X//6V3l5uU6n27hxI6l6dXV1cHDwv//9b4kEHj582MnJqbCwEGP822+/6XS6/fv33yyTSCAd2Zw8eRIhdOrUKYzxE088ERsbS4lOmzatU6dO5Gd4eDj9OtLPP/+MEJo1axY5lZ2djRAiQzexBNJySKBTp05vv/02Lc14Ocwvv/yCEDKO3759O0Lo8OHDNyvYu3dv8ad6yUfqifrenJx85ZVXqATGx8eL1fSbb77RarUVFRUY4/Dw8OHDh0vME//Mycnx8PBwcnLy8fHZtWuX+BQNN+gkt2L5/hxGgbc4if7PRyZKCEEgIJeA5Nt1oaHC1+zgkE+ggXdrbgl0cnLy8PDQ6/VarfbRRx/93//+d+zYMYTQhQsXaI2GDx/+1FNPSSQQYxwdHZ2cnIwxXr58+R133EGkgkggnTstKSlBCGVlZWGMu3XrNnfuXFrszp07dTpdTU0NkQ2ishjjuro6hNDWrVtJynPnziGEjh07djOZWALLy8unTZt29913+/j4eHh4aLXaadOmkSzMUaApCUxNTUUIEYN79+799NNPUwtpxUnMzp07qQSS6VyPW4e7uztCKDc3l9Tl9ddfp4UYB6qqqvLz848cOTJ9+vTWrVvDKNAYkWIxIIGKoYSC6gmQL5iLxy0aDdZoQAUt6B8NJLC5J0L79euXn59/4cKF6upqUocff/wRIUQnFTHGw4YNGzt2rLEEvvXWWx07drz5Rd/OnTtTp08k8OjRo6S0K1euIIQyMzMxxl27dp03bx4ltWPHDrEEisdnCKEdO3aQlOICxRI4adKk22+/ffv27Tk5Ofn5+V26dJk6dSrJwpRAMhGamJhIDSAByUQoLYRUnGg/SSmWwLvuumvy5MlkqpP+Sxa/MK8uuSj92bdvX/FoksY36CS3Yvn+HEaBtziJ/s9HJkoIQSBgnkBNTYNvl1Mh1GhwWBiuv5s3XwikYHq3ZsEingilBpSXl7u4uIgnQkNCQpYsWWIsgSUlJa6uritXrtRqtZcuXSIliBULYyyWQOOJ0MjISJJLIhtyJDAqKmr+/Pkk+9WrV318fKh6SUqjVRs/frzZ5TC0EIwxmQil2adPn05HgU888USfPn3oKXHA1NXFaWi4T58+CQkJ9CcNMDsJ35+DBFJ6fwX4yP5KByEgIINAZibvoVX9jb6MUlp8EqZ3axYqTAm8qVtTp04NDg7+8ssv6XKYkpISYwkkj/dcXFzoikr6LJA5Cvzhhx/ocpiPPvpIshzG0lHg8OHDu3btevTo0R9//HHIkCFeXl5UvUyJ0G+//XbHHXdERUWlpaVdvHjReFNE7969aSEY44KCAhcXl+effz4vL2/jxo1t27alEnjs2DE3N7dnnnnm6NGjZ86c+fTTT5OSkkgjmro6Ofvqq69+/fXX58+fz8nJee2117Ra7VdffWXc+sxOwvfnIIHGGGFFKIMJRFlNYNMmngRu2mR1wS0rI9O7NQsCUxJYUVExefLk1q1bm9oUQa3du3ev+LkdXwIxxmRThE6na9euHRlZkqIksiFnFHj+/PmYmBg3N7ewsLD//Oc/YvWSlEatJSt3Jk+eHBYW5uzsHBgYmJCQIJ7yFRdCcn3++ecdOnTQ6/U9e/Zcu3YtlUCM8XfffRcbG+vp6enh4REdHb1w4UJmXcRXxxiPHTs2PDzcxcUlICCgb9++TP2DfYESaNb/5N81WF8u5GyRBGAUqEizq0cCG1+dDRs2+Pv7G28Ab3zJLbwEZifh+3PbjgKzsrLi4uKCgoLEtyekkXJzc4cMGeLt7e3p6dm9e3d6T1FZWZmUlOTv7+/u7j5kyBA6V35z201JScno0aO964/Ro0eL37lXUFAQFxfn7u7u7+8/efJkcd/Kycnp1auXq6trcHDwvHnz6FJdTl/hI+NkhFNAwJgAeRao0UjHgvAs0JgVJ4bp3Tjp1Xnq2rVrJ06ciIyMfO2119RpoV1bxewkfH9uWwlMS0ubMWMGWT5LlyphjH/66Sc/P79p06YZDIazZ89+8cUX9BV2EydODAkJSU9PNxgMMTExXbp0Ict/McYDBw6Mioo6WH9ERUXFxcWR1qqpqYmKioqJiTEYDOnp6cHBwXR+uaysLDAwcMSIEcePH09NTfXy8hK/W8FUY/ORmcoF8UDAFAGyIlSsgrAi1BQrU/FM72YqsWrj58yZ4+zs3KdPn6tXr6rWSPs1jNlJ+P7cthJIUUpGgY8//jjd0UnTYIxLS0t1Ol1KSgqJLCws1Gq1u3fvxhjn5uYihA4dOkROkY2feXl5GOO0tDStVkt2m2KMN2/erNfry8rKMMarVq3y8fGprKwkuZKTk4ODg80OBPnIxAZDGAjIJCDZFxgWBjsiZJL7MxnTu1lWBKR2dALMTsL3580ggbW1tZ6envPnz+/fv39AQMB9991HB4jkKTFZRkUaKzo6evbs2RjjNWvW+Pj4iFvQx8dn7dq1GONZs2ZFR0fTU2RX6b59+zDG8fHxQ4cOpacMBgNC6Ny5czSGGeAjY2aBSCBglgC8HcYsIk4CpnfjpIdTLZAAs5Pw/XkzSCB5kY+7u/vy5cuPHj2anJys0WjIW4I2btzo4uIibrnY2FiyBXLhwoURERHiUxEREYsWLSKv3RO/QAhj7OLisql+pV1sbKx4U2dhYSFCSPz+WVpgZWVl2a3j0qVLCCEyjqQJIAAEgEAzEiDe7fr1681oA1xa5QSuX7+em5tL3rhGTVWdBBIdGjlyJDVxyJAhI0aMwBgbS2C/fv0mTJiAMV64cCF5pQLNdXPRLXnPUGJiYv/+/Wn8zcQ6nW7z5s0330pOFZScvXz5MkIoOztbnJiE58yZQ74BRv8FCTSmBDFAoLkIVFdX5+bmlpaWNpcBcF31E/j9999zc3Pp8hFisOoksKqqytnZecGCBRToyy+/3KNHD4xxM06EwiiQNgcEgIAKCdTV1V24cCE/P//atWsVcACBhgSuX79O9K+oqEjSe1UngRjjBx54QLwcZvjw4WRQSJbDbNmyhdShqKhIshyGvJj85urQQ4cOIYTEy2FozVNSUsTLYXx9fekeicWLF8NyGEn/gJ9AwF4IVFVV5eXl5cIBBEwQKCoqMl7t2JwSePXq1aP1B0KIPPkj+/+2b9+u0+k++OCD/Pz8t99+28nJ6ZtvviF/hxMnTgwNDc3IyDAYDH369JFsioiOjs6uPzp37izZFNG3b1+DwZCRkREaGko3RZSWlgYGBo4cOfL48ePbt2+/uQ0RNkXYi78DO4GAMYHa2tqGd//wCwj8SUAy/0k7T3NKIPlWJH26hhCi7zZds2ZNhw4dXF1du3TpsnPnTmpuRUVFUlKSn5+fm5tbXFzcxYsX6ani4uJRo0Z51R+jRo2SbI0fPHiwm5ubn59fUlIS3QWBMc7JyenZs6der7/5qrq5c+ca3yPQ8mmAj4wmgwAQAAJAAAionADfnzfRilCVM5KYx0cmSQw/gQAQAAJAQLUE+P4cJJDRcHxkjAwQBQRkE4DdgbJRQUIgoAABvj8HCWQg5iNjZIAoICCPgOQdMfDteHnYIBUQsJ4A35+DBDLI8pExMkAUEJBBAL4dLwMSJAECChPg+3OQQAZuPjJGBogCAuYIwLfjzRGC80DAJgT4/hwkkAGdj4yRAaKAgDkC8NVAc4TgPBCwCQG+PwcJZEDnI2NkgCggYI4AfDveHCE4DwRsQoDvz0ECGdD5yBgZIAoImCMAo0BzhOA8ELAJAb4/BwlkQOcjY2SAKCBgjgB8O94cITgPBGxCgO/PQQIZ0PnIGBkgCgjIIADfjpcBCZIAAYUJ8P05SCADNx8ZIwNEAQF5BCT7AuHb8fKwQSogYD0Bvj8HCWSQ5SNjZIAoICCbALwdRjYqSAgEFCDA9+cggQzEfGSMDBAFBIAAEAACqiTA9+cggYxG4yNjZIAoIAAEgAAQUCUBvj8HCWQ0Gh8ZIwNEAQEgAASAgCoJ8P05SCCj0fjIGBkgCggAASAABFRJgO/PQQIZjcZHxsgAUUAACAABIKBKAnx/DhLIaDQ+MkYGiAICQAAIAAFVEuD7c5BARqPxkTEyQBQQAAJAAAiokgDfn4MEMhqNj4yRAaKAABAAAkBAlQT4/hwkkNFofGSMDBAFBIAAEAACqiTA9+cggYxG4yNjZIAoIAAEgAAQUCUBvj8HCWQ0Gh8ZIwNEAQEgAASAgCoJ8P05SCCj0fjIGBkgCgiojAC8iVRlDQLmWExAqT7M9+cggYyG4SNjZIAoIKAmApLvUYSG4tRUNdkHtgABcwQU7MN8fw4SyGgKPjJGBogCAqohQL5KiBCm/2k0WKMBFVRNC4Eh5ggo24f5/hwkkNEafGSMDBAFBNRBgHybnoofDWg0OCwM19Sow0qwAgiYJqB4H+b7c5BARlPwkTEyQBQQUAeBzMy/Bn9U/2ggM1MdVoIVQMA0AcX7MN+fgwQymoKPjJEBooCAOghs2sSTwE2b1GElWAEETBNQvA/z/TlIIKMp+MgYGSAKCKiDgOJ30OqoFljRgggo3of5/hwkkNG3+MgYGSAKCKiDAHmOotFIx4LwLFAd7QNWmCegeB/m+3OQQEaT8JExMkAUEFANAbKaTqyCsCJUNY0DhsgioGwf5vtzkEBGk/CRMTJAFBCwPQH5O4Ule6rCwmBHhO2bB66gKAEF+zDfn4MEMtqNj4yRAaKAgI0JSDyC2d3u8vXSxoZD8UDASgJK9WG+PwcJZDQPHxkjA0SphoBSfzaqqZBgiLI7hVVVNTAGY2G/ZmYm3rRJ+Bf2bireJfj+3LYSmJWVFRcXFxQUhBDasWOHcd3Gjx+PEFqxYgU9VVlZmZSU5O/v7+7uPmTIkEuXLtFTJSUlo0eP9q4/Ro8efeXKFXqqoKAgLi7O3d3d399/8uTJVVVV9FROTk6vXr1cXV2Dg4PnzZtXV1dHT5kK8JGZygXxzU7A0qFSsxssxwDFdwrLuSikaTICDtlpm4yenAvx/bltJTAtLW3GjBmpqalMCdyxY0eXLl2Cg4PFEjhx4sSQkJD09HSDwRATE9OlS5eaW/dFAwcOjIqKOlh/REVFxcXFkfrX1NRERUXFxMQYDIb09PTg4OCkpCRyqqysLDAwcMSIEcePH09NTfXy8lq6dKlZanxkZrNDgmYh4KhDJcXXiDdL68BFmQQctdMyK9tckXx/blsJpHU2lsDLly+HhIScOHEiPDycSmBpaalOp0tJSSEZCwsLtVrt7t27Mca5ubkIoUOHDpFT2dnZCKG8vDyMcVpamlarLSwsJKc2b96s1+vLysowxqtWrfLx8amsrCSnkpOTg4ODzQ4E+chIUfCvqgg48FBJ8Z3Cqmq4lmyMA3daVTUr3583jwTW1tbGxMS8+eabGGOxBO7duxchVFJSQglGR0fPnj0bY7xmzRofHx8ajzH28fFZu3YtxnjWrFnR0dH0VElJCUJo3759GOP4+PihQ4fSUwaDASF07tw5GkMDlZWVZbeOS5cuIYSIiNIEEFAzAbNDJft93GK2ampuF7CNQwBalgNHwVNqlMBFixbFxsaS0ZhYAjdu3Oji4iKufGxs7Pjx4zHGCxcujIiIEJ+KiIhYtGgRxjgxMTE2NlZ8ysXFZVP9y6BiY2MTExPpqcLCQoTQwYMHaQwNzJkzBzU8QAIpHPUH+EOl557DoaF/7RY3u5xSVfVVfKewqmrXko3hd1p4m51SfUN1Evj9998HBgbSeUu+BPbr12/ChAlEAjt27CiG0qFDh+TkZCKB/fv3F5/S6XSbN2/GGFMFJWcvX76MEMrOzhYnJmEYBRozsaMY/g01fU80CdjdVnFldwrbUbM6tqn8TgvvNFeq9VUngStWrNBoNE63DoSQVqsNDw/HGDfjRKgYNx+ZOCWEVULA1FAJIezk9Nf4j2qh3b0wTLJuEHa7q6TjNcYMU53W7jpnYyA0QV6+P2+GZ4G///77cdERHBz8yiuvkIUtZDnMli1bCJeioiLJcpjDhw+TU4cOHZIshykqKiKnUlJSxMthfH196R6JxYsXw3KYJuhzzXIJ5lCJah4zYF832vb7OLNZ+oNdXJTZaeH7xsq2XXNK4NWrV4/WHwih5cuXHz16tKCgQFI98UQoxnjixImhoaEZGRkGg6FPnz6STRHR0dHZ9Ufnzp0lmyL69u1rMBgyMjJCQ0PppojS0tLAwMCRI0ceP358+/bt3t7esClCwt+RfhoPlZ57jjEEpHIIj1scqfXttC7GnTY11U6rolKzm1MCMzMzGy4xQQkJCRJOEgmsqKhISkry8/Nzc3OLi4u7ePEiTV9cXDxq1Civ+mPUqFGSrfGDBw92c3Pz8/NLSkqiuyAwxjk5OT179tTr9W3btp07d67ZHREYYz4yag8EVEhAMlSCxy0qbCMwSUJA0mklZ+FnIwnw/XkTTYQ2sg5NnJ2PrImNgcs1hgA8bmkMPcgLBByAAN+fgwQympiPjJEBolRMAB63qLhxwDQgYHMCfH8OEshoAD4yRgaIUjcBeNyi7vYB64CADQnw/TlIIAM9HxkjA0SpngA8blF9E4GBQMAmBPj+HCSQAZ2PjJEBooAAEAACQECVBPj+HCSQ0Wh8ZIwMEOWIBGDg6IitCnVqcQT4/hwkkNEh+MgYGSDK4QhIHh/a12tFHa41oEJAwHoCfH8OEsggy0fGyGC3UTDQYTYdWURKd9AjhO3utaLMekEkEGiBBPj+HCSQ0SX4yBgZ7DMKBjrMdiNbCcX6R8Lw5kYmLogEAionwPfnIIGM5uMjY2SwwygY6JhqNHihjCkyEA8E7JEA35+DBDLalI+MkcHeomCgw2kx+IobBw6cAgJ2R4Dvz0ECGQ3KR8bIYG9RMNDhtBjA4cCBU0DA7gjw/TlIIKNB+cgYGewtqgUOdOQv/IHXitpbdwZ7gQCPAN+fgwQy2PGRMTLYW1RLG+hYuvAHXitqbz0a7AUCJgnw/TlIIAMcHxkjg71FtaiBjnULfySqCV9pt7c+DvYCgT8J8P05SCCjo/CRMTLYYVQLGeg0ZuGP/LlTO2x/MBkItBQCfH8OEsjoB3xkjAz2GdUSBjotbcoXZNs+/xbBahsS4PtzkEAGej4yRga7jXJ4j9miFv5I7mngpW52+3cJhitJgO/PQQIZrPnIGBkgikugGYW25YwCrXvkyW03OAkEHIEA35+DBDLamI+MkQGiTBNo3qFJC1n405hHnqabDs4AAUcgwPfnIIGMNuYjY2SAKBME1DA0sWjhTzMOWE0glBXdcga7snBAIiAgIsD35yCBIlS3gnxkt1LB/80QUM/QRDISNbXDQZLMjp6ltahHnma6HZwGAg0J8P05SGBDWvW/+MgYGSCKRUBVQxOzwzs1DFhZFGXFqQq1LIshERBoKgJ8fw4SyGgHPjJGBoiqJyCRGTsamqhnwGpdV2ohjzytgwO5WjgBvj8HCWR0Dz4yRgaIwth4FnHePGz81T0ak5mpImoOMIqy6JGnitCDKUDAxgT4/hwkkIGfj4yRocVHmZpF9PcXvrdOZU+1355VdsAqGQ03We+Q3IWYeuTZZPbAhYCAGgjw/TlIIKON+MgYGVp2FGcW0d+foX8ajTBkVNWh4ChQokOKrKmRr6nyU6qKPxgDBGxHgO/PQQIZ5PnIGBladhRfP7y9G6igv7/q9A9jrNSzNFOj4cZIvi00tWV3WKh9yyLA9+cggYzewEfGyNCyo/iziMazoI3RA9uRbvyzNM5oOCxMUFkrDltoqhVmQBYgYL8E+P4cJJDRsnxkjAwtO4o/CjSWQKv1wNaYJeMtS5+l8TlYsfxHcU2FaVJbdyEoX4UE+P4cJJDRZHxkjAwtO8rULKJE/MQ/rdCDpmEsFomqKpyZiTdtEv6VM4bjj4Y3bbK4BspqqkTgFXlIaXGVIAMQaHICfH8OEshoED4yRoYWH2U8iygWPOOwFXrQxIytEAxlFQtjQX2N0dEYixjChGoT9x+4nHoI8P05SCCjpfjIGBkgymhfYEAAz303/ShQPLwzO6SzTjBMjYY1Gmzd3K9Smqr4hCr0dyBgRwT4/hwkkNGUfGSMDBBVT0AsM1VVODRULZsCLRrSNUYwjEfDGo0AwboVQEppqlJSCt0cCNgjAb4/BwlktCkfGSMDRLEIKKsHkiuI5ZY/qrN0SGeFYIiN2bZN0H46XWm8pkacmG85rh9bExGlBVqhqQpOqEpaAX4CAfUT4Ptz20pgVlZWXFxcUFAQQmjHjh0EVnV19csvvxwVFeXu7h4UFBQfH19YWEg5VlZWJiUl+fv7u7u7Dxky5NKlS/RUSUnJ6NGjveuP0aNHX7lyhZ4qKCiIi4tzd3f39/efPHlyVVUVPZWTk9OrVy9XV9fg4OB58+bV1dXRU6YCfGSmckG8MQHJ8MtYD4yzyImRFMtZ2WHFkM5SwTA2ZutWk+tojBObHSBKsljBkC/q8+bJQQ5pgIC9EuD7c9tKYFpa2owZM1JTU8USWFpa2q9fvy1btuTl5WVnZ3fv3v2ee+6hdCdOnBgSEpKenm4wGGJiYrp06VJz61Z54MCBUVFRB+uPqKiouLg4kqumpiYqKiomJsZgMKSnpwcHByclJZFTZWVlgYGBI0aMOH78eGpqqpeX19KlS+m1TAX4yEzlgngmAYsGPcwSJJEWjer43p/5SNKiLBYZY1Fica0bydDUhCodWZqVYbExEAYC9kWA789tK4GUlFgCaSQJfPfddwihgoICjHFpaalOp0tJSSGnCgsLtVrt7t27Mca5ubkIoUOHDpFT2dnZCKG8vDyMcVpamlarpUPJzZs36/X6srIyjPGqVat8fHwqKytJruTk5ODgYLMDQT4yUhT82ywELB3VWTqks+hNMRYZY1Fixdkaqy/VP6tX6yhuJBQIBGxBgO/Pm18C09PTNRoNUay9e/cihEpKSiiI6Ojo2bNnY4zXrFnj4+ND4zHGPj4+a9euxRjPmjUrOjqaniopKUEI7du3D2McHx8/dOhQespgMCCEzp07R2NooLKysuzWcenSJYQQMYkmgIAaCFg0RMNYmJCkvt44wBwFyn8CZ1HhFiW2BWo7+nCHLaoPZbZYAqqWwIqKinvuuWfUqFGkeTZu3Oji4iJuqtjY2PHjx2OMFy5cGBERIT4VERGxaNEijHFiYmJsbKz4lIuLy6b6bVOxsbGJiYn0VGFhIULo4MGDNIYG5syZgxoeIIEUjnoClo7qTM0Bmh36yHkCZ5ExFiW2BfBmN8AWlYIygYBZAuqVwOrq6mHDhnXr1o2KjbEE9uvXb8KECUQCO3bsKK5thw4dkpOTiQT2799ffEqn023evBljTBWUnL18+TJCKDs7W5yYhGEUaMxEhTFWjKXIHKD4m00yF1WafQJnkTEWJbYF+WY3wBaVgjKBgFkCKpXA6urq4cOHR0dH//7777QOzTgRSm3AGPORiVNCuIkJWDeq27YNi7fqW7GokllNi4yxKDHzco2MbHYDGmk/ZAcC1hHg+/PmeRZI9C8yMvLXX38V14osh9myZQuJLCoqkiyHOXz4MDl16NAhyXKYoqIiciolJUW8HMbX15fukVi8eDEshxEDt8ewpaM6yZRm69Z461bF6m2RMRYlVsxEUUHNboDIFggCgSYi0JwSePXq1aP1B0Jo+fLlR48eLSgouHHjxtChQ0NDQ3/88cefbx1UpSZOnBgaGpqRkWEwGPr06SPZFBEdHZ1df3Tu3FmyKaJv374GgyEjIyM0NJRuiigtLQ0MDBw5cuTx48e3b9/u7e0NmyKaqN/Z8jISVeOM6ojTFy+EkTkLyjdfPEdqdi+8uCj5lotzKRhudgMUrAsUBQTkEFBGAq9cubJ69erp06cXFxdjjH/44YfLly+bvXxmZmbDJSYoISHh/PnzkkiEUOatxXkVFRVJSUl+fn5ubm5xcXEXL16kVykuLh41apRX/TFq1CjJ1vjBgwe7ubn5+fklJSXRXRAY45ycnJ49e+r1+rZt286dO9fsjgiYCKXA1RwQi9CtjaNSe8nUn1j/SNjsWhhpQQ1/S1QkNBSnpOAVK3BSkvCv6K0MDbPd+iXH8ltpbfL/ZjfAJrWCQoGACQIKSOCxY8cCAgI6dOjg7Ox89uzZm3unZs6cGR8fb+KKdh/NR2b31WsxFbDFAhDjYaVEYjmvqmkx4KGiQEBFBPj+XNazwL59+06bNg1j7OnpSSTwwIED4eHhKqqloqbwkSl6KSjMhgQU3wZgalgpVkFFJlptCAWKBgItjADfn8uSQG9v759++kksgRcuXNDr9Y5Kko/MUWvtePVSfBTIL5AKYSMnWh2vIaBGQKAZCfD9uSwJbNOmjcFgEEvgnj17QkNDm7FWNr00H5lNLw2FK0hA8W0A/GEllUASuPV0W8EKKV8UPBdUnimUqDICfH8uSwITExOHDx9eXV3t6el57ty5goKCbt26TZ06VWU1VcwcPjLFLgMF2Z6AstsAZI4CiQRa9FV325NgXMF4XQ+8L5uBCaLsnADfn8uSwLKysgcffNDX19fJySksLEyn0/Xq1au8vNzOyZg0n4/MZDY4oUoCEkfP2UFh1nxTw0rJ+M8uRoHG63rgKabZDgAJ7JEA35/LkkBS7b179y5ZsuSNN95IT0+3RxDybeYjk18OpFQJAeum+5i5jIeVxhL/hkoAACAASURBVPqn/meBptb1qN9ylfQoMMOOCPD9uQUSaEd1bqSpfGSNLByyq5OARPAkY0fxVgfJKYkE2sVYij+jaxdPMdXZi8AqFRLg+3NZEjh58uSVK1eK6/b222/Ds0AxEAjbNQGJqvn7Sz+xJBE2sV5a9HYYlVDir+tR/1NMlWAEM+yCgAISGBwc/P3334tr+8MPP4SEhIhjHCnMR+ZINYW60K8DSgZzxj85k4RiRTT1qhpVoYZRoKqaA4yxKQG+P5c1CtTr9fn5+WIr8/PzYV+gGAiE7ZSAqadixhJIYhxjktDUuh6OzNtp+4LZQEABCYyMjHz77bfFKN966627775bHONIYT4yR6op1IU/HjIWQoeZJDRe1yOZ7IW+AQQcgwDfn8saBa5Zs8bNzW327Nn7649Zs2a5u7t/8MEHjgHIuBZ8ZMbpIUb9BEzNVfKfihlLoGOMAkl7SZ6ANma7iPo7AFjYYgnw/bksCcQYr1q1KiQkRFN/3HbbbR9//LEDA+Ujc+CKO2rVJL5evLxT/ijQIScJTd0ZOGpPgHq1QAJ8fy5XAgm4X3/99erVqw4PkY/M4avvYBXk7wE39VTMePyn0WB4eYqD9Q2oTksgwPfnlklgS+AF3wt0pFY2tdpFPKQzfipmrH9OTkp+a96RCENdgIDKCVgvgd26dSspKcEYd+3atRvrUHnNrTaPj8zqYiFj0xPgz3PSB3uSmVJjCUQI08RNXwu4IhAAAlYT4Ptz3ihw7ty5165dwxjPNXFYbZPKM/KRqdx4ME9MgL/aRby8s6YGz5wp3REv1kJxYvElIAwEgICaCfD9OU8CSa1qamr2799PhoNqrqeCtvGRKXghKMrWBGSOAokZ/MQZGbY2FsoHAkBAeQJ8f25eAjHGer3+3Llzypum1hL5yNRqdTPbpc61hdev8wZ21683gMZfGiNeR9ogG/wAAkBAxQT4/lyWBN57770ZLekemI9MxW3dbKZJnqWpRy1WrOBJ4IoVfxKj+j1vHiY7xMVToCSsyM7xqiq8YgVOShL+rapqtvaCCwOBlkOA789lSeCePXu6du36+eefFxUVlYkOR4XIR+aotba6XvxdB1YXq0jGpCSeBCYlCReR6Le/P/bzY+cSryO1wrxp07CT018lOznhadOsKAayAIEWQ+C33/C33zaytnx/LksCyY54jUajvXWQcCMtU212PjLVmt0shsnZddAshpGLmh0FMvXbeAgojrFuaei0aX+Jn7g0UMFm7B5waTUSKCjA//0vHj8e33238Dfj6Ylv3GiMnXx/LksCyXvRjP9tjFlqzstHpmbLm942/hIS69SC1IJOTmZmYqs/v1BV1WDgJdYeJyd8/ToODWUrkzilJGzF0lC+GTAjart+q0gvsp15ULJAoK4O5+bi997Do0bhdu2kf5CRkfjixcaA4vtzWRLYmMvbY14+Mnuske1slr/rwCIbJJOTjXm4yBl+8fVbonz0pxW6bnYwahEcSCyTgIK9SOYVIZlcAleu4D178Pz5eNAgLPk+p5MTvu8+/OKLeOdO/Pvvcgs0nY7vz+VKYElJyZIlS8aOHTtu3LilS5cWFxebvqLdn+Ejs/vqKVoBvopYoRbMD/g1ZinKsGHS20oiZsOGYb5+U82jAaufBcp5JKlos0BhwiNejaZB0zemFwHQxhK4cQMfPSoM9caM+XOGk/5dIYRdXXFMDJ49G6enY6Xfwcn357IkcP/+/d7e3mFhYY/WH+3atfP29t6/f39joag1Px+ZWq1uHrtMbSSwWi2UfbjI3xSxe3cDFyn+kyRhsQ9tjANV7SjQUecJle1FzfOnZe9Xra7Gx47htWuFBdA9emB3d+kf2+234yeewCtX4sOHbbo8mu/PZUlgZGRkYmJiza0HMjU1NePHj4+MjLT3NjJlPx+ZqVwtNt74HZuNUQtlh5XPPiv9uxPr3KRJwrNAsc5R5QsLw9u2NXhS2JhvCfGfBV6/Lrx9bdMm4d9bf2RN0ZsceJ5Q2V7UFI3hANeoqMBHjuD338cTJuC//x3r9dK/PW9v3K+f8BKmzz/Hv/7aZDXm+3NZEujq6pqXlye2OC8vz9XVVRzjSGE+MkeqqVJ1kTjTxqgFf3LS0qUo/ftL/wzFEti//5/TZWIVFOu3goMkU48khw1rILSNeeppUWs69jyhsr3IIrAtJXFtLT53Tnhct2AB/uc/8V13Ya1W+sfm7Y0ffhi/8ALeuFFY8FJb2yxw+P5clgT26NFjx44dYut37Nhx//33i2McKcxH5kg1VbAuSqmFsvfv/FHgs88KABTUbz5P432Bw4ZJx6BiAeaX1pizDj9PqGwvagxqB8lbV4cvXxYe1L31ljDIe+ABYa+C+HaShP39cWwsfuUV4bsqP/3UXJonYc7357IkMCUlpV27dkuWLPmm/liyZEn79u1TUlKO3Tokl7T3n3xk9l47lduv7MPFq1cZf6f0L5c+d1dKv82yFb8dxtSWDKsfo5q9Ok3g8AqhbC+i3FpK4MYNfOYM/vRTvHgxTkgQ1md6eTH+kFxccNeuOD4eL1mCd+/GRUXC9gb1HXx/LksC6dZ4SUCr1TrkHnk+MvU1saNZpODDRTX7+ma0rSXMEyrYixztD0xcn9paYdddRgZ+911hxjIuDt95J9bpGILn5CScGj4cv/YaTknBJ0/i6mpxSaoN8/25LAm8YO5QbeWtM4yPzLoyIZdFBJSanNywgfG3TEeB69c3zzoUgqK5dKimRnhDKYVgHLBuK4tF7ds0iZXqRU1jrc2vUlmJT58WhmurVuGXXsKPPoqjooTdCMY9gOxS6NoVjxwpbN3btk0QPLt9gwPfn8uSQJu3jcouwEemMmMd1hxFJif5vt7H568//5AQPG9eky7LbJZRoEQVJN6vCeZgm7i/KtKLmtjmxl7uxg184QLOysLr1wtrVZ56CvfujcPCpI+dads7O+OOHfHgwfi55/A77+CvvhKyN+XS5MZW2Ex+vj8HCWTg4yNjZIAotRLgjwKpE5AEmmZZZtM/rzJeBSqueNOsxLFRT2mJUldWhk+cwF9+iT/4AM+YgUePxj17Ci8YE7+LXdzACGEPD9y5Mx42TFC7t97CaWk4P7+Rb+C0UYMqWCzfn9tWArOysuLi4oKCghBC4jWldXV1c+bMCQoKcnV17d2794kTJ2iFKysrk5KS/P393d3dhwwZcunSJXqqpKRk9OjR3vXH6NGjr1y5Qk8VFBTExcW5u7v7+/tPnjy5SjRmz8nJ6dWrl6ura3Bw8Lx5825emuYyFeAjM5UL4lVIgD/SkvgH+rPJxKApn1eZWgVKa92YrSzN2/SSoW3T3ME0RZXr6nBxMc7JEWYvP/wQz52Lx43D/fvjTp3Y61NoW+p0+I47cJ8+whBwwQJhT0J2Nv7f/9S5XMXWJPn+3LYSmJaWNmPGjNTUVIkELl682MvLKzU19fjx448//nhQUNAff/xBQEycODEkJCQ9Pd1gMMTExHTp0oVuyR84cGBUVNTB+iMqKiouLo5kqampiYqKiomJMRgM6enpwcHBSeQrOBiXlZUFBgaOGDHi+PHjqampXl5eS5cuNUucj8xsdkigHgJm/T51GpJAk00JSty37XSIfzewYoW9Tn0ZD22b7A5GmX5+9arwiG7/frx5M162TFiTMmKEMJ67/XaTD+poZ23VShjVDRqEJ00SVm9u3owPHsSFhSrZjaAMn0aXwvfntpVAarxYAuvq6tq2bbt48WJytrKy0sfH57333sMYl5aW6nS6lJQUcqqwsFCr1e7evRtjnJubixA6dOgQOZWdnY0QIhv209LStFptYWEhObV582a9Xl9WVoYxXrVqlY+PT2VlJTmVnJwcHBxsdiDIR0aKgn/thYCxi6QOxGygaRaGNM0kXnOtvrFpPzF1i9NkdzDma1dbi3/7DR8/LjxjW78e//vf+PnnBZHr1QtHRLB310n6pb+/oHMDB+LERGFxytq1wv68U6cUf5em+brYZwq+P5crgVeuXFm9evX06dPJC7J/+OGHy5cvywcilsCzZ88ihAwGA80+dOjQJ598EmO8d+9ehFBJSQk9FR0dPXv2bIzxmjVrfHx8aDzG2MfHZ+3atRjjWbNmRUdH01MlJSUIoX379mGM4+Pjhw4dSk8ZDAaE0Llz52gMDVRWVtKPAV+6dAkhRESUJoCA/RJITcUhIX+tfGnd+q+wxNtIflr6Mho1I+KPAptG7BXn0/yVqqvDZWXCLrqvvxb2g7/9tvBYbtw4YXXJPfcI3c7Z2Xxv8/QU5LBXL/z448IocNkyYdfBN9/gs2dxRYXi0FpagQpI4LFjxwICAjp06ODs7Hz27FmM8cyZM+Pj4+WjFEvggQMHEEJ00IYxTkxM7N+/P8Z448aNLi4u4mJjY2PHjx+PMV64cGFERIT4VERExKJFi0j22NhY8SkXF5dN9d4rNjY2MTGRniosLEQIHTx4kMbQwJw5c1DDAySQwrH3gGSyMSRE+DyL+KVoEuWjP+1UGJjtxX9PqejpOTO3SiObYmh77ZrwJrCDB/H27cLmuTlz8MSJwva4Bx7At92G3dzMKxxCuHVrYQdCbKywaGXaNLx8uTBpuX+/oJ30BQ0qZWz3ZikggX379p1W/3FrT09PIoEHDhwIDw+Xz8ZYAouKimj2p59+esCAAUwJ7Nev34QJE4gEduzYkWbBGHfo0CE5OVmsoPSsTqfbvHkzxpgqKDl1+fJlhFB2djZNSQMwCqQoHCxgPBFKxY8GqObRgIpm0hRqj+YfMClUEXExClTqxg3h4dkPP+Bdu/CaNXjhQjx5svDSy549hZEZ860otJfQgKcn7tABP/QQfuwx/OyzwnTl6tXCy6CPHBHeK2YnW8jFYB0prIAEent7//TTTxhjKoEXLlzQ6/XyMYklUJ0ToeK68JGJU7a0cNM8tVKQKudZkb9/g/dTU2+GkDBA1GiEd4c60tEUA6Ym50Xa1/hWpsEdTEWFMKP47bfCFu+33sKvvip8sm7AANylC27TRs5swA2d6/W27eu63y9sJ5gwQfis3apVQv84cEAouby8yesNF7SAAN+fy3oW2KZNG/Lojkrgnj17QkND5VshlkCyHOaNN94g2auqqiTLYbZs2UJOFRUVSZbDHD58mJw6dOiQZDkMHVampKSIl8P4+vrSPRKLFy+G5TDyW02SUjKdaBdLz/mjhIyMP98OM29eAzm03bJMCdKm/MlHYb9TvqmpWItq26Kf70FHhqKdE9Gq19GMteipX7oOEOYe/fzMT1Q6OeGgINytm7C0cuxY4QVgb72Ft27dv+DrnoGnvVAZQnUICT3Ewe6KmrL7NeO1FJDAxMTE4cOHV1dXe3p6njt3rqCgoFu3blOnTjVbq6tXrx6tPxBCy5cvP3r0aEFBAcZ48eLFPj4+27dvP378+MiRIyWbIkJDQzMyMgwGQ58+fSSbIqKjo7Prj86dO0s2RfTt29dgMGRkZISGhtJNEaWlpYGBgSNHjjx+/Pj27du9vb1hU4TZVmMmYE4nKj5UUnyUKX/oo/ilmRibMVLWgKkZ7TN76dpaYcby0CH8ySfCG95efFFYPPLggzg8vNbJ3JITV1fhuV2PHsJEZVKSMNu5dq2wqfzHH/EvvzC3gzRNhzdbaUjQeAIKSGBZWdmDDz7o6+vr5OQUFham0+l69epVLmP4n5mZ2XCJCUpISMAYk63xbdu21ev1vXr1On78OK1nRUVFUlKSn5+fm5tbXFzcxYsX6ani4uJRo0Z51R+jRo2SbI0fPHiwm5ubn59fUlIS3QWBMc7JyenZs6der2/btu3cuXPN7ojA9bsJYUUoxX5z9RNnOjEsjOlAxLnlhm0xymzk0MfBdJG4dfG0oRqnfCsqcF6esIXgww/xrFnClwoefljYJMd8d/Ot+es6rbaydfBvd9z360PDayc9I4jcunV4zx7h/SklJZZuCW+aDi/3DwPSNY6AAhJIDNi7d++SJUveeOON9PT0xpmk9tx8ZGq33gb2mRWSxkuFIjfdxmZYN/Qh5Tz3nLCO75aPdZB5MMl9RnNO+dbU4IICYVXkunWC1I0eLQzpgoL+Ik7R04BWK7zrskcP/K9/CZsHli8X9iFkZ+NLl5R9y5fZDm+DPzIo0lYE+P5c1rNAiWni4ZfklGP85CNzjDpaVAv+dOJzzzV4kGbFIxNFbrolzp2akZrKdqqmnutIyqHuV40DJota8VZi4xuFW2ds9v8bN4R3UX75pfCMbcoU4ZFbRARnVFfn4SG8A2zgQGHtycKFeMMGYdddQYGyOsepLb/DO9JuUQ4EhznF9+eyJHDx4sX0jS3//Oc/tVptcHDwjz/+6DCMJBXhI5Mkbgk/+TfFVCRIwAqp4JcvZ6UGZxBpkQQalyOuXYN1hi2h4a2oY10d/vlnvG+fsGZyyhT8yCPCbgFT28OdnYWzsbHnYscv8k7+F0r5Ozrsj34LDakzdYNihUVWZGl8h7TiopDFRgT4/lyWBN52220HDhzAGH/11Ve+vr579uwZN26cZDe6jaxvlmL5yJrFpOa9aE1Ng7eriFWBGbZUKhp5080ZRIaGCrvgmUb6+0ufYpoqR5JdjiQ3b3s13dVraoT3W+7cKbygcswY3L07Fn+ASgzO1VVYnzl8uLAx/P33BY0sKCANYHzbYcVdlLJVtm7+XFkboDSlCPD9uSwJdHV1JctSpkyZQt7Vcvr0aV9fX6VMVFs5fGRqs7Zp7Jk3jy0kYi8nCcuXikbedPOzS6wS/8zIaABPZjktdx6srk546paWJrzoMj5e2EWg1zO6hVYrfKZg8GBh0SZRu0uXTL242dRth6V3UQ0aUokfRJjVvnRIiZo6fBl8fy5LAoOCgsgosGPHjlu3bsUY5+XleXl5OSo7PjJHrbW4XsaPi/gDNbGu0LB8qWjkTbcVthEjX3tNXGnhe7nUeE5AIpwNimjCH8ZtpPzFr1/Hhw/j994TXgn20EPY15cByM1N0MInnhBeibJ1q/A+aEtea8m/7ZB/F6V83bGwCzA09K8aN+fSIVtUr8WUyffnsiTw2WefDQ8P79evn7+//9X6N9qlpKR069bNURnykTlqrWm9JH/5ZF0J31UxBcMi/9WYm24rbCMGS15zK7McutCGEpMZUFC0mG0k0wxesitXhCnKZcuE9ZmRkYyPrzo5CQtVHn9c+Ardjh34p59MDe94VxGd4992yL+LEhWpZFDBJlPSLCjLEgJ8fy5LAqurq5csWTJlyhT6eYcVK1asXr3aEjPsKS0fmT3VxHJbTT2Y2bpVuCMWzwsxZY9EWjeLtW0bDgiw5qabM4jkv+JRMgo0VY6kptY9qVJQtEy1kXgJiVzfffUqzsrCS5bgf/xD2DwuqSpCwivEBgzAr7wifHb12DF867tjlvcsdg7+bYdFd1HsC0BsiyfA9+eyJLClMeQjc2Aa/Acz27b9+fJM6iepItKA1S/YlChE69bCpJr8w9Qgcs4chlen9htPaRqXQxNLAqGh0tU0HGvliBYnu/gUv41qaoS0EpgNhq03bgivRPngA/z008JX6LRaKaD27fGjjwqzmp9/LryNpa5OfHXFw6ZuO6y7i1LcPCjQAQjw/bksCfzYxOEAdJhV4CNjZnGMSLO35BLfSp6OMCMtAqKIQjDNqKmxYEUosVlSjkT5xD/nzZNVSzmiJaug+kRy2kh8R4IQ9kGlA9GXp/7vNeGLdO7uUs0LCcH/93/Cks6MDFxcLN8SpVIa33ZYN85Wyh4ox8EI8P25LAn0FR0eHh4ajUav17dq1crBSNHq8JHRZI4XkPNghjnDxoyUyUdBhWCaYdG+QGIzLWfmTKleiCUQIVnvTTYrWjJBkWT8Ntqw4c8VHCHo0uNo89vo2aOoSy3SNKiGlxfu0wdPny48zLPkw9cW2WlRYsltByw8sYgeJOYT4PtzWRIoucCZM2f69u27e/duSbzD/OQjc5hqGldEvrOmIpGZacF8oPEVMRa+1SDRFfFPRZ4Gpabi4OC/rhISwpYu40rxbUNIeF0XmXtkVo1E8kXL0hUfHJPC0fk9I9asR6PPo/C/altPMx/dsQ4l5L20Gp88KV7AYlxlTkVseko9lti0mlB40xPg+3NrJBBjfOTIkTvvvLPpK9M0V+QjaxobmuUqMh/MSO7ZGzxqstxuZRWCef3U1AZb+5kSyKxUVVWDFTpibaZhsyLNES2EhDsAiw5JG7VFRSPRxtVo3FnUYDFLDdIeQfesQFMfQ9vaoiJirURumVW2yBhIDATUT4Dvz62UQIPBAPsC1d/2Vlho9sGMIs/txIYpqxDikklYzkQos1IImXyOSPUPIWE3If+QiBbNa/WKj0/Xlz6Ktr+Nkk6gTuLRXq2Tc2lkjwVoRl+U7on+oBeiAbHcMqus+Nev+GTgLBBoAgIKSOCnomPnzp3vvvtuZGTkwIEDm8D6ZrkEH1mzmNSUF5UMDsQPZhR8bkdrZJ1CyJw3k7McxlSlqHLwA2JdoZWSBMzeWEjSM37W1WGDAS9ahHv2FG/Xq0Wa79Hf3vV66dsZafiPP2TCNFVlq1WZYTBEAQF1EOD7c1mjQI3o0Gq15CO09Cvt6qimklbwkSl5JbWWZUpgbDRis1QhJCLNmYnNyBAPk6RhsimCXymO/lkkGBKbxTcWvF5QXIxTUoTXb7Zt28D6O++sfTbp+Pztn3xQLHkcKwcmv8pyRJ1nM5wDAmoiwPfnsiRQTdVpClv4yJrCArVew6LndqZ0lFk5+QohZ2KTXoK/pHPmTCEhv1KmJNCKhftygdTV4dxcYcDXo0eDfXseHnjoUPzuu/j8eVpBZsAsTH6VzU7tMi8KkUBAnQT4/twyCayrP9RZTwWt4iNT8EJNVpRc52vOIPmjB4kX5gzU6DXlGClnYpMWePN793Ik0Io3gJO1oOK3sYgvamW4pgYfOCB8SCEiosGALzISv/SSsGnPkjez8GHKb0cr6wLZgIBqCPD9uVwJ/Pjjj6OiovT1R+fOndevX6+aCipvCB+Z8tezcYlWqJEpi2Q+arLdUgs5E5ti482mN/VUzNTgDyHh9ZmSuUfxFS0OV1TgL74Q3tUSGPiX8rm4CF/ae+894YtC5g6+2jFzy2xHZl6IBAL2RYDvz2VJ4LJly9zd3V9++eVPP/10586d06ZNc3d3X758uX2BkG8tH5n8ctSQUnE1MvuoyZSoWPTkzBQ6OaM6cV6zo0b+eIgphBs2iK9gbfj6dWFz4r/+hT08/lI+Hx/hkwtbt+I//pBZrtX3N2bbUaYBkAwIqJwA35/LksD27dt//PHH4np+9NFH7du3F8c4UpiPzI5qaiM1krhdycoOvqg0cqmFpRJIXpjJVDIyjcl/KsbMOHeuMArctEmYm8zIEAIWDAqrqoR3b44ejT09/1K+kBD87LM4PR1XVRn3Ls4gr5H3N/x2NLYEYoCAPRLg+3NZEqjX6/Pz88WVP3PmjF6vF8c4UpiPzI5qajs14vhlvqg0cqmF2YlNZutItsaLH0zyETElUPIGTpJGXCbDhhs38J49eOzYBp/ca9dOeMj33XecV1FLVEp8FUXubzjtyKgFRAEBOyTA9+eyJDAyMnLhwoXiui9YsCAqKkoc40hhPjI7qqlN1cgUB76oNHIUaHZi05RVpny9KSFhih8nkr1AtK4OZ2fjSZMavGMmKAhPmYIPHhS/qIxpNn+QZ1POTHsgEgjYIwG+P5clgZ988omTk9OAAQPmz5+/YMGCAQMGODs7b9++3R5xyLGZj0xOCSpJY52XNKUWMitFRMV4qKTIs0CzE5syjaTJamqwdStCmXIYEHBrLvPSpdrXF10Lu/Ov2c7WrYVvr+/fb/6lovXGmdJmirFZ7m8oNwgAAZkEGulPZF6Fk4zvz2VJIMb4+++/HzVq1N/+9rdu3bqNGjWKfjuXc2H7PcVHZkf1skKNODNv8itu66UWnIlN+UYaf1ePqWoWRbqhaxO9NvwS3a/u1i3ANeS2Ho1+ovWe7VtvWGSb2dsXswksuhwkBgK2IKCIP2mkYXx/LlcCG2mEfWXnI7OvulikRvyZN4sqLun6kiUzN3fsNfLesKoKr1iBk5KEf1mLSMwba1xZi9SuYeK6h9DXH6KxZciLDvv2o15j0Fryrk72NCnXRrODPCvub7gXdNiTjexpDsvF9hUz/hOz4g+h8Wby/bkZCSzjHo03Tp0l8JGp02aOVWbViOQ1O/PGuQTzFMf1SEwSr/JgFiWJbGR2IsChoVStrA/4opIp6M1cdBct4uYXG+agObehsw01EtMJTEldTP2UM8iz6P7G1IUcO77xXcWx+diudor7E6tN5ftzMxKo0Wi0rIPEW22TyjPykanceKZ5HDWi6eX4XJq4MQHje0OEBIUwftkK02zj7MxbS2Zeaja/shL1Yv2s646y16GE68iViN9V5LEGPdUTZWlQLSv9nxIpfzWQzEGexMUbj7ZplVtgQGZXaYFkmqDK/D8x+X8IjTeV78/NSOD+W0dmZqabm9vGjRtvRQj/b7xx6iyBj0ydNjfeKrMzb42/BH/4Jfn8rMS5k5GizFtL47xbt/65mY/s4eNXlqNhnuiPiejdo6gLHfYdQ50nolVeqIyTi56yaE+IzEEeX+wVaTV7LERmV7HHqtmFzfw/MYv+EBpZX74/NyOB4mt7enqePXtWHOOoYT4yR621re/aiKfm721fseLPneZbtwrjQqocZJio0eA5cxpEihPQz8+aeo82TRwaas0q0Eh0/D00vsrlz5e5VCD9R+jJ+9FBhOpoyWYDlt78SrQcBnny//ps3Z/lW9IyU6qHP9+fgwQy+icfGSODQ0TJnHmzrq4SV25WKpyc2FIn0UVJOZs2Cats/P3ZeWliUoi/v1RlaQJxQINqH0G7vkL9aKF1d96Z/+yKTz4o3rMHt25No80HJMNcmSRhkCcTlCSZvB29FQAAIABJREFUekYhEsNayE+b+hOLGPL9OUggAyYfGSODo0TJnHmztLrGj2TEGqNgODNT7vBOoxGUkjxENGWAOyqfiFadQn/u7atB2sv3PyZMp9bVUQLGxEyVhhDjYSctBwKKE1DPKETxqtlLgcZ/HczH9rauDt+fWyaB586ds7W5aiifj0wNFtrOBslwrfEzb6YeyXCkwopTZL1lVRX28zM/GqPlz5uHmetCg9HlRWh6MWpFyipF3svQC3PHnGe+C1RCjBYuDjg5Ce++hqMpCahnFNKUtVbbtSR/HY33J1ZUkO/PzUjgo6LD2dm5//+39y3wVRbXvisJeRrYNSEckmxBLEH7awjWR6teKydCgHMJaK23HE5SoAqIsKlpveCDR0wtIZxrS71VL8ffAR8NJMAN9Bw9HGo2D4+1gHq3nIaLWKAUIukVJTxUSGBnz2VnwmQy33xrz34keydZ++cP55uZNbPmP1/W/1vznDBBivheCNr0ChEcsl7RhHCUjOzIG/4xLvNEOGG+oDTYuvhR13K9N4NnPUy/BAM4+R2BGxbC83xvH8+m3b8hEOMHzVhHazdvDqdDSDZEBGLECwlR+74iJv46tF+QPdBK3J4HoMBZ6C9k7S9fvrxkyZLrr78+JSVlxIgRFRUVbW1tvDSfz1deXp6dnZ2SkjJ27NgDBw6IWlpaWlwuV2ZmZlpa2pQpUxobG0VSc3NzaWnpoPZfaWnpmTNnRNLx48eLi4vT0tIyMzMXLlzYarCPGodMlEwBEwTwKRmZfkIOZ2R0jDEGWxe/8IHXezf8xzaYJFzIXTD2PtgaD15Fq4AjObHw2WvSL7GWJ/yzDrQtou7QwtKvInF7HoACuwmpn//855mZmW+++eaxY8c2b96cnp7+q1/9itdVVVU1cODAurq6hoaGadOmZWdnn796d9q8efNyc3Pr6+s9Hk9hYeGYMWO8Xi+XmjRpUn5+/h/af/n5+cXFxTze6/Xm5+cXFhZ6PJ76+vqcnByXyxWwUThkAcX7eQbloy9Yz0yhHJPHwYM7KNC8LrFRfddO30T49/+Auzn5eSG+Gv7hW/B/eL1Wf46vTcUXtigI9PP3waT5ixYxeQFUQgJbtMhEzigPdYcRTH03E27Po0OBkydPfuihhwTmDzzwQGlpKWPM5/MNHTq0qqqKJ7W0tDgcjjVr1jDGzp49m5iYWFtby5NOnjwZHx+/fft2xtjBgwcBYO/evTxpz549AHDo0CHG2LZt2+Lj40+ePMmTampqkpOTz507xx/t/sUhs5PqA/HhGwvlo9vpZJs3++fbtFwi6E02fyJSCcTHCw9NDQjPzG76RymKP1aUt3k3bvZ961u8uBZI+l/wyA1wRJvZGslHdbgfGa0Rnj7wyjHmZzsrvACRZMG+ARS1IjQEcHseHQpcuXLl8OHDP/74Y8bY/v37hwwZsqF9q+TRo0cBQD6De+rUqTNmzGCM7dixAwCam5sFCgUFBcuXL2eMrV271uFwiHjGmMPhWLduHWNs2bJlBQUFIqm5uRkAdu7cKWK0ARwyrUi0IsMnLaG5lb2sx7WIzNqAdeUnJyc7G8cNX1YWq60NsDgToMsVs1aLKbw66/QPzyzvlBgAl2bAq+JUsy8h7Tn4aQ58Yi0WiSkr67KURjtHqEUpqMgI9m9Q9fZY5tbWLv6fDHhCQoinv/aY8lRRr0AAt+fRoUCfz/fkk0/GxcUNGDAgLi6usrKSQ/nuu+8CgHDaGGNz5syZMGECY2z9+vVJSUky4kVFRXPnzmWMrVixIi8vT07Ky8vjZc6ZM6eoqEhOSkpK4nQrRzLGWlpaxHmojY2NABDQWVRK6PlHE9IytKF27GXOgnYrPzk5BdzSrrRFNoXmYb7xXCmKL0LjlyIlwOUZ8OqVYzy539EMX3sGlmfCZ+ZV2OUUnmgEXwOlId3EshFUOISiVq/Wu4Ac59WrQyiSRAiBLgjEIgXW1NQ4nc6ampo//vGPr7/+ekZGxquvvsoY4xTY1NQkWjB79uyJEydqKXD8+PGPPPIIp8BRo0YJEcbYyJEjV65cKTOoSE1MTKypqRGPIlBeXg5dfzFOgSakZWhDcfa6Ot8qoNIH8Hk4/FAYflqS18vwbHb0I+LFqUtW4vdeapufUSM2+f0/GLIIVhmeaibKFwHtqKzwRPUABRlr0r9BFhmL2V0ujAINJu5jsVGkU0whEIsU6HQ6X3jhBQHTs88+e+ONNzLGojgQ2ru8QBPSMrehOHsZnumFr8bEuU1UgWsiGMguIMoRr5Y/4POxrVu/uGE0t7WfQeZ/h39Mha/sCgkzXq9DF4UCP5j0b+BSekMO8gJ7Qy/1bh1jkQIzMjJeeuklgWtlZSUfyeTLYVatWsWTWltbleUwGzdu5ElNTU3Kcph9+/bxpL179yrLYYRbWVtb2zeWw+BUwVdnaDd9az0VnL2EayX6SxvAVXK79YtiFH246cfXzmgpSimnQ0Ofj23fzm67jZPfWRi0FH4WsuenrdcaaQiXFkMRiYMZEZYVdUU3QHOB0cW/P9QeixQ4c+bM3Nxcviliy5YtgwcPXrx4Me+Mqqoqh8OxZcuWhoaG6dOnK5sinE6n2+32eDz33nuvsimioKBgT/tv9OjRyqaIcePGeTwet9vtdDr7xqaIgKQVlA0NKrPd34wdewly4l6pTG/a+TO7bMiRntpy2Ntvs7s7tjqwa67ZN/7pa+G0lbEiHhMRfgrYv3a90Bvj7VZLRXBfRG+EhXSOFAKxSIHnz59/7LHHhg0blpKScsMNNyxZskTsWOdb44cOHZqcnHzPPfc0NDQIIC5evOhyuTIyMlJTU4uLi0+cOCGSTp8+XVJSMrD9V1JSomyNnzx5cmpqakZGhsvlamlpEVJ2ARwyO6mejA9IWkHZ0IDsZdg0O/YSa2qUuUm705K02ayFC/ZSy/noIzZlSscUU3Iy++lP2aefVldjc06iqHACguwN4dJm47OYhuPG2hJ6Y2S37gvsjYCQzhFEALfn0VkRGsHmdUdROGTdUWOwZQYkrYAcqdRoJRi9a6WIWR617CUvTmlt7XJvn6WAjghZRKzHUQrPymJlZf7SRAZ26hSbP79jlX1CAps3j33yCS8RByQc5hOy2lt/7RqojVcaKEoWgYiwrLbqqEd20+kwUW8XKRB1BHB7ThSo6SAcMo1ANKJw0grIkVaVFft73XX+k50Nt37LjKWQnFJsaCv7RfluN3O7/XcKikAHBV64wFauZAMHdvh6U6ey9rMRRDO9Xpab242OYFZWuBdB8A4VbGcNIB8lAp9du/x76Qx7TYATkYCsQ+dHia5o85w6aYojBIJDALfnRIEaNHHINAJRilLYRRkPxDlSq7Jsm/ipLsIQI9SlqCFy8q14ogQeQOy4ViXG/NQiL+1xOv3nhoiYOGhzZVR/NXhYB7/dcoufASy/ujrsHkF5hlJR2OQxK6tjE7cAUGVoiz5KBP9kwetS+leUoOAjH7Uj+kJk7qaAogNSr3nOblKViu1vCOD2nChQ8z7gkGkEohclbG6X8cCr+oQ8xWL1SOyoyy7nokW2XldQo3nW8mWe+C68/R50LPj8avB17De/YVfPW7+Kgf//eCEA7LrrTC8alGvnYTH+qRh3kRPhA6EkPk67dGnX8V4hFqhpdr0mFRCBoBVeu3rNc0ZALSqCEGhHALfnRIGa1wSHTCMQk1FWc8OPeOaLUxDutPNIrNRll1NYfySgc9VUHJHyc+CTGpjGPb9zMPApqByZe0E7/oYUMngwq67uYBeeLVh3UHhmWrQFRwqaVFt49RlfvuRy6SkQaZpA3tprV+uMzP/tdLDWa54zMppRKYRAOwK4PScK1LwmOGQagViK4txWXc2ysjRTX9ww4YOcuEciUxeeU1hhbcBk/5y2/ERoXQSrvoBrGIAX4l+CeVnwKa9C1k30ibYQoZIsgtCYyM8DykocO+MupKx8INTjAVxJXo7VmzSR4rJyM5Wqw3zEdZDrNc8ZpkqyOPKpJ2ejcB9GALfnRIGarsch0wjETJTdWJywxdqAMmyFeyQydeE5tXWJSNk42uFnLf9ecIvjrX8Pd42BD0WBAP5lMtaftRBEpK4uwL3zWocMN+6iOqTJnERxH1TpJsb87RWF4wEtMlasQojBdZDrNc8ZghpaEeXPwfoNoZWiyD6GAG7PiQI13Y1DphGIjShzJ8ZqLmU3BTfosh3Hc1pr4TFyXThycvm50LgR/hs3+Z9C1gx4NQ7alCrcbv+A4YYNXYYN5UKU/AD+nMrP7cZ4xZrfnIpkPlAqFROWAVlQvqoQb5rcWK3aVh1CiMF1kOs1zxmCGlYR65+D9RvCKkUxfQ8B3J4TBWp6HIdMIxADUQHH4mSDaBfmBsvOI7FSl11Ou/J5PJ8YMxmh4uUnQetiqBIjn8/DQgecUaqIi/Mv+JS3PYhPfjslrc3h3Rhsfsb8PKroo32U+YAx/3ZGhbAVr0VbiEzbdqrKgnbNjNQ7a6eDtV7znEI3K0QiCQ/wumQceNiqFV4OpfYBBHB7ThSo6WIcMo1ADEQZWmGrUZBjhJvCv6Blj8TuC9qaUy7QGubMpNh6QVdWIN+u2CWud3gH/osy8snLl/UUNcoKW5WUU62VBpvfzrjLysjem3anh7xMCb8/YenSTk/XqqqolK9+CrgSx9r8YGOsOtjBa54TgchEPfzPQfkWMSmQ8vReBHB7ThSo6VkcMo1ADEThEy0IVcgWUzYNCkuJpY/WtlpzPv643iuqqPC7PtwOyvXqLeaZM2z2bF7QqfghP4TXAHx8A4O8LxDAv0dQvhFXlCx/8luVFMe2WVtktb9I87m41bjLaig8ZEWAZ+b4mLuV2u8JeV9gQLW1bQ8h0hxew5xWiPQviY2u+J+D+NSzkaboPoUAbs+JAjWdjUOmEYiBKPyzl1tYfuCL0+m/ol0YaB6Q2UK0xnwYSs6pLDcVVQsvR+xql3VQFdiyhWVnd2g5b5738zPKmKFcIz57JyYIQ9iurlQqkNEGFOMuWqfwkN0YHc+fm+v/RAjoVvLMghVkNPrA6TB2EKkvibYb2iPxPwf5U8++DErpIwjg9pwoUNPNOGQagRiIQoxmVlbn7jftsgthSc3b4fX6jyhbupQ9/TR77rnO8q0f79xYl5d3HNyFHwC9ejXb8mLTqe8+0EF+o0b5L3wI9MM/+a+9tpPvtSOuMn9odxYGqr8zXRSF0C1uncXeTcStFOTKMytDrJ3a9NoQDpEJgdn9OZiTaK8FjxRXEcDtOVGgihdjDIdMIxAbUXaXzlhH/EI+NYY31O6wsdxcbEeB9qZ12ZoD+B6Cf26GrzGASzDgoweeZhcvmkCLW0y5CivZK66bliNNdDDPgxO2zGqKbnJDlLAJK5hrGPWcOESGw5jWbwhr70e9paRADyCA23OiQE0X4JBpBGIgqq6u09dR7KNCgVpHTZmsQhqEVKTUG9Tj1+HwDijkbXgfbh0D+81Vsvvk1yog+wFWKMytpHD4tEfTIQAaEjZnNVEL7j0bsgKiVUwl4RCZ873yDaGMSMdUk0mZ7kMAt+dEgRrkccg0AtGOsps74RzgdHZeJ2SXUyYGpDXdcd9CHLT9BH5xAVIYwFeQ+lN4LgEuy84Qoo9IspKZlv9EJOcto1lJUYcUUGxrbq7/iFFlP6KUvUvQkLAVVosUK3RRJVYf7CAyfEvlZolviGC/VORCKNyrEcDtOVGgpnNxyDQC0Y7C7aO8kwzPGfD7GhcXBGMeGA7HdsFY7vzVw7gb4IgiG1AlgX1dHRs82NYVVorldKVEyo9IvTjdmgyl4iVwNRQFIsgKArFYDnCI5HVb5g56LLeLdOt5BHB7ThSo6REcMo1AtKPwuRP55DA8p+J5WJuFi8sUYhD2zYJ158B/w98XcM1cWMP3PCiCAVWSlTS/Gp4v9VTqkh/t6rVzo4WsoaVW/Eghjri/PcAKPeAzmVehQETDmPKrTmFzBHB7ThSoQRKHTCMQ7aiAzplwKfCcIptdg3Bx2Y7j4Sz4dCvcx122d+C/WJ0/IR5QJVlVE/XEYBqe2a5eXIqrLaqQdbOGQ7hPsVtZQSncxJ21NgqPCbYKc77E66XU/owAbs+JAjXvBg6ZRiDaUbhrYp0LlMeXhNV2OjsuZEdmTSIyFzgVfvsp+K+xaIXExVAVD15BeEpA2c6hPVRMxt5utFApdvNmv5BdZpzAzP1gOxKVFQ5hD343sYJ1bNbEnQ1KmdCqUOCiR0IgWARwe04UqMETh0wjEANRyEJN7YpQmQV5WD5g5cr2ebv1HUhFCtNYHwfCuXUwizt//wmjR8N/WvNoY7hHYuJDWEcLrQUK/8aaOaDdN/ECeY12Q6nWlyUoIrGKhx9j9wmFfw2YdIfQLbQqhDgFCIGQEcDtOVGgBlgcMo1AbERZt+tlZvqPGrH+FOMlkx9CGKKcTZuYwSY/dWXK38btPgbDGUAbxK2EJ5KgRalLPtlLSZIJWyQpdCWIpKLCf2SayGZtnSyoQBFwwsnOdxTViYChFyhQjWIA53VtQ4J16UKoIoqAUNV9CQHcnhMFavoah0wjEDNR4tCWpUv9o5rIWSeCMNzuLoQhLLgS4MdXCqny8k6OUXLKj5wpr2xyeAaWt4H/WLYvskase+gdOQ9fABIXxzZv9t+cYHfZryLCH4WbojCZ2KXgdne5PkIUIgQDDq5a+9bqO4piFa2ssrEZg4/uWt3ZEFy6YKuITaBIq96IAG7PiQI1fYpDphHo/ijBPchEXWha4AdsysY9I0N/GrWcxxrOhcbdcA8nzLXw0L9Un8cnwHB3wVr+FQatqFBPPRV+Hl6a1r8xgVFhXFkrUbVJOTGSJ1iUgs0f8ODvkDsiRgAkNWIZAdyeEwVq+g6HTCPQzVGKwRVTWeFXW1fH5CM0ZVMekfBkeOMzyGQA52Dg38MG3PfiNI/fE6TVKiND45LyuvBtElb/xhxS8VGijLsGHEo1r6LHctqN7sr9JSuDu3TyXU5CKtgqhCAFCIEwEcDtOVGgBl4cMo1Ad0YFO+lirks4C1u0VCRHJkLrL+AnnJreh1u/DodFqvaTX6F5kTnMwOrVGnYUZWo1MQdQ5BR0GHEfXVTR3QHr6C7izuJeoIBX+VYLqorubi+V338QwO05UaDmTcAh0wh0W1QIky6KLnbW2etl6ekYPQhDFkLgBjjyPtzKS/8llCkrX6y+l5XmzSvVuoBCvLraP9NpXU1j598o6MXyo13Phqyz8hWCuLN2Lp2AnQesJGpeRcitIEFCQEEAt+dEgQpc/kccMo1At0Xhn9sBnRjF4shf5b/7XXfx3zSo4We+fA4ZxfCvilmUT2vjsNnRvFVQGzOrY5OFvjm7dnXc0CuzoNU0d1sHdlfBSM+GU6U5rVpdOm3vWD81zKsIpyEkSwgIBHB7ThQogOoM4JB15uv+ED7pYnWnZI2srpVs+ktL9ZyhNWSGkSlw4Z9gDi/3P+BuJ5ywCmZmdlmnesUZfe65sDQx8fMUwkD8GxnAmA3jPdtjaiuoWvtaxAT8VusxnamifogAbs+JAjWvBA6ZRqDbokL2Au1cK/FVfl/H8WRh0Y+wcQBsGPzlA7iFAfji4v5csjTrWv9tD9b/ZAq0bmS05r//fk0hcjZDP6/POB8Be7bbXkZNwQLVfnWXkwYIiophBHB7ThSo6TocMo1At0XZTboIJrOrOSB3PvpoAGqRaSZgeDy8xVd++i9rqK8PWDvfFxGwWAD/7sbcXFtVxdlvikcSjp8nzHpsrm0xwdburei++NjUqvvaSyX3IgRwe04UqOlKHDKNQHdGWSdd5PFMu5oDjqC+/rotr5gwk5TH9wSs9EK83/+77TZ2/LjXywL6BHaujFSsfw3Lddf5R02Rlavy2TcRoS6FSuXZUzuoezg+YM/2sD68upC/1aKiLVXarxDA7TlRoOZlwCHTCIQXFdB2K3bZxMXBv8rdbvajH0WAAgfCuTr4Hi/o2LiH2cWLmzYFvrRv1y7/KTAy29mFBcNZh0ztzn4LuStaW5l1ZY3J10bINVoFA74JsbzHPLRvNSsIFEMIRBYB3J4TBWrQxiHTCIQRpdCbnduhNY7aSK4L8lWemclycowYyI6ZePxNcPAjuJEBtEBS2TUve71s0aLAxfKhS9yV4eVXVHSB1fzsty5iZg+LFjG7E0rj4vzbKtxu00vhzSrU5DJ/E2J2m4fSBJNvNQ0QFEUIRBQB3J4TBWrAxiHTCIQaFc7SPsXcWLlT+1WOs5p56gPwv8+Df1/hCXDeDvsAmOGpoZzYTLxAfL1rqJBr5EyYWyBjxVlTYvBRQb0J2p6Ni9MfiR68LmFJIJ9lYZVLwoRAqAjg9jxqFPjJJ5+UlJRkZGSkpqaOGTPmgw8+4A30+Xzl5eXZ2dkpKSljx449cOCAaHhLS4vL5crMzExLS5syZUpjY6NIam5uLi0tHdT+Ky0tPXPmjEg6fvx4cXFxWlpaZmbmwoULW1tbRZJdAIfMTirYeGQ+zHpPnlK41mLy0zI3bPAPM/IDsq00ab02QRh3w0A8eKtgMXf3dkBhFnzKBQf6r38P/N/rr/ubgrRdFOJ2K43u8hgpU9vaauv/CU3kgHZoNExl7NAQs6FdWt7+UFfXZZVQNxGztV6KIQR6HQK4PY8OBTY3Nw8fPnzWrFn79u07duyY2+0+cuQIR7aqqmrgwIF1dXUNDQ3Tpk3Lzs4+f95/sDJjbN68ebm5ufX19R6Pp7CwcMyYMd6rVyFMmjQpPz//D+2//Pz84uJiLuL1evPz8wsLCz0eT319fU5Ojsvl4knIvzhkiGBQSSaekNa0eb2Bj6sWgrJ1Nj8RWzb6cnggnPs3+DtOdP8I//3KFRByqkl40KAOZwVZ5MLLyc21dWus1C5mDYPqAsYYfoKatkUKM4WvDP4maDfVhV9psEBRfkKglyKA2/PoUOATTzxx9913WwH1+XxDhw6tqqriSS0tLQ6HY82aNYyxs2fPJiYm1tbW8qSTJ0/Gx8dv376dMXbw4EEA2Lt3L0/as2cPABw6dIgxtm3btvj4+JMnT/Kkmpqa5OTkc+fO8Ue7f3HI7KSCjS8rC+wzaX2OiooQBU1m4BSjP22af2UmP1rlevhzA3yTAXwFqT+AWjlnampgleT8dXV+esNdUm3b+W4K+agXcdeSCQvKHwT88ymEU7l5Qzgzad3xYMck8X6xDghHpNJgX1fKTwj0UgRwex4dCvzGN75RVlb24IMPZmVl3XzzzS+//DIH9+jRowDg8XgE1lOnTp0xYwZjbMeOHQDQ3NwskgoKCpYvX84YW7t2rcPhEPFXPu0dDse6desYY8uWLSsoKBBJzc3NALBz504Row3gkGlFgo30ellWlhFtKD6H18vwUzEF0yiCARcTCkER4CVs2uRfD3IX/P4UDGYAJyH7Vnhf5OGBYCkwPV1zbqdSJuc2vi9CwGs3ZgjgxxMf5NZ6TiF4gVzPDRtsh3OtyAv9tYGgvEA7BIKtVKsJRRICfQ8B3J5HhwKT239PPfWUx+NZs2ZNSkrKa6+9xhh79913AUA4bYyxOXPmTJgwgTG2fv36pKQkuXuKiormzp3LGFuxYkVeXp6clJeXV1lZycWLiorkpKSkpA3W72rGWlpazl39NTY2AkBAZ1EuNtgwbvWsZCBGw0IWNJyB01Z9YPFrLZDEAD6AW3LgE2segMB7IbRSJpGi7QFZfPBgdexUuH1W15l7mbW1wc0FCoUDbu2Q1cZfD85qimur/QIIiIB5pbhKlEoI9BkEYpECExMT77zzTgHxwoUL77jjDkGBTU1NImn27NkTJ07UUuD48eMfeeQRToGjRo0SIoyxkSNHrly5UmZQkZqYmFhTUyMeRaC8vBy6/rqVAvGxL2FnRUCwdrCCZWWiif5AwBk4USMPxEFb/W1Pcnf1f8MDafClkkE83nGHkVMr8psHRNuv9Cx+/x+nDTEiqrh91hq55/T443rNf/AD/5IThJnwvpDV7tIHugfzRZ4RrFSnCMURAn0NgVikwGHDhj388MMC6ZdeeiknJ4cxFsWB0L7qBQKojpHVH7JyA49Jgy/Fzvefw9Nx0GaXs1vjhWdTVxfY1xTjgdYJMzsld+3y72iU9wUmJLBp0/wbATlWMgvKM5S4Ry7UFu85HlAI225TXWQrxVWiVEKgDyAQixQ4ffp0eTlMWVkZdwr5cphVq1Zx3FtbW5XlMBs3buRJTU1NynKYffv28aS9e/cqy2GEW1lbWxsjy2Hsxr6sZlrYdN46c0FRlHU6zWQ2MRcaPXAz3/l+4MnfpKXpXSVRS3cE5LabUxo/WdTpNFWYu2utrf7VoS6X/4wY+eiAzMwuy3ZkZrLrC1lt3muG/4phW7GtxSoY8UqtVVAMIdCXEIhFCnzvvfcGDBiwYsWKw4cPr1+/Pi0trbq6moNeVVXlcDi2bNnS0NAwffp0ZVOE0+l0u90ej+fee+9VNkUUFBTsaf+NHj1a2RQxbtw4j8fjdrudTmfsbIqwjn1ZWUT2OcRLaSKoFMU9Em5hq6tZwNUrt8L7TTCUAXwKWXfCu9//vimdKPWG8yi3ndt989LwQ0qVcmR3zUq0XI2KCv3pMNa+UNTetUsvKHrTMCCz4+bNnct0eVvkSg0LpGyEQD9BIBYpkDH2xhtv5OfnJycn33TTTWJFKGOMb40fOnRocnLyPffc09DQIPrp4sWLLpeL76YvLi4+ceKESDp9+nRJScnA9l9JSYmyNX7y5MmpqakZGRkul6ulpUVI2QVwyOykQoi3jn0tWuRffilstOxzyOVbBYuLO6WEuAhs2OAfDpVLFknWwET49y/gGgbwR8gfDsesGbojhg82ytsk5Lbjo39WfQwpUHHX7IhWySZ3BJ9elYEVaiuAi52airjJo7Uow/fEpHDKQwj0bQRwex6dFaExjjgOWWSVl7/u+U41a4y2RiUbThLmbtwMePWO1SwKAAAgAElEQVQSDGAAb8H4gXDOyi7hx3CXRWvElUaJhuNrQGSVOF2ZHAJg9ZxwDGVnUSjGA1a17bxJsVRHKQF5tCtq0yb/MUDyYUBIIZRECPRbBHB7ThSoeTFwyDQCQUZZLWaQBWiy200RyfQQKOx7ClZwX/J1KE2E1kD5Mb8TkRV+kjkOJpTGa+Tb0k3QEGoINHGiNV/h2dqq3/SJe5NCDTkQmmMql0BhQqCfI4Dbc6JAzeuBQ6YRCCbKOqgVgmegrdA6L4XwkJIUD94XYD7ntCpY3H2LPxcs6Di/VNsEbaRyHqaiufyYldW5/NWKBnf77Gb1IrXlLuCyVcSbtDY/ZMfUWhTFEAL9EwHcnhMFat4KHDKNgHGU3aAWzoK4tySn8pNcZFYwCafAhS1wPwNog7iF8LyJiDVPZmaXg5utGQD8Gw/wA1ysQFoR05bMI6+uqfIX4/X6tzTIa1+tbp9SnZ3viHhvMvj8dl95B4VWVXNvkjH/OKe2EB65dGnHQGhrKw2KKp1Jj4RABwK4PScK1LwoOGQaAbOo0Aa1cK/Rmrp5s98aGq4HAWDXwunfw11888ODsAkxuHjSpk1+1uGzU9Om6Q33okVmSF3NZYeYnSbCwVJgycjw0+HVM9Wvlq77v53vqP1GUWpxOrtsnwiopK5+NQ73AkUV8qbGcNbdqNXTMyHQ+xHA7TlRoKaHccg0AmZRuDkT5lsuzOoDyYs4kFTcexCmcxj85SDcxADOgOMe2C3iQwgo+ls3mwfLfwFHJmUlZUfNDhbD9SMKsdn5jtZaZH20YVlJuZeRsJ1jqi2fR8pvCFIyJREC/QQB3J4TBWpeAxwyjYBZFE5L1vExOx+IW9LWVv0mB55qsn5kNPznScjm195+ExoQq2qSZNVfbDZfvTro8U+OKI6YrNUVu88n+dxu2/FYc1dJuLN2W9TtukZWyRoO9gYJDgLn2oDjq3J1IXCt2StMuQiB3ocAbs+JAjU9ikOmETCLCtYLxPPjVxwE3AXxHdjTDF9jAA3wTSeckA1oaGG3O/LTUTgCsp7p/hvsg/gvTFfJXDGhlbxUx+x96cylOKaiTDyg+OWdxVGIEOhPCOD2nChQ8y7gkGkEzKLsBrXsvtlxHyjki+4AWCHs4Jvffw93fQ2acUtqkhoX12XhSaSmo+wQM1EpYB472E06E+8aa9UBL3IKWKlwTM1nea1+ecBaKAMh0PcQwO05UaCmx3HINALGUdZBLcQdwV0N3Au0WmERMxneuAjJfPM7cvODyB9CAGmUMVQdGa2IhaAPIhKaq4R3jVxdBKHgiJhXHVrTgu0gyk8IxDgCuD0nCtR0Hw6ZRiCYKGVQy261hbjezzoJxN2XCxe6XG4gm10k/AOo5Ye/bIX7kuEikpMnJflvCQzlv7g4/1TlL37hP3g65LlAjquCWGj62EmF5irZuadxcf5Fobm5nYgh/RvMW9OZ165quYHhOLidNVGIEOgTCOD2nChQ08k4ZBqBIKPEoJbdagtRntUHEl6FuTcgjOND8M9tEMcADn7rH65NvyTikcAtt3Tcn3D77Z1mHclvl5SQ4L+QKOQfR8x8DNBODWt8yK4S0jXm/RsaINaq5XaJNyS0wkmKEOhjCOD2nChQ0904ZBqB7oxSfCDhVQQ7HfVj+BUnsTUwt6ba++CDRpQWshcoG2UR1rKgOWGYOECiLpOAco1UsN1o1zXWcngbq6v93xPV1f51QyabFK3liBilanmxq3hDROZIBcx7KlI19rFyCMCodChuz4kCNZ2CQ6YRCCPK5K9CmycYL9C3BJ7ljPc/4HEAn9sdxN55Ey4xzGM9HUYx5cg6Gg5CWZm/HdbBYUUBPgz73HMBaF674T2oztR2jVKC0kauKtJSRdzuUa66B06HUVoRvv527eqr8QRgtHoWt+dEgZp+wSHTCIQapZx+mZvbecSltkjF6jmdgckAwLcKFnEqWAYVAD5+o2x5eQB6UEglUo+rV3e2jA/oySXbDeIp5kN2evj9SjIpikIQrzEhgW3e3KlJ94WsbRTtDW2bYPepipRsbYUAGZGiJIEAASig6PkAbs+JAjU9gkOmEQgpqq5OT0J2rolCA06nf3aNWyJhVZVAHLSJw6/L4Jcitbq6y5INEd8DAZfLD5bXy9zuLvsoRNXWpRxW88Ezl5V1jCgqyMgjgVxWJkguu2lTSH0WpBDnYNE0ayDMkdgg1Qkxu10rrD0VYgV9XYwAjG4P4/acKFDTOzhkGoHgo7xe2/MkMzM1E0VWGuDkp9y6l5nZWWwctL0E8/jh17PhZdn+zpqlZ185TzeFV6/2u19ZWQEUEKtUDM2H7B8r02wIQQbfb8FJmAxWi5YGV3QP5sZbEfv69yBU+qoIQD0uPRWL23OiQE0/4JBpBIKPwg8wc7u7lGhHAwB+LrlwocuxLF4vn+fzvQiPcv77Ibym8Nk1/jvho/BfQgL76U+N6i0r60AgIuYDIcguQEf6wWTJUmi7MiKtKVYe3orY1x9rW4+kEYA9ArNtJbg9JwrUAIdDphEIPgpf3790aZcScRqwnrxV8YyPj3+2QdwMeDUqbKetdOpUI/7jsnxAuFebD7zjeDNj34vCWxH7+nf5W4rGAwEYDdQ768TtOVFgJ1IihEMmsoUTCIoCcRrgKyTFDKL3su+VaxZw/28mvKKlom6N5FNEjz/eZed+QgJ7/HE2eLApBYp5pl5tPrj7bp2JFPj3orlAaytEH4Xzh9AfZO1eAwKwZ3oft+dEgZpewCHTCAQf9dZbGBm89VaXEnEa4BTYYUx9vsbvLeT8NwvWCVPbkwGx0PHCBbZgAZswwf8vH60NVg2+f0678LW3mA/rJK4AQQDVpbNj8sG6qohWhAbVUQRgUHBFNjNuz4kCNWjjkGkEgo8KYS7Q+hkujCkP7NrpYz/+MafWH8FaJbVnHgcNYg8+6J+MfOaZLotOnU7Gt/QFpQafZ+rt5kNZj8MRkJetBv/6REFCaUWv0z8KkHWtkgDsikfPPeH2nChQ0xM4ZBqB4KOqqzEvsLpaLRFxJq6Siu/QpMd4oQ/BP1+NxGrpyTwB+VurjJhn6u3mg6/HieDpMOr70SPP0VpV1CON64lKCMCeQNlSB27PiQItgDGGQ6YRCD4Kv+dB3j8uyq6rY4MG2VGa75fQfm4KQNual51Ou2wd8fblBBDUEpV5pDkRWsc5Y8F8xIIO4n2gACFACJgggNtzokANhjhkGoHgowJ6gVZr6/WynBwtRfmeg6tbDf7pn7xe9oMfaLN1RMbFhTImac5z4ec0mWey4hN8JwQnoXiidEJYcPBRbkIgSgjg9pwoUNMtOGQageCj8BUuFRX+m4YEl3BraydSAcs6sq5ZU1fXuTVeiCuBigr/PkIlssce7a53j4/vVCkgu/Q8G1kHok14Ovj3giQIAUIgwgjg9pwoUAM3DplGIPgoZLd7erp68ie3ttrlJD+FjqOg35/5a7sT1xR627DBf/oMP1pTSQrtMTW1k70ClmA9m5SPjsr64BTY82xk11nW0drgXwSSIAQIge5FALfnRIEa9HHINAIhRRkyFieVuDjNoWKz4WVOPk/BCre7i+OIUBHfaSBTDpLZJKmiIggKdLv9R4HLPq5VE8TBigob4U6zWLMT0ltAQoQAIdC9COD2nChQgz4OmUYgpKgQXLHBgzsdxB9ALb//tgoWZw32Pf20EQ/x7YO4TTehPZGnrMzvU8r3pIskbeD11/1giZk8hLmzslhrq4osrnk3sRF+NEEPnBAm4Ar/okEVUHomBPo6Arg9JwrU9D8OmUYgpCjcmmv5o6ys42qI/wpvXoIBDOB/wSP8/iNtfmukyaljVikkhrOOuUfrcHS5EAoHYfDgLpkZY1FhI1zJbuJd8U4pTjM+SiykKEAIEAIcAdyeEwVq3hMcMo1ASFG4Ndeyzq5dfkp4MGv3BUhhANXwD/Hg1ebURv7kJx2K4jZdK2uNVGbC6uqY3VIXRVY+FSUgCHJmxgIs5OkmNoriAVc9P/EZ0rtMQoRA7CKA23OiQE3P4ZBpBEKKCoqHOvnm/fcvpQ5kAP8CUwbAJYVd8EdxT6zdjBouLqdap+usxlrOL4c72xKI0rqc/dYOcrTYiLdO3tdoRSCktwATsusmGUBMntIIAUIg0D5vokDNO9IzFGhnzTlb6K3tgQMt6RkMYAcUJsNFmVfMw3wsdFHHTfJGM4jWwpXzseyMtVVQxHCPzXBCVLh3Xi+zrr4xYaPwp9OUAUkFAc1rFHYU/pEkMAm7HiqAEOjLCOD2nChQ0/c4ZBqBUKPsfAvlItwOa3v0qC87mwHshW+nw3nBJcEGMjPZ734XxAIWufysLFZd3XFXu9xo3FjLJYgwX0ViSIFLl/pX0CgkJIoKyEaKYMjTaeHzqAxawDA+StwDy3ACakgZCIHYRwC350SBmh7EIdMIhBGlWGdhzVVr29TERoxgAH+E/GvhtLD+PRyoqPAvSLGuS8SNtVZJ7sSYc6d17wQvtqLCz47IzzpCa+I1IgX2WBIODnmBPdYRVFGvRgC359GnwMrKSgB47LHHOMo+n6+8vDw7OzslJWXs2LEHDhwQ6Le0tLhcrszMzLS0tClTpjQ2Noqk5ubm0tLSQe2/0tLSM2fOiKTjx48XFxenpaVlZmYuXLiw1brQXmS9GsAhu5orYv9X2c5a8LlzbMwYBnDK8fWh0KRllO6OjI9nGf4h2I7/FEcKN9ZCigfkqawQuFMuTS7KChvffSHvQRSyAQW1pfVwpN1Qea9QvoexouoIATsEcHseZQp87733rr/++oKCAkGBVVVVAwcOrKura2homDZtWnZ29vnz53nb5s2bl5ubW19f7/F4CgsLx4wZ4736/T9p0qT8/Pw/tP/y8/OLi4u5iNfrzc/PLyws9Hg89fX1OTk5LpfLDikRj0MmsvVQoLWVjR/PAC46hoyAo8KIRzegOFKtrV0uyFV0089rtsMXFHcqxYpHxB/Cy0cEe6hzA1VjN1QubkgOVAClEwL9HQHcnkeTAr/44ou8vLz6+vqxY8dyCvT5fEOHDq2qquKd1tLS4nA41qxZwxg7e/ZsYmJibW0tTzp58mR8fPz27dsZYwcPHgSAvXv38qQ9e/YAwKFDhxhj27Zti4+PP3nyJE+qqalJTk4+d+4cf7T7F4fMTqpb4n0+VlrKAHzXXPN3Qz4QRr8nA7m5tqepiUvPcabJyup0H8VIL4fLztEJqoHIrBjuZSKCSG8G9toR4eCT7IbKgy+JJAiB/ogAbs+jSYEzZswoKyu7stlLUODRo0cBwOPxiI6aOnXqjBkzGGM7duwAgObmZpFUUFCwfPlyxtjatWsdDoeIZ4w5HI5169YxxpYtW1ZQUCCSmpubAWDnzp0iRgRaWlrOXf01NjYCQECmFLLdGHjyST97JCT856p/x1mhrMw/RbdpU5ezx3ARk9RZsxh+uy93pHCm4StotJOIjPkXuXCf0kQfbR7EmcO5GRG061OFkJQBYTupMON7mHTD1JbECYGYQiBGKbCmpiY/P//ixYsyBb777rsAIJw2xticOXMmTJjAGFu/fn1SUpKMbFFR0dy5cxljK1asyMvLk5Py8vIqKyu5eFFRkZyUlJS0QffxX15eDl1/3UeBhhat7X++wL2nj554Bb9cadKkziUqcuGbN4fFiJmZ/pUmOL21f8P4a9eSE48MyDQKr8heI1Ksddeg3NE8bOdlhjad1ntX1liRoRhCoJ8gEIsUeOLEiSFDhuzfv5/3gfACOQU2NTWJvpk9e/bEiRO1FDh+/PhHHnmEU+CoUaOECGNs5MiRK1eulBlUpCYmJtbU1IhHEegxL1Ax93ZuxJ7FW/gRoEvgWQA2eDDGMZwntEV5vX43Tl7JIpNKQoJtseJYFpzeBg3y02T4TCMzd2urn7nlGURZZxFW5iNFVyoBq5dpKKiUw9soaheB0NhUKZweCQFCoJsQiEUK3Lp1KwAkXP0BQFxcXEJCwpEjR6I1ECqjj0Mm5ww2bOhG7Frxe34EWlBHgCKW3UoDwoJrA7m5nYdzbtpkS5Nc1u32w6CtQvBoaEDJLMjD8tYIZVoRqUL57DAXlMvEPwUCerpyURQmBAiBHkMAt+fRmQs8f/58g/S77bbbSktLGxoa+HKYVatWcXRaW1uV5TAbN27kSU1NTcpymH379vGkvXv3KsthhFtZW1sbxeUwhm6Et+Hgmbhr+RFoCXBZoSiZFZQkfGBQoQHE/wNg8fFs0SI/nHY6y1U//TQH3s+CMkUB+B9DXruoKMx5S3YWry4H7qgd/1/IgqJYfEBYN7guRClACBACUUMgFilQAUMMhDLGqqqqHA7Hli1bGhoapk+frmyKcDqdbrfb4/Hce++9yqaIgoKCPe2/0aNHK5sixo0b5/F43G630+mM4qYIIzeiqeni3wxnAHvgO6nwlcw0PGwyT7Z6tX4Du6CB1asDOHa8rkWLAkzy8Ww//GFHf1rvi0AcU+Ud0D4Kha2b8bX5uzXSqPu6VQMqnBAgBIJHoJdRIN8aP3To0OTk5HvuuaehoUE0+eLFiy6XKyMjIzU1tbi4+MSJEyLp9OnTJSUlA9t/JSUlytb4yZMnp6amZmRkuFyulpYWIWUXwCGzkwoYH9iNOHeO3XwzA/gY8jLhMyv/AXScT+ZyGXGYPJ4pq4drIupNSGCvvx64Iu4F2vmLfWaqjDfQ6oX3mQbKbwiFCYE+gwBuz6MzEBrj4OKQhaw87kbsdl9mkyYxgNZrsS3wfM4JL0pwGA9YhyLNxRcsCEyBfC4QL7NvTJVZ5zvDdHNDfpdIkBAgBAwRwO05UaAGRhwyjYBZFO5GtC38sZ9tUlO9e9/XroeUvQ07l0shP/6YmcneeotdOWl66VL/6lBkAadVfP78ANsq+MaJ0C6zjalxTrM+9E9tyieuhbayxrAuykYIEALhI4Dbc6JADcI4ZBoB4yg7N+LDOS92eFvtLptdNtmfs068WQlMG8OXqBiKr17dsdRTWxRA52oXfAc99xRlnBQu0e7okPPHTrg3MnfsoEeaEAI9jABuz4kCNd2BQ6YRCCZKMf3XXcfeWf5Wxwmb7dv5eWHWbDL/8Tw/bvcb7cgJjze5LzA+nvFDxRVleMkKaQVFgZzjZQ1pRDGYl4jyEgKEgCkCuD0nCtTgiEOmEQgyqosb0XCQORx+F3DGDObzySV1yWa5D6iuzmi/vEwzcti6rENOFWHBu1yZ6mq2erX+ykB8iY28Z8BuFFce6ZVxoDAhQAgQAiEjgNtzokANsDhkGoGQoz77jN1wg5//7r6bGSxVFfVYvShBWpENiIOwRdV2AfPlMOY57eqieEKAECAEDBHA7TlRoAZGHDKNQGhRLS3su9/189+IEezUKfMy7LyoyJKfKE0s5mxt9buALpf/X+uti/hiH3kbu7m/aI4J5SQECAFCQIsAbs+JAjWg4ZBpBIyjOsc2d/raZsz089+gQez//l/jAvwZcS9KUFekAtXV/koXLepyI2BCQsfxMbLmJqt4AuovGFcuuRO3Xf4VrfQjBAgBQsAQAdyeEwVqYMQh0wiYRcmLShZDlf8WwPh41n7loVkBHblwLypSzCfKWb3az3biUQ7wQ9Rk5eU2AjDtngFzf5GXrJSpLMORa6cwIUAIEAIKArg9JwpU4PI/4pBpBAyi5Nm7+2ELp5QF8IJYb2JQRkeWHvYCX321i/8nU2BCgn5EdNcu/Qltoo2G/qI4fVuulNaOChgpQAgQAgERwO05UaAGQBwyjUCgKHn27lvwf76ENAbwa1gQ2hpIxIvKzOyycVtmDiUcF+c/w1re5a1kEI/4ATGrVwdqvE264tsh/qLQRARCw81GEYomBAiBvowAbs+JAjV9j0OmEQgUJfy2LPj0BDgZwHaYIG6B0M5+4UUiXhSfNlu6VD90KbNIXZ1/Xm3XLv8mB7v7CK+7js2fjxXlcuGaYqkBZ/gEbkJtORACbpg2lEYIEAJ9EQHcnhMFavoch0wjECiKz94NgEu7YCwDOASjHHBGWHN5z5woKSA92HlRAVmNX8BbVuYnP7G0BOFU/FqJkL1A0VIkgM96anFDSqMkQoAQ6IcI4PacKFDzSuCQaQQCRXFvZjU8xgDOwcCb4KDgPwA/FSk/hd7sFoBYaVIRlGsR4UGDOr06uWRFVoxMtrYGNxeotCWcR/ICw0GPZAkBQiDg2g6iQM1LEnEK9HrZj6/tuHboPtgq2Eg7pyUvnOE5DReAWAVFRTyg3GfLr9iVL3a3cipHx3xFqAbNMKKQWU/zPfth1E+ihAAh0OsRwO05UaCmg3HINAIBoz74wJuUwgB+BssELWmJTV44I3Li18HzyhHBrCz/bJ/brV/8oqVha4NM9gVapcKPQUZowy+cSiAECIE+jwBuz4kCNS8ADplGAI86dYoNG8YAmm6dfF1umyA2MdIoS4c89BdQMGAGWQ1tGD8dRisSkUi7EdqIFE6FEAKEQN9GALfnRIGa3sch0wggUZcvs8JC/+RbXh47c8ZupFEUEPICkICCATMIHWIwEBC3GNSZVCIECIFYQAC350SBmj7CIdMI6KK41f7o737iPwUmPd3wFLSQfbWAggEzMNaxR2LDhi6LRXWNozhCgBAgBHoHArg9JwrU9CIOmUbAEsXH7v4Bqvniy9mZdYanwIS8ACSgYMAMynijvFjU0j6KIAQIAUKgdyCA23OiQE0v4pBpBLpG8RUcN4PnAviXwDwLS7QrX7oKdT6FvABEuyJUXvCJlGyVDUrnTu0pRAgQAoRALCGA23OiQE1f4ZBpBKQo7mxlwmfHYDgD+Df4u3jwmizplMpgikOmXTgj5xfhgOs2tSVzncU6HREwXCwqaqcAIUAIEAKxhgBuz4kCNf2FQ6YRkKJ27WIJcLkexjGAw/D1r0GzYBTtLnhJtEswhOWXdXWde97lSpUxWOvSEpNpwi7K0QMhQAgQAr0EAdyeEwVquhGHTCMgRW3YwEbCnz6FrC/gmm9Cg0xFAP77E0x+iq9mMi3X2uq/eVCpjj9mZnYehKatHV8sunRpgGsftGVSJCFACBACsYAAbs+JAjV9hEOmEZCiuEflhBNF8DsrIVnPQpNEO4IhTMvV1dmec811cLut9XTG4F6gaIUJE3cWSiFCgBAgBGIAAdyeEwVqugiHTCMgRQVceCnl1QRDmJazUqYgLRFYulRTl4iy01mI8wAtkBGIUYAQIAR6CwK4PScK1PQjDplGoGsUsvCya0bNE+6QWZ1IO8pU2AunQHEzbVycfihVlEYLZDR9RlGEACEQwwjg9pwoUNN1OGQaAUuUMplnvqQTn5azTiXilCmoCx8I5eorOgtZa8DKxBYAKIIQIAQIgZhAALfnRIGaTsIh0wjooqwLL3W51Dic0qzcg1MmZ6+Ay2GEEkJn/MZdKxOLEihACBAChEBMIYDbc6JATWfhkGkEIhdlNy1nNwKJUyanQGVThImyeLFWJjYpk/IQAoQAIdDzCOD2nChQ0yM4ZBqBiEYFNZVoR5mc/HJz/bvsQ/jZFWvHxCFUQSKEACFACPQAArg9JwrUdAEOmUYg0lHKtBw+lWilTM5/FRUBtgPiWluLpRWhOGKUSggQAjGIAG7PiQI1XYZDphHohigxLbdrV2AmC4oyzZXtpmLNFaCchAAhQAiEiQBuz4kCNfDikGkEYiAqKMo017ebijVXgHISAoQAIRAOArg9JwrUYItDphGgKEKAECAECIGYRAC359GhwMrKyttuuy09PT0rK+u+++47dOiQgM7n85WXl2dnZ6ekpIwdO/bAgQMiqaWlxeVyZWZmpqWlTZkypbGxUSQ1NzeXlpYOav+VlpaeOXNGJB0/fry4uDgtLS0zM3PhwoWtra0iyS6AQ2YnRfGEACFACBACsYYAbs+jQ4ETJ0585ZVXDhw4sH///smTJw8bNuzLL7/kwFVVVQ0cOLCurq6hoWHatGnZ2dnnz5/nSfPmzcvNza2vr/d4PIWFhWPGjPF6vTxp0qRJ+fn5f2j/5efnFxcX83iv15ufn19YWOjxeOrr63NyclwuF09C/sUhQwQpiRAgBAgBQiCmEMDteXQoUAbo1KlTAPD2228zxnw+39ChQ6uqqniGlpYWh8OxZs0axtjZs2cTExNra2t50smTJ+Pj47dv384YO3jwIADs3buXJ+3ZswcAuGe5bdu2+Pj4kydP8qSamprk5ORz587xR7t/ccjspCieECAECAFCINYQwO159Cnw8OHDANDQ0MAYO3r0KAB4PB4B4tSpU2fMmMEY27FjBwA0NzeLpIKCguXLlzPG1q5d63A4RDxjzOFwrFu3jjG2bNmygoICkdTc3AwAO3fuFDEi0NLScu7qr7GxEQACMqWQpQAhQAgQAoRAbCIQ0xTo8/mmTJly9913c+zeffddABBOG2Nszpw5EyZMYIytX78+KSlJhrioqGju3LmMsRUrVuTl5clJeXl5lZWVXLyoqEhOSkpK2qA74Ku8vBy6/ogCZdwoTAgQAoRAb0Qgpilw/vz5w4cPFwtbOAU2NTUJoGfPnj1x4kQtBY4fP/6RRx7hFDhq1CghwhgbOXLkypUrZQYVqYmJiTU1NeJRBMgLFFBQgBAgBAiBPoNA7FKgy+VyOp1//vOfBdZRHAgVOjDGcMjknBQmBAgBQoAQiGUEcHsenblAn8+3YMGCnJycP/3pTzJ2fDnMqlWreGRra6uyHGbjxo08qampSVkOs2/fPp60d+9eZTmMcCtra2tpOYwMOIUJAUKAEOjbCMQiBT766KMOh2P37t1/vfq7cOEC74aqqiqHw7Fly5aGhobp06crmyKcTqfb7fZ4PPfee6+yKaKgoGBP+2/06NHKpohx48Z5PB632+10OmlTRN9+3al1hAAhQAjICMQiBXZdd+J/euWVV7jSfGv80KFDk5OT77nnHr5SlCddvHjR5XJlZGSkpi+wmq4AAA66SURBVKYWFxefOHFCtPP06dMlJSUD238lJSXK1vjJkyenpqZmZGS4XK6WlhYhZRc4e/YsADQ2Nl5dIkr/JwQIAUKAEOiVCPAV/mfPntUa/OgMhGpViZ1IDpmVpymGECAECAFCoDciIBZdKkRDFKgA4n9sa2trbGw8e/Zs933zcJbtjY4mad59b4VdyYS5HTLdF0+Ydx+2diV3E+Znz55tbGxsa2vT2HrGiAK1sHR7JD483e3Vh1EBaR4GeCGKEuYhAheGGGEeBnghikYFc6LAEHsrTLGodHaYOnNx0jwiMAZVCGEeFFwRyUyYRwTGoAqJCuZEgUH1UcQyR6WzI6I9aR4RGIMqhDAPCq6IZCbMIwJjUIVEBXOiwKD6KGKZryxMLS8vN1meGrEqI1QQaR4hIIMohjAPAqwIZSXMIwRkEMVEBXOiwCB6iLISAoQAIUAI9CUEiAL7Um9SWwgBQoAQIASCQIAoMAiwKCshQAgQAoRAX0KAKLAv9Sa1hRAgBAgBQiAIBIgCgwCLshIChAAhQAj0JQSIAiPTm5WVlbfddlt6enpWVtZ999136NAhUS4/9TQ7OzslJWXs2LEHDhwQSS0tLS6XKzMzMy0tbcqUKfIRPs3NzaWlpYPaf6WlpfKpp0I84oHKykoAeOyxx3jJsa/5J598UlJSwo+NHTNmzAcffNArNL98+fKSJUuuv/76lJSUESNGVFRUiKMrYhDzt99+u7i4ODs7GwC2bt0q3rqIq3r8+PHi4uK0tLTMzMyFCxe2traKukILaDW/dOnS4sWL8/Pz09LSsrOzf/jDH8p3dIf2J9kzmssgzJ07FwBWr14tImNf84MHD06ZMmXQoEHp6enf+c53jh8/zpWPruZEgeIVCiswceLEV1555cCBA/v37588efKwYcO+/PJLXmJVVdXAgQPr6uoaGhqmTZum3H2Rm5tbX1/v8XgKCwuVuy/y8/P/0P7Lz88Xd1+EpSUq/N57711//fUFBQWCAmNc8+bm5uHDh8+aNWvfvn3Hjh1zu91HjhzpFZj//Oc/z8zMfPPNN48dO7Z58+b09PRf/epXMav5tm3blixZUldXp1BgZF8Pr9ebn59fWFjo8Xjq6+tzcnJMLnVB32im1fzs2bPjx4/fuHHjoUOH9uzZ853vfOfWW28V5cybNy/YP8ke01wouXXr1jFjxuTk5MgUGOOaHzlyJCMjY9GiRR6P5+jRo2+++eann37KWxRdzYkCxXsVscCpU6cA4O2332aM8RsQq6qqeOktLS3KDYi1tbU86eTJk8oNiHv37uVJe/bsETcgRkzLrgV98cUXeXl59fX1Y8eO5RQY+5o/8cQTd999d9d2+J9iX/PJkyc/9NBDQvMHHnigtLQ09jWXKTDiIG/bti0+Pl44ZDU1NSZXewoM8YCsuZLzvffeAwDukZw9ezYxMTHYP8ke1vyTTz7Jzc09cODA8OHDBQXGvubTpk3jL7mCf9Q1JwpUeiQCj4cPHwYAfs3T0aNHAcDj8Yhyp06dOmPGDMbYjh07AKC5uVkkFRQULF++nDG2du1ah8Mh4hljDodj3bp1ckxkwzNmzCgrK2OMCQqMfc2/8Y1vlJWVPfjgg1lZWTfffPPLL7/MMYl9zVeuXDl8+PCPP/6YMbZ///4hQ4Zs2LCBMRbjmstEEnFVly1bVlBQIN7q5uZmANi5c6eICScga66UU19fHxcXd+7cuZD/JHtS87a2tsLCQj5mIFNgaMakxzRva2tLT0//2c9+NmHChKysrG9/+9tiRD3qmhMFKn8R4T76fL4pU6YI7+Tdd98FAPFtyxibM2fOhAkTGGPr169PSkqS6ysqKpo7dy5jbMWKFXl5eXJSXl5eZWWlHBPBcE1NTX5+/sWLF2UKjH3Nk9t/Tz31lMfjWbNmzZV5tddee40xFvua+3y+J598Mi4ubsCAAXFxcaJnY1xzmUgiruqcOXOKiorktzopKYl/GciRoYVlzeUSLl68eOutt5aUlPDI0P4ke1LzysrKoqKiK7OwjDGZAmNc87/+9a8AkJaW9stf/vLDDz9cuXJlXFzc7t27QzaDEcScKFD+i4hAeP78+cOHDxcLW7ilaGpqEkXPnj174sSJ2r4fP378I488wilw1KhRQoQxNnLkyJUrV8oxkQqfOHFiyJAh+/fv5wUKLzD2NU9MTLzzzjsFDgsXLrzjjjsEBcYy5jU1NU6ns6am5o9//OPrr7+ekZHx6quvxr7mMpFE/PUQn4aiQxMTE2tqasRjOAFZc1HOpUuX7rvvvm9961vcBQz5T7LHNP/ggw/+5m/+RnxP4xRoYkx6TPOTJ08CwPTp0wX4U6ZM+fu///tYwJwoUHRKBAIul8vpdP75z38WZUV8vEiUHKnA1q1bASDh6g8A4uLiEhISjhw5EuNDuMOGDXv44YcFDi+99FJOTk7sDycyxpxO5wsvvCA0f/bZZ2+88cbY11wmkoi/2D02KMdhv3Tp0v33319QUPD555+Ljoj6oJzQRARkzFevXs3/NvkfKwDEx8cPHz489odwW1tbBwwY8Oyzz4p2LV68+K677ooFzYkCRaeEFfD5fAsWLMjJyfnTn/4kF8RXDaxatYpHtra2KsthNm7cyJOampqU5TD79u3jSXv37u2+5TDnz59vkH633XZbaWlpQ0ND7Gs+ffp0MeDMGCsrK+NOYexrnpGR8dJLL4n3pLKyko97x7jmsjmOuKp8UYnw3Wtra7tvOQznv29+85unTp0SvXDlFeJLM4L9k+wxzT///HPpL7UhJyfniSee4PuvYlxzxtidd94pL4e5//77uVMYdc2JAuU/gdDDjz76qMPh2L1791+v/i5cuMCLq6qqcjgcW7ZsaWhomD59urIpwul0ut1uj8dz7733KpsiCgoK9rT/Ro8e3QObIri2YiCUMRbjmr/33nsDBgxYsWLF4cOH169fn5aWVl1d3SswnzlzZm5uLt8UsWXLlsGDBy9evDhmNf/iiy8+bP8BAJ/L4esnI/t68K0F48aN83g8brfb6XSGvylCq/nly5enTp3qdDr3799/9Y/1r2IP4rx584L9k+wxzfkbIv6VB0IZYzGu+ZYtWxITE19++eXDhw//+te/TkhIeOedd3hboqs5UaB4o8IKgOX3yiuv8BL5DuKhQ4cmJyffc889fKUoT7p48aLL5eI7u4uLi0+cOCGUOH36dElJycD2X0lJSc9sjZeXw/A1+uXl5bGs+RtvvJGfn5+cnHzTTTeJFaGxr/n58+cfe+yxYcOGpaSk3HDDDUuWLBEmOAbfll27dilv98yZM7sD5OPHj0+ePDk1NTUjI8Plcl25Okf8OYQW0Gp+7NgxpTkAsGvXrnD+JHtGcwUEhQJDMyY9qfnatWtHjhyZkpIyZsyY3/72t6I50dWcKFB0BAUIAUKAECAE+hcCRIH9q7+ptYQAIUAIEAICAaJAAQUFCAFCgBAgBPoXAkSB/au/qbWEACFACBACAgGiQAEFBQgBQoAQIAT6FwJEgf2rv6m1hAAhQAgQAgIBokABBQUIAUKAECAE+hcCRIH9q7+ptYQAIUAIEAICAaJAAQUFCAFCwI+AfEIQIUII9G0EiAL7dv9S6/oaAjNnzrzvvvvMWxUCn50+ffr8+fPmVVBOQqD3IkAU2Hv7jjTvjwj0AAX2R1ipzf0VAaLA/trz1O7eiYAdBe7evfv2229PSkoaOnToE088cfnyZcbYzJkz5fMwjx07pjT6xRdfvHIVZXJy8pAhQ77//e/zVOE4as/Y5Hn+9V//9ZZbbklOTh4xYsQzzzzDq1MKp0dCIPYRIAqM/T4iDQmBTgS0FPjJJ5+kpaXNnz//o48+2rp16+DBg8vLy/ntP3feeeecOXP4lQher7ezIMbef//9hISEDRs2/OUvf/F4PM8//zxPFRTY2toq7lLYuXNnSkrK2rVrGWPbt28fNGjQq6++evTo0bfeeuv6669/5pln5JIpTAj0FgSIAntLT5GehIAfAS0FPv300zfeeOOVWyY4Ri+++GJ6enpbWxu+tqWurm7QoEHWaT9BgQLxzz///Otf//r8+fN5zHe/+93KykqR+pvf/CY7O1s8UoAQ6EUIEAX2os4iVQkBPQV+73vfmzVrlkBn//79AMBv9bPymch2/vz50aNHDx48uLS0tLq6+quvvuJJisilS5fGjh1bWFgoRjvT0tJSUlKuufpLSUkBACEuyqcAIRD7CBAFxn4fkYaEQCcCWi/w/vvv/9GPfiQyffjhhwDAr59U+Ezk4YHLly/X19cvWrTohhtuGDlyJL+WUhF5+OGHR4wY8fnnnwvZlJSUVatWHe76406nyEMBQqBXIEAU2Cu6iZQkBDoQ0FKgdSB04MCBnJOKiopMrl//8ssvBwwYUFdXp4yd/uIXv0hPT5fveWaM3XXXXQ899BB1CSHQBxAgCuwDnUhN6EcIzJw582//9m8/lH7Hjx/ny2EWLFjw0Ucf/fa3vxXLYRhjc+bMuf32248dO/bZZ58pjtobb7zx/PPPf/jhh3/5y19eeuml+Pj4AwcOyBRYX1+fkJCwZs0asSjm7NmzfDnMgAEDysvLDxw4cPDgwdra2iVLlvSjPqCm9iEEiAL7UGdSU/oBAso+BwCYOXMmY0y7KYIx9vHHH99xxx2pqalXciqbIt55552xY8dee+21qampBQUFGzdu5PiJgdDy8nJ5T4Woi7PgXXfdlZqaOmjQoG9/+9svv/xyP8CemtgHESAK7IOdSk0iBAgBQoAQMEGAKNAEJcpDCBAChAAh0AcRIArsg51KTSIECAFCgBAwQYAo0AQlykMIEAKEACHQBxEgCuyDnUpNIgQIAUKAEDBBgCjQBCXKQwgQAoQAIdAHESAK7IOdSk0iBAgBQoAQMEGAKNAEJcpDCBAChAAh0AcRIArsg51KTSIECAFCgBAwQYAo0AQlykMIEAKEACHQBxEgCuyDnUpNIgQIAUKAEDBBgCjQBCXKQwgQAoQAIdAHESAK7IOdSk0iBAgBQoAQMEHg/wPQ3KX5W+OkSgAAAABJRU5ErkJggg==;" vertex="1" parent="1">
          <mxGeometry x="-80" y="50" width="462.03" height="350" as="geometry" />
        </mxCell>
        <mxCell id="ZC6dXS9VG-4Vkqp6-rwn-2" value="" style="shape=image;verticalLabelPosition=bottom;labelBackgroundColor=default;verticalAlign=top;aspect=fixed;imageAspect=0;image=data:image/png,iVBORw0KGgoAAAANSUhEUgAAAlYAAAHFCAIAAAC/3SA4AAAAAXNSR0IArs4c6QAAIABJREFUeAHsfQlcVFX7/xlgGHYQRGQLK7EUxCzLlp8aKmqKS//e3vRFojTMErXltXxz1xR73bLefOs1tczdUCslDRSpFJfCBSXU3IXKEkFUFoHz93L0eLlz5sydmTszd4bnfvzguWd9zveceb73OSvC8AACgAAgAAgAAk0SAdQkaw2VBgQAAUAAEAAEMFAgdAJAABAABACBJooAUGATbXioNiAACAACgABQIPQBQAAQAAQAgSaKAFBgE214qDYgAAgAAoAAUCD0AUAAEAAEAIEmigBQYBNteKg2IAAIAAKAAFAg9AFAABAABACBJooAUGATbXioNiAACAACgABQIPQB6yKwbNkydPtxdXUNDw9/4YUXLly4IKfUbg2PnJg2jpOTk4MQysnJkVMuPzIJJQi5uLg0b948MTFx//79cnJWTxzSyqdPn7aLSBMmTIiMjHR1dfX39zckwLffftu3b9/mzZu7u7tHREQ8//zzR48eNRSZ448QmjJlCieC2UG///57YGAgQmj9+vVmZwIJTUUAKNBUxCC+aQgQ5bhs2bK8vLwdO3ZMnTpVp9PdfffdV69eNZqRaimwvLw8Ly+vvLzcaBUwxnIocNasWXl5ed9///3ChQsDAwO9vLyOHz8uJ3OVxLl48WJeXl5VVZXt5dm0aRNCaMKECT/++KOhT4dx48YhhPr06bNu3brc3NzFixe3bdtWp9NlZGSYKrD1KPCZZ54JCwsDCjS1RSyMDxRoIYCQ3AgChALFumnSpEkIoRUrVhhJibFqKdCo5OIIcihQ/OH/+eefI4QmT54szkQp97Vr15TKSiX5vPvuuwihP/74w5A8q1atuhnhlVdeEUe4evXqQw895OXldfLkSbE/dRsCymwKrKmpuXHjBs1f4vjyyy99fHxI04s7gyQavCqOAFCg4pBCho0Q0KfALVu2IIRmzpyJMa6srBw/fnyrVq20Wm1YWNirr756+fJlmp5SYH19fevWrXv16kWDMMYVFRV+fn6vvvoqtbRWrVr1zjvvhIaG+vr69ujRo6ioSBx/yZIlcXFxOp2uWbNmgwYNKiwspKEpKSne3t6//PJLr169vLy8WrZsmZ6ejjHOy8t74oknvLy8oqOjP/vsMxpfwmr79+9/7rnnoqKiPDw8oqKiBg8efObMGUORqT9xkKzEWu/o0aMIoZdffpnGPH78+JAhQ4KDg93d3e+///7//Oc/NAhjfOTIkYSEBE9Pz+bNm7/66qubN28WD9J269YtJiYmNzf3scce8/T0fO655zDG5eXlb775JoV97NixYqN83bp1jzzyiJ+fn6en59133/3iiy+S4urq6mbMmNGmTRsPDw9/f//27du///77JEh/INQo2idOnHjqqae8vb0jIiLeeOMNjgVZV1f33nvv3Xfffe7u7sHBwcnJyefPnyflRkVF3R5lF/5nDlHGxMQ0a9ZMn9J2796NEEpLSyNZkT5w+PDhhIQEHx+fRx99lAD10ksvBQYGent79+7d+9ixY5JSOE1DWnb58uVvvPFGWFiYRqP55ZdfSFmSv5cuXQoJCVm4cKF+Z5DEhFfFEQAKVBxSyLARAvoUuHDhQoTQ//73v/r6+t69e7u5uU2aNOm7776bO3eut7d3x44dqTakFIgxXrhwoUajEQ8PfvTRRwghMqNDdEerVq2SkpK2bNmyevXqu+66Kzo6ura2lkgza9YshNCQIUO2bNmyfPnye+65x9/fn+aWkpLi7u7etm3bhQsXZmVlvfjiiwihf/3rX23atFmyZMm2bdsSExMRQj/99BPJjRRH5wLXr18/efLkjRs35ubmrlmzplu3bsHBwX/++SczciN0bg+TiimQcNi8efNIzKNHjxK+Wb58+Xfffffmm2+6uLhMnTqVhJaUlAQFBd11112fffZZZmZmcnJyq1atJBQYGBgYGRn54Ycf5uTk5ObmXrt27YEHHmjevPn8+fOzs7MXLlzo7+/fvXv3+vp6jPHu3bs1Gs3gwYMzMzN37NixbNmy5ORkUlZ6erqrq+uUKVO2b9++devW999/n4ohoUCZaM+dOzc7O3vy5MkajWbatGkSZOjriBEjCFdt3br1448/Dg4OjoyMJPDm5+cPHz4cIbR169a8vDxKjTRtSUkJQogQP/WkjhYtWtx3333kNSUlRavVtmrVKj09ffv27du2bauvr4+Pj9fpdDNnzvzuu++mTJlyzz33iCmQ3zSkk4SHh//tb3/7+uuvN2/efOnSJVq02JGUlPToo4/W1dUBBYphsY0bKNA2ODfdUohy3LNnz40bNyoqKjZv3hwcHOzr6/v7779v3boVIfTvf/+borN27VrCjsRHTIFXrlzx9fUdO3YsjdyuXbv4+HjySnRH3759aei6desQQnl5eRjjy5cve3p6ikPPnTun0+n+8Y9/kPgpKSkIITozdOPGjeDgYIRQfn4+iXDp0iVXV9c33nhDXBylQFooxri2tvbq1ave3t4LFy40Gpnar2vXrr1x48b169d37dp13333tWvXjlrDvXv3joiIEM87pqWleXh4lJaWYozHjRun0WjEKzt69+4toUCE0Pbt26mQ6enpLi4u4qHpL7/8EiGUmZmJMZ47dy5CqKysjManjsTExAceeIC+ih1iCpSJ9rp162gOffv2pVREPYnjl19+QQgRW5/47N27FyH0zjvvkNcpU6YghOgHhyT5nj17EELjx4+X+JPXzp07e3p6EjfpA0uXLqUxv/32W4QQbUeM8cyZM8UUyG8a0ie7du1KM2Q6Nm/erNVqCwoKaGcQfw8xk4CngggABSoIJmTFQIAoR/FoVfv27X/88UeM8VtvvXVTu128eJEmq6+vvzkgSb/ZxRSIMR4zZoy/vz8Zstu+fbuYtIi6+fjjj2lWRUVFCKE1a9ZgjDMzMxFCYp2LMX7qqadCQkJI/JSUFI1GU1lZSZM/9thjoaGh9BVjHBoa+swzzxAfUhylwIqKirfeeuvee+91dXWlNR05ciQzsjhPqvVoKoRQaGgoXVpZWVnp5uY2evToG6KHVIcw1iOPPNK+fXtxnp999pmEAps1ayaO8MQTT8TFxYnyEz5NNBrNW2+9hTHOzc1FCPXq1Wvt2rWShbvTp0/XaDSvvPLK1q1bxZSMMRZToBlojx8/3sPDQywkdS9atAghtG/fPuqDMW7btm3nzp2JjyUU+Mgjj3h5eZF8CAWK60X6519//UWLPn36NKVAo01DOomYQWk+1FFWVhYeHj5x4kTiQ5IABVJ8bOAACrQByE26CKIcly9fvn///gMHDpSUlFA4hg8f7ubmRl+J49577+3ZsydxSyjwxIkTLi4un3zyCcb46aefjoiIoOOc+rqDaKtly5ZhjL/44guE0A8//CAuS1w6mQcSh5IpNLFPVFRUv379iI+EAvv37+/l5ZWenp6dnb1v3779+/cHBwenpKQwI4vzpBT43nvv7d+/Pzc3d8KECS4uLh06dCCjwRcuXBCzo9i9fPnym1UTw0VyJrYLpedu3bq1a9dOXGjr1q3F+VD3sGHDSLRNmzZ1795dp9PdXJ0YExOzatUq4n/jxo158+Z17NhRo9G4ubl1796dmpJiCjQDbUJjYiGpe8aMGQghyQhnjx49WrduTeLwKZA/EBoSEkKtz5SUFEqHJGdxDyE+lZWVlAKNNg3pJJIPL1ov4hg1alSrVq1+//33yw3PN998gxD6/PPPL1++TMalJfHhVXEEgAIVhxQybIQAUY5UV4rDDFmBgwcPJtEkFIgx7tevX1xc3Llz51xdXd99912aG58CDdklLVu2JDlYQoFlZWUajYbOimGMq6qqXF1dTaJA8Yc/WeI4Z86cm+Oc165dc3V1feGFF/brPcQ60bcCCeBiCoyJiaFAYYwfffTR9u3b6+W3n5qeJHJVVdXOnTvJsOru3bvFOVy+fHn9+vXR0dGBgYFkmYmYAs1Am0OBhqxAslzlplR8CsQYm7QcRlxNvhVotGn0+6Q4c+Lu1q0b/QSROOhIuH4q8FEQAaBABcGErBgIcChw27ZtCKH58+fTZOvXr0cILV68mPjoU+B3332HEIqPj3d3dxevg9dXN2IrkMxODRgwgBZ0/vx5nU6XlJREfCyhwPLycoQQWUFKcvvPf/6DEDKbAmtqalq3bh0UFHTlyhWMcc+ePTt06FBdXU2FFzvkzAVKKPDdd9/18vI6deqUOB9D7oMHDyKEPvroI/0IN5fD0OVIYgo0A20OBZIB7TFjxlAB9u3bRzYCEh+jFGhoU0SnTp3EmyL0+4DRuUB+0+j3SVoF6jhw4ECO6FmwYMFNIpw6dWpOTg5nBwVNDg7LEQAKtBxDyIGHAIcCyYpQrVY7derUrKysefPm+fj4GFoRSsto164dQmjo0KHUhw4nim0pMQVijMkaxeTk5MzMzC+++KJ169aSFaHe3t7iDE0aCO3atWtgYODixYuzsrImTpwYGhoaEBBgNgVijMlanhkzZmCMjx492qxZs0ceeWTZsmU5OTlff/31/Pnz6Tqg4uJiuiL022+/TU5OJvsEcnNzSXX0K3L16tWOHTtGRETMmzcvKytr27ZtixcvfvbZZ/fs2YMxnjRp0osvvrhixYqdO3du2rQpPj5eq9UeOXIEY5yYmDh+/Pgvv/wyNzd3+fLlrVq1ioqKqqmpkcwFmoE2hwIxxiNGjNBoNK+99tq2bds++eSTFi1aREZG0ik6oxSIMf7nP/+JEHrqqafWr1///fffL168uF27dpKt8foUWFdX17VrV51ON2vWLEMrQjlNI4cCxV2O2Y0lEeBVcQSAAhWHFDJshACHAsm+wLfffjsqKkqr1YaGhr7yyivi8R99KxBjPHXq1JsnfRB9TUvSVzcSCsQYf/rpp3Fxce7u7v7+/gMHDhSvotRXf/rMwZkLvHDhwjPPPNOsWTNfX98+ffocOXIkKirKEgrEGHfu3LlZs2ZkZebp06eHDRsWHh6u1WqDg4Mff/xx8SDwkSNHevbs6eHhERgYOHz4cLK9+tChQwQc/YrcpISrV69OnDiR7LQjOy5ef/3133//HWO8efPmp556Kjw83N3dvUWLFn379qVzqPPmzXv88cfJGWN33XXX8OHD6fZHsRVIyjUJbT4Fkn2Bbdq00Wq1zZs3Hzp0qHhqUA4FkiVRffv2DQoK0mq14eHhycnJ4g6AMdbvAxjjsrKyYcOGBQQEeHl5JSQkEJNUvPuQ0zT6fZJ2V0MOM5IYygr8ZSIAFCgTKIimFgQeeuihTp06qUUa9cmRmprq4+NjaOBUffKCRICAPREACrQn+lC2fATKy8t37dr1r3/9CyG0ceNG+QmdPua0adMWL168ffv2r776KjU1VaPRTJo0yelrDRUEBBRBAChQERghE6sjQMaIgoKCxMNQVi/VEQqYNWtWmzZtvLy83N3dY2JiFixYAOvpHaHdQEZVIAAUqIpmACEAAUAAEAAEbI8AUKDtMYcSAQFAABAABFSBAFCgKpoBhAAEAAFAABCwPQJAgbbHHEoEBAABQAAQUAUCQIGMZqirqzt//nxZWVk5PIAAIAAIAAKOjEBZWdn58+fr6uoYuh5joEAGLOfPn5ec1wevgAAgAAgAAo6LgPg4BbHSty4F5ubmJiYmhoaGSvZyVVRUjBo1Kjw83MPD4/7771+0aBGVqaqqKi0tLSgoyMvLq3///mK5S0tLhw4d6tfwDB06VHyMyNmzZxMTE728vIKCgkaPHi3eF3z48OGuXbt6eHjcvLh52rRpctaLl5WVkcPpHfnTB2QHBAABQAAQKCcmDfMKzJunTVmXAjMzMydMmJCRkSGhwJdeeunee+/Nyck5ffr0J5984urqumnTJsKCI0eODA8Pz8rKys/Pj4+P79ChA70Qp0+fPrGxsbsbntjY2MTERJKktrY2NjY2Pj4+Pz8/KysrLCwsLS2NBJWXl4eEhAwePLigoCAjI8PX13fu3LmUbg05yMHH4pvDDMUEf0AAEAAEAAE1I8DX59alQIqLhAJjYmKmT59OQx988EFyaWRZWZlWqyXXnGKMi4uLXVxctm7dijEuLCwUnwyZl5eHECoqKiKn/7m4uBQXF5MMV69erdPpCIEtWrTI39+fXL2GMU5PTw8LCzNqCPIho2KDAxAABAABQEDlCPD1uX0o8OWXX+7UqdOFCxfq6+t37Njh4+NDjuIlV4GXlpZSTOPi4iZPnowxXrJkib+/P/XHGPv7+y9dupScbR8XF0eDSktLEUI7duzAGCcnJ4uvyMnPz0cIGb0mhg8ZLQgcgAAgAAgAAipHgK/P7UOB1dXVzz//PELIzc3N3d2d3H+NMV65cqW7u7sY0ISEhBEjRmCMZ86cGR0dLQ6Kjo6eNWvWTWMxNTU1ISFBHOTu7k6uuk5ISEhNTaVBxcXFCCHJ/Z8ktKqqio6ak7FjGAiluIEDEAAEAAEHRUCNFDhnzpw2bdp8/fXXhw4d+vDDD318fLKyspgU2LNnz5dffplQYJs2bcRt0Lp1a3JPaWpqaq9evcRBWq129erVGGPKoCT0woULCKG8vDxxZOImV66I1zsBBeqjBD6AgH0RqKurq4QHEGAhQFeNSLqo6ijw+vXrWq128+bNVNDhw4f37t0bY2zHgVCwAmlzgAMQUCcC1dXVRUVFhfAAAgYQKCkp0V/qoToKJAJlZmbSn9mIESPISCZZDrN27VoSVFJSIlkOs3fvXhK0Z88eyXKYkpISErRmzRrxcpiAgAC6R2L27NmwHIbCDg5AwIEQqK+vP3PmzIkTJ65du8ayAcCvSSNw/fr1v/76q7CwkBIB7dv2pMCKiooDDQ9CaP78+QcOHDh79izGmNxknZOTc+rUqWXLlnl4eNCtgSNHjoyIiMjOzs7Pz+/evbtkU0RcXFxew9O+fXvJpogePXrk5+dnZ2dHRETQTRFlZWUhISFDhgwpKCjYsGGDn58fbIqgPQMcgIADIVBTU1NYWGhod5cDVQREtR4ChAUlI6L2pEByx5t4gi0lJQVj/Ntvv73wwgthYWEeHh733XffvHnzqPVaWVmZlpYWGBjo6emZmJh47tw5itelS5eSkpJ8G56kpCTJ1vh+/fp5enoGBgampaXRXRAY48OHD3fp0kWn07Vs2XLq1Km0IJqtvoMPmX588AEEAAFrI1BZWVlYWHj9+nVrFwT5Oy4C169fLywsrKysFFeBr89ttCJULJD63XzI1C8/SAgIOB8ChAIl2s35qgk1sgQBZifh63OgQAbgfMgYCcALEHBABGprcU4OXrVK+Ftbq3AFFM+cqd0UFhqyc3AEmJ2Er8+BAhltzoeMkQC8AAHZCCjODbJLbhQxIwNHRGCEbv2LiMAZGY0iWPJijcyZ2s0SIe2Vtlu3bmPHjuWXfvr0aYTQgQMH+NHMCyXzU+KJJPPyUWEqZifh63OgQEY78iFjJAAvQEAeAtbgBnklN4qVkYE1mjv8h5DwqtEow4JWypyp3RrVyiYv4pUNYjdZ5SBHhEuXLl25coUfs7a29rfffrtx4wY/mnmhMilQDlWbJ4D1UjE7CV+fAwUymoMPGSMBeAECMhCwEjfIKLlRlNraRvYfNQQ1GhwZaemIqPUyZ2q3RhVjvShuc/92+3n//ff9/Pxuv/0mXqpaU1PDkkUtfkCB4pYAChSjccsNFMgABbwsQ8B63GCqXDk5jew/SoHEkZNjan6N4lsvczMo0Ko297Jly+ipxWTccu3atd26ddPpdEuXLv3rr78GDx4cHh7u6ekZGxtLzmskSImtq6ioqJkzZ7744os+Pj6RkZGffPIJiSMeCCWMlZ2d/dBDD3l6ej722GPkegASc8aMGcHBwT4+PsOHD3/77bc7dOjQqD1uv2zZsiU6OtrDw+PJJ59ctmwZQogMhBqSMyUlRWzjnj59ura2dtiwYa1atfLw8GjTps37779/O28V/c/sJHx9DhTIaD8+ZIwE4AUIGEPAetxgrGRp+KpVPApctUoa36R362XO1G4c2axtc+tTYKtWrTIyMk6dOlVcXHzhwoU5c+YcOHDg5MmTH3zwgaur6549e4i0EgoMDAz86KOPTpw4kZ6e7uLi8ssvv2CM9Smwc+fOO3fuPHr0aJcuXR5//HGS1YoVKzw8PJYuXXrs2LFp06b5+fkxKfDcuXM6nW7s2LFFRUUrVqwICQmhFGhIzrKyssceeyw1NZWYubW1tTU1NZMnT963b9+pU6dWrFjh5eVFzzDhtIKNg5idhK/PgQIZbcSHjJEAvAABYwhYjxuMlSwNtyoZWy9zpnaT1u32uw1sbn0K5BhGffv2ffPNN4l0EgocOnQo8a+vr2/RosV///tfJgVmZ2eTaFu2bEEIkc0hnTt3HjVq1O1K4yeeeIJJgf/617/atm1Lt0S//fbblAJpWuIwJKckGsb41VdffeaZZ/T97evD7CR8fQ4UyGgyPmSMBOAFCBhDwHrcYKxkaTihB8lyGLIiRqm5QGtkztRu0rrdfrcB2voU+OOPP94uH9fW1r777rvt27cPDAz09vZ2c3N79tlnSaiEAv/973/TVHFxcdOmTWNS4MWLF0k0cuMbOWYrICDg888/p8lff/11JgUOGjToxRdfpNE2bdpEKVCmnCTtf//734ceeqh58+be3t5arfbhhx+mearEwewkfH0OFMhoOz5kjATgBQgYQ8CqxGOscGk4GSQUE5XiK0IVz5yp3aQVu/1uA5tbnwLFexjee++9oKCgL7744uDBgydOnOjXr9/AgQOJdBIKXLBgwW2p8U0CmzJlCpMC6R6GAwcOIIROnz6NMQ4ICKA3zWGMX3vtNSYFDhw40BAFypQTY7x27VoPD4+PPvooPz//xIkTI0aMYJZF62IXB7OT8PU5UCCjpfiQMRKAFyAgAwGrEo+M8htFkSwViYxUZkcEKcMamTO1W6MqiV7sYgWKKfDm4Y7Dhg0jEtXV1bVp08YaFNi5c2d6HjLG+P/+7/+YtEQGQik848ePp1YgR86EhARx5mlpad27d6eZ9OjRg1kWjWAXB7OT8PU5UCCjpfiQMRKAFyAgDwFrcIO8khmxFN8wIC5D8cyZ2k1cothtA5ubbwW+9tprkZGRu3btKiwsfOmll/z8/KxBgStWrPD09Pzss8+OHz8+Y8YMPz+/Bx54QIwDcZ89e9bd3f31118vKipauXLlzdOSKQVy5ExNTX344YdPnz79559/1tXVkU0gW7duPXbs2MSJEw0tvdEv3ZY+zE7C1+dAgYwG4kPGSABegIBsBBTnBtklO3ZEpnbjVMnaNjefAi9dujRw4EAfH58WLVpMnDjx+eeftwYFYoynT5/evHlzHx+fYcOGjRkz5tFHH2Vi8s0339y8Y1yn03Xp0mXp0qWUAjlyHjt27NFHH/X09CTjrlVVVS+88IK/v39AQMArr7wyfvx4sAKZUDuDJ1CgM7Qi1MG5EDCVAjEWhnbFh8ApO9irQnR79uxJ15eqUDwbiMTsJHx9DlYgo134kDESgBcgAAhYGQGmdjNapnPb3NeuXZs3b96RI0d++eWXyZMnI4SysrKMYuLEEZidhK/PgQIZ/YEPGSMBeAECgICVEWBqNyuXqfbsr1+/3qNHj2bNmnl5eXXs2DFDwZPO1V51tnzMTsLX50CBDCj5kDESgBcgAAhYGQGmdrNymZC9gyHA7CR8fQ4UyGhjPmSMBOAFCAACVkaAqd2sXCZk72AIMDsJX58DBTLamA8ZIwF4AQKAgJURYGo3K5cJ2TsYAsxOwtfnQIGMNuZDxkgAXoAAIGBlBJjazcplQvYOhgCzk/D1OVAgo435kDESgBcgAAhYGQGmdrNymZC9gyHA7CR8fQ4UyGhjPmSMBOAFCAACVkaAqd2sXCZk72AIMDsJX58DBTLamA8ZIwF4AQKAgJURYGo3K5cJ2TsYAsxOwtfnQIGMNuZDxkgAXoAAIGBlBJjazcplKpM9ufadXvWgTKam5CI+y42TLioqSnxtBSemSUG2rD6zk/D1OVAgozX5kDESgBcgAAhYGQGmdrNymezsU1JSUMPj5uZ29913v/nmm1evXmVHbfC1JQcwxbh+/foff/zBDBJ7cijw0qVLY8eOjYqK0mq1LVu2fOGFF8iFheLkhtzKVn/WrFk3DzgdO3YsszhmJ+Hrc6BABpJ8yBgJwAsQAASsjABTu1m5THb2KSkpffr0+e23386dO7dy5UpPT8+RI0eyozb4KssBnIIsDDJEgZcuXYqOjo6JidmyZcvZs2dzc3O7dOnSokWLkydP6pdYXV0t8TSj+vqZkDz37dvXqlWruLg4oEAJyAq/AgUqDChkBwhYjICqKJBe+4Axfumll1q2bIkxrqqqGj16dHBwsE6ne+KJJ/bt20cqTTng6tWrvr6+69evp2B8/fXXXl5eV65cOX36NEIoIyPjySef9PT0jIuL2717N4325ZdftmvXzt3dPSoqau7cudQ/KipqxowZycnJ3t7ed91116ZNmy5evDhgwABvb+/Y2Nj9+/eTmOKB0F9//XXAgAEtWrTw9vbu1KmT+ExRQxQ4cuRIb2/v3377jZZ7/fr18PDwPn36EJ9u3bqNGjXq9ddfDwoK6tq1K8Z4y5Yt0dHRHh4eTz755LJly+jFFBjjXbt2denSxcPDIyIiYvTo0dSAJnVJSUnx8/N7/vnnaVnUUVFRER0dnZWVJb5zmIYSB7OT8PU5WIESDIVXPmSMBOAFCAACVkagkXarr8dXr1rrX309vyopKSliChw9enRQUBDGeMyYMWFhYZmZmUePHk1JSWnWrNmlS5cwxpQCMcapqal9+/al+T/99NNE3RMKvP/++zdv3nzs2LG//e1vUVFRN27cwBj/9NNPLi4u06dPP3bs2LJlyzw9PZctW0ZyiIqKCgwM/Pjjj48fP/7KK6/4+vr26dNn3bp1x44dGzRoUNu2besb6iJT/QlSAAAgAElEQVSmwIMHD3788ceHDx8+fvz4hAkTPDw86JAmkwJv3hQYEBAwYsQIKjNxzJw5U6PRkAp269bNx8dn3LhxRUVFv/zyy7lz53Q63dixY4uKilasWBESEkIp8PDhwz4+PgsWLDh+/PiuXbs6duz4wgsv0Lr4+fnNmTPnRMMjKQ5j/Pzzz7/22ms38QQK1AdHYR+gQIUBhewaEHDuWwus3ciNKPDqVYyQtf5xJ/YwxmIK3Lt3b1BQ0N///verV69qtdqVK1cSHGpqasLCwv79739LKHDv3r2urq7FxcUY4z///FOr1e7cufNmnoQCP/30U5L86NGjCKFffvkFY/yPf/wjISGBwjtu3Lh27dqR16ioKHo70m+//YYQmjRpEgnKy8tDCBHTTUyBNB/iaNeu3Ycffkhz018O8/vvvyOE9P03bNiAENq7dy/hJPFVveSSesK+GOO3336bUmBycrKYTX/44QcXF5fKykqMcVRU1KBBgyTi0dfVq1fHxsaSmECBFBZrOYACrYVsE85XcnddRIRwmx088hFQFQW6urp6e3vrdDoXF5enn376jz/+OHToEELozJkztEaDBg168cUXJRSIMY6Li0tPT8cYz58//9577yVUQSiQjp2WlpYihHJzczHGHTt2nDp1Ks1206ZNWq22traW0AZhWYxxfX09QmjdunUk5qlTpxBChw4duhlNTIFXr14dN25c27Zt/f39vb29XVxcxo0bR5IwrUBDFJiRkYEQIgJ369btpZdeohLSihOfTZs2UQokw7netx8vLy+EUGFhIanLu+++SzMRO86dO9eiRYuDBw8ST6BAMThWcQMFWgXWJpwpucFcbLdoNFijARY0oU80okB7D4T27NnzxIkTZ86cqampIXU4ePAgQogOKmKMBw4cOGzYMH0K/OCDD9q0aXPzRt/27dtTpU8o8MCBAyS3y5cvI4RycnIwxg888MC0adMoUhs3bhRToNg+Qwht3LiRxBRnKKbAV1555Z577tmwYcPhw4dPnDjRoUMHurSESYFkIDQ1NZUKQBySgVCaCak44X4SU0yB999//+jRo8lQJ/1LFr8wSyc5bNy4ESHkevtBCGk0GldXV/IdIBasUSe5HcDX5zAXeBsn0f98yEQRwQkIGEegtrbR3eWUCDUaHBmJG77mjWcCMZjazS6wiAdCqQBXr151d3cXD4SGh4fPmTNHnwJLS0s9PDwWLlzo4uJy/vx5koOYsTDGYgrUHwiNiYkhqSS0IYcCY2Njp0+fTpJXVFT4+/tT9pLkRqs2YsQIo8thaCYYYzIQSpOPHz+eWoH/+Mc/unfvToPEDkOlY4yvXLlSIHo6deo0dOjQgoICcXLiZnYSvj4HCtSHEZbDMDABL7MRyMnhTVo1fOibnXcTSsjUbnapP5MCb/LW2LFjw8LCvv32W7ocprS0VJ8CyfSeu7s7XVFJ5wKZVuDPP/9Ml8N89tlnkuUwplqBgwYNeuCBBw4cOHDw4MH+/fv7+vpS9jJEQn/++ee9994bGxubmZl57tw5/U0RkpHJs2fPuru7v/7660VFRStXrmzZsiWlwEOHDnl6er766qsHDhw4fvz4V199lZaWRhrRUOn6TSwpThyB2UmAAsUQyXLzIZOVBUQCBG4jsGoVjwJXrbodD/7nIsDUbtwU1go0RIGVlZWjR49u3ry5oU0RVKDt27eL5+34FIgxJpsitFrtXXfdRSxLkpWENuRYgadPn46Pj/f09IyMjPzPf/4jphNJblRasnJn9OjRkZGRbm5uISEhKSkp4iFfcSYk1TfffNO6dWudTtelS5elS5dSCsQY79u3LyEhwcfHx9vbOy4ububMmcy6iEuXuPWLoxGYnYSvz8EKpOjdcfAhuxMPXICADATACpQBkvEoTO1mPJkqY6xYsSIoKMjQBnBViuwYQjE7CV+fW5cCc3NzExMTQ0NDxZ8nBMvCwsL+/fv7+fn5+Ph07tyZflNUVVWlpaUFBQV5eXn179+fjpXf3HZTWlo6dOhQv4Zn6NCh4jP3zp49m5iY6OXlFRQUNHr0aHHfOnz4cNeuXT08PMLCwqZNm0aX6nKalA8ZJyEEAQL6CJC5QI1GagvCXKA+VhwfpnbjxFdn0LVr144cORITE/POO++oU0KHlorZSfj63LoUmJmZOWHCBLJ8li5Vwhj/+uuvgYGB48aNy8/PP3ny5ObNm+kRdiNHjgwPD8/KysrPz4+Pj+/QoQNd9tOnT5/Y2NjdDU9sbGxiYiJprdra2tjY2Pj4+Pz8/KysrLCwMDq+XF5eHhISMnjw4IKCgoyMDF9fX/HZCoYamw+ZoVTgDwgYQoCsCBWzIKwINYSVIX+mdjMUWbX+U6ZMcXNz6969e0VFhWqFdFzBmJ2Er8+tS4EUSokV+Nxzz9EdnTQOxrisrEyr1a5Zs4Z4FhcXu7i4bN26FWNcWFiIENqzZw8JIhs/i4qKMMaZmZkuLi5ktynGePXq1Tqdrry8HGO8aNEif3//qqoqkio9PT0sLMyoIciHTCwwuAEBmQhI9gVGRsKOCJnI3YrG1G6mZQGxnR0BZifh63M7UGBdXZ2Pj8/06dN79eoVHBz8yCOPUAORzBKTZVSkseLi4iZPnowxXrJkib+/v7gF/f39ly5dijGeNGlSXFwcDSK7Snfs2IExTk5OHjBgAA3Kz89HCJ06dYr6MB18yJhJwBMQMIoAnA5jFCJOBKZ248SHoCaIALOT8PW5HSiQHOTj5eU1f/78AwcOpKenazQackrQypUr3d3dxS2XkJBADtSZOXNmdHS0OCg6OnrWrFnk2D3xAUIYY3d391UNK+0SEhLEmzqLi4sRQuLzZ2mGVVVV5bef8+fPI4SIHUkjgAMQAATsiADRbtevX7ejDFC0yhG4fv16YWEhOUeNiqo6CiQ8NGTIECpi//79Bw8ejDHWp8CePXu+/PLLGOOZM2eSIxVoqpuLbsk5Q6mpqb169aL+NyNrtdrVq1ffPJWcMigJvXDhAkIoLy9PHJm4p0yZQu4Ao3+BAvVRAh9AwF4I1NTUFBYWlpWV2UsAKFf9CPz111+FhYV0+QgRWHUUWF1d7ebmNmPGDAroW2+99fjjj2OM7TgQClYgbQ5wAAIqRKC+vv7MmTMnTpy4du1aJTyAQGMErl+/TvivpKRE0ntVR4EY48cee0y8HGbQoEHEKCTLYdauXUvqUFJSIlkOQw4mxxjv2bMHISReDkNrvmbNGvFymICAALpHYvbs2bAcRtI/4BUQcBQEqquri4qKCuEBBAwgUFJSor/a0Z4UWFFRcaDhQQiRmT+y/2/Dhg1arfZ///vfiRMnPvzwQ1dX1x9++IH8DkeOHBkREZGdnZ2fn9+9e3fJpoi4uLi8hqd9+/aSTRE9evTIz8/Pzs6OiIigmyLKyspCQkKGDBlSUFCwYcOGm9sQYVOEo+g7kBMQ0Eegrq6u8dc/vAECtxCQjH/SzmNPCiR3RdLZNYRQSkoKkWzJkiWtW7f28PDo0KHDpk2bqLiVlZVpaWmBgYGenp6JiYnnzp2jQZcuXUpKSvJteJKSkiRb4/v16+fp6RkYGJiWlkZ3QWCMDx8+3KVLF51Od/OouqlTp+p/I9D8qYMPGY0GDkAAEAAEAAGVI8DX5zZaEapyjCTi8SGTRIZXQAAQAAQAAdUiwNfnQIGMhuNDxkgAXoCAbARgd6BsqCAiIKAAAnx9DhTIgJgPGSMBeAEC8hCQnBEDd8fLgw1iAQLmI8DX50CBDGT5kDESgBcgIAMBuDteBkgQBRBQGAG+PgcKZMDNh4yRALwAAWMIwN3xxhCCcEDAKgjw9TlQIAN0PmSMBOAFCBhDAG4NNIYQhAMCVkGAr8+BAhmg8yFjJAAvQMAYAnB3vDGEIBwQsAoCfH0OFMgAnQ8ZIwF4AQLGEAAr0BhCEA4IWAUBvj4HCmSAzoeMkQC8AAFjCMDd8cYQgnBAwCoI8PU5UCADdD5kjATgBQjIQADujpcBEkQBBBRGgK/PgQIZcPMhYyQAL0BAHgKSfYFwd7w82CAWIGA+Anx9DhTIQJYPGSMBeAECshGA02FkQwURAQEFEODrc6BABsR8yBgJwAsQAAQAAUBAlQjw9TlQIKPR+JAxEoAXIAAIAAKAgCoR4OtzoEBGo/EhYyQAL0AAEAAEAAFVIsDX50CBjEbjQ8ZIAF6AACAACAACqkSAr8+BAhmNxoeMkQC8AAFAABAABFSJAF+fAwUyGo0PGSMBeAECgAAgAAioEgG+PgcKZDQaHzJGAvACBAABQAAQUCUCfH0OFMhoND5kjATgBQgAAoAAIKBKBPj6HCiQ0Wh8yBgJwAsQAAQAAUBAlQjw9TlQIKPR+JAxEoAXIAAIAAKAgCoR4OtzoEBGo/EhYyQAL0AAEAAEAAFVIsDX50CBjEbjQ8ZIAF6AgMoQgJNIVdYgII7JCCjVh/n6HCiQ0TB8yBgJwAsQUBMCkvsoIiJwRoaa5ANZAAFjCCjYh/n6HCiQ0RR8yBgJwAsQUA0C5FZChDD9p9FgjQZYUDUtBIIYQ0DZPszX50CBjNbgQ8ZIAF6AgDoQIHfTU/KjDo0GR0bi2lp1SAlSAAKGEVC8D/P1OVAgoyn4kDESgBcgoA4EcnLuGH+U/6gjJ0cdUoIUgIBhBBTvw3x9DhTIaAo+ZIwE4AUIqAOBVat4FLhqlTqkBCkAAcMIKN6H+focKJDRFHzIGAnACxBQBwKKf0Gro1ogRRNCQPE+zNfnQIGMvsWHjJEAvAABdSBA5lE0GqktCHOB6mgfkMI4Aor3Yb4+BwpkNAkfMkYC8AIEVIMAWU0nZkFYEaqaxgFBZCGgbB/m63OgQEaT8CFjJAAvQMD6CMjfKSzZUxUZCTsirN88UIKiCCjYh/n6HCiQ0W58yBgJwAsQsDICEo1gdLe7fL60suCQPSBgJgJK9WG+PgcKZDQPHzJGAvBSDQJK/WxUUyFBEGV3CquqaiAMxsJ+zZwcvGqV8Bf2bireJfj63LoUmJubm5iYGBoaihDauHGjft1GjBiBEFqwYAENqqqqSktLCwoK8vLy6t+///nz52lQaWnp0KFD/RqeoUOHXr58mQadPXs2MTHRy8srKCho9OjR1dXVNOjw4cNdu3b18PAICwubNm1afX09DTLk4ENmKBX42x0BU00luwssRwDFdwrLKRTi2AwBp+y0NkNPTkF8fW5dCszMzJwwYUJGRgaTAjdu3NihQ4ewsDAxBY4cOTI8PDwrKys/Pz8+Pr5Dhw61t7+L+vTpExsbu7vhiY2NTUxMJPWvra2NjY2Nj4/Pz8/PysoKCwtLS0sjQeXl5SEhIYMHDy4oKMjIyPD19Z07d65R1PiQGU0OEeyCgLOaSoqvEbdL60ChTASctdMyK2svT74+ty4F0jrrU+CFCxfCw8OPHDkSFRVFKbCsrEyr1a5Zs4YkLC4udnFx2bp1K8a4sLAQIbRnzx4SlJeXhxAqKirCGGdmZrq4uBQXF5Og1atX63S68vJyjPGiRYv8/f2rqqpIUHp6elhYmFFDkA8ZyQr+qgoBJzaVFN8prKqGa8rCOHGnVVWz8vW5fSiwrq4uPj7+/fffxxiLKXD79u0IodLSUopgXFzc5MmTMcZLlizx9/en/hhjf3//pUuXYownTZoUFxdHg0pLSxFCO3bswBgnJycPGDCABuXn5yOETp06RX2oo6qqqvz2c/78eYQQIVEaARxqRsCoqeS40y1Gq6bmdgHZOAhAy3LAUTBIjRQ4a9ashIQEYo2JKXDlypXu7u7iyickJIwYMQJjPHPmzOjoaHFQdHT0rFmzMMapqakJCQniIHd391UNh0ElJCSkpqbSoOLiYoTQ7t27qQ91TJkyBTV+gAIpOOp38E2l117DERF3dosbXU6pqvoqvlNYVbVrysLwOy2cZqdU31AdBf70008hISF03JJPgT179nz55ZcJBbZp00YMSuvWrdPT0wkF9urVSxyk1WpXr16NMaYMSkIvXLiAEMrLyxNHJm6wAvUxcSAf/gc1PSeaOBxuq7iyO4UdqFmdW1R+p4UzzZVqfdVR4IIFCzQajevtByHk4uISFRWFMbbjQKgYbj5k4pjgVgkChkwlhLCr6x37j3Khwx0YJlk3CLvdVdLxLBHDUKd1uM5pCQg2SMvX53aYC/zrr78KRE9YWNjbb79NFraQ5TBr164luJSUlEiWw+zdu5cE7dmzR7IcpqSkhAStWbNGvBwmICCA7pGYPXs2LIexQZ+zSxFMU4lyHtPhWB/ajjudaZf+4BCFMjst3G+sbNvZkwIrKioONDwIofnz5x84cODs2bOS6okHQjHGI0eOjIiIyM7Ozs/P7969u2RTRFxcXF7D0759e8mmiB49euTn52dnZ0dERNBNEWVlZSEhIUOGDCkoKNiwYYOfnx9sipDg70yv+qbSa68xTEBKhzDd4kyt76B10e+0GRkOWhWVim1PCszJyWm8xASlpKRIcJJQYGVlZVpaWmBgoKenZ2Ji4rlz52j8S5cuJSUl+TY8SUlJkq3x/fr18/T0DAwMTEtLo7sgMMaHDx/u0qWLTqdr2bLl1KlTje6IwBjzIaPygEOFCEhMJZhuUWEbgUgSBCSdVhIKrxYiwNfnNhoItbAONk7Oh8zGwkBxliAA0y2WoAdpAQEnQICvz4ECGU3Mh4yRALxUjABMt6i4cUA0QMDqCPD1OVAgowH4kDESgJe6EYDpFnW3D0gHCFgRAb4+BwpkQM+HjJEAvFSPAEy3qL6JQEBAwCoI8PU5UCADdD5kjATgBQgAAoAAIKBKBPj6HCiQ0Wh8yBgJwMsZEQDD0RlbFerU5BDg63OgQEaH4EPGSABeToeAZPrQsY4VdbrWgAoBAuYjwNfnQIEMZPmQMRI4rBcYOsymI4tI6Q56hLDDHSvKrBd4AgJNEAG+PgcKZHQJPmSMBI7pBYYOs93IVkIx/xE3nNzIhAs8AQGVI8DX50CBjObjQ8ZI4IBeYOgYajQ4UMYQMuAPCNgagY0bsd6ZmqbKwNfnQIEMPPmQMRI4mhcYOpwWg1vcOOBAECBgOwTKy7GHhzAJ8csvlhTK1+dAgQxs+ZAxEjiaFxg6nBYDcDjgQBAgYDsEPv1UOOS+bVtcX29JoXx9DhTIwJYPGSOBo3k1QUNH/sIfOFbU0bozyOukCHTpIlDg7NkWVo+vz4ECGfDyIWMkcDSvpmbomLrwB44VdbQeDfI6HQInTwr8p9HgCxcsrBtfnwMFMuDlQ8ZI4GheTcrQMW/hj4Q14ZZ2R+vjIK+DIzBlikCBCQmWV4Ovz4ECGQjzIWMkcECvJmLoWLLwR/7YqQO2P4gMCKgYgbo6fPfdAgWuWGG5lHx9DhTIQJgPGSOBY3o1BUOnqQ35Am075m8RpG6MQG6uwH++vvjatcYB5rzx9TlQIANTPmSMBA7r5fQas0kt/JF808Chbg77u2zygg8bJlDgsGGKAMHX50CBDJD5kDESgBcXATsSbdOxAs2b8uS2GwQCAvZA4No1wf5DCOfmKlI8X58DBTJA5kPGSABehhGwr2nSRBb+WDLlabjpIAQQsAcCK1YI/Hf33biuTpHi+focKJABMh8yRgLwMoCAGkwTkxb+2NFgNQChLO+mY+zKggMiOTQCvXoJFDhlilKV4OtzoEAGznzIGAnAi4WAekwTiSVqaIeDJJoDzaU1qSlPVl8DP2dB4MIF7OIiUODJk0pVia/PgQIZOPMhYyQALxYCqjJNjJp3ajBYWSjK8lMV1LIkhkiAABOB2bMF/uvShRlonidfnwMFMlDlQ8ZIAF4NCEhoxoFME/UYrOZ1pSYy5WkeOJDKYRCorxdOBEUIL16soMx8fQ4UyICaDxkjAXhhrD+KOG2a0JkN/cvJURFqTmBFmTTlqSLoQRRAgCKwb5+gLzw8cFkZ9bPcwdfnQIEMhPmQMRI0eS9Do4hBQcIhfxIWVOHds8oarBJr2Ga9Q/IVYmjK02byQEGAgGkIjBolKIshQ0xLZSw2X58DBTLw40PGSNC0vTijiEFBDP7TaASTUVWPglaghIcUWVMjn1Plx1QV/iAMIICrqnBgoKAvtm5VFg2+PgcKZKDNh4yRoGl78fnDz68RCwYFqY7/MMZKzaUZsoYtoXxrcGrT7rBQe1UikJEhaIqwMOHXqOjD1+dAgQyw+ZAxEjRtL/4oov4oqCV8YD2kLZ9L41jDkZFm/q6twanWwxByBgTMR2DAAIEC33rL/BwMpOTrc6BABmx8yBgJmrYX3wrUp0Cz+cDaMEvsLVPn0vg4mLH8R3FOhWFSa3chyN9MBC5exG5uAgUePWpmDoaT8fU5UCADOT5kjARN28vQKKKE/MSvZvCBbTAWk0R1Nc7JwatWCX/ljM3wreFVq0yugbKcKiF4RSYpTa4SJAAEmAi8/77Af506MQMt9OTrc6BABrx8yBgJmryX/iiimPD03WbwgY0xNoMwlGUsjAX21YeO+piEIQyo2rj/QHGmIfDgg0Jf/+AD01LJi83X50CBDBT5kDESgJfevsDgYJ76tr0VKDbvjJp05hGGIWvY7E0gSnGq4gOq0N8BASURKCgQlIVWi//8U8lsb+fF1+dAgbdxEv3Ph0wUEZyNEBDTTHU1johQy6ZAk0w6SwhD3xrWaAQQzFsBpBSnKkWljRobXgABpRD45z8FChw0SKn8JPnw9TlQoAQu4ZUPGSMBeLEQUJYPJCWI6ZZv1Zlq0plBGGJh1q8XuJ8OV+qvqRFH5kuOG2xrQqI0QzM4VcEBVUkrwCsgYCkCN27gli2FH8zGjZZmZSA9X59blwJzc3MTExNDQ0MRQhtv17Cmpuatt96KjY318vIKDQ1NTk4uLi6mwldVVaWlpQUFBXl5efXv3//8+fM0qLS0dOjQoX4Nz9ChQy9fvkyDzp49m5iY6OXlFRQUNHr06Orqahp0+PDhrl27enh4hIWFTZs2rb6+ngYZcvAhM5QK/PURkJhf+nygn0SOjyRbzsoOM0w6UwlDX5h16wyuo9GPbNRAlCQxA0M+qU+bJgdyiAMIWAeBr74S+C8oCIuUtrIl8fW5dSkwMzNzwoQJGRkZYgosKyvr2bPn2rVri4qK8vLyOnfu/NBDD9E6jxw5Mjw8PCsrKz8/Pz4+vkOHDrW3P5X79OkTGxu7u+GJjY1NTEwkqWpra2NjY+Pj4/Pz87OyssLCwtLS0khQeXl5SEjI4MGDCwoKMjIyfH19586dS8sy5OBDZigV+DMRMMnoYeYg8TTJquNrf+aUpElJTBLGpMjiWluIoaEBVWpZGqVhsTDgBgSURKB7d4EC//lPJfNsnBdfn1uXAqkkYgqknsSxb98+hNDZs2cxxmVlZVqtds2aNSSouLjYxcVla8N5OYWFhQihPXv2kKC8vDyEUFFREcY4MzPTxcWFmpKrV6/W6XTl5eUY40WLFvn7+1dVVZFU6enpYWFhRg1BPmQkK/hrFwRMtepMNelMOinGJGFMiqw4tvrsS/nP7NU6igsJGTY5BA4dEvjP1RU36H8rVZ+vz+1PgVlZWRqNhjDW9u3bEUKlpaUUi7i4uMmTJ2OMlyxZ4u/vT/0xxv7+/kuXLsUYT5o0KS4ujgaVlpYihHbs2IExTk5OHjBgAA3Kz89HCJ06dYr6UEdVVVX57ef8+fMIISISjQAONSBgkomGsTAgSXW9voNpBcqfgTMpc5MiWwNqB7q4wxrVhzzViMCwYcLv89lnrSqbqimwsrLyoYceSkpKIhCsXLnS3d1dDEdCQsKIESMwxjNnzoyOjhYHRUdHz5o1C2OcmpqakJAgDnJ3d1/VsG0qISEhNTWVBhUXFyOEdu/eTX2oY8qUKajxAxRIwVGPw1SrztAYoFHTR84MnEnCmBTZGoDbXQBrVArydGAE/vgD63QCBe7aZdVaqJcCa2pqBg4c2LFjR0o2+hTYs2fPl19+mVBgmzZtxEi1bt06PT2dUGCvXr3EQVqtdvXq1RhjyqAk9MKFCwihvLw8cWTiBitQHxMV+phhS5ExQPGdTTIXVRqdgTNJGJMiWwN5uwtgjUpBng6MwPTpAv89/DCWsUTRkmqqlAJramoGDRoUFxf3119/0erZcSCUygCbIsRQqM1tnlW3fj0Wb9U3Y1ElEweThDEpMrM4Cz3tLoCF8kNyp0KgqurWXoiVK61dLzVSIOG/mJiYixcviutPlsOsXbuWeJaUlEiWw+zdu5cE7dmzR7IcpqSkhAStWbNGvBwmICCA7pGYPXs2LIcRA+6IblOtOsmQZvPmeN06xeptkjAmRVZMRFFGdhdAJAs4mzYCy5cLJmBYmPX2QlB87UmBFRUVBxoehND8+fMPHDhw9uzZGzduDBgwICIi4uDBg7/dfihLjRw5MiIiIjs7Oz8/v3v37pJNEXFxcXkNT/v27SWbInr06JGfn5+dnR0REUE3RZSVlYWEhAwZMqSgoGDDhg1+fn6wKYL2DMd1SFiNY9URpS9eCCNzFJQPjniM1OheeHFW8iUXp1LQbXcBFKwLZOWoCNTX444dBQqcOdMGVVCGAi9fvrx48eLx48dfunQJY/zzzz9fuHDBqPQ5OTmNl5iglJSU06dPSzwRQjm3F+dVVlampaUFBgZ6enomJiaeO3eOlnLp0qWkpCTfhicpKUmyNb5fv36enp6BgYFpaWl0FwTG+PDhw126dNHpdC1btpw6darRHREwEEoBV7NDTEK3N45K5SVDf2L+I26ja2GkGTV+l7BIRAReswYvWIDT0oS/Rjf4ypG8cYEKv9ldAIXrA9k5HALffy/wn4eHlQ4FleChAAUeOnQoODi4devWbm5uJ0+evLl3auLEicnJyZKSnOaVD5nTVNPpK2KNBSD6ZqWEYjlH1Tg94FBBQEAWAv/v/wkUKFqrLyuVuZH4+lzWvsAePXqMGzcOY+zj40MocNeuXVFRUeaKpPZ0fMjULqK/xgQAACAASURBVD3IdxsBxbcBGDIrxSyoyEDr7RrA/4CA0yFw+jR2cREo8MgR29SNr89lUaCfn9+vv/4qpsAzZ87odDrbVMD2pfAhs708UKJ5CChuBfIzpERo4UCreZWFVICAYyDw5psC/zXeyW1Vyfn6XBYFtmjRIj8/X0yB27Zti4iIsKrcdsycD5kdBYOiTUJA8W0AfLOSUiBx3J7dNklkW0eGeUFbI97Ey7tyBfv7CxS4ZYvNkODrc1kUmJqaOmjQoJqaGh8fn1OnTp09e7Zjx45jx461WR1sXBAfMhsLA8VZgoCy2wBkWoGEAk261d2SOpqdVn9dD5yXbTaYkFAWAh9+KPBfmza4rk5WfCUi8fW5LAosLy9/4oknAgICXF1dIyMjtVpt165dr169qoR4asyDD5kaJQaZDCMgUfScHRSG87gVYsislNh/DmEF6q/rgVlMox0AIliEQF0dbt1aoMD//MeifExMzNfnsiiQlLh9+/Y5c+a89957WVlZJsrgYNH5kDlYZUBcjM0b7mOm0jcr9flP/XOBhtb1qF9y6M4OjMA33wj85++PKypsWQu+PjeBAm0ptH3L4kNmX9mgdCshICE8ie0o3uogCZJQoEPYUvwRXYeYxbRSN4BsrYhAjx4CBVrzakCm8Hx9LosCR48evXDhQnHuH374IcwFigEBt0MjIGG1oCDhpyr+JyE2MV+adDqMSlDir+tR/yymSmAEMUxA4PBh4Rfl4oLPnDEhlRJRFaDAsLCwn376SSzMzz//HB4eLvZxJjcfMmeqKdSF3g4oJjymmzNIKGZEQ0fVqApqsAJV1RxNQpjhwwUK/NvfbF9Zvj6XZQXqdLoTJ06IRT9x4gTsCxQDAm4HRcDQrBiTBRES7uB1gsfQuh4OzTtBraEKdkPg4sVbVwP++KPtZVCAAmNiYj788EOx6B988EHbtm3FPs7k5kPmTDWFuvDtIX0idJpBQv11PZLBXugbgIBiCEycKJiAnTpZ+2pApsB8fS7LClyyZImnp+fkyZN3NjyTJk3y8vL63//+xyzPCTz5kDlBBZtgFQyNVfJnxfQp0DmsQNIBJDOglmwXaYI9CqosF4E//sDe3gIFfvml3CSKxuPrc1kUiDFetGhReHi4puG5++67P//8c0WFVFdmfMjUJStIIwMBia4XL++UbwU65SChoS8DGaBCFEBAHgKvvy7w30MP2cUENHrzj1wKJHW9ePFihW23dMjDWOFYQIEKA2rX7Ph7wA3NiunbfxoNhsNT7NqSULgDInDu3K1ZwK1b7SU9X5+bRoH2qoONy+VDZmNhoDhLEDC02kVs0unPiunzn6urknfNW1IjSAsIOBICqamCCdi1q71MQIuswI4dO5aWlmKMH3jggY6sx5FawhRZgQJNQUvVcfnjnHRiTzJSqk+BTrMWVNWtBcI5GQLHj2NXV4ECf/jBjjXj63OeFTh16tRr165hjKcaeOxYK6sWzYfMqkVD5soiwF/tIl7eWVuLybI1Jv/dPNpXHFlZISE3QMA5ERgyROC/vn3tWzu+PudRIJG7trZ2586dxBy0b01sVjofMpuJAQVZjoBMK5AUxI+cnW25OJADINBkEDh4UOA/hHDDRXt2rDZfnxunQIyxTqc7deqUHetg46L5kNlYGEcpTp1rC69fv/UzZNp21683Qpe/NEa8jrRRMngBBAABfQT69xd+e3//u36IjX34+lwWBXbq1Cm7KX0D8yGzcfs5RHGSuTT1sMWCBTwKXLDgFrqUv6dNw2SHuD5lKrJzvLoaL1iA09KEv9XVDtG2ICQgYDoCu3cLPzwXF1xUZHpihVPw9bksCty2bdsDDzzwzTfflJSUlIsehSVVTXZ8yFQjploE4e86sK+UaWk8CkxLE6ST8HdQEA4MZKcSryM1o17jxt1aHED41dUVjxtnRjaQBBBQNwL19fjJJ4Wf0LBhahCUr89lUSDZEa/RaFxuP8SthupZQwY+ZNYo0XHzlLPrwI61M2oFMvlb3wQU+9B1pCbVa9w4Nq0CC5oEI0R2AASysoS+7u5u+0shmODw9bksCiTnoun/ZZbnBJ58yJygggpWgb+ExDy2IOLRwcmcHOHOW/Oe6upGhpeYyVxd8fXrOCKCzUzimBK3GUtD+WLAiKh5jSsnlSK9SE5BEOcWAvX1+OGHhR/VmDEqwYSvz2VRoEpqYjMx+JDZTAyHKEj+rgOTqiMZnLRkcpFjfvH5W8J89NUMXjdqjJoEDkSWiYCCvUhmiRANb9wo8J+XF/79d5WgwdfncimwtLR0zpw5w4YNGz58+Ny5cy9duqSS6llDDD5k1ijRcfPks4gZbMG8wM+SpSgDB7LtvIEDha1+lNjkOMyeC5QzJem4fUCdkjOHuOGUO+s2Vm0tjokRflTvvGPdgkzJna/PZVHgzp07/fz8IiMjn2547rrrLj8/v507d5oihiPF5UPmSDWxvqyGNhKYzRbKTi7yN0Vs3WqEAjWaOxEsoWHVWoHOOk6obC+y/s/IWUr44gvhBxMQgBuOFVNJrfj6XBYFxsTEpKam1t6ekKmtrR0xYkRMTIxKaqi4GHzIFC/O0TPUP2PTErZQ1qwcNeoOh+nbea+8IswFinmOxCH8vX59o5lCS+4S4s8FXr8u3MS7apXw9/aPzBadwonHCZXtRbZoDCcoo7oa33OP8HubNUtVteHrc1kU6OHhUdR4e0dRUZGHh4eq6qmgMHzIFCzIabKSKFNL2II/OGnqUpRevXgU2KuXsCOCEDYlSDF/K2gkGZqSHDiwEdFaMutpUndy7nFCZXuRScA23ciLFgk/thYt8NWrqgKBr89lUeDjjz++ceNGca02btz46KOPin2cyc2HzJlqqmBdlGILZb/f+VbgqFECAAryNx9P/X2BAwdKbVAxAfNzsyTU6ccJle1FlkDdVNL+/jtu1kygwA8+UFuV+fpcFgWuWbPmrrvumjNnzg8Nz5w5c1q1arVmzZpDtx+11dlCefiQWZg5JOcjoOzkYkUFzwqkd18qxd/8qmEsnAhDT4cxtCXD7GlUo6XTCE7PEMr2IoobOAwiMHiw8Evr2BHfuGEwjp0C+PpcFgXSrfESh4uLi1PukedDZqd2bELF8gcnTQJCzbrejrI1hXFCBXuRSV2uKUbeskXgPxcX/NNPKqw+X5/LosAzxh4VVtsSkfiQWZIzpJWJgFKDkytW8KzA5cvtsw6FgGAvHqqtFSxROvep7zBvK4vMlrVlNKV6kS1ldryyKirwXXcJ/enNN9UpPF+fy6JAdVbMelLxIbNeuZCzGAFFBif5ut7f/w4ThIfjadNsuizTLlaghBUk/GeDMVhxE9vArUgvsoGcDlzE2LHCr6hVK7WtgqGQ8vU5UCAF6o6DD9mdeOBSPQJ8K1BCAPTVNssybT9fpb8KlFYZoVsrYzMyVN+oLAGB6lioWN9vz55bC7q2bbN+YWaWwNfn1qXA3NzcxMTE0NBQhJB4TWl9ff2UKVNCQ0M9PDy6det25MgRWrmqqqq0tLSgoCAvL6/+/fufP3+eBpWWlg4dOtSv4Rk6dOjly5dp0NmzZxMTE728vIKCgkaPHl0tOnXx8OHDXbt29fDwCAsLmzZt2s2iaSpDDj5khlKBvwoR4FtaYgIQu22zLJOegyPemGi9og2tAqUVt2Qri32bXmLa2uYLxr5VVkXpNTW4fXvBBBw6VBXyGBCCr8+tS4GZmZkTJkzIyMiQUODs2bN9fX0zMjIKCgqee+650NDQK1euEPlHjhwZHh6elZWVn58fHx/foUMHuiW/T58+sbGxuxue2NjYxMREkqS2tjY2NjY+Pj4/Pz8rKyssLCyN3IKDcXl5eUhIyODBgwsKCjIyMnx9fefOnWsAqDvefMjuxAOX6hEwqvcpAUgcNhsSlKhv6/EQ/2tgwQKb7spXsOPom7bW+4xQUGxnyGrmTIH/goLwxYtqrg5fn1uXAikuYgqsr69v2bLl7NmzSWhVVZW/v//HH3+MMS4rK9NqtWvWrCFBxcXFLi4uW7duxRgXFhYihPbs2UOC8vLyEEJkw35mZqaLi0txcTEJWr16tU6nKy8vxxgvWrTI39+/qqqKBKWnp4eFhRk1BPmQkazgr6MgoK8iJWzHebXNwhDbDOLZa/WNVfuJoU8cm33BWLV2qs782DGs0wkUuHy5quVsMIQQQoQR9EWVS4GXL19evHjx+PHjyQHZP//884ULF/SzM+QjpsCTJ08ihPLz82nkAQMGPP/88xjj7du3I4RKRefLxcXFTZ48GWO8ZMkSf39/mgRj7O/vv3TpUozxpEmT4uLiaFBpaSlCaMeOHRjj5OTkAQMG0KD8/HyE0KlTp6gPdVRVVdHLgM+fP8+BjCYBh6MgkJGBw8OFXyv517z5HTf1ZDpMPYxGzYDwrUDbkL3i+DhlpRRHSfkM6aW4vXphGVNLygtgSo58k0YWBR46dCg4OLh169Zubm4nT57EGE+cODE5OVm+GGIK3LVrF0KIGm0Y49TU1F69emGMV65c6e7uLs42ISFhxIgRGOOZM2dGR0eLg6Kjo2c1HEaXmpqakJAgDnJ3d1/VoL0SEhJSU1NpUHFxMUJo9+7d1Ic6pkyZgho/hr4aaBJwOAoCksHG8HBh8EY8A8fkP4SELRNO8/DPKRXNnjtSjZ3StHWABvj0U+Er0ssLs8wJtcmvAAX26NFjXMPl1j4+PoQCd+3aFRUVJb+q+hRYUlJCk7/00ku9e/dmUmDPnj1ffvllQoFt2rShSTDGrVu3Tk9PFzMoDdVqtatXr8YYUwYlQRcuXEAI5eXl0ZjUAVYghcLJHPoDoZT8qEOfAp1vJM0pDSanrJTaf4C//SbcBYEQlrGuQg11UYAC/fz8fv31V4wxpcAzZ87odDr51RNToDoHQsV14UMmjtnU3LaZtVIQVc5cUVBQo/OpxSzolOspnNJgIu2r/ymj1BeMw3V4BX87BrP6+98F/nvoIRWehcaUma/PZQ2EtmjRgkzdUQrctm1bREQEszymp5gCyXKY9957j8Ssrq6WLIdZu3YtCSopKZEsh9m7dy8J2rNnj2Q5DDUr16xZI14OExAQQPdIzJ49G5bDMBtIjqdkONEhlp7zrYTs7Funw0yb1ogOrbcsUw7OVorDh8Jxh3yJlS9mQaW+YByxw1up89zJ9ptvBP5zdcWixRx3QlXpUoACU1NTBw0aVFNT4+Pjc+rUqbNnz3bs2HHs2LFG61tRUXGg4UEIzZ8//8CBA2fPnsUYz54929/ff8OGDQUFBUOGDJFsioiIiMjOzs7Pz+/evbtkU0RcXFxew9O+fXvJpogePXrk5+dnZ2dHRETQTRFlZWUhISFDhgwpKCjYsGGDn58fbIow2mrMCMzhRMXv4Fb8o1u+6aN40UwY7ehpbYPJjlWTcJUiXzC26fB2BM2coktKcGioQIEN82Lm5GCPNApQYHl5+RNPPBEQEODq6hoZGanVart27XpVxqVQOTk5jZeYoJSUFIwx2RrfsmVLnU7XtWvXgoICikxlZWVaWlpgYKCnp2diYuK5c+do0KVLl5KSknwbnqSkJMnW+H79+nl6egYGBqalpdFdEBjjw4cPd+nSRafTtWzZcurUqUZ3RGBji2ipPE3HwRlOjIxUbD+ZRJEpYmVaaPo4GS9az2Cy+29B2ZayTYe3O2imCVBdjR9/XOC/mBh87Zppae0aWwEKJPJv3759zpw57733XlZWll1rZPXC+ZBZvXj1FWCUSCxXQIp8dOuLYZ7pQ/J57TUs3j6hCCXbvW0l3xmKGEx2r5TiAhjt8IqX6AAZvvqqwH/+/vjECQeQViQiX5/LmgsU5SY4xeaXJMg5XvmQOUcdTaoFfzjxtdcaTaSZQRWKfHRLlDsVIyND+OXq/zN0GKYkH5pQqRkmk5C3RmT9DwVrlGJqnqqSit/hnWm3qNxmWrZM+AlpNHjzZrlJVBOPr89lUeDs2bPpiS3PPvusi4tLWFjYwYMHVVNHhQXhQ6ZwYY6QHf+jmJIEcZhBFfz85azU4BiRJlGgfj7i2im1ztAR2tymMko+O+jni02FEBVmeYcUZeb4zv37bx0EM22aI1aGr89lUeDdd9+9a9cujPF3330XEBCwbdu24cOHS3ajOyI0hmTmQ2YolRP719Y2Ol1FzApMt6lUYeFHN8eIjIgQdsEzhQwKks5iGspHklwOJTtxZ1C8avqfHWZ8RSkrlXnj58rKoJbcLl7EkZHCT6h/f1xXpxapTJGDr89lUaCHhwdZljJmzBhyVsuxY8cCAgJMEcOR4vIhc6SaKCfrtGlsIpHQg/hVPlVY+NHNTy4WSeLOzm4EkMx8HGwcrK4OV1Tg33/HJ0/iggLh34kT+MIF/NdfwgVvtbWNILD5i6HPDlO/ohQXnBCzNfZaKC6qFTO8cQN37y788qOjcVmZFQuyZtZ8fS6LAkNDQ4kV2KZNm3Xr1mGMi4qKfH19rSm2PfPmQ2ZPyWxVtv7EDN9Qk1ALeZVPFRZ+dJshG5HwnXcaASozHwlxNsrChi+kjdZ/Wrbv00O1G7/GH36I//lP/Oyz+NFHcdu2wkXeQUHY09P4l4tWi319cYsWuHVr3LUrHjwYv/EGnjcPr16Nc3Pxr79adfkf/7ND/leUNYCXDM82xaVD//yn0H+8vbHoPjtrQG3VPPn6XBYFjho1KioqqmfPnkFBQRUVFRjjNWvWdOzY0apy2zFzPmR2FMw2RUt++WRihq+qmBRokv6y5KPbDNmIwJJjbmXmY/ZMlf6HhWkNWl8vWG9ffYUnTSp+eMBRbdxlJLr2ntkGYk8vL2GFa3Aw9vHBbm7GqVGcNjAQP/EEHjECv/8+zsrCJSVKHY7M/+yQ/xVlGpKyY1vaZLILUmPENWtudZL169UonmyZ+PpcFgXW1NTMmTNnzJgx9HqHBQsWLF68WLYMDhaRD5mDVcZEcQ1NzKxbJyz7FI8LiTWkxG3eKNb69YJ+plnJ/+jmGJG+vncypDlTh8QKNJQPjU8c5s1UMT8sjDdOcTH++ms8eTLu1w+HhDAr8ycK+gk9mIGePp74Gl6wAGdk4Jyc2t179y498tXC0z9uvFhbfpUxi3PjhjBA+uef+Px5fPw4PnxYsPlWrxbsvzffxEOGCBZh69YG7chmzW6R4sKFePdufPs+MuM1ahyD/9lh0ldU44zhzTIEDh8WTsFGCL/9tmUZ2T81X5/LokD7V8K2EvAhs60sNi2NPzGzfr1AgWIWpG7qIAunzTg1RsIQzZvjhhF3udU3ZEROmcJkjVue+kOa+vlI+I++RkSYMI9m6MOCvTHjt9/wZ58JA5ItW0qld3Gpb99+rdcLaeiDPiizLTrqjSooMdNjCiRgmm22CujX1wuTQAcO4FWr8IQJeNAg3KYNdnGRCubuLgzAvv660Gznz8ttNixgyPy0Mu8rSn65EJOHQGkpvvdeoYkTEkzo5bwc7RnG1+eyKPBzA489q2XNsvmQWbNkO+dt9JNcoluJocb0NKkmpjGEgayZYtTWmrAilGQsyYdynr5D5hJx/ofFrfUoNTV45048fjx+4IFG7OLigmNjcUqKMNW3eze+dk1OG4m/SMz+KDEAc4N3ZSU+dEggxYkThYWCYuOdwBQRIcxKzp8vnCRpbBmh/meHeXY2T2AIk49ATQ1+6imhE7ZqJayZcvyHr89lUWCA6PH29tZoNDqdrlmzZo4PDrsGfMjYaZzCV87EDHN2hOkpExJZDCEvL6YYJu0LJOXQfCZObMRH+izINuMaS8shrVBUXPTGJ/jpp4UFKeLcO3US2CU3V1i02fjht9GKFY2OKaBZWteoqq8XVs188QV+9VXcsaPURgwOFoZVly7lWIeSzw75Y+CNsYE3ixGorhYMfYSwh4cDHYTNrzZfn8uiQEkBx48f79Gjx9atWyX+TvPKh8xpqqlfEY6yltwfS0kiJ8fSkRL5heoLLNMnIwOHhd2hmPBwYb5M/9GvFF82hIQdU0a3FeiTlg+68jz6LAv1qEOaO2IFB+OhQ/GKFfiPP/Rloz58kRYsuJMf5T/q0J9a068yLch8R0UF3rEDz5yJ+/YVlt7Q4hESlqqOGSOcMNKwqk5chFUkERcAbqMIVFUJNj1Cwkb4zEyj0R0lAl+fm0OBGOP9+/ffd999jgKBqXLyITM1NweKL3NiRvLNbtFUExaG08RKUuJWZE1gRkajrf1MCmRWqrqaMcgnkVCfVyQtTknLFd3ogzJXoiHX0J29CmXtHsUzZuD9+40OGJJs+W20YoUJYDKrLBHe0tfqasGWnTgRP/JII+tQq8Xx8cL60tOnLS0C0iuCQGWl8MlC7L9t2xTJUiWZ8PW5mRSYn58P+wJV0sDKimF0YkaReTuxzJQhJNRCXo0SjDgrplvOQCizUggZnEcUi2qUpGtv1Pdtsf99NPZ31IISVBFqMxHNeDz0lFEjUr9SnDaSDyazymasY9IXz6BPaSn+8kthZ0WrVhQHwREXhydNwj/9pNRGC4MCQIAhBK5fx717C23h6Yn1F4kZSuUg/gpQ4FeiZ9OmTf/9739jYmL69OnjIAiYLCYfMpOzc7QEEuNAPDGj4LwdRYVv1hhiCJnjZnKWwxiqlJjnOG4eSV+/jj/5RLhc5nb6i6j5QjS6E9qnQfWW8I2hNpIJpqEqW3fKkDZ5fb2wDWP+fNytWyPTMCJCmE3ctg1XV9O44LA6Ateu4Z49hS7q5SVcIe10D1+fy7ICNaLHxcWFXEJLb2l3OsQwHzLnq69+jQwRjHwjQz9Pjg/HrGGmkhAAZyQ2O5uyD8NBvnf5lbpNXozkPMIoLsbvvHPHivTwOPfEc88HbXZDNSRD8YcFs45GPQ21kRww+VW2qRr86y/8+ef4//0/4QgSirWfH37+efzNN2ZvNzSKHkS4hcDVq8KINDkC5vvvnRIWvj6XRYFOiQunUnzIOAmdPsikeTtDOpqJkoTVOAwhZ2CTFsFf0jlxohCRXymqliUOgwv3f/pJWNWi1d5S6K1aCebO5cu4YQ9cTo5QnOVriGgFmQ6jYPKrbHRol1mopZ6VlcIymdTURicA+PsLG0I2bwa70FJ4melvLlzq2lXoqL6++McfmVGcwJOvz02jwPqGxwlA4VeBDxk/rTpDTWIjThXkWw8SLcwx1GhxcoSUM7BJM7zJOnIo0IwTwMla0EbLSmtr8YYNuEuXO6bM//2fsPD0xg2xPDZz88GU3442E/hOQXV1+Icf8OjRODT0DpgBAfiFF/CWLcCFd4Cy0HXlinC+D0LYz0/Ycuq8D1+fy6XAzz//PDY2VtfwtG/ffvny5c6LmLMNhJrBRoYaV+ZUk/WWWsgZ2BQLbzS+oVkxic0nfh06tLEZd+OGsOntnntu6Ws3N5yUJKzwtNXDZzumFDLbkZnWdp51dfj773FaWqNTcpo1w8OHC0s2DM0S204+Ry7pjz/wY48JPdbfH+/d68g1MS67AhQ4b948Ly+vt95666uvvtq0adO4ceO8vLzmz59vvHDHjMGHzLHqpDgbGZ1qMkQqvJkz2ZjKserEmRm1Gvn2kJj5qHvFitsl1NUJw5rR0bfILzAQ/+tfwknWNnzM/r4x2o42rISxomprhZ0Vo0Y1GiNt2VLYYpiXB+tIjcGnF759+62vimbNhIW4zv7w9bksK7BVq1aff/65GKjPPvusVatWYh9ncvMhc6CaWomNJGpXMm/HJxULl1qYSoEYC4ORlL3EDjKMyZ8VE8en7qlTcc6O+u9f31DRKpZkXe3fvO69OfonuSjSVThGnoXfN/x2VER4hTOprRU23aem4mbN7jTq3XcLK48KChQuyymzu3FD2H9CDtBr186hr0CS3z58fS6LAnU63YkTJ8RFHj9+XKfTiX2cyc2HzIFqaj024uhlPqlYuNTC6MAms3UkW+PFE5N8iCjtiRz1fdGWn9CDRAVfRv7voHd90BVxnkwZzPOUsJS4FEW+bzjtaJ7ANkpVXS1coDFkyK3bDEjzxMYKR9KcPGkjGRyumPPn78xVDx9u1WsgVYUNX5/LosCYmJiZM2eKazVjxozY2FixjzO5+ZA5UE2tykaGcOCTioVWoNGBTUNSGdL1hohExHl37I14tH0XaphBQegK8pmOJgagUhLT4AJRQwLJ8OcbeVbFWYZ06ohy9apwwdOAAXeW4CIknESzYIFwqSE8FIHNm29t0fHxEUbvm9LD1+eyKPDLL790dXXt3bv39OnTZ8yY0bt3bzc3tw0bNjgrjHzIHKjW5mlJQ2whs+KEVCSXFZD7CuScqGm0FP7AptHkkgi1tVjOitBodGwzajg+CqFryPM9NC4I/alPk8HBd1YsKgKjfhF0StUu3zcS9FT0WlqKP/1U2OJNL3LSaIQdb//7H750SUVy2l6U6mr8xhu3vuMefBA3Hs+zgTgW/hAsl5Cvz2VRIMb4p59+SkpKevDBBzt27JiUlETvzrVcPhXmwIdMhQIbEskMNuKMvBkqRd/f2kstOAOb+sJwfCSV1ecbhLAPujIbvVWNhH1+1Uj7AUpriUqYMYlncLAw+yjJWTyAyZFHHGT088VoBHFuTcj922/4gw9uLXckTeLmJlw4/MUXwsWHTe05eRI//PAt/hszxvZHDVj+Q7C8xfj6XC4FWi6HA+XAh8yBKkIWg+jfc2voaC7+yJtJFZd0fcmSGcv3iVdXC2NdaWnCX/OO09KvrITYNKguGX1egm7dW7sZ9Y1GxyRxZL6aMUxq1Mgz4/vGpBZ0+MinT+PZs3GHDnQgu07rXt8vUTiMpuGkAoevIL8ClZXCmQx+fkL1mzXDmzbxo1sjVP8nZsYPwXLB+PrcCAWWcx/LhVNnDnzI1CkzRyqjbETSGpoVoyNvnCKYQZwBEIlIphpJFiYnBBwRQXUjw9EJ7duNHiUBx1HrvmizTLYzFM1UGOUYeda2tpnN6lieGRn4yZDCqWjyQWowIgAAIABJREFUUdT2TjNrtcKtCMuW4dJSx6qOLGlraoSTacPDb9X38cfx2bOyEioaSXF9YrZ0fH1uhAI1Go0L6yH+Zsuk8oR8yFQuPFM8DhvR+HJ0Lo1siUP/25DMFDY6bKWhAKbY+smZn5bMtFRsTmWD0R+L0XByk98V5DMOveeOqgwRm6n+8lcDyTTyJF8D+tY2rXITdEi6Sjt0ZAqaWoDunFqO3dxwnz7CfGFxsTPgU1sr3Dd57723yC8yUpgftdP5RJyfmOTyUWsjz9fnRihw5+0nJyfH09Nz5cqVtz2E/60tur3y50NmL6msXa7RkTdFBDD0bah//axEuRNL0VByiY2ln3bdOuFIF3o+J7OyGlQ3Cn1YhhrGjhD6HCWHouL/3963wFdVnPtOEvI0EM1OMI8tD0t8tCFofXutNECAWwJa9Ui5iWBVEHFTc+qNtvKIqRLCOe2J9lgu13NQS4EEOIHe6uVSswW9FgHr2XINpSAghQi2FmKICgkkmctiwmT2rFnfeuydvVeSb//84ayZ+Wa++c/K91/fPPUkp1/po89jFGNrLZ5FJw8m+7D0Wl8sBHhVCrP2dlZU0tGje/xCQugNN9CKCusXN7oLk64uumkTze/eqEqHDqUvvhj5mT8RE+WfGP+7sPWHIBbrIAzbcxMKFOtLTU09NDD23MCQiZj0p3Bvf7UxSw3vba+p6Wap9eu79+/yvxnm6lVUBFktnsoCzMcyWjLKM3u9ilWgV5M/v0suHJlIyB/JDbeR7Ty/GKispPAIqphZH7buBbJXS+JydPKs/8VZep/37aPPP69tohC7KjubPvKINnn21VfWq4tazq4u+uabPWteLr2UVlXRL7+Mmj4XK7aE/8XMvfp/2J4jBSrAhyFTCPSLKIsjb87aKply0eAow3FxQUaJ54E9sLVrtZMjPR61rFSIx9PNsoPI2Z+SJW0kgV7Y7TePvBRLOnhmMeD1auVzr+v3v6cZGSZ1ieLO9oTw6nr7fglnPetaKXteyF//qh30es89NDW1p0cTE+nEiRqjbN/ucM1Vr6KzZ4/mtn7zm90Kp6Rop+S4ZnazV+2JLVxhe44UqAAThkwh0F+iLI682W2uNCUjskJ4w9u2Kdw7ZRUxMRpTxsTQ60kgQK5jRmQzmXwFOaLMzyL1s5V6xGyJ20US81tHwKEX0tamOVU/+hEdObKHC9l16uPGaa/X22/TM2esqxH+nBLzEUITEugTT9C//jX8dYVWov6vQzltH1ol5tKwPbdHgZ988ol5hX0/BwxZ328f1ALJXQt95M1oSgagCgdJbC6wvZ2mpwcZLqCoJHL63Tt+co5o/uYJkl5KVhHSZZQ/Jkaziko/TEJMWUJcHF2/HoId08KOQKheSFcX/dOftBm1e+6Rnf3ERO2avQUL6IYNdN++CK03Ycx3bfC61mK37/GQ/jpCtycO3hPYnptQ4PeF36BBgyZOnChEfN+BNn1CBIasTzQhFCXDO/IGf4wrCcNBJNvpaL2u/0Le3UeuYmxZR+4fSv5qsVLl/g2OGDtoRj9au2FDKB2Csg4RCJsX0tWlnSi9fDmdPj3o5ib20iQm0uuv1665/+d/pv/n/2hXhXR1OdSYi7W0aHf4vfyy5t6NHx9UaUICdT3z8XaEvgNYLMpZGLbnJhT4IPhzphCl9Ny5cwsWLBgxYkRSUtLIkSMrKys7OztZaV1dXRUVFdnZ2UlJSWPHjt1z/tvn4q+trc3n83k8npSUlKlTpzY1NV1Moc3NzaWlpUMu/EpLS78Qtr4eOXKkuLg4JSXF4/HMnz+/3cI+ahgyXikGrCAAT8lYJB44W3q6dhqLxfvfk8jpF8l8Rn5tnux3/nETXLiUajqS44bPXiv94rY8oZ91oGxR+Lujq4vu36+R00MPaYtQUlIUww6XXqpN0Y0dS++7j86bp83YvfQSXbdOu+aisVFj0z/+UbsWuKGBvv665kr+5jdagb/8JX3ySW2ThnLBVUICnTqVrlo1EM+4UXat5UjYnptQoOVa7GV8/vnnPR7PG2+8cfjw4Q0bNqSmpr7wwgusiOrq6sGDB9fX1zc2Nk6fPj07O7u1tZUlzZ07Nzc3t6GhIRAIFBYWjhkzpuPitZmTJ0/Oz89/78IvPz+/uLiYiXR0dOTn5xcWFgYCgYaGhpycHJ/PZ6orDJmp+ADPwF0iNmxo3TOTyMb6Y0ZGNwWa1nUdCfAt0msvebjjxBewiN6fs3LYqYTAAH8frDS/vJyKC6Di4mh5uRU5S3l6tzs6O+nBg9qGhJ/9jN5/P7322qCWWH+J9Tlzc+mkSdrxnitXarfa9onlqZY6JNKZYHseHQqcMmXKQw89xJG45557SktLKaVdXV1ZWVnV1dUsqa2tLS0tbcWKFZTSlpaW+Pj4uro6lnTs2LHY2NgtW7ZQSvfu3UsI2blzJ0vasWMHIWTfvn2U0s2bN8fGxh67uO+1trY2MTHx1KlTvGplAIZMKdI/IkM3FtJHt9erfeOe34Sg5BL+Vy+aPx4pBfjpx1I84yQ2EGo0/UMIjSUd5WQZO+rzOMmaSLZUVnYv7zRdQaqvke3tDR2u/vHahNiK8nKFH0VIOFkwRA3tiZ85o7l6fr92hcUvf6ndz/foo9qE4ne+Q6+5RluFlZGh/Unk5WkbE2+6SYsvKtI8vH/4Bzp/vnawyx/+MCCOcLMHq/PcsD2PDgUuXbp0+PDh+/fvp5Tu3r176NChay9slTx06BAhRDyDe9q0aTNnzqSUvvXWW4SQZmHJb0FBweLFiymlK1euTEtLExFKS0t75ZVXKKWLFi0qKCjgSc3NzYSQrVu38hhlAIZMKRKtyDBaYT176RdAws3Ur/xkw4ZGNo5RS2YmravTOBKmSXGxup6T+NZ4/fQPIdRLjr476LvM0G4kd/NLHhhDO6PAsrKg8SrlHCEMl5XUMPavleoin6e93dBriotz406EyEOENYaIAGzPo0OBXV1dP/nJT2JiYgYNGhQTE1NVVcUauX37dkIId9oopbNnz544cSKldM2aNQkJCSIWRUVFc+bMoZQuWbIkLy9PTMrLy2Nlzp49u6ioSExKSEhgdCtGUkrb2tr4eahNTU2EEFNnUSoh8o9WSMuiDTViL+ssaLTyk5GT6ZZ2qS16krMSw7fGi5Mp8zy17Zdcqt3zkHDJQ+TfgWWfVqowymM6R+jg9ZAw6SWWdaBYGEVqatQuIMO5piaMVWFRAxQBN1JgbW2t1+utra396KOPVq1alZ6e/tprr1FKGQUeF+66fOSRRyZNmqSkwAkTJjz66KOMAq+66iqxe0eNGrV06VKRQXlqfHx8bW0tf+SBiooKEvxzOQVaIS2LNhRmr4vzrRwqdQCeVIMPhWGnJZ3fdQ5nM6IfHs9PXWLEv+HfWz4rKmUmtuumm++4/GOeM8SAclSWe6JqgGzGWulfm0W6MbvPB1GghYl7NzYKdXIVAm6kQK/X+9JLL3GYnnvuuauvvppSGsWB0L7lBVohLes2FGYvi2d6wSs/YW7jVcCamPIWL0d7td59lw4frtnX2Fi6ePHbDWdNxcOSIUgH/orbDFjpX5tFujQ7eoEu7Zh+pJYbKTA9PX358uUc5KqqKjaSyZbDLFu2jCW1t7dLy2HWrVvHko4fPy4th9m1axdL2rlzp7QchruVdXV1/WM5DEwVbCmmOBjIjbvSU4HZi7tWvL+UAVglv1+9KEbSh5l+eFKQt0UMBJXT2akd/Mg8tZEjtdOtqHaAvpi/98IW4VJiyCNhMMPCsryu6AZwLjC6+A+E2t1IgbNmzcrNzWWbIjZu3JiRkfHUU0+xzqiurk5LS9u4cWNjY+OMGTOkTRFer9fv9wcCgXHjxkmbIgoKCnZc+I0ePVraFDF+/PhAIOD3+71eb//YFGFKWrZsqK3MRn8zRuzFyYl5pSK9KefPjLLxIz317BVUzuefa0vJWaYHHqAXV//C3oa+TMcxYeEn0/416oW+GG+0WiqM+yL6Iiyoc7gQcCMFtra2PvHEE8OGDUtKSrryyisXLFjAd6yzrfFZWVmJiYl33nlnY2MjB+LMmTM+ny89PT05Obm4uPjo0aM86eTJkyUlJYMv/EpKSqSt8VOmTElOTk5PT/f5fG1tbVzKKABDZiQVyXhT0rJlQ03Zy2LTjNiLr6mR5iaNTktSZtMXzlmqp5x33+2+KTQ5WbsQVfhFwAvkZC9UazvIZjEtjhvbLt2tAr26L9CtjUa9IoQAbM+jsyI0Qk13Wg0MmdNSwylnSlqmHClpoyeYINdKym38qGQvcVVqe3vQvX1GJYkifD2OVHhmJi0ru3huZ2cnra7uXl9/zTXaxqzgHwwIZ9NQAmxvYnC19p6kBuqVCQvL2tMpUrl76XSYSKmP9bgXAdieIwUqeg6GTCEQjSiYtEw5Uq+yZH+vuEI72Vm8ZlYvwmNExpJITirW2cp+Xr7fr+05XrtW+5cFtInPv52g3/te9+BnSYnysrSOjm7/UM8rYYnJzOw+oYZjYjfAOhRQBvgo4fhs26btpbPYa3Y1hPOLOvCvFqWI9ZxKcYxEBGwhANtzpEAFmDBkCoEoRUns0jMeeEEfmCOVKou2iZ3qwi0yQF2SGjxnR4fi6iLAjitVolSjFnFpj9ernRvCY24l730ad4XGf4mJ9N/+zeiE4vp66B5BcYaSN9l6IDOzexM3BzCIoTuMWtYTzz5Z4Bql/uXCEj7iUTu8L3jmXgpIOgD1Ws/ZS6pisQMNAdieIwUq3gcYMoVA9KK4zVXe4+N4ikXvkRhRl1HO8nJDr8vWaJ6+fIEnun5Mfn6WDKKE7Cd5/l/sNuoHsBCNPa+4QsHWQkXdHqYyho9/SsadZwb4gCsMj9MuXHhxvJcLXAzATTPqtYvS4fm/Xgejeq3nDI9mWAoiQClsz5ECFe8IDJlCwJVRenPDjtNki1MA7jTySPTUZZSTW38gYGXlJFB+KmndQO5l1LSW/GAwaTW6kx0oJCND2yzBvh5YNrvuIPfMlGiz5hvxgfjWwMuXfD41BQJN48jre02sN/SwkQ76eq3nDF0rLAER4AjA9hwpkAPVE4Ah68nnyhDjttWraWamwndhhgke5IQ9EpG64JzcCisDVvbPGZWfR/bvId/Uzjwj8Y+RX/Ezz0TdeOcYFcK0EkUAGpOaELQSh2rHbfOBWSkne9TzAVePBWAlWSF6b9KKFJMVmylVHeIjrINYr/WcIaokigOfemI2DPdjBGB7jhSo6HoYMoWAa6KMxuKUdplHSm4K7JGI1AXn5OUrA6JxNMJPWf5U8r9ayBBKyKck51bynli4qBsvU1kIl5JE6utN7p1XOmSwced1AU1mJAr7oFI3WbwfkdUuNZODE3rAOrzWc4auFStB+nPQf0OEqyIsx80IwPYcKVDRdzBkCgF3RFl3YrhR5gHRTYENumjH4Zy8cCkg1gUjJ5UfQzqfJYuZb/t/yR2Xk8+kkv1+xWJIqRBJRGwOU8bvV3jPXEqf3zoVwTzEus+UBcXxXrhpXGd2tRMMteNUWAcRLus5HSsjCur/HPTfEGJ+DPdXBGB7jhSo6HcYMoWAC6JMx+JEg2gUZgbLyCPRU5dRTqPyWTy/28907b5Y/qWk+Q3SvfPhRTI/nrSLtcTEaAs+c3N72It/8ouFSCIinfA+tJufUo13xZKNwiIf0AvDpxICktdiWo6RqqKgvtd4S8MSMNJBX6/1nFwxx8OYrC4RBxbWa8XrwkB/RQC250iBin6HIVMIuCDKohXWGwUxhrspeo/E6Atan1MsUB9mzCTZek5XeiBZ+aPJRwfINyghp0lSKVklFav0nESF9UqKqUaVisXC+Y2MO9dTb3mNEGBGH74/YeFCbWckW8WjbxqvVLxMWN/GMMbodTCCy3pO5WYYfsyQqfLwn4P0LWJaGmbo0wjA9hwpUNG5MGQKARdEwRMtzCyKNl00lDwsmgbJRvOlj/q26nM++aTaK2IXtTM7yCs1tdQ7f1z3dUwKJeQwGX49+c8rrgjaF6jdiOtV7/kTiUevJGxPHeRndl9sFwvr+UCPAMvJ8LHuViq/J8R9gUCv6fsxlBjrcFnMqYdIDyOgMPznwD/1gBIwqd8gANtzpEBFR8OQKQRcEAV/9jILyw588XoV97OLbMFbY30YSswpLTflVfPNGMrFk0oFtKWWTz3F6PTkDRP+43+e4NsfxRrh2Ts+Qehgu7o0UMmRUQYk484azjYdinRrNEbH8ufmakcBmLqVLDNnBRGNfnA6jBFE6pdE1Rnwn4P4qaeSxrh+hQBsz5ECFZ0NQ6YQcEEUYDQzM3t2v7HxJclf4ZbUejs6OrTzyRYupM88Q3/+857y9R/vzFhXVHQf3AUfAF1T0zPER1taeo49e+opjRYMfvAn/2WX9bikyhFXkT+MKzGoOziaFwXQLWyd+d5NhqSp426dFYI1dfUTDJEVAjP6c+iXcLm6L12gHGzPkQIVXQRDphBwR5TRpTOiC8I0dXxqDBM3OmwsNxfaUaC8aZ27SlLgO5fvb825WuOupCSNFcEfbDHFkvVkL7luSo4EK7edCBM2o0C2TkfSTWyIFLbCCrYVjZ4ADJHZ69Ctt/4bQt/70Wsi1hw5BGB7jhSo6AkYMoWAC6Lq63t8Hck+ShSodNT4KV+mTQEqkup1/FhEft9MLqWEfO3x0g8+MFXJ6JNfqYDoB+ihsG4lucPHx2ZN9WQZLBI2YzVeC+w9W2QFixpGPRsMkXW+l74hIjYzGnUAUQERAdieIwWKWHWHYcgUAtGOMpo7YRzg9fYMIhrlFIkBaE1v37dASNc/kl90kFhKyB/I7d/O+cziyKSezJT8xyMZb9mYlQwGRbKtubnaEaN8lWZwXvnJImFLrBYuVpC1ceWzEUQW31KxTfwbwu6XilgIhvs0ArA9RwpUdC4MmUIg2lGwfRR3RsM5Tb+vYXFOMM4CieTMq2QWc2b/nTyUQNpEzU0xrq+nGRmGrrCkEqMrKVJ8BKCA6dbKUCpcAlNDUiCMrGCKpBsyMIjEqVDrDrob9Ecd3IMAbM+RAhU9BUOmEIh2FDx3QkjPbBqcU/I89M2CxUUKsRvOIsffI7dSQs6RuPnkRX7sp6lKopLWr4ZnSz0BJY3qNXKjeVEWLbXkR3JxcS5QbFq41jFJZUqPEfCZrFchQYTDmFJn4aNFBGB7jhSogBGGTCEQ7ShT54y7FHBOns2oQbC4aMdthW8gf2wi2skuJ8ll40mDKGuqkqiqFfX4YBqc2aheWIppzqsQddOHHdyn2KusIBVuxZ3VNwqOsVuFdb6E68XUgYwAbM+RAhXvBgyZQiDaUbBrop8LFMeXuNX2eoV72A02IPTGXOD9pO40SaKE7CHf/AY5IPKftJ1DeaiYiL3RaKFYJiF0wwZNyCgzTGDW/WAjEhUV1p+BYurr9BIr6MdmrbiztpRxVoUEFz4iAnYRgO05UqACTxgyhYALooCFmsoVoSILsrDH0zORdn77vNH6DqAiiWlMH2NIZyVZxGp9nUwZTE4ZiTCPxIoPoZ9D0pfJ/Rt9ZlO7b8ULZDUaDaXqXxZbRKIXDz3G6BMK/hqw0h1cN2dVcHEMIAKOEYDtOVKgAlgYMoWAO6L02/U8Hu2oEf1PMl4i+QGEwctZv57a2uTHypREUshX/M7bfyL/PZZ0iCd7SWqIhM2TJLriRFJZGXR7n751oqAEhRUnTHm8DteKByx6gRzVKAZgXlc2xK5L56CKKAKCVfcnBGB7jhSo6GsYMoWAa6L4oS0LF2qjmsCOAk4Yfn8QYXALLgXY8ZVcqqKix2WUcoqPIu3xnQOVlTSXNH1Avs3uvJ1FXmWctGGDdvSz0WW/YrE8zN0Uicl4XX5/0PURekHTwVV93+p9R14sC3Ct9LLujIFHd/XurAOXzm4V7gQKteqLCMD2HClQ0acwZAqB3o/i3BP27U3wAZuicU9PV59GLeYBwj2+186dZy7NooT8jWTeTv4gnaIJuwvK8isr5VNPeV1waUr/xkpnSowrasWrtlKOS/LYRcluftODvx13hEsARDXcjABsz5ECFX0HQ6YQ6OUoyeDyqazQq62vp+IRmqIp741wTAz1pa/pSkykhHSNHr2j9rC4nZzRPHxPkFKr9HSFS8pcMXibhN6/sQ4p/yiRxl1Nh1KtVxGxnHZXBsEunXiXE2+C3Sq4IAYQgRARgO05UqACXhgyhUBvRtmddLGuSxgXtiiZSYqMIZ3PkQXdZDV1Km1tFVWVaF6SdfxYU6NgR15auJwPTodh99FFiHo1rB/dBdxZ2Avk8Erfaraq6NXGYuEDCgHYniMFKl4GGDKFQK9FOZh0kXQxss4dHTQ1FaIHbsjCEkghX/0HuYfV96epT0uzlHqat16p0gXk4qtXazOd+tU0fW66TupWB1OY+hKkGOkrBHBnjVw6DjsL6EnUehWSbviICDhGALbnSIEKYGHIFAK9FgV/bps6MZLFEb/Kf//7yPHfFeTIh2QMJaSNJDxAfi2pbUTzkj01enzwQagh27Zpa2KZLeYl6E1zr3VgbxUM9GwoVRp9MOnL1KPK4RUD+k8N61XoK8UYRMABArA9RwpUQApDphDotSh40gWeytK7VqLpLy2FmEO0Ys7CfC3oreS9z8jllJC/kqG3ke0eT5AHeN4Z/fnPQ9LEip8nEQbg3/RaT4azYLhnw1kTWJaEKvCeSB89YKmYiAiEGQHYniMFKuCGIVMI9FqUYy/QyLXiX+V33RUS8RjZO7ah3u/vvjiwlKxqIwmUkA/JmGHkL4Roa0r5Vg39RkZ9sXffbaKnRT+v3zgfpj3bay+jomCO6oC6y0kBBEa5GAHYniMFKroOhkwh0GtRRpMunMmMajblzsceM6EWPRuZxlRWdquzbRuNIZ1LydOsjo3k7kvIl1yc+QQWF+MYbexjpfGz3ySPJBQ/j5t1d65tMe1Zo1eiV+PdqVWvNhkL7ysIwPYcKVDRjzBkCoHejNJPuojjmUY1m46grloVZgrkbNTRQX9W3vpbMo1V8Dx5JoZ0cv5j11YYuTJiNk7zAFmKZ9+EhbokKhVnT42gjnC8ac9GWB9WneNvtahoi5UOKARge44UqHgZYMgUAqFFmdpuyS5bcXHgr3K/n/7wh2GmQMZG69fT6y77y/8joykhZ0jifyOrRVZj4W3btFNg9PH6GM5w+iFTo7PfHHdFezvVr6yx8rXhuEa9oOmb4OY95s6+1fQgYAwiEF4EYHuOFKhAG4ZMIRBClERvRm6H0jgqI5kuwFe5x0NzciwxkJ6TjGLYDF95Ob2d/OFvJJMScpxk3Ux26vMzZxF2ZZgUH1blLTp/5NvChdp/8NlvDnqjvJwanVAaE6Ntq/D7rV4K76B2JmL9TXDtNg+pCVa+1RzDhYKIgEUEYHuOFKiAEYZMIeA0KpSlfZK50XOn8qtcz0nhiqmooD8kK9tJPCXkP8n1XnJUWTIjNiteILze1SnkCrnychsfBHqcFSXaj7L1Jih7NiZGfSS6fV1CkgA+y0IqF4URAacIwPY8ahT46aeflpSUpKenJycnjxkz5oMPPmAN7OrqqqioyM7OTkpKGjt27J49e3jD29rafD6fx+NJSUmZOnVqU1MTT2pubi4tLR1y4VdaWvrFF1/wpCNHjhQXF6ekpHg8nvnz57e3t/MkowAMmZGU3XhgPkx/T55UuNJinr9wXLrhSE+T+msTlERlN3IQOfs/4uczJtlA7k0hXxmVsGqV1hSg7VzQ75caHfQYLlPb3m7o/3FNxIByaDREZYzQ4LOhQS2/8FBfH3T8dy8Rs75ejEEE+hwCsD2PDgU2NzcPHz78wQcf3LVr1+HDh/1+/8GDBxmy1dXVgwcPrq+vb2xsnD59enZ2duvFk7Tmzp2bm5vb0NAQCAQKCwvHjBnTcXF9/eTJk/Pz89+78MvPzy8uLmaldXR05OfnFxYWBgKBhoaGnJwcn89n2oUwZKbiFjNY8YSUpq2jw/y4ai4oWmfrJ2KLRt80nE5O+Mk4xn8Lyc+kxS+S+JAh3c4KsMiFieTmGro1emrns4YWwefZ4BPUJOXZo8RMoSsDvwnKTXWhV8oRwAAi0L8RgO15dCjw6aefvuOOO/S4d3V1ZWVlVVdXs6S2tra0tLQVK1ZQSltaWuLj4+vq6ljSsWPHYmNjt2zZQindu3cvIWTnzp0saceOHYSQffv2UUo3b94cGxt77NgxllRbW5uYmHjq1Cn2aPQvDJmRlN34sjLz8Telz1FZ6VDQygycZPSnT5ePVpEy5JOPDpGRlJBWknoX2SSlGj3W12v0Brukyraza9alA8+Mcup7RPwgYJ9PDk7lZo3iWzscK8PVg/tFPyCsHANwyUAobxQGEAGXIADb8+hQ4LXXXltWVnbfffdlZmZed911L7/8MgPr0KFDhJBAIMCxmzZt2syZMymlb731FiGkubmZJxUUFCxevJhSunLlyrS0NB5PKU1LS3vllVcopYsWLSooKOBJzc3NhJCtW7fyGGUAhkwpYjeyo4NmaqtGzP+TfI6Oju5d56aykqDpYkJ9gayE9esNLxS8m2z8klxCCfkkZuS3SKO+BKOY1FTFuZ36zPomGI0ZEqLhCQ9yKz0nB14g03PtWsPhXL3a8Othyws0QsBupbBKmIoI9BsEYHseHQpMvPD76U9/GggEVqxYkZSU9Otf/5pSun37dkIId9oopbNnz544cSKldM2aNQkJCWKvFBUVzZkzh1K6ZMmSvLw8MSkvL6+qqoqJFxUViUkJCQlr9d/VlLa1tZ26+GtqaiKEmDqLYrF2w7DV05MBHw1zLGhxBk5ZtX4ENYZ0LiLd3qifjEsnJzIyzOlcX7iVGN52UxbPyJDHTrnbp3edme9YV2dvLpArbLq1Q1Qbfj0Yq0ne5PmZXSWrwS+A9UphlTAVEeg3CLiRAuPj42+77TYO8fz582+99VZOgcePH+c2+CeUAAAgAElEQVRJjzzyyKRJk5QUOGHChEcffZRR4FVXXcVFKKWjRo1aunSpyKA8NT4+vra2lj/yQEVFBQn+9SoFwmNf3M7yAGdtu4JlZbyJWsB0Bo7XyANlZdp+AP5ICL2EfMmvfXiB/CiOnCOE3nprUB4xf4hh3vbzPQvf/8dog88LSm6fXg3GMU8+qdb8/vu1JScAM0mwSOWLagf1gerB+iLPMFaqUgTjEIH+hoAbKXDYsGEPP/wwR3r58uU5OTmU0igOhPZXL5AQ2THS+0OS7ZYeMzO1XXE88kpykO18byfxPyQreXzvBbhnU19PTX1N7jnpJ8yMNNy2jUr7AuPi6PTpGvEzrEQWFOcdw+uQSYRttKkuvJXyv0EMIAL9FQE3UuCMGTPE5TBlZWXMKWTLYZYtW8Y6o729XVoOs27dOpZ0/PhxaTnMrl27WNLOnTul5TDcrayrq3PJchijsS+9meY2nbXOuiAv6oorek6mZsOh8B17XJAH/H6akqKx4PfIG83kUkrIZ+Ty28h2nqGXAmLbrVMaIRpne709tA2rx9y19nZaU0N9Pu2MGPHoAI8naNmOyExGfSGqzXrN4r982BY4njTslVrUDbMhAn0UATdS4Pvvvz9o0KAlS5YcOHBgzZo1KSkpq1evZvhWV1enpaVt3LixsbFxxowZ0qYIr9fr9/sDgcC4ceOkTREFBQU7LvxGjx4tbYoYP358IBDw+/1er9c9myL0Y196Sy36HPz9syIoFcUcKWZhV6+myclW6YGVc++92rHXFaSCie0gt+SSJqmKsD+KbWd233oV8MUFUjncywSWm0obLoG+kNTeti08x8qI7Lhhg7xMV6yU64YBRAARoJS6kQIppa+//np+fn5iYuI111zDV4RSStnW+KysrMTExDvvvLOxsZH34pkzZ3w+H9tNX1xcfPToUZ508uTJkpKSwRd+JSUl0tb4KVOmJCcnp6en+3y+trY2LmUUgCEzknIQrx/7Ki8Pcl9En0MsXy9YXAyx2tq12nCodcdIIonLyMn/Tf4rq+AlMi+BtEkZQn9kg43iNgmx7fDon752ixQouWtGRCtlEzuCsaYILFdbApzv1JTErTzqi7L4nlgpHPMgAv0bAdieR2dFqMsRhyELr/Li1z3bqaaPUdYoZYNJ4t57IYLUU4gYcx0JsJ1/p0nSA+TXYpKzMHNZlEZcahRvOLwGRFSD0ZU4eSmmimG95wRjKDqLXDEW0KutH7bVVycVYvRoVNT69dpp42vXav9ePCLCqAyMRwQGLgKwPUcKVLwZMGQKAZtReotpswBFdqMpItHoOwjPJK+dJkmUkIPkyjHkQwcl6EW4n2QdByuUxipiO8StoMHV4GjCRGt9hWd7u3rTJ+xNcjXEgDPHVCwBw4jAAEcAtudIgYrXA4ZMIWAnSj+oxRfx2ylGkdfBHKGen3hMAmlbTuYy5/EN8r1LSTNPCiXw+OO2XRbpPEyg9szMnuWvejSYH2Y0q2e66RDwAsXOMF22arEcVqZjx1RUCcOIwEBGALbnSIGKdwOGTCFgOcpoUAtmQdhbElOBk1wA5tAnecnRHeQWSkgniVlEKuFjP5m4xxN0cLO+TEK0TejwAS56IPWIKUtmkRfXVGnFdHRoWxrEta96t0+qzsh3BLw3EfyODo2AxR0USlWte5OUyjsypQIXLuweCG1vx0FRqTPxERHoRgC250iBihcFhkwhYC3K2aAW7DXqUzds0KyhxfUgkkllj3eRTSfJZZSQk+SyyWSzMo8+cv16jXXY7NT06eqpx/Jya0hdzGWEmL52FsMdLAmW9HSNDq1MmBn5jspvFKkWrzdo+4SpkhdbCf0f9gJ5FeJlh6Gsu4FUwTREoG8iANtzpEBFr8KQKQSsRcHmjJtvsTC9VyGuqgBS4WktbjqlQBI5/RKZx+hrF7lpJDkkZQAeJf31m83t8p/pyKSojOioGcFicf2IRGxGvqO+FlEfZVhUUuxlIGzkmCrLZ5HiGwKUjEmIwABBALbnSIGK1wCGTCFgLQqmJf34mJEPxCxpe7t6kwNLtb5+hBvTa8heduwLJWQZKY8n7TzJSkCvP99sXlNje/yTIQojJmp13u6zST6/33A81rqrxN1Zo8WWRl0jqqQPO7vMgXGt6fiqWJ0DrrX2CmMuRKDvIQDbc6RARY/CkCkErEXZ9QLh/PAVBzZ3QXQ9TP7ta6JtmP8rGTqRbBHtqcWw3x/+6SgYAVGx1FT10KuYRwyH6CpZV4xXKi7Vsfa+9OSSHFNeJhyQ/PKe4jCECAwkBGB7jhSoeBdgyBQC1qKMBrWMvtlhH8jxRXeS3RxCWmpJ99zd70nR5eQzKYOVx5iYoIUn4ZqOMkLMikqmeYxgt9KZcNfoqza9yMm0Uu6YWp/l1fvlprVgBkSg/yEA23OkQEWPw5ApBCxH6Qe1AHcEdjVgL1BvhZUxt5Adn5ARlJCzZFA5WWZl5aeyHCkSaJRlqLoz6hGT6grx0ZmrBHeNqFIYoWCIWK/aWdPsdhDmRwRcjgBsz5ECFd0HQ6YQsBMlDWoZrbbg1/vpJ4GY+3L6tMOL7mJjtTHDQeTsM+T5s2SQduEtGXEz2Skabh5OSLA3wMgFY2K0qcpf/EI7eNrxXCDDVUKMVxGWgDNXycg9jYnRFoXm5vaABvSvnbemJ69R1SIaoTi4PTVhCBHoFwjA9hwpUNHJMGQKAZtRfFDLaLUFL0/vA3Gvwro3IBpHFn7tx//vw9jrmZ2uJdOHkBZ9Hhbz7W93359w0009Zt0oMxAfF6ddSOT4xxCzPgYIaCIlOXaVgK6x3r/OANFXLTaKvyHOCkcpRKCfIQDbc6RARXfDkCkEejNK8oG4V2F3OopZyXjSXkEqOuM05+8kuayE/IaQLtGASmHHXqBUDntUsqB1wrDiACnrNYqUrpGy241GXaMvh7Vx9Wrte2L1am3dkJVNivpyeIxUtbjYlb8hPHO4AtZ7Klw19rNyEMCodChsz5ECFZ0CQ6YQCCHKyl+FMo8DL/B68p+7SQHz5v509fedrXwxohMr8frTYSRTDqyjYSCUlWnq6weHpdrZMOzPf27iuSo3vNvqTGXXSCVIbWSqAi2VxI0exaojcDqM1IrQ9TdqV3+NRwCj1bOwPUcKVPQLDJlCwGmUdPplbm7PEZfKIiWr5/WakwEzuAmk7Tmy4ByJo4R8TjI+WlBXsRhy/iRGCeNjTU1Py9iAnli40SCeZD5Ep4fdrySSIi8E8Brj4uiGDT2a9F5I30beXmfbBHtPVaBkfSs4yIAUJnEEEEAOReQDsD1HClT0CAyZQsBRVH292kcxck0kGvB6tdk1Zom4VVUGbiTvN5JvscrWkX/IJH9bvTpoyYZSqpcifT4NrI4O7WJ38QBPXp1+KYfefLDMZWXdI4oSMuJIIJMVCZLJrl/vqM9sCjEO5k3TB0IcibWpjsPsRq3Q95TDCvq7GAIY3R6G7TlSoKJ3YMgUAvajOjoMz5P0eBQTRXoaYOQn3brn8QQVO5ic+mfyZAfR1oD+lQy9h/wHs8IPPqhmX72NDntMTY3mfmVmmijAV6lYNB+ifyxNswEEab/f7ElYGazmLbVXdARzw61wv/4RhEpdFQKoxiVSsbA9RwpU9AMMmULAfhR8gJnfH1SiEQ0QonHJ6dNBx7J0dGhnZMeSjtnkf/6NdFPNb0hJOjnB+eySS0wYiOcMbyAujv74x5aqLivrRiAs5gMgyCCgw/1gZcmSs10Z4dYUKg9uhfv1h9oWkTQEMCIwG1YC23OkQAVwMGQKAftR8Pr+hQuDSoRpQH/y1qpZfn7a55/J1f+V/O/wMpnj0qZNs8R/rHw2INynzQfccayZ7vei4Fa4X/+gv6VoPCCA0UC9p07YniMF9iDFQzBkPFsoAVsUCNMAWyHZPYO4f39X8VTGMyfJZT7yy0HkrGPGcibIpoiefDJo535cHH3ySZqRYZUC+TxTnzYfzH3Xz0RyYPvQXKC+FbyPQvlDGAiyRq8BAhiZ3oftOVKgohdgyBQC9qPefBMigzffDCoRpgFGgfm5zZ0/KqODtA1/50jcC+RHl5GT3NRGMsAXOp4+TR9/nE6cqP3LRmvtqsH2zykXvvYV86GfxOUgcKCCOtuVD/pVRbgi1FZHIYC24ApvZtieIwUq0IYhUwjYj3IwF6j/DGfGNJl8PZ+8eIKkM1L99LrvXUP2cjsb4cCQIfS++7TJyGefDVp06vVStqXPlj5snqmvmw9pPQ5DQFy2av/1iYKE1Io+p38UIAuuEgEMxiNyT7A9RwpU9AQMmULAftTq1ZAXuHq1XKLSmcggn1eQis9J9/BiS+436ZYtpi6jLRIKV2Yj/obL5/NMfd18sPU4YTwdRn4/IvIcrVVFEWlcJCpBACOBsq4O2J4jBeoAoxSGTCFgPwq+50HcP87Lrq+nQ4Z0E+co8vFyMvc0SWLPn5ARc8nyt/3n+OHaMLXwcuBsYU+1ToT6cU43mA836MDfBwwgAoiAFQRge44UqMAQhkwhYD/K1AvUW9uODpqTQ28j2+vJ9ztJDCO/P5Ib7id1ceSc19u9m7Cjg95/P+RixsQ4GZMMOx0CBVqZZ9LjY78T7ElIniieEGYPPsyNCEQJAdieIwUqugWGTCFgPwoerqys1G4a4iTh9dJNdW2NlfV/ILfz2N+R4jvJ2/yQ68pKTYn6+qCt8bwEMVBZqe0jFGMiGTa63p1d4cQ0MWWXyLORfiDaCk/bfy9QAhFABMKMAGzPkQIVcMOQKQTsRwG73VNTe07+TCWt/0DWrSU/OEUGM9ZqIwn/Rh6+lvxJ4q21azX+kyKVj2vXav4iO1pTmcFuZHKypXpZsRUVcmY2OirqA1Ng5NnIqLP0o7X2XwSUQAQQgd5FALbnSIEK9GHIFAKOogDG8pC//5Cs/B0pPkMSOWN8Fpu9hPw0ixxXUpTfH+Q4KvOwSLbTQKQcILOVpMpKrqN5wO/XqFr0cfWaAA5WVNgIdpr5mh1HbwEKIQKIQO8iANtzpEAF+jBkCgFHUZIr5iF/v5384Ufkha3ku+xUT8YnH5NR1eSpW8iOGNKZkdHjIIrklJlJn3nGnH4IoWwvNmzTxZJNw2Vlmk8p3pMOi6xapYHFZ/IA5s7MpO3tMrKw5r3ERvDRBBE4IYzDFfpFgzKg+IwI9HcEYHuOFKjofxgyhYA+6q236Dvv0F276Ecf0QMHaFMTPXGCfv017ezU8p47R/fv/+j5//XfyT/9O3noD+T2vxOPxGD/Sa5fSH72LdLIZ/sI0ZaxMA8Jphkg1cqpY4C4PomxDuDRSiJpaUEXQsGUlpERlJlSGhU2gpXsJd7l75TkNMOjxFwKA4gAIsAQgO05UqDiPYEhUwjoo5K6tytIxKY9JiSwM1ykpE4Sc5gM30wmP0FqhpPDEnOwx23b5FFEZTajyH/8x25FYZtuJC7FSzNh9fXUaKmLXpBfCAVTWtDZbxd0hzXvJTaK4gFXkZ/41L/LGIMI9GkEYHuOFKjoXBgyhYAU1dVFr7+eXn01HT6cDh2q7eaLj5cIj6aktOZdv4bMWEQq7yd1BWR3MvlaogrxUeSb9ettHLYpFsLviTWaURMzw2H9dJ3eWBuVILYFpjRGgeJBmtFiI9Y6cV+jHgHpLQj90aibRABDrwVLQAT6NwKwPUcKVPQ+DJlCwEpURwf96iv6979rg6Kffko7O42sOWMOI2trnWmMGIh5YOXlMikb5VfGS+djGRlrpSyLZB6bNCFqlJ+7dx0dVL/6xgobhT6dJg1ISghYeQXs5oG/DzgmdovF/IjAgEIAtudIgYqXAYZMIeA0ysi3kC7C5dbWAdPoScXjob//vY0FLGIJmZl09eruu9rFRsPGWiyBh9kqEosUuHChtoJGIiFeFMdHVEkMS4KOp9NC51FRK9MwPEocgWU4phpiBkTA/QjA9hwpUNGDMGQKgRCiJOvMrbnS2jpgGs4TYQlUVmoLUvTrEmFjrayaOTHWW6TfO8GKrazU2BH46f1mK14jUGDEkmBw0AuMWEdgRX0aAdieR58Cq6qqCCFPPPEEQ7mrq6uioiI7OzspKWns2LF79uzh6Le1tfl8Po/Hk5KSMnXq1KamJp7U3NxcWlo65MKvtLT0iy++4ElHjhwpLi5OSUnxeDzz589v1y+051kvBmDILuYK2/+VbKcs3cFlC0r6cRAZG0vTu++i0EZQJUcKNtZSdeJUlgPuFEsTi1IiZuQ3mwoqS4twpNFQeZ9QPsJYYXWIgBECsD2PMgW+//77I0aMKCgo4BRYXV09ePDg+vr6xsbG6dOnZ2dnt7a2srbNnTs3Nze3oaEhEAgUFhaOGTOm4+L3/+TJk/Pz89+78MvPzy8uLmYiHR0d+fn5hYWFgUCgoaEhJyfH5/MZIcXjYch4tggHrG88EEmil8KSI9XeHnRBrlSp0bwmpeE5qg3wh2BuBgQj3LlG1RkNlfMltUaCGI8IIAIMAdieR5MCv/zyy7y8vIaGhrFjxzIK7OrqysrKqq6uZqq3tbWlpaWtWLGCUtrS0hIfH19XV8eSjh07Fhsbu2XLFkrp3r17CSE7d+5kSTt27CCE7Nu3j1K6efPm2NjYY8eOsaTa2trExMRTp06xR6N/YciMpHo13sibkcimNx5zcw1PU+NrNWGmyczsWXrDR3oZXEaOjq2GALNisJcJCAK9ad1rBwqxnmQ0VG69BMyJCAxkBGB7Hk0KnDlzZllZ2XlXgFPgoUOHCCGBQIB32LRp02bOnEkpfeuttwghzc3NPKmgoGDx4sWU0pUrV6alpfF4SmlaWtorr7xCKV20aFFBQQFPam5uJoRs3bqVx/BAW1vbqYu/pqYmQogpU3LZCARgjmG75rdto+vXB509ZotIlJkffJDCt/syRwpmGraCRjmJyI72Zj6lUgErkYAzB+MGCBr1qURI0oCwkVSI8REm3RC1RXFEwFUIuJQCa2tr8/Pzz5w5I1Lg9u3bCSHcaaOUzp49e+LEiZTSNWvWJCQkiMgWFRXNmTOHUrpkyZK8vDwxKS8vr6qqiokXFRWJSQkJCWtVH/8VFRUk+Nd7FGjRoonZ4MuVJk/uWaIiSm3YEBIjejzaShOY3i58w5iMZ5oyjcQrotcIU6DprJiRl2kqKL4zPNx3V9bwJmAAERhoCLiRAo8ePTp06NDdu3ezzuBeIKPA48eP80565JFHJk2apKTACRMmPProo4wCr7rqKi5CKR01atTSpUtFBuWp8fHxtbW1/JEHIuYFSubeyI2QsmV03wzfM6Ko5wZlUR0dmhsnrmQRBePiDAuMiek+nAx2pIYM0WgydKYRmbu9XWNucQZR1JmHpflI3pVSIFzTaUZj0c7YVFISHxEBRKCXEHAjBW7atIkQEnfxRwiJiYmJi4s7ePBgtAZCRfRhyMScdsMW3Qh9Nm73gQBACXoaAMohRNs1yBdcrF9vSJOsEL9fg0FZBedRZ0CJLMjC4tYIaVoRqEL6nrAuKJYJfwqYerpiURhGBBCBiCEA2/PozAW2trY2Cr8bb7yxtLS0sbGRLYdZtmwZQ6e9vV1aDrNu3TqWdPz4cWk5zK5du1jSzp07peUw3K2sq6uL4nIYi26EUTbGNyIr6GkM8EgkGgD8P0JobCwtL9fghJVhCjzzDANeY0GRogjRHjmVdmey/D9JYcZborN4cTmwpRIdC/LS4QFh1eA6F8UAIoAIRA0BN1KgBAYfCKWUVldXp6Wlbdy4sbGxccaMGdKmCK/X6/f7A4HAuHHjpE0RBQUFOy78Ro8eLW2KGD9+fCAQ8Pv9Xq83ipsiLLoRcDYr82Q1NeoN7JwGampMHDvGbeXlJpN8LNsDD3T3p37bBuCYSu+A8pErrN+Mr8zfq5Fwv6AX2KvgY+GIgGME+hgFsq3xWVlZiYmJd955Z2NjI2/5mTNnfD5fenp6cnJycXHx0aNHedLJkydLSkoGX/iVlJRIW+OnTJmSnJycnp7u8/na2tq4lFEAhsxIyjTeohsBZ2OrK30+SxwmjmeK6sFVcOcyLo6uWmVeEfMCjfxFwDEVVXJ/mDVQ74X3mwa6vwtQQ0TAAQKwPY/OQKiDZkRSBIbMsSYW3Qgr2eA8nMNYQD8UaV388cfNKZDNBcJl9g8nST/fGaKb6/hdQkFEABGwiABsz5ECFTDCkCkErEVZdCOsZDNyuSTyY48eD33zTXr+pOmFC7XVocACTr34vHkm2yrYxglnl9m6apzTWh9qU5teb89ngbOVNRbrwmyIACIQOgKwPUcKVCAMQ6YQsBxl0Y2wkk0/8aYnMGUMW6JiUbympnupp7IoQnpWu8A76JmnKOIkcYlyR4eY3z3hvsjc7kEPNUEEIowAbM+RAhXdAUOmELATJZl+IzfCSrYf/ajHHTGiKKN4K/cFxsZSdqi4pAwrUyItWxTIOF7UDUcU7bxEmBcRQASsIgDbc6RABY4wZAoBm1EW3Qg4W329w7vjGfHol3WIhMTDfB6RKbN6Na2pUV8ZCC+xEfcMGI3i4roSm+8RZkcEEAFzBGB7jhSoQBCGTCEQ8Si9F8VJK7wBfhC2aROtL4exntO0UsyACCACiACMAGzPkQIV6MGQKQQiG2XkRYWX/HhpfDFne7vmAvp82r/6WxetrOJhOFn3FyOLK9aGCCAC/RAB2J4jBSq6HIZMIWA5Ch7btFgM7EVx6gpXYPVqTa/y8qAbAePiuo+PEXW2sorH9I5AzrhiyWHBTSwQw4gAIjBAEIDtOVKg4jWAIVMIWIuSFpVIy0mslaHlgr2ocDEfL6emRmM7/igG2CFqouZSG5WLfaz7i6xkqUzHuIl6YhgRQAQGCAKwPUcKVLwGMGQKAQtR+tk7x2sgI+wFvvZakP8nUmBcnHpEdNs29QltHCeL/iI/fVus1DFuvHYMIAKIwMBBALbnSIGKNwGGTCFgFmU0e+dsDSTgRXk8QRu3ReaQwjEx2hnW4i5vKQN/hA+Iqakxa7xBuuTbAf4i14QHnOFmoAhGIwKIQH9GALbnSIGKvochUwiYRcF+m3L2Cy4S8KLYtNnCheqhS5FF6uu1k2K2bdM2ORjdR3jFFXTePKgonw/WFEo1neELO26QNpiGCCAC/REB2J4jBSr6HIZMIWAWBc/eiXvmeEmm9GDkRZmyGiEa4ZWV9Vw0z8cbxc2CfLwRvlbCsRfIWwoEHOAGlIZJiAAiMAARgO05UqDilYAhUwiYRdn1ZiR6M1oAoqdJSZD7fGJgyJAer04sWZLlI5Pt7fbmAs3AsJFuFzcbRWNWRAARGBgIwPYcKVDxFsCQKQTMooDZO/3ec8cLZ/SCIvOxC2ylGO7qsRboOZXFW18RaoaEvXRbuNkrGnMjAojAwEAAtudIgYq3AIZMIWAhCpi9E6UdL5wBBDMztdk+v1+9+MXi0hIr+wLFhoQrbBG3cFWH5SACiEA/QwC250iBiu6GIVMIWIsyGmkUpR0P/ZkKmmYQ1VCG4dNhlCJhibSCW1gqwkIQAUSg/yEA23OkQEWPw5ApBCxHGY008gIcLwAxFTTNwHVwYcAUNxfqjCohAoiAGxCA7TlSoKKPYMgUAqooZ1bbsa9mKmiagdLuPRJr1wYtFlU1DuMQAUQAEegbCMD2HClQ0YswZAoBXZQ0dicuvNTlDYpwvADEVNA0g2OdgxqAD4gAIoAIuAkB2J4jBSr6CoZMIRAcpV+ZKS28DM4uPzleAKKvlxAaE9NzsTtQsl7Wls5yG/AZEUAEEAF3IADbc6RARS/BkCkEhChgZaZ+/4MgFxSUHDK+RS8ok+rBdN2msuSw6KxSB+MQAUQAEYgyArA9RwpUdA8MmUJAiLIy5SZkNww6WH5ZX9+z513c/8dvfmeV6Scpw6WzYWMwARFABBCBKCEA23OkQEW3wJApBISosCy8lHw1K1OJ7e1UPPZFpECPR1vnAvxgnRcuNLn2ASgZkxABRAARiC4CsD1HClT0DgyZQkCICt2jcjAtV19veM4140K/X1BRF4R15mxqhYl1ZWMEIoAIIALRRAC250iBir6BIVMICFGmCy+FvIqgg2k5PWVy0uKBhQsVdfEoI525OAvgAhmOGAYQAUSgryAA23OkQEU/wpApBIKjgIWXwRkVT7BDpr9WyYgyJfaCKVB5U4RUAmdB64t6FM3DKEQAEUAEIosAbM+RAhW9AUOmENBFSZN51pd0wtNy+muVYMrkNAYPhDL1JZ25rD6gZ2IdABiBCCACiIArEIDtOVKgopNgyBQCqij9wktVLjkOpjQ998CUydjLdDkMV4LrDN+4q2diXgIGEAFEABFwFQKwPUcKVHQWDJlCIHxRRtNyRvc5wJTJKFDaFGFFWbhYPRNbKRPzIAKIACIQeQRge44UqOgRGDKFQFijbE0lGlEmI7/c3J6jYWzpaFSsERPbKhwzIwKIACIQMQRge44UqOgIGDKFQLijpGk5eCpRT5mM/yorTbYDwlrri8UVoTBimIoIIAIuRAC250iBii6DIVMI9EIUn5bbts2cyWxRpnVle6lY6wpgTkQAEUAEQkQAtudIgQp4YcgUAi6IskWZ1vXtpWKtK4A5EQFEABEIBQHYniMFKrCFIVMIYBQigAggAoiAKxGA7Xl0KLCqqurGG29MTU3NzMy866679u3bx6Hr6uqqqKjIzs5OSkoaO3bsnj17eFJbW5vP5/N4PCkpKVOnTm1qauJJzc3NpaWlQy78SktLv/jiC5505MiR4uLilJQUj8czf/789vZ2nmQUgCEzksJ4RAARQAQQAbchANvz6FDgpEmTXn311T179uzevXvKlCnDhg376quvGHDV1dWDBw+ur69vbGycPn16dnZ2a2srS5o7d25ubm5DQ0MgECgsLBwzZkzHxeOfJ0+enJ+f/96FX35+fnFxMRPp6OjIz88vLCwMBAINDQ05OTk+n8+0h2DITMUxAyKACCACiIBLEK1MDwQAABFHSURBVIDteXQoUITm888/J4S88847lNKurq6srKzq6mqWoa2tLS0tbcWKFZTSlpaW+Pj4uro6lnTs2LHY2NgtW7ZQSvfu3UsI2blzJ0vasWMHIYR5lps3b46NjT127BhLqq2tTUxMPHXqFHs0+heGzEgK4xEBRAARQATchgBsz6NPgQcOHCCENDY2UkoPHTpECAkEAhzEadOmzZw5k1L61ltvEUKam5t5UkFBweLFiymlK1euTEtL4/GU0rS0tFdeeYVSumjRooKCAp7U3NxMCNm6dSuP4YG2trZTF39NTU2EEFOm5LIYQAQQAUQAEXAnAq6mwK6urqlTp95xxx0Mu+3btxNCuNNGKZ09e/bEiRMppWvWrElISBAhLioqmjNnDqV0yZIleXl5YlJeXl5VVRUTLyoqEpMSEhLWqg74qqioIME/pEARNwwjAogAItAXEXA1Bc6bN2/48OF8YQujwOPHj3OgH3nkkUmTJikpcMKECY8++iijwKuuuoqLUEpHjRq1dOlSkUF5anx8fG1tLX/kAfQCORQYQAQQAUSg3yDgXgr0+Xxer/eTTz7hWEdxIJTrQCmFIRNzYhgRQAQQAUTAzQjA9jw6c4FdXV2PP/54Tk7Oxx9/LGLHlsMsW7aMRba3t0vLYdatW8eSjh8/Li2H2bVrF0vauXOntByGu5V1dXW4HEYEHMOIACKACPRvBNxIgY899lhaWtrbb7/92cXf6dOnWTdUV1enpaVt3LixsbFxxowZ0qYIr9fr9/sDgcC4ceOkTREFBQU7LvxGjx4tbYoYP358IBDw+/1erxc3RfTv1x1bhwggAoiAiIAbKTB43Yn29OqrrzKl2db4rKysxMTEO++8k60UZUlnzpzx+Xzp6enJycnFxcVHjx7l7Tx58mRJScngC7+SkhJpa/yUKVOSk5PT09N9Pl9bWxuXMgq0tLQQQpqami4uEcX/IwKIACKACPRJBNgK/5aWFqXBj85AqFIV90QyyPQ8jTGIACKACCACfREBvuhSIhqkQAkQ7bGzs7OpqamlpaX3vnkYy/ZFRxM17723wqhkxNwImd6LR8x7D1ujknsJ85aWlqamps7OToWtpxQpUAlLr0fCw9O9Xn0IFaDmIYDnUBQxdwhcCGKIeQjgORSNCuZIgQ57K0SxqHR2iDozcdQ8LDDaKgQxtwVXWDIj5mGB0VYhUcEcKdBWH4Utc1Q6Oyzao+ZhgdFWIYi5LbjCkhkxDwuMtgqJCuZIgbb6KGyZzy9MraiosLI8NWxVhqkg1DxMQNooBjG3AVaYsiLmYQLSRjFRwRwp0EYPYVZEABFABBCB/oQAUmB/6k1sCyKACCACiIANBJACbYCFWREBRAARQAT6EwJIgf2pN7EtiAAigAggAjYQQAq0ARZmRQQQAUQAEehPCCAFhqc3q6qqbrzxxtTU1MzMzLvuumvfvn28XHbqaXZ2dlJS0tixY/fs2cOT2trafD6fx+NJSUmZOnWqeIRPc3NzaWnpkAu/0tJS8dRTLh72QFVVFSHkiSeeYCW7X/NPP/20pKSEHRs7ZsyYDz74oE9ofu7cuQULFowYMSIpKWnkyJGVlZX86AoXYv7OO+8UFxdnZ2cTQjZt2sTfurCreuTIkeLi4pSUFI/HM3/+/Pb2dl6Xs4BS87Nnzz711FP5+fkpKSnZ2dkPPPCAeEe3sz/JyGgugjBnzhxCSE1NDY90v+Z79+6dOnXqkCFDUlNTb7nlliNHjjDlo6s5UiB/hUIKTJo06dVXX92zZ8/u3bunTJkybNiwr776ipVYXV09ePDg+vr6xsbG6dOnS3df5ObmNjQ0BAKBwsJC6e6L/Pz89y788vPz+d0XIWkJCr///vsjRowoKCjgFOhyzZubm4cPH/7ggw/u2rXr8OHDfr//4MGDfQLz559/3uPxvPHGG4cPH96wYUNqauoLL7zgWs03b968YMGC+vp6iQLD+3p0dHTk5+cXFhYGAoGGhoacnBwrl7qAbzRVat7S0jJhwoR169bt27dvx44dt9xyyw033MDLmTt3rt0/yYhpzpXctGnTmDFjcnJyRAp0ueYHDx5MT08vLy8PBAKHDh164403/va3v7EWRVdzpED+XoUt8PnnnxNC3nnnHUopuwGxurqald7W1ibdgFhXV8eSjh07Jt2AuHPnTpa0Y8cOfgNi2LQMLujLL7/My8traGgYO3Yso0D3a/7000/fcccdwe3Qntyv+ZQpUx566CGu+T333FNaWup+zUUKDDvImzdvjo2N5Q5ZbW2tlas9OYZwQNRcyvn+++8TQphH0tLSEh8fb/dPMsKaf/rpp7m5uXv27Bk+fDinQPdrPn36dPaSS/hHXXOkQKlHwvB44MABQgi75unQoUOEkEAgwMudNm3azJkzKaVvvfUWIaS5uZknFRQULF68mFK6cuXKtLQ0Hk8pTUtLe+WVV8SY8IZnzpxZVlZGKeUU6H7Nr7322rKysvvuuy8zM/O66657+eWXGSbu13zp0qXDhw/fv38/pXT37t1Dhw5du3YtpdTlmotEEnZVFy1aVFBQwN/q5uZmQsjWrVt5TCgBUXOpnIaGhpiYmFOnTjn+k4yk5p2dnYWFhWzMQKRAZ8YkYpp3dnampqb+7Gc/mzhxYmZm5s0338xH1KOuOVKg9BcR6mNXV9fUqVO5d7J9+3ZCCP+2pZTOnj174sSJlNI1a9YkJCSI9RUVFc2ZM4dSumTJkry8PDEpLy+vqqpKjAljuLa2Nj8//8yZMyIFul/zxAu/n/70p4FAYMWKFefn1X79619TSt2veVdX109+8pOYmJhBgwbFxMTwnnW55iKRhF3V2bNnFxUViW91QkIC+zIQI52FRc3FEs6cOXPDDTeUlJSwSGd/kpHUvKqqqqio6PwsLKVUpECXa/7ZZ58RQlJSUv7lX/7lww8/XLp0aUxMzNtvv+3YDIYRc6RA8S8iDOF58+YNHz6cL2xhluL48eO86EceeWTSpEnKvp8wYcKjjz7KKPCqq67iIpTSUaNGLV26VIwJV/jo0aNDhw7dvXs3K5B7ge7XPD4+/rbbbuM4zJ8//9Zbb+UU6GbMa2trvV5vbW3tRx99tGrVqvT09Ndee839motEEvbXg38a8g6Nj4+vra3lj6EERM15OWfPnr3rrruuv/565gI6/pOMmOYffPDB5Zdfzr+nYQq0YkwipvmxY8cIITNmzODgT5069Qc/+IEbMEcK5J0ShoDP5/N6vZ988gkvK+zjRbzkcAU2bdpECIm7+COExMTExMXFHTx40OVDuMOGDXv44Yc5DsuXL8/JyXH/cCKl1Ov1vvTSS1zz55577uqrr3a/5iKRhP3FjtigHIP97Nmzd999d0FBwYkTJ3hHRH1QjmvCAyLmNTU17G+T/bESQmJjY4cPH+7+Idz29vZBgwY999xzvF1PPfXU7bff7gbNkQJ5p4QU6Orqevzxx3Nycj7++GOxILZqYNmyZSyyvb1dWg6zbt06lnT8+HFpOcyuXbtY0s6dO3tvOUxra2uj8LvxxhtLS0sbGxvdr/mMGTP4gDOltKysjDmF7tc8PT19+fLl/D2pqqpi494u11w0x2FXlS0q4b57XV1d7y2HYfz3rW996/PPP+e9cP4VYksz7P5JRkzzEydOCH+pjTk5OU8//TTbf+VyzSmlt912m7gc5u6772ZOYdQ1RwoU/wSchx977LG0tLS33377s4u/06dPs+Kqq6vT0tI2btzY2Ng4Y8YMaVOE1+v1+/2BQGDcuHHSpoiCgoIdF36jR4+OwKYIpi0fCKWUulzz999/f9CgQUuWLDlw4MCaNWtSUlJWr17dJzCfNWtWbm4u2xSxcePGjIyMp556yrWaf/nllx9e+BFC2FwOWz8Z3teDbS0YP358IBDw+/1erzf0TRFKzc+dOzdt2jSv17t79+6Lf6yf8T2Ic+fOtfsnGTHN2RvC/xUHQimlLtd848aN8fHxL7/88oEDB/71X/81Li7u3XffZW2JruZIgfyNCilAdL9XX32Vlch2EGdlZSUmJt55551spShLOnPmjM/nYzu7i4uLjx49ypU4efJkSUnJ4Au/kpKSyGyNF5fDsDX6FRUVbtb89ddfz8/PT0xMvOaaa/iKUPdr3tra+sQTTwwbNiwpKenKK69csGABN8EufFu2bdsmvd2zZs3qDZCPHDkyZcqU5OTk9PR0n893/uoc/ufgLKDU/PDhw1JzCCHbtm0L5U8yMppLIEgU6MyYRFLzlStXjho1KikpacyYMb/97W95c6KrOVIg7wgMIAKIACKACAwsBJACB1Z/Y2sRAUQAEUAEOAJIgRwKDCACiAAigAgMLASQAgdWf2NrEQFEABFABDgCSIEcCgwgAogAIoAIDCwEkAIHVn9jaxEBRAARQAQ4AkiBHAoMIAKIACKACAwsBJACB1Z/Y2sRAUQAEUAEOAJIgRwKDCACiICGgHhCECKCCPRvBJAC+3f/Yuv6GwKzZs266667rLfKAZ+dPHmytbXVehWYExHouwggBfbdvkPNByICEaDAgQgrtnmgIoAUOFB7HtvdNxEwosC33377pptuSkhIyMrKevrpp8+dO0cpnTVrlnge5uHDh6VG/+pXvzp/FWViYuLQoUPvvfdelsodR+UZmyzP7373u29/+9uJiYkjR4589tlnWXVS4fiICLgfAaRA9/cRaogI9CCgpMBPP/00JSVl3rx5f/7znzdt2pSRkVFRUcFu/7nttttmz57NrkTo6OjoKYjSP/7xj3FxcWvXrv3LX/4SCARefPFFlsopsL29nd+lsHXr1qSkpJUrV1JKt2zZMmTIkNdee+3QoUNvvvnmiBEjnn32WbFkDCMCfQUBpMC+0lOoJyKgIaCkwGeeeebqq68+f8sEw+hXv/pVampqZ2cnvLalvr5+yJAh+mk/ToEc8RMnTnzjG9+YN28ei/nOd75TVVXFU3/zm99kZ2fzRwwgAn0IAaTAPtRZqCoioKbA73//+w8++CBHZ/fu3YQQdqufns94ttbW1tGjR2dkZJSWlq5evfrrr79mSZLI2bNnx44dW1hYyEc7U1JSkpKSLrn4S0pKIoRwcV4+BhAB9yOAFOj+PkINEYEeBJRe4N133/3DH/6QZ/rwww8JIez6SYnPeB4WOHfuXENDQ3l5+ZVXXjlq1Ch2LaUk8vDDD48cOfLEiRNcNikpadmyZQeCf8zp5HkwgAj0CQSQAvtEN6GSiEA3AkoK1A+EDh48mHFSUVGRlevXv/rqq0GDBtXX10tjp7/4xS9SU1PFe54ppbfffvtDDz2EXYII9AMEkAL7QSdiEwYQArNmzfrud7/7ofA7cuQIWw7z+OOP//nPf/7tb3/Ll8NQSmfPnn3TTTcdPnz473//u+Sovf766y+++OKHH374l7/8Zfny5bGxsXv27BEpsKGhIS4ubsWKFXxRTEtLC1sOM2jQoIqKij179uzdu7eurm7BggUDqA+wqf0IAaTAftSZ2JQBgIC0z4EQMmvWLEqpclMEpXT//v233nprcnLy+ZzSpoh333137Nixl112WXJyckFBwbp16xh+fCC0oqJC3FPB62IsePvttycnJw8ZMuTmm29++eWXBwD22MR+iABSYD/sVGwSIoAIIAKIgBUEkAKtoIR5EAFEABFABPohAkiB/bBTsUmIACKACCACVhBACrSCEuZBBBABRAAR6IcIIAX2w07FJiECiAAigAhYQQAp0ApKmAcRQAQQAUSgHyKAFNgPOxWbhAggAogAImAFAaRAKyhhHkQAEUAEEIF+iABSYD/sVGwSIoAIIAKIgBUEkAKtoIR5EAFEABFABPohAkiB/bBTsUmIACKACCACVhBACrSCEuZBBBABRAAR6IcIIAX2w07FJiECiAAigAhYQeD/A9JyfqgRPETJAAAAAElFTkSuQmCC;" vertex="1" parent="1">
          <mxGeometry x="379" y="54" width="465.99" height="353" as="geometry" />
        </mxCell>
        <mxCell id="ZC6dXS9VG-4Vkqp6-rwn-3" value="" style="shape=image;verticalLabelPosition=bottom;labelBackgroundColor=default;verticalAlign=top;aspect=fixed;imageAspect=0;image=data:image/png,iVBORw0KGgoAAAANSUhEUgAAAjUAAAHFCAIAAACFDZ9LAAAAAXNSR0IArs4c6QAAIABJREFUeAHsnQd4FEUfxufSLj2QRgohoSqEFkFAECK9SLUiLXQBKSKCKCVIlwiIiqJ8AiIgVUBpMbQgiAKGIoRAgAChSE8gpF5uPsaFdbmyuVzubncv7z55YHZ25l9+szfvbbldQrGAAAiAAAiAgPwIEPmFhIhAAARAAARAgEKfsBOAAAiAAAjIkQD0SY6jgphAAARAAASgT9gHQAAEQAAE5EgA+iTHUUFMIAACIAAC0CfsAyAAAiAAAnIkAH2S46ggJhAAARAAAegT9gEQAAEQAAE5EoA+yXFUEBMIgAAIgAD0qVTvA0uXLiVPFkdHx9DQ0L59+165csUUKNH/Lqa0tHGbPXv2EEL27Nljil/xxtxWjpCDg4O/v3/Hjh0PHz5simX5tOFGOS0tTZKQJkyYEBYW5ujo6OPjYyyA7du3d+jQwd/f38XFpXz58n369Dl16pSxxiL1hJDY2FiRBsXaJBz9J58S9v/bb79dLDtobDYB6JPZ6OyhIzdzLV269ODBg7t3754yZYpara5YsWJWVlaR6clWnzIzMw8ePJiZmVlkCpRSU/Rp5syZBw8e3Ldv34IFC3x9fd3d3c+ePWuKcZm0uXnz5sGDB3Nzc20fz6ZNmwghEyZM2L9/vzFdHzt2LCGkXbt2a9euTUxMXLx4cfXq1dVq9YYNG4obsGX1iduRDgqWPn36EEJ27NhR3MDQ3jwC0CfzuNlJL06fhBPHpEmTCCErVqwoMkPZ6lORkQsbmKJP69at47t8//33hJDJkyfzNRYsPHz40ILW5GBq+vTphJAbN24YC2bVqlWPGgwdOlTYICsrq169eu7u7ufPnxfW82VjoMzWp/z8/IKCAt6+wYJWq61UqVJ4eHhhYaHBBqi0OAHok8WRKsmgvj5t3bqVEDJjxgxKaU5Ozvjx4yMiIpydnUNCQoYNG3bv3j0+PV6ftFptlSpV2rRpw2+ilD548MDb23vYsGH8McqqVas++uij4OBgLy+vli1bpqSkCNt/9913tWvXVqvVZcuW7dq1a3JyMr81JibGw8Pj9OnTbdq0cXd3DwoKmjVrFqX04MGDTZo0cXd3r1q16rJly/j2OpJz+PDhN998Mzw83NXVNTw8vHv37hcvXjTWmK/nCpwpoT6dOnVK5wzP2bNn33rrrYCAABcXl2efffbLL78UGjl58mTr1q3d3Nz8/f2HDRu2ZcsW4bnH6OjoyMjIxMTEF154wc3N7c0336SUZmZmjhkzhsc+atQo4eHs2rVrGzRo4O3t7ebmVrFixX79+nHuCgsLp02bVq1aNVdXVx8fn1q1an322WfcJv3ze0XSTk1Nbd++vYeHR/ny5d977z2RY6/CwsJPPvnkmWeecXFxCQgI6N27d3p6Ouc3PDxceFrM4Jm3yMjIsmXL6uvN77//TggZPnw4Z4rbB06cONG6dWtPT89GjRpxoAYOHOjr6+vh4dG2bdszZ87o6JPI0HAju3z58vfeey8kJESlUp0+fZrzZezfXbt2PUpnypQpxhqg3uIEoE8WR6okg/r6tGDBAkLIt99+q9Vq27Zt6+TkNGnSpF9//fXTTz/18PCIioripypenyilCxYsUKlUwrNeCxcuJIRwVxG4uSAiIqJnz55bt2798ccfK1SoULVqVY1Gw8GaOXMmIeStt97aunXr8uXLK1Wq5OPjw1uLiYlxcXGpXr36ggULEhIS+vXrRwj58MMPq1Wr9t1338XHx3fs2JEQcuTIEc6ajj6tW7du8uTJGzduTExMXL16dXR0dEBAwK1btww21hk8fX3iBGbu3Llcy1OnTnFisHz58l9//XXMmDEODg78FHbt2jU/P78KFSosW7Zs27ZtvXv3joiI0NEnX1/fsLCwL774Ys+ePYmJiQ8fPqxbt66/v/+8efN27ty5YMECHx+fFi1aaLVaSunvv/+uUqm6d+++bdu23bt3L126tHfv3lwks2bNcnR0jI2N3bVr144dOz777DM+DB19MpH2p59+unPnzsmTJ6tUqo8//liHDL86ePBgTkh27NixaNGigICAsLAwDm9SUtKAAQO4E2IHDx7kdYvve+3aNUIIp8p8JV8IDAx85plnuNWYmBhnZ+eIiIhZs2bt2rUrPj5eq9U2b95crVbPmDHj119/jY2NrVSpklCfxIeGG9nQ0NDXXnvt559/3rJly507d3jXBgs9evRwcHC4dOmSwa2otAYB6JM1qCrGJjdz/fHHHwUFBQ8ePNiyZUtAQICXl9c///yzY8cOQsicOXP4ZNasWcNJF1cj1Kf79+97eXmNGjWKb1yjRo3mzZtzq9xc0KFDB37r2rVrCSEHDx6klN67d8/NzU249fLly2q1ukePHlz7mJgYQgh/NaKgoCAgIIAQkpSUxDW4c+eOo6Pje++9J3Rn8P4IjUaTlZXl4eGxYMGCIhvzR35r1qwpKCjIzs4+cODAM888U6NGDf44sm3btuXLlxde6xo+fLirq+vdu3cppWPHjlWpVMJL/W3bttXRJ0LIrl27uGAopbNmzXJwcBCecV2/fj0hZNu2bZTSTz/9lBCSkZHBt+cLHTt2rFu3Lr8qLAj1yUTaa9eu5S106NCB1wm+kiucPn2aEMIdJXM1f/75JyHko48+4lZjY2MJIfy3AZ3uf/zxByFk/PjxOvXcasOGDd3c3Lgytw8sWbKEb7l9+3ZCCD+OlNIZM2YI9Ul8aLh9slmzZrxB8cK9e/dcXV3btm0r3gxbLUtAqfqUmJjYsWPH4OBgQsjGjRuLhJKTkxMTE1OzZk1HR8cuXboI2//222+NGzf29fV1dXV95pln5s2bJ9xq32Vu5hKehKlVq9b+/fsppePGjXs09dy8eZMnoNVqH51n47/tCvWJUjpy5EgfHx/uTBR3JoRXFG4uWLRoEW8qJSWFELJ69WpK6bZt2wghwgmRUtq+ffty5cpx7WNiYlQqVU5ODt/9hRdeCA4O5lcppcHBwa+++ipXw7nj9enBgwfjxo2rXLmyo6Mjn+mQIUMMNhba5PWJ70UICQ4O5m+Ey8nJcXJyGjFiRIFg4dLh5KRBgwa1atUS2ly2bJmOPpUtW1bYoEmTJrVr1xbYY98bVCrVuHHjKKWJiYmEkDZt2qxZs0bnNsupU6eqVKqhQ4fu2LFDqJeUUqE+mUF7/Pjxrq6uwiD58ldffUUIOXToEF9DKa1evXrDhg25mpLoU4MGDdzd3Tk7nD4J8+L2z9u3b/Ou09LSeH0qcmi4nUQob7wdg4Uvv/ySECI802uwGSotS0Cp+rRt27YJEyZs2LDBRH3KysoaMmTIt99+27ZtWx19SkpKWrVq1cmTJ9PS0n744Qd3d/dvvvnGspRla42buZYvX3748OGjR49eu3aND3XAgAFOTk78KleoXLlyq1atuLKOPqWmpjo4OHDounXrVr58ef70HTcXCD/b3FSydOlSSukPP/xACPntt9+EvoTeuWsPwq3cZRthTXh4+Msvv8zV6OhTp06d3N3dZ82atXPnzkOHDh0+fDggICAmJsZgY6FNXp8++eSTw4cPJyYmTpgwwcHBoU6dOtxJzitXrgilS1hevnz5o9SEuDjL3Ld+Xjujo6Nr1KghdFqlShWhHb7cv39/rtmmTZtatGihVqsfTZeRkZGrVq3i6gsKCubOnRsVFaVSqZycnFq0aMEfhAn1yQzanMYIg+TL06ZNI4TonLhr2bJllSpVuDbi+iR+fq9cuXL8cVtMTAyvVZxl4R7C1eTk5PD6VOTQcDuJzrciPi/9QlRUVEBAQH5+vv4m1FiPgFL1iSeio095eXljx44NCQlxd3dv0KABPxHw7WNiYnT0id/EFbp169arVy+dSntd5WYufiITpmns+Kl79+5cMx19opS+/PLLtWvXvnz5sqOj4/Tp03lr4vpk7Bt9UFAQZ6Ek+pSRkaFSqfgrMZTS3NxcR0fHYumTUFm5G9Li4uIenb57+PCho6Nj3759D+st3Pd6/eMnDji/W+oLbaNGjWrVqqVn7zB/0MYxyc3N3bt3L3e28Pfff+dRc+dL161bV7VqVV9fX+6+A6E+mUFbRJ+MHT9x9y88ikpcnyilxbo/Qpim+PFTkUOjv08KjeuUk5KSCCFjxozRqceqtQnYmz716NGjcePG+/btO3fuXFxc3KPLGPxldg6luD4lJSWVK1du8eLF1uYuE/si+hQfH08IEZ7tXLduHSGEh6OvT7/++ishpHnz5i4uLsJbivXnAuHxE3dFpHPnzjyT9PR0tVrds2dPfsg8PDz4rY8Oa/SndWPHT5mZmYQQ7n4/zgJ3osZsfcrPz69SpYqfn9/9+/cppa1atapTp05eXp4wPL5syvWnyMhIvj2ldPr06e7u7hcuXBBWGisfO3aMELJw4UL9Bo/uj+DvTxHqkxm0RfSJO087cuRIPoBDhw5xP3jiaorUJ2P3l9evX194f7n+d5Qirz+JD43+PsmnoF945513CCHCe0r126DGGgTsSp/OnTunUqmuXr3Kk2rZsuWHH37Ir1JKjelTaGioi4uLg4PD1KlThe3tuyyiT9z9e87OzlOmTElISJg7d66np6ex+/d4SjVq1CCE6ByA6s8FQn2ilHJ3lPXu3Xvbtm0//PBDlSpVdO7fM1ufKKXNmjXz9fVdvHhxQkLCxIkTg4ODy5QpY7Y+UUq5mzumTZtGKT116lTZsmUbNGiwdOnSPXv2/Pzzz/PmzeNvDLl69Sp//9727dt79+7N3XKdmJjIEdMX2qysrKioqPLly8+dOzchISE+Pn7x4sWvv/76H3/8QSmdNGlSv379VqxYsXfv3k2bNjVv3tzZ2fnkyZOU0o4dO44fP379+vWJiYnLly+PiIgIDw/nzkcJ9ckM2iL6RCkdPHiwSqV699134+Pjv/nmm8DAwLCwMP6yUJH6RCl9//33CSHt27dft27dvn37Fi9eXKNGDZ3f5+rrU2FhYbNmzdRq9cyZM43dvycyNPr7JL8P6xRycnLKli3buHFjnXqs2oCAXekTN3F4CBYnJ6c33nhDyNGYPl24cOHEiRPffvutr68vf05f2NEuyyL6xP3+6YMPPggPD3d2dg4ODh46dCh/3xp3EBMdHa2DZcqUKY+eBcBNpvwm/blAR58opf/73/9q167t4uLi4+PTpUsX4T1v+nOT/rRu7PiJUnrlypVXX321bNmyXl5e7dq1O3nyZHh4eEn0iVLasGHDsmXLcvfRpaWl9e/fPzQ01NnZOSAgoHHjxsJzmydPnmzVqpWrq6uvr++AAQO4n/ceP36cg6OfyKP5Oisra+LEidwvirib10ePHv3PP/9QSrds2dK+fXvuu1RgYGCHDh3463Zz585t3Lgx94igChUqDBgwgP+Zl44+FZe2uD5xv3+qVq2as7Ozv79/r169hJejTNEn7h6ZDh06+Pn5OTs7h4aG9u7dW7gDcF8rdb6jUEozMjL69+9fpkwZd3f31q1bcwdzwl9ZiQyN/j7J7646hZUrVxJChLcO6jTAqvUI2JU+rV692tHRMSUlJVWwXL9+XYjPmD7xbbgfOfKrKBSLQL169erXr1+sLqWq8aBBgzw9PY2dDyxVKJAsCBRJwK70ifsB+b59+0TSLlKfpk6dGh4eLmIBm/QJZGZmHjhw4MMPP9S5XUW/ZWmr+fjjjxcvXrxr167NmzcPGjRIpVJNmjSptEFAviBgHgGl6tODBw+O/rtw1/CPHj3K/a67Z8+eERERGzZsuHDhwqFDh2bPnr1161YOzalTp44ePdqpU6eXXnqJ68vVf/nllz///PPZf5clS5Z4e3tPmDDBPJqlthd3tsTPz094dqXU0hAmPnPmzGrVqrm7u7u4uERGRs6fP597EoSwDcogAAIGCShVn7gJkf91CCGEu6KQn58/efJk7tllQUFB3bp1O3HiBJe5ztPAHv1Ugqv//PPPIyMj3d3dvb29o6KivvrqKzz/0eC+gkoQAAEQsCUBpeqTLRnBFwiAAAiAgO0JQJ9szxweQQAEQAAEiiYAfSqaEVqAAAiAAAjYnoDy9KmwsDA9PT0jIyMTCwiAAAiAgJIJZGRkpKenG7vkrzx9Sk9PF94WgTIIgAAIgICiCQh/0y08SlOePmVkZHCPTFbylwbEDgIgAAIgkMkdbxh8pRmlVHn6xD3xU/gmGKHeogwCIAACIKAUAuLzOfRJKeOIOEEABEDA3ghAn+xtRJEPCIAACNgHAeiTfYwjsgABEAABeyMAfbK3EUU+IAACIGAfBKBP9jGOyAIEQAAE7I0A9MneRhT5gAAIgIB9EIA+2cc4IgsQAAEQsDcC0Cd7G1HkAwIgAAL2QQD6ZB/jiCxAAARAwN4IQJ8MjKhGQ/fsoatWsX81mv8aaDR050760Ue0Vy/2786d9OZNGhlJvbxo+fJ040aal/e449attHNnWqsW+/eXX+jEiaz9nDl0/Hj61lu0RQvapAl9/XXasCEND6f+/rRKFdq8OX3tNapSUUKooyPt2JGGhVFXV1bj4EBdXGhQEK1endUPHMg6+vqyltyfgwOLgV91d6ceHuwvKIg1CwykwcHU3f2/BnyvkBDmtEMHWrkya+/szBy5uFBPTxoR8V/7qlWZfX9/2r49HT2a1q1Lvb1ZbAEBNDqaWahUia06O7Oa11+nM2eyNGvWZGnOmEEHDaJVqzKDr7zCUvD3p+XKUTc31r5cObp6NYPTvftjLN27swSbNGF/b79N//c/VuBTq1iRNm5M4+JodjaNj6c9erCtzZqxeNRqFoOvLy1ThoWhVjP7Dg4MplpN69enzz1HX36Z/TVqxEatbl1m6vXX2WpEBNs6cyZdsoR26sTKzz1H33yTBRYfzwZ62TJWX7UqrVCBdezcmY3mr7/S5cvpO+/QYcPop5/SbdvYQE+cyNprNGxnmDuXdu3KUAwcyHw1bswyWr6ctezShe0eXbvSjAxmp3dvVp49m5kdMoSVhw6l8+czI9zC7ZPLlrFNrVuzNhs20FatWF5DhjAaxnZafvfVaSBc5fbbFSuYxxUrWPw7dxrY/yll8cyfT4cPfyo2SlkA77xD27Rh/2ZnM59C+8IPER+PsGCwsUbD4PfqxVL+9NP/UAg7ipQN2hRpL77JmDVj9eLWFLTVvATN66WPRQH6tHDhwoiICLVa/dxzz+3bt08/B2GNeD7ClsbKGzYwseEnxPLl2URAKfvXz++/er4BCiCgT4D7YqFfX9waR0c6dizb94T7pEEjrq7/7Zz8Tsvv5DoW/Pye2pkdHf/rq2NcaGrsWCb2fAMuNkqZ1vKVXOH5558KWGiED4kv6MTGNd6wgX1JEpp1cGAoTFwM2jSxr34zY9aM1etbUGiNeQma18sgIvH5XPrnG61evdrZ2Xnx4sXJycmjRo3y8PC4dOmSwUy4SvF8RDpymzZseHwEw38wVCpWM3bsUx8VfisKICBDAtxOy32v4r5accflZoTKmzL2EahcueiPBm9E/wNo8BMnEqcpEmXQpkr1+IumfgziNcasjR1reK7gsYublf9WY4mLJ2heL2M0xOdz6fWpQYMGQ4YM4aN/9tlnx48fz6/qF8Tz0W8vrNFo2Je+QPJPBXJR56+ig26NTgNuNYxcsuVfeXLZ2F8oSRf+hZAr/F8wucr9BZFrQeRaOXK9HLkeSP7h/gLIDX9y05/c9CO3/MgtX3Lbl9wuS+6UJXfKkLs+5J43yfAmGV4k05Pc9yAPPMgDd5LlRh66kmw1yXEhuc4kz5EUOBCNihQSohWZa7DJegRUKnZ+WKNhf0Uee4mHoVLR0NCnjpzE2xvcysej/4kz2N5YpaNjESf6jOVrMABhMAbLItaEh5J8tOZ5Meha2kqRxLn9ymB45vUyaIqrFJ/PJdanvLw8R0fHn376iU9g5MiRzZo141e5Qm5uLv8keu557OY9v3zPHvZNcDtpW/QXQn5/RMEEAoVEVUAc84lTLnHJJq4PidsD4pFJvO4Rnzuk7C3id4MEXCflrpLgy6T8RVLhAok4RyqdIVWTybN/k8hjpPZfJOoQqX+QNDxAXkgkTXeR5vGk9VbSfjPptIF0W0NeX0ne+p70/o70W0QGf0HemUfenU3GTSMTJpMpH5IZ75M5I8lnQ8hX/ch3PciK18jaTmRzG7IjmuxpRH6PIn9VJ6cqkvNB5JoPuedCcu1GVvfsYRdETRgiG7XZs+epz655sc2f/5QRnRVxmzoB6PTVXxW3Zgxscb3o+5W8RjxxYwma10skWVnr09WrVwkhBw4c4BOYMWNGtWrV+FWuEBsbq/P2LfP0adUq9indTDplE1eZ/OUQtYl/ucSF/8sjzsK/fOLE/xUQR/5PQxy4v0Ki4v5sNEsZ+1jLpr6QqLKI+y3id5mUP0Oq/kWi9pEXt5O268iry0ifhWToHPL+ZDLlPfLpQPLtG2R1O7KtMdkfSf4OI5d8yD0HopFJKqtWsdscZBIMISwY4WJebMOHC23olsVt6gSg21lvXdyaMbDF9aLnVvoK8cSNJWheL5FsFaBPv//+O5/A9OnTn3nmGX6VK1j2+MnYPlfK6rWEaFWkUEUKHYjGgWgcSYETyXcmec4kz4XkqkmOK8l2Jdlu5KE7yfIgDzzJfS+S6U0yfMi9MuSuL7ntR275k5sB5EY5cj2IXAshV0JJehi5FE7SIsiFyiS1CjlbjaQ8S5JrkJM1yYk65GgU+aseOfw8+bMR+b0J+a0Z2duc7GpFfm1LtncgWzqRzV3IxlfJujfI6h5kRR+yrD/532CyaBj5ciT57D3y6Qdk1kQy9WMyaSYZ/yl5bwEZ8RUZspgMWEb6rCLd15NXfiEv/0paJZKmf5AGSaTuKVL9HKmUTkJvEb8s4l5I/r170hIj/YB4XCJhR0mdXaT5OvLqt2TgbDJuHJk9kHz7ClnflCQ+Q06XJXesfaCG4yedwTT2xV9nSuFXxQ8IdIzzq8X1wruTT0E8cWMJmtdLJGtZ65OJ5/eE6YnnI2ypX+ZOnhq8kmzwXDO/O6JgLwS0LiTXh9wLItcqkvPVyannyJEXyb62ZPurZF0fsmwoWfg+mRNLYuPImK/IkOWk1ybSeTd56Qh57iypcoME5BB1sY5W8onTFRKSROruIG2Wk15xZMwYEtedrHqR7KtIzqtJjtlg+QshInu1icatff3J4CfOWGwmXn/St8kD0f/gi9QYo6dSGb4gZ54XkQCk2iSSeJHXnywFn1IqPp9LfP2JUtqgQYOhQ4fyg1S9enXr3R/B3+kk5Iv794zNFKg3SMCF5PqRW5XIuXrkcGsS/yb5cShZOIFMm0tGLyF9N5HOv5EmKaTaXVLGFCW7SfyPkjq/kJcXkcETyLQeZEUj8ns5cl38wEvnfjnulirhXm0wcoOVvCmr3r8njE1Y1g/J9Pv3hHb4LPiZxPSCPj1+TuAKfJAl8WJ6PDZraSxxU+7fsxR8uesTd3/5d999l5yc/O6773p4eFy8eFFkhMTzEenIb9K5eT8sDL9/MmUiRZunCLi56d58zM9ifMGZ5IWQK3VJUluyvTf5fgyJm0Pe/4H03E1eOkuqPCRuT1nku/1byCLuJ0mNn0nHBWTEKDK/E9lc0+WMIyngWvE7rbG92vTfPwlNmf37J6ERPiS+YPATZ9nfP4kHwEdirGAwQu7rrPDeyBJ6MeZdwnpjiYuHZF4vgzbF53Ppj58opQsXLgwPD3dxcXnuuecSExMNpsFXiufDNxMvGPvxM54fgedH2O75EUO0X02/k//XCfa0icWLCyfFXmvX79qzL91wq6AhDgalq9DZ5V75yBvRrxVOmMRuRTh6lD58yO/qOnu1cBXPj+ApGSsIcQkfh2Gs3pgdxdWbl6B5vfThiM/nstAn/aBFasTzEemITSCgGAJ5eTQ1lT38Z9EiOm4ce0ZT3brsgVFPH2OxVZWKVqzIHhD08cf055/plStUq1VMmgi01BMQn8+hT6V+BwEApRAoLKRpaexga+7cx08wFD6ikZeugAD2mLzx4+maNUzkCguVkh/iLIUEoE+lcNCRcqkhcPMm+4Hu/PnsAbQ1axq458zXlz1yePZs+ttvNCen1HBBosogAH1SxjghShCwAIHsbPrnn+ys4ODB9Pnn2XPd+eMqQtiD6xs3ZicMN2+mt25ZwB1MgEDJCECfSsYPvUFAuQTy8phczZ3LXnwSGPiUVhHC3kHy3nvsKhf3wgzlponIFUsA+qTYoUPgIGBBAlotuxy1bBm7dlW9+lNa5epK27al8+bRU6dwe4UFkcNUkQSgT0UiQgMQKH0Ebt1iN1D0788eXS48B1i+PB0wgK5fT7OySh8UZGxrAtAnWxOHPxBQEgGtlp48yc4Btmnz1PUqNzf66qvs5ccPHigpHcSqKALQJ0UNF4IFAQkJPHxIt2+n777LflPFH1S5utJu3ejKlfT+fQlDg2u7JAB9ssthRVIgYE0CWi396y/2Iyrh23PVatq5M/3hB5z6syb60mUb+lS6xhvZgoAlCWi17ClKEybQatX+O6Ly9qZDhtAjR3AzhSVRl0pb0KdSOexIGgQsS0CrpSdO0EmTaKVK/wlV3br0yy/p3buWdQVrpYcA9Kn0jDUyBQHrEygspLt30x49/ruZwtWV9uxJ9+7F4ZT16dubB+iTvY0o8gEBWRC4c4d+/jmtVeu/w6kqVeiCBbg6JYvRUUgQ0CeFDBTCBAElEtBq6aFD7HFKnp6PhcrXl50GvHFDidkgZhsTgD7ZGDjcgUCpJPDgAf36a1qlymOVcnVl91CkppZKFkjaVALQJ1NJoR0IgEBJCWg07NkTzz//WKVUKvraa+wACwsIGCIAfTJEBXUgAALWI6DVstslOnT479LUSy/RhATrOYRlhRKAPil04BA2CCifwN9/05gY6uT0WKhat2Y/+8UCAk8IQJ+ekMD/IAACkhC4fJmOHEmdnR+rVI8e9Px5SQKBU7kRgD6Jo8a8AAAgAElEQVTJbUQQDwiUSgIXLrCfSXGP9XN2Zop182apBIGk/yMAffqPBUogAAISE0hKYg9K51TKy4tOm4bfS0k8IpK6hz5Jih/OQQAE9AkkJNDnnnusUkFB9NtvaWGhfivU2D0B6JPdDzESBAEFEigspKtW/fcij8aN2WuosJQyAtCnUjbgSBcEFEQgL4+9V5579oSzM504kebkKCh8hFpCAtCnEgJEdxAAASsTuHyZvVmKuyhVtSp7/iyW0kEA+lQ6xhlZgoCiCWi1dMMGGhz8WKX69aO3bys6IQRvCgHokymU0AYEQEAGBDIy6NChVKViKuXvT1eswDs7ZDAqVgwB+mRFuDANAiBgeQIHDtDIyMcHUm3a0KtXLe8CFuVBAPokj3FAFCAAAqYTyMujM2Y8fgWivz/dutX0rmipIALQJwUNFkIFARAQEEhJoVFRjw+k3nuP5uUJtqFoDwSgT/YwisgBBEopgdxc9iQk7ta++vXxQik72w2gT3Y2oEgHBEofgc2bqa8vUykvL/arXiz2QgD6ZC8jiTxAoDQTuHyZNm36+ECqf388tc8+9gXok32MI7IAgVJPoKCATp78+O7zZ5+lx4+XeiKKBwB9UvwQIgEQAIH/COzeTUNC2IGUWk1/+OG/epQUSAD6pMBBQ8ggAAIiBG7e/O/l8ZMm4Te8Iqhkvgn6JPMBQnggAALFJ1BYSD/44PHlqLfewlNli09QFj2gT7IYBgQBAiBgeQLffUednJhKvfACvXHD8vZh0coEoE9WBgzzIAACEhLYvZuWKcMkqmJFeuqUhIHAtRkEoE9mQEMXEAAB5RA4fZpWrswkyseHJiQoJ25ESqFP2AlAAATsncCtW/TFF5lEOTqyt8VjUQgB6JNCBgphggAIlIRAbi7t1YtJFCH0/fepRlMSY+hrGwLQJ9twhhcQAAGpCWi19OOPH0vUm2/SggKpA4L/IghAn4oAhM0gAAJ2RWDVKurszFTqtddofr5dpWZ3yUCf7G5IkRAIgIA4gV9+oS4uTKK6dcNbOcRRSbsV+iQtf3gHARCQgsDWrY9fb9ipE83NlSIC+CyaAPSpaEZoAQIgYIcE4uOpqys7iurQAQ+YkOf4Qp/kOS6ICgRAwPoEdu6kbm5Motq2pdnZ1vcHD8UjAH0qHi+0BgEQsCsCe/ZQd3cmUa1a0YcP7So15ScDfVL+GCIDEACBkhDYt496eDCJat4cLzYsCUiL94U+WRwpDIIACCiNwP797N3whNBmzeiDB0qL3m7jhT7Z7dAiMRAAgWIQOHiQensziYqOxu0SxeBmzabQJ2vShW0QAAEFETh06LFEvfEGLSxUUOD2Gir0yV5HFnmBAAgUn8CuXY+fLjFmTPE7o4eFCUCfLAwU5kAABJRNYOVKdpaPEPrZZ8pORPnRQ5+UP4bIAARAwLIEZs9m+qRS0fXrLWsY1opFAPpULFxoDAIgUAoIaLV02DAmUWo13b+/FCQs0xShTzIdGIQFAiAgJQGNhnbpwiTK15eePi1lJKXYN/SpFA8+UgcBEBAh8PAhbdiQSVREBL1+XaQhNlmJAPTJSmBhFgRAQPkEbt6kVaowiXruOfxu1/bDCX2yPXN4BAEQUA6B1FTq788kql07vM/QxsMGfbIxcLgDARBQGoE//nj8mPMBA6hWq7ToFRwv9EnBg4fQQQAEbERg82bq4MCOor7+2kYe4YZS6BP2AhAAARAwgcCcOUyfXFzo4cMmtEYTCxCAPlkAIkyAAAjYPwGtlnbtyiQqPJzevm3/+cogQ+iTDAYBIYAACCiCwL17tHJlJlHt2+MBsjYYMeiTDSDDBQiAgL0QOHaMuroyiZo2zV5Skm8e0Cf5jg0iAwEQkCOBJUuYPqlUNCFBjuHZUUzQJzsaTKQCAiBgGwIDBjCJCgigV67YxmHp9AJ9Kp3jjqxBAARKQCA7m9atyySqcWP8aLcEHIvoCn0qAhA2gwAIgIABAufOUR8fJlHvvmtgK6osQUC++pSWlta/f/+IiAhXV9dKlSpNnjw5Ly+vyJTF8ymyOxqAAAiAgKkENm1i+kQIXbvW1C5oVxwC4vM5KY4pC7fdvn1737594+Pjz58/v3nz5sDAwDEmvHFZPB8LhwhzIAACpZzAuHFMnzw9aUpKKSdhjfTF53Mp9Ukn2zlz5lSsWFGnUn9VPB/99qgBARAAAfMJFBTQ6GgmUZGR9OFD8+2gpyEC4vO5jPRpwoQJ9erVM5QCzc3NzXyypKenE0IyMzMNtkQlCIAACFiYwPXrNCiISRQuRFmYrEKev3fu3Dlvb+/FixcbTD82NpY8vUCfDIJCJQiAgFUIbN/O9EmloomJVrFfWo1Kefykryu8yhwWPIHx6tWrVapUGTBggLExwvGTMTKoBwEQsBGBgQOZRFWqhNcYWhC4lPp069at00aWnJwcLsmrV69Wq1atd+/ehYWFpqQtno8pFtAGBEAABIpNIDOTVqjAJOqdd4rdFx2MEBCfzyW+/nTlypWqVat2795do9EYiV+3Wjwf3dZYBwEQAAFLEUhIYPpECN21y1ImS7kd8flcSn3iTuu1aNHiypUr158sRY6WeD5FdkcDEAABEDCfwNChTJ/Cw+n9++YbQc8nBMTncyn1aenSpfzlKL7wJGyj/4vnY7QbNoAACIBAyQk8eEAjIphEvf12yY3Bgvh8LqU+mTc24vmYZxO9QAAEQMBUAnv2PD7LFx9vahe0M0JAfD6HPhnBhmoQAAEQMEZgxAgmUeXL04wMY01QbwoB6JMplNAGBEAABEwmkJX1+DW7/fub3AcNDRCAPhmAgioQAAEQKBGBffvYz3UJoVu3lshO6e4MfSrd44/sQQAErERg9GimTyEh9O5dK3mwe7PQJ7sfYiQIAiAgBYHsbFqtGpOoPn2kcG8PPqFP9jCKyAEEQECOBA4epA4OTKK2bJFjeLKPCfok+yFCgCAAAsol8P77TJ8qVaJPntmm3FRsHzn0yfbM4REEQKDUEHjwgF2CIoROn15qcrZYotAni6GEIRAAARAwQGDlSqZP7u708mUDW1FlnAD0yTgbbAEBEACBkhPQamnTpkyi3nij5MZKlQXoU6kabiQLAiAgBYFjxx7fKLF7txTuleoT+qTUkUPcIAACSiIwbBg7hKpZkxYUKClsSWOFPkmKH85BAARKCYE7d6ivL5Oozz8vJRmXPE3oU8kZwgIIgAAImEDg66+ZPpUpQ2/eNKE1mlDoE3YCEAABELAJAY2GRkUxiRo40Cb+FO8E+qT4IUQCIAACiiGwfz/TJ5WKHj6smJilCxT6JB17eAYBECiFBHr1YhLVsCEtLCyF2RcrZehTsXChMQiAAAiUjMC1a9TTk0nU0qUlM2T/vaFP9j/GyBAEQEBeBObMYfoUGIgX7IqPC/RJnA+2ggAIgIClCeTl0WeeYRI1erSlTduVPeiTXQ0nkgEBEFAGge3bmT45OdFTp5QRsBRRQp+koA6fIAACINC5M5OoDh1AwhgB6JMxMqgHARAAAWsSSE2ljo5Mog4csKYbBduGPil48BA6CICAsgkMHMj0qXlzZWdhteihT1ZDC8MgAAIgIE7g0iXq4sIkaudO8Yalcyv0qXSOO7IGARCQB4ERI5g+NWpEtVp5BCSjKKBPMhoMhAICIFDqCFy/Tt3cmET98kupy72ohKFPRRHCdhAAARCwKoFx45g+1amDJx7pYIY+6QDBKgiAAAjYlsDt29Tbm0nU2rW2dSx3b9AnuY8Q4gMBELB/AlOmMH169lmq0dh/siZnCH0yGRUaggAIgICVCGRmPn677rJlVvKgRLPQJyWOGmIGARCwOwKffMIOoSpWpHl5dpebmQlBn8wEh24gAAIgYEkCDx/ScuWYRH39tSXNKtkW9EnJo4fYQQAE7InA558zfQoJodnZ9pSW2blAn8xGh44gAAIgYFECubk0LIxJ1Lx5FrWrVGPQJ6WOHOIGARCwQwKLFzN9CgigDx7YYXbFTAn6VExgaA4CIAAC1iOQn0+rVGESNWOG9ZwoxTL0SSkjhThBAARKB4GVK5k+lSlD790rHQkbzRL6ZBQNNoAACICABAQ0GhoZySRqwgQJvMvJpWX06d69e4sXLx4/fvydO3copX/99deVK1ckSVM8H0lCglMQAAEQKB6Bn35i+uTlRTMyitfRvlqLz+fElGSPHz8eEBBQpUoVJyen8+fPU0onTpzYu3dvU/pavI14PhZ3B4MgAAIgYHkChYW0Rg0mUXPmWN64ciyKz+cm6VPLli3Hjh1LKfX09OT06cCBA+Hh4ZJAEM9HkpDgFARAAASKTWDJEqZPoaGl+XES4vO5Sfrk7e197tw5oT5dvHhRrVYXezws0UE8H0t4gA0QAAEQsD6B3FwaHMwkqhQ/kU98PjdJnwIDA5OSkoT6FB8fX758eesPoAEP4vkY6IAqEAABEJAngVmzmD7VrFlqX60rPp+bpE+DBg3q2rVrfn6+p6fnhQsXLl26FBUVNWrUKElGXDwfSUKCUxAAARAwh8C9e9TTk0nUtm3mdFd+H/H53CR9yszMbNKkSZkyZRwdHcPCwpydnZs1a5aVlSUJHPF8JAkJTkEABEDATAKjRzN9at7czO4K7yY+n5ukTxyBXbt2xcXFffLJJwkJCRIyEc9HwsDgGgRAAASKTeDSJeroyCTqyJFi91V+B/H5vBj6JBMU4vnIJEiEAQIgAAKmEujZk+lT9+6mtrejduLzuUn6NGLEiAULFgiZfPHFF7j+JASCMgiAAAiYSeDYMaZPjo40Lc1MC4rtZgF9CgkJOfL0sedff/0VGhoqCRPxfCQJCU5BAARAoEQEWrdmEjVyZImMKLCz+Hxu0vGTWq1OTU0V5p6amorfPwmBoAwCIAAC5hP49VemT+7u9N8HyJlvR2k9LaBPkZGRX3zxhTDxzz//vHr16sIam5XF87FZGHAEAiAAAhYjoNXSunWZRE2fbjGbSjAkPp+bdPz03Xffubm5TZ48ee+/y6RJk9zd3b/99ltJ0hfPR5KQ4BQEQAAESkpgxQqmT+XK0ZyckppSTn/x+dwkfaKUfvXVV6Ghoap/l4oVK37//fdSERDPR6qo4BcEQAAESkQgP//xq98l+upfouDN7Sw+n5uqT5z3mzdvPpD6ncTi+ZhLCf1AAARAQGoC8+axQ6hnnqGFhVKHYiP/4vN58fTJRiGLuhHPR7QrNoIACICAjAncv099fJhEbdok4ygtGZr4fC6mT1FRUXfv3qWU1q1bN8rQYskwTbYlno/JZtAQBEAABORHYPx4pk9NmsgvMqtEJD6fi+nTlClTHj58SCmdYmSxSrxFGRXPp6je2A4CIAACMiZw9Sp1dmYS9fvvMo7SYqGJz+di+sSFoNFo9u7dyx1IWSyoEhgSz6cEhtEVBEAABGRAoF8/pk/duskgFKuHID6fF61PlFK1Wn3hwgWrR2qaA/F8TLOBViAAAiAgVwKnTjF9UqmobGZd65ESn89N0qf69evv3LnTeiEWy7J4PsUyhcYgAAIgIEcCrVoxifroIznGZtGYxOdzk/QpPj6+bt26v/zyy7Vr1zIFi0XjNNWYeD6mWkE7EAABEJAtgfXrmT6VK0fz82Ubo0UCE5/PTdIn7me5KpXK4cnClS0SX3GNiOdTXGtoDwIgAAKyI5CfT4OCmEStWye72CwakPh8bpI+cY810v/XonGaakw8H1OtoB0IgAAIyJnARx8xfWrVSs4xljw28fncJH0qeRAWtCCejwUdwRQIgAAISEYgLY3dIkEIffrdEZLFYx3H4vO5qfp09+7duLi4/v37Dxgw4NNPP70j3UPgxfOxDkNYBQEQAAGbE2jfnunT2LE2d2w7h+LzuUn6tHfvXm9v77CwsG7/LhUqVPD29t67d6/tkhB4Es9H0BBFEAABEFAygU2bmD75+9PcXCWnIRa7+Hxukj5FRkYOGjRIo9FwfjQazeDBgyMjI8XcWm2beD5WcwvDIAACIGBbAgUFNDSUSdSPP9rWse28ic/nJumTq6trSkqKMOSUlBRXV1dhjc3K4vnYLAw4AgEQAAGrE4iNZfoUHW11RxI5EJ/PTdKnxo0bb9y4URj/xo0bGzVqJKyxWVk8H5uFAUcgAAIgYHUC6enUwYFJ1OnTVvclhQPx+dwkfVq9enWFChXi4uJ++3eJi4uLiIhYvXr18SeLLfMSz8eWkcAXCIAACFidQKdOTJ9Gj7a6IykciM/nJukT//tcnYKDg4NFfqibm5tbp04dQsjRo0eLRCSeT5Hd0QAEQAAElERg61amT76+NDtbSWGbFqv4fG6SPl0sajEtEqOtRo4c2b59e+iTUUDYAAIgUGoJaDS0QgUmUcuX2x8DC+iTVaFs27bt2WefPXXqFPTJqpxhHARAQKkEpk1j+mSPLy2UtT79888/oaGhhw8fTktLE9Gn3Nxc/rG06enphJDMzEyl7mqIGwRAAASKReDqVeroyCTq77+L1U/+jeWrT1qttl27dtOmTaOUiutTbGwseXqBPsl/z0OEIAACFiPwyitMn4YPt5hBeRiSUp/0dYVXmcOHDy9YsKBx48bcz37F9QnHT/LYlxAFCICARATi45k++fjQhw8lisAqbqXUp1u3bp02suTk5HTp0sXBwcHxyUIIcXR07NOnjzgG8XzE+2IrCIAACCiSQGEhrVSJSdSSJYqM30jQ4vO5SffvUUrv3bu3ePHi8ePHc0+G/euvv65cuWLEo6nVly5d+vvJEh8fTwhZv359enq6eH/xfMT7YisIgAAIKJXA7NlMnxo0UGr8huIWn89N0qfjx48HBARUqVLFycnp/PnzlNKJEyf27t3bkDsz68TP7wmNiucjbIkyCIAACNgPgRs3qLMzkygTfieqlKzF53OT9Klly5Zj/33Gu6enJ6dPBw4cCA8PtyAC6JMFYcIUCICAfRJ44w2mT0OG2E12FtAnb2/vc+fOUUp5fbp48aJarZaEkXg+koQEpyAAAiBgCwK7dzN98vSk9+/bwp31fYjP5yYdPwUGBiYlJQn1KT4+vnz58tYP3oAH8XwMdEAVCIAACNgHAa2WVqvGJGrpUvtISHw+N0mfBg0a1LVr1/z8fE9PzwsXLly6dCkqKmrUqFGSABLPR5KQ4BQEQAAEbESAe5ZEq1Y2cmdlN+LzuUn6lJmZ2aRJkzJlyjg6OoaFhTk7Ozdr1iwrK8vKkRs2L56P4T6oBQEQAAH7IHD+PDt+Uqno1at2kJD4fG6SPnEUdu3aFRcX98knnyQkJEjIRTwfCQODaxAAARCwBYEmTZhEzZ1rC19W9iE+nxdDn/g47927x5dtXxDPx/bxwCMIgAAI2JTAV18xfYqKsqlT6zgTn89N0qfZs2evXr2aC+/11193cHAICQk5duyYdQIuwqp4PkV0xmYQAAEQUDqB27epkxOTqFOnlJ6K+Hxukj5VrFjxwIEDlNJff/21TJky8fHxAwYMaN26tSRoxPORJCQ4BQEQAAGbEuBeqvvRRzZ1agVn4vO5Sfrk6up6+fJlSunIkSMHDx5MKT1z5kyZMmWsEG3RJsXzKbo/WoAACICA0gmsWcOOn8LDaWGholMRn89N0qfg4GDu+KlatWpr166llKakpHh5eUnCRTwfSUKCUxAAARCwKYHsbOrlxSTqt99s6tfSzsTnc5P06Z133gkPD2/VqpWfn9+DBw8opatXr46S6OqceD6Wpgd7IAACICBLAn37Mn16+21ZBmdqUOLzuUn6lJ+fHxcXN3LkSO4pEpTS+fPnL1682NQQLNpOPB+LuoIxEAABEJArgZ07mT6VLUvz8uQaYtFxic/nJulT0U5s2EI8HxsGAlcgAAIgIB0BjYYGBzOJ2rRJuiBK6ll8PjdJn743spQ0NLP6i+djlkl0AgEQAAEFEhgzhunT668rMPTHIYvP5ybpUxnB4uHhoVKp1Gp12bJlJYEino8kIcEpCIAACEhAICmJ6ZNaTTMyJPBuCZfi87lJ+qQTxtmzZ1u2bLljxw6detusiudjmxjgBQRAAASkJ6DV0ho1mEQp9qXv4vO5OfpEKT18+PAzzzwjyfCI5yNJSHAKAiAAAtIQmDGD6VOLFtJ4L7FX8fncTH1KSkrC759KPDQwAAIgAAIlI5CWxvRJpaJXrpTMkDS9LaBPmwXLpk2bvv7668jIyHbt2kmSkHg+koQEpyAAAiAgGYGmTZlExcVJFkAJHIvP5yYdP6kEi4ODQ7ly5d56661r166VICrzu4rnY75d9AQBEAABJRJYtIjpU506SoxdfD43SZ9klbZ4PrIKFcGAAAiAgNUJ3LlDnZ2ZRP39t9V9WdqB+HxePH3S/rtYOsLi2RPPp3i20BoEQAAE7IBAly5Mn8aPV1wq4vO5qfr0/fff16xZU/3vUqtWreXLl0sFQjwfqaKCXxAAARCQjMC6dUyfKlRQ3OPMxedzk/Rp7ty57u7u48aN27x586ZNm8aOHevu7j5v3jxJBkM8H0lCglMQAAEQkJJATg719mYSlZgoZRjF9y0+n5ukTxEREd9//73Q9bJlyyIiIoQ1NiuL52OzMOAIBEAABGREoH9/pk//vp9PRlEVFYr4fG6SPqnV6tTUVKGjs2fPqtVqYY3NyuL52CwMOAIBEAABGRHYvZvpU5kyNDdXRlEVFYr4fG6SPkVGRs6YMUPoaNq0aTVr1hTW2Kwsno/NwoAjEAABEJARgcJCGhrKJOqnn2QUVVGhiM/nJunT+vXrHR0d27ZtO3Xq1GnTprVt29bJyekniSiI51MUDWwHARAAATslwD3OvEcPBaUnPp+bpE+U0iNHjvTs2fO5556Liorq2bMn/6JC24MQz8f28cAjCIAACMiCwIED7PjJx0dBbywUn89N1SdZ0P83CPF85BMnIgEBEAABmxIoLKRBQUyiJHq5hBnJis/nRehTpuhiRjQl7yKeT8ntwwIIgAAIKJXAkCFMn5RzF5/4fF6EPqlUKgdDC1cvyRCK5yNJSHAKAiAAArIgEB/P9KlcOarRyCKeooIQn8+L0Ke9T5Y9e/a4ubmtXLnySQX7vyjXVtkuno9VXMIoCIAACCiCQF4eu/5ECN2/XxHxis/nReiTMENPT8/z588LayQpi+cjSUhwCgIgAAJyIdCrF9OnMWPkEo9oHOLzOfRJFB42ggAIgICyCGzYwPSpYkWq1co/cOiT/McIEYIACICAhQhkZVFXVyZRx45ZyKIVzVhSny5cuGDFSE0zLZ6PaTbQCgRAAATsl0DXrkyfYmPln6H4fF7E+b1ugsXJyalNmzaCim6SJC+ejyQhwSkIgAAIyIjA998zfapVS0YhGQlFfD4vQp/6ii5GPFq3Wjwf6/qGdRAAARCQP4E7d6ijI5Ooc+dkHqz4fF6EPskwN/F8ZBgwQgIBEAABWxNo2ZLpU1ycrf0W05/4fA59KiZONAcBEAAB+RNYuJDp0wsvyDxS6JPMBwjhgQAIgIClCVy5wvTp0bOOrl2ztGlL2oM+WZImbIEACICAMgg0bMj06euv5Rwt9EnOo4PYQAAEQMA6BD75hOlT69bWsW4Zq9Any3CEFRAAARBQEoGzZ5k+OTnRu3dlGzb0SbZDg8BAAARAwJoEIiOZRP3wgzV9lMg29KlE+NAZBEAABJRKYNIkpk/dpHmWginQoE+mUEIbEAABELA7AklJTJ/c3OjDh/LMDfokz3FBVCAAAiBgZQJaLQ0PZxK1caOVPZlpHvpkJjh0AwEQAAHFExg9mulT797yTAT6JM9xQVQgAAIgYH0C+/YxfSpThubnW99ZsT1An4qNDB1AAARAwE4IaDQ0IIBJVEKCDDOCPslwUBASCIAACNiKwMCBTJ+GDrWVv2L4gT4VAxaaggAIgIC9Edi2jelTcDAtLJRbatAnuY0I4gEBEAABGxLIzaVeXkyiDh60oVeTXEGfTMKERiAAAiBgtwS6d2f6NHas3BKEPsltRBAPCIAACNiWwOrVTJ8iI23rtWhv0KeiGaEFCIAACNgzgTt3qIMDk6jLl2WVJvRJVsOBYEAABEBACgIvvMD06dtvpfBt1Cf0ySgabAABEACB0kJg6lSmT6+8Iqt8oU+yGg4EAwIgAAJSEDh0iOmTt7esHiQBfZJiV4BPEAABEJAVgcJC6u/PJCoxUT5xQZ/kMxaIBARAAASkI9CzJ9OnDz+ULgJdz9AnXSJYBwEQAIHSSOCHH5g+1a0rn9yhT/IZC0QCAiAAAtIRuHGD6RMh9No16YJ4yjP06SkcWAEBEACB0kugfn2mT0uXyoQA9EkmA4EwQAAEQEBqAhMnMn16802p43jsH/okk4FAGCAAAiAgNYH9+5k+lS1LNRqpQ2H+oU9yGAXEAAIgAAIyIFBQwN6lSwj9/XcZRAN9ksMgIAYQAAEQkAmB119n+jR5shzCwfGTHEYBMYAACICAPAgsWcL0qUEDOUQDfZLDKCAGEAABEJAHgatXmT6pVPTmTckDkrs+bdmypUGDBq6urn5+ft26dSuSl3g+RXZHAxAAARAo7QRq12YStXKl5BzE53MibXzr168vW7bs119/febMmZSUlHXr1hUZj3g+RXZHAxAAARAo7QQ++IDpU69eknMQn8+l1KeCgoLQ0ND//e9/xWIknk+xTKExCIAACJRGAnv2MH0KCKCFhdKmLz6fS6lPf/75JyFkyZIldevWDQoKateu3cmTJw3Cys3NzXyypKenE0IyMzMNtkQlCIAACIBAEQTy8qinJ5OoI0eKaGnlzfLVpx9//PGRPlWoUGH9+vVHjhx56623/Pz87ty5ow8kNjaWPL1An/QpoQYEQAAETCXQtSvTp2nTTG1vnXZS6pO+rvAqc/jw4ZUrVxJCvvnmGy7x3Nxcf3//RYsW6XPA8ZM+E9SAAAiAgPkEFi1i+tSkifkWLNFTSn26devWaSNLTk7O7t27CSG//fYbn/NZdTEAACAASURBVGaDBg0++ugjftVgQTwfg11QCQIgAAIg8BSBixeZPjk40Lt3n6q37Yr4fC7l9afMzEy1Ws3fH5Gfnx8YGMgfThmjJJ6PsV6oBwEQAAEQeIpA9epMotaufarStivi87mU+kQpHTVqVGhoaHx8fEpKyoABAwIDA+8WJebi+diWLbyBAAiAgGIJjB7N9Kl/fwkTEJ/PJdan/Pz8MWPGBAYGenl5tWrVytj9e0J84vkIW6IMAiAAAiBglEB8PNOnkBCq1RptY+UN4vO5xPpkRu7i+ZhhEF1AAARAoDQSyMmhbm5Moo4flyp98fkc+iTVuMAvCIAACEhNoEMHpk+ffCJVHNAnqcjDLwiAAAjIm8DnnzN9euklqaKEPklFHn5BAARAQN4EUlOZPjk50fv3JQkU+iQJdjgFARAAASUQqFyZSdSmTZLECn2SBDucggAIgIASCLzzDtOnt9+WJFbokyTY4RQEQAAElEBgyxamTxERksQKfZIEO5yCAAiAgBII3L9PHR2ZRKWl2T5c6JPtmcMjCIAACCiHQKNGTJ+WLrV9xNAn2zOHRxAAARBQDoHx45k+9elj+4ihT7ZnDo8gAAIgoBwC3IOOKlSw/YOOoE/K2UsQKQiAAAjYnkBWFvsJFCH0/HkbO4c+2Rg43IEACICA0gg0bsz06bvvbBw39MnGwOEOBEAABJRGYMIEpk+9etk4buiTjYHDHQiAAAgojUBCAtOn0FAbX4KCPiltR0G8IAACIGBjAg8fUmdnJlGpqbb0DH2yJW34AgEQAAFlEnjxRaZP335ry+ihT7akDV8gAAIgoEwCkyYxferRw5bRQ59sSRu+QAAEQECZBHbvZvoUHGzLS1DQJ2XuK4gaBEAABGxJIDuburgwiTpzxmZuoU82Qw1HIAACIKBkAtHRTJ8WLbJZDtAnm6GGIxAAARBQMoHYWKZP3bvbLAfok81QwxEIgAAIKJnA3r1Mn8qVs9klKOiTkncXxA4CIAACNiOQk0PVaiZRycm28Ql9sg1neAEBEAAB5RNo3pzp01df2SYT6JNtOMMLCIAACCifwNSpTJ9ef902mUCfbMMZXkAABEBA+QT27WP6FBBgm0tQ0Cfl7zHIAARAAARsQyA3l7q5MYk6edIGDqFPNoAMFyAAAiBgLwRatmT69OWXNsgH+mQDyHABAiAAAvZCYPp0pk+vvmqDfKBPNoAMFyAAAiBgLwT272f65O9PCwutnRL0ydqEYR8EQAAE7IhAXh51d2cSdeKEtbOCPlmbMOyDAAiAgH0RaNOG6dOCBdbOCvpkbcKwDwIgAAL2RWDmTKZP3bpZOyvok7UJwz4IgAAI2BeBgweZPvn6WvsSFPTJvvYbZAMCIAAC1iaQn089PJhEHTtmVVfQJ6vihXEQAAEQsEcC7doxfZo/36q5QZ+sihfGQQAEQMAeCcyezfSpSxer5gZ9sipeGAcBEAABeyTw559Mn8qUoRqN9dKDPlmPLSyDAAiAgJ0SKCigXl5MopKSrJch9Ml6bGEZBEAABOyXQIcOTJ/mzrVehtAn67GFZRAAARCwXwJxcUyfOna0XobQJ+uxhWUQAAEQsF8Chw8zffL2tt4lKOiT/e49yAwEQAAErEdAo3l8Ccpqv4KCPllv9GAZBEAABOyaQOvW7BDqq6+slCT0yUpgYRYEQAAE7J3A5MlMn3r1slKe0CcrgYVZEAABELB3Ajt2MH2qXNlKeZYufdJoNDlYQECPgMaavzG00kcXZkFAegL37lGViknUP/9YI5jSok9arfbatWvJWEDACIFr165ptVprfMZgEwTsmUDNmkyfNm60Ro6lRZ84cbp9+3Z2drbet2dUlGoC2dnZt2/fTk5OvnbtmjU+Y7AJAvZMYNAgpk/jxlkjx1KhTxqNJjk5+fbt29YgCJv2QYCTKJzos4/RRBa2I7B0KdOnF1+0hsdSoU85OTnJycnZ2dnWIAib9kEgOzs7OTk5JyfHPtJBFiBgIwJnzjB9UqtpXp7FPZYifcLUY/G9x54Mcl9isJPY05giF1sQ0Gqpnx+TqD/+sLg76JPFkVrRYHR09KhRo8QdpKWlEUKOHj0q3sy8rXv27CGE3Lt3z7zucu4FfZLz6CA2WRPo2JHpkxXeVQh9st24EyNLTEyMiUHcuXPn/v374o01Gs3169cLCgrEm5m31UR9MkVHzQvAer2gT9ZjC8t2TmDmTKZPr79u8TShTxZHatTg9SfLZ5995u3t/WTtekZGBt8nPz+fL8uwAH2S4aAgJBCQmMDevUyfQkMtHgb0yShSjYbu2UNXrWL/Wvbnm0uXLvXx8eEcc6fj1qxZEx0drVarlyxZcvv27e7du4eGhrq5udWsWXPVqlV8iMLjkvDw8BkzZvTr18/T0zMsLOybb74RGuTO73FysnPnznr16rm5ub3wwgspKSm8tWnTpgUEBHh6eg4YMOCDDz6oU6cOv0lY2Lp1a9WqVV1dXV966aWlS5fy5/eMxRkTEyM8UExLS9NoNP3794+IiHB1da1Wrdpnn30mtC+TMo6fZDIQCEN5BLKyqKMjk6jLly0bPPTJMM8NG2j58gw491e+PN2wwXBLM2r19SkiImLDhg0XLly4evXqlStX4uLijh49ev78+c8//9zR0fGPJxcedfTJ19d34cKFqamps2bNcnBwOH36NKVUeP2J06eGDRvu3bv31KlTTZs2bdy4MRfwihUrXF1dlyxZcubMmY8//tjb29ugPl2+fFmtVo8aNSolJWXFihXlypXj9clYnBkZGS+88MKgQYO4A0SNRpOfnz958uRDhw5duHBhxYoV7u7ua9asMYObVbtAn6yKF8btnEC9emyuXL3asmlCnwzw3LDh8TM7eH1SqViNpSRKX59EDik6dOgwZswYLkodfer15LGMWq02MDDw66+/NqhPO3fu5Lpv3bqVEMLdotawYcN33nmHT75JkyYG9enDDz+sXr06/2CFDz74gNcnvi9XMBanTjNK6bBhw1599VX9emlroE/S8od3ZRMYMYLp08iRls0C+qTLU6N56shJKFFhYZY50aevT/v37+fj0Gg006dPr1Wrlq+vr4eHh5OT0+tPLjzq6NOcOXP4XrVr1/74448N6tPNmze5ZklJSYSQS5cuUUrLlCnz/fff891Hjx5tUJ+6du3ar18/vtmmTZt4fTIxTq7v119/Xa9ePX9/fw8PD2dn5+eff563KZMC9EkmA4EwFEngxx+ZPtWvb9ngoU+6PPfseXxOj1cmYWHPHt32Zqzr65PwdvBPPvnEz8/vhx9+OHbsWGpq6ssvv9ylSxfOi44+zRfc0PlIXWJjYw3qE387+NGjRwkhaWlpnD4tX76cD/7dd981qE9dunQxpk8mxkkpXbNmjaur68KFC5OSklJTUwcPHmzQFx+MJAXokyTY4dROCFy8yOZNJyf68KEFM4I+6cJctUpMnwQ3K+h2NH1dXJ86duzYv39/zlphYWG1atWsoU8NGzYcPnw4H/OLL75oUDO483t8s/Hjx/PHTyJxtm7dWmh8+PDhLVq04I20bNnSoC++gSQF6JMk2OHUTghotTQkhE2diYkWzAj6pAtT8uOnd999Nyws7MCBA8nJyQMHDvT29raGPq1YscLNzW3ZsmVnz56dNm2at7d33bp1dVlQeunSJRcXl9GjR6ekpKxcuTIoKIjXJ5E4Bw0a9Pzzz6elpd26dauwsJC7n37Hjh1nzpyZOHGisXsx9L3bsgb6ZEva8GWHBF57jenTrFkWTA36pAuTu/7EvdNEeGZPpaLWu/4kPL93586dLl26eHp6BgYGTpw4sU+fPtbQJ0rp1KlT/f39PT09+/fvP3LkyEaNGumy+Hf9l19+qVKlilqtbtq06ZIlS3h9EonzzJkzjRo1cnNz404n5ubm9u3b18fHp0yZMkOHDh0/fjyOnwyiRiUIKJjAvHlMnzp3tmAK0CcDMLn794QSZdn79wy4lLqqVatW/N2AUscijX8cP0nDHV7thsDBg0yf/P2p5d6jBn0yvHfo/P4pLMxiN5cb9mfz2ocPH86dO/fkyZOnT5+ePHkyISQhIcHmUcjIIfRJRoOBUJRIIDeXPcWcEHr2rKXChz4ZJWm950cYdWnDDdnZ2S1btixbtqy7u3tUVNQGS/22y4YpWNYV9MmyPGGtNBJo0oTp07Jllsod+mQpkrCjbALQJ2WPH6KXA4H332f69PbblooF+mQpkrCjbALQJ2WPH6KXA4GffmL6VKuWpWKBPlmKJOwomwD0Sdnjh+jlQOD6daZPKhUVvJOhJHFBn0pCD33thwD0yX7GEplISKBSJSZRv/5qkRCgTxbBCCOKJwB9UvwQIgE5EOjZk+nTlCkWiUXW+nTmzJnOnTv7+fl5eXk1btx49+7dReZsMB9MPUVyQwPsJNgHQMACBBYuZPrUpo0FTFFqcD7nLRO+JEmhSpUqHTp0OH78+NmzZ4cNG+bu7n79+nXxSAzmg6lHHBq2Ukqxk2A3AAELEDh6lOmTtzctLCy5NYPzOW9WSn26desWIWTfvn1cNPfv3yeE8K8y4kPUKRjMR7lTj4nvU9eBYMFV4aNsRcyGh4cLH6Yu0rJYm2yZvnJ3kmIhRWMQsC6BggLq6ckk6u+/S+7I4HzOm5VSn7RabfXq1QcOHJiVlVVQUBAXF1euXDn+VRF8iJTS3NzczCdLeno6ISQzM1PYQD5TD//ucycnp4oVK44ZMyYrK0sYqk7ZlhO0jmtuNTs7+8aNGwY3CStF9OnOnTujRo169DZ6Z2fnoKCgvn37ci+gEnY3VrZI+uHh4cL3zRNChg0bpu9RPjuJfmyoAQElEWjRgunTN9+UPGb56hOl9MqVK/Xq1VOpVI6OjiEhIcKHqAozj42N1ZmA5KxP7dq1u379+uXLl1euXOnm5jZkyBBhLjpli0zQOjatsWpMn+7cuVO1atXIyMitW7deunQpMTGxadOmgYGB58+f1w8jLy9Pp9KM9PWN3Lx5k3vT/PXr1xMSEgghewy9xQv6pAMfqyBgJoGJE5k+xcSY2V3QTUp90tcVXmYOHz6s1Wo7d+7cvn37/fv3//XXX0OHDg0NDb127Zog+MdFZR0/8Q8jfyTAAwcODAoK4g4BR4wYERAQoFarmzRpcujQIS43foLOysry8vJat24dn/7PP//s7u5+//79tLQ0QsiGDRteeuklNze32rVr//7773yz9evX16hRw8XFJTw8/NNPP+Xrw8PDp02b1rt3bw8PjwoVKmzatOnmzZudO3f28PCoWbPm4cOHuZbC83vnzp3r3LlzYGCgh4dH/fr1hc/rM6ZPQ4YM8fDwEF41zM7ODg0NbdeuHWc/Ojr6nXfeGT16tJ+fX7NmzSilW7durVq1qqur60svvbR06VL+cemU0gMHDjRt2tTV1bV8+fIjRozgDz25XGJiYry9vfv06cPnqF8YNWpU5cqV+dfVCxtAn4Q0UAYB8wls28b0qVo18y086SmlPt26deu0kSUnJ2fnzp0ODg7CI6FHb3mYVdTLRQzm89TUo9XSrCxr/RX14N6YmBihPo0YMcLPz49SOnLkyJCQkG3btp06dSomJqZs2bJ37tyhlPL6RCkdNGhQhw4dngwc7datGzcXc/r07LPPbtmy5cyZM6+99lp4eHhBQQGl9MiRIw4ODlOnTj1z5szSpUvd3NyWLl3KWQgPD/f19V20aNHZs2eHDh3q5eXVrl27tWvXnjlzpmvXrtWrV+cmcaE+HTt2bNGiRSdOnDh79uyECRNcXV35M3UG9enRm5/KlCkzePBgPmauMGPGDJVKxSUYHR3t6ek5duzYlJSU06dPX758Wa1Wjxo1KiUlZcWKFeXKleP16cSJE56envPnzz979uyBAweioqL69u3L5+Lt7R0XF5f676Ljjl/Ny8vz8/ObMWMGXyMsPLWTCDegDAIgUCwCd+8yfSKE3rpVrH76jQ3O53wzKa8//fzzzw4ODg8ePOCjqVatmrHJhW9jMJ+npp6srMfshC93slRZ9GLSo5evC/Xpzz//9PPze+ONN7KyspydnVeuXMllkZ+fHxISMmfOHB19+vPPPx0dHa9evUopvXXrlrOz8969e/kXuv/vf//jup86dYoQcvr0aUppjx49WrduzcMZO3ZsjRo1uNXw8HD+hRrXr18nhEyaNInbdPDgQUIId9Aj1CfeDleoUaPGF198wVvTvz/in3/+IYTo1//000+EkD///PNRgtHR0cL3InKv6+WPbz744ANen3r37i2Uut9++83BwSEnJ4dSGh4e3rVrV53w9FfXrFnDA9Tf+tROor8ZNSAAAqYTqF6dTbM//2x6D4MtDc7nfEsp9enWrVt+fn6vvPLKsWPHzpw58/777zs7Ox87dowPzmDBYD5PTT1S65Ojo6OHh4darXZwcOjWrduNGzeOHz9OCLl48SKfUdeuXfv166ejT5TS2rVrc0eQ8+bN489TccdP/CnBu3fvEkIS/33LclRU1BTBD+U2bdrk7Oys0Wi4OZ2TQEqpVqslhKxdu5YL4MKFC4SQ48ePP2om1KesrKyxY8dWr17dx8fHw8PDwcFh7NixXBeDx0/G9GnDhg2EEC7g6OjogQMH6ifO1WzatInXJ+4spceTxd3dnRCSnJzM5TJ9+nTeiLFCmzZtOnbsaGzrUzuJsUaoBwEQMIXAgAFMn8aPN6WtSBuD8znfXkp9opQePny4TZs2vr6+Xl5ejRo12rZtGx+ZsYLBfJ6aeqQ+v9eqVavU1NSLFy/m5+dzWRw7dowQwp8ro5R26dKlf//++vr0+eefV/v3rG6tWrX4GZnTJ/7mkXv37vG3ANStW/fjjz/mWW3cuFGoT8IjG0LIxo0buZZCg0J9Gjp0aKVKlX766acTJ06kpqbWqVNn1KhRXBeD+sSd3xs0aBAfAFfQOb/HG+ES54SZaynUp2effXbEiBHcGTz+X+5uCIPedZxevHjRwcFh06ZNOvX86lM7CV+LAgiAgBkEvvuO6VN0tBldhV0Mzud8A4n1iY/D9ILBfOQz9QjP7/FJZWVlubi4CM/vhYaGxsXF6evT3bt3XV1dFyxY4ODgkJ6ezlkQygmlVKhP+uf3IiMjuV46c7op+lSzZs2pU6dy3R88eODj48NLi441PrXBgwcXeX8Eb4RSyp3f47uPHz+eP37q0aNHixYt+E3CgjHvwjaxsbFBQUHcZTlhPV+Wz07Ch4QCCCiVQHIy0yc3N/rkW7h5iRicz3lT0CcehWUKBvXpkaiMGjUqJCRk+/bt/P0Rd+/e1dcn7pKSi4sLf/8bf/3J4PHTX3/9xd8fsWzZMp37I4p7/NS1a9e6desePXr02LFjnTp18vLy4qXFmELcunWrcuXKNWvW3LZt2+XLl/XvL4+OjuaNUEovXbrk4uIyevTolJSUlStXBgUF8fp0/PhxNze3YcOGHT169OzZs5s3bx4+fDg3Ksa882NWWFhYoUKFDz74gK/RL0Cf9JmgBgTMJFBYSMuWZRL15E5g8+xAn8zjZmYvY/qUk5MzYsQIf39/Y/eX8/527dolvFYkrk+UUu7+cmdn5woVKnDHZJwpnTndlOOntLS05s2bu7m5hYWFffnll0Jp0bHGR8vdyjFixIiwsDAnJ6dy5crFxMQIz2QKjXC9fvnll0c3aqrV6qZNmy5ZsoTXJ0rpoUOHWrdu7enp6eHhUbt2bf5mGRHvnM34+HhCyJkzZ4SB6ZShTzpAsAoCJSLQoQP19aXGz6ibYhz6ZAolGbVZsWKFn5+f/q9QZRSiMkOBPilz3BC1XAncu1fyR/BBn+Q6unpxPXz48OTJk5GRkR999JHeRlSUlAD0qaQE0R8ELE0A+mRpolazFxsb6+Tk1KJFC+FvwqzmrdQZhj6VuiFHwrInAH2S/RAhQJsQgD7ZBDOcgEAxCECfigELTe2YAPTJjgcXqSmUAPRJoQOHsC1MAPpkYaAwBwIlJlCK9Ck7O7vEuGDAbglkZ2cnJydzD/Sz2ySRGAgoikCp0CeNRpOcnHz79m1FDQ2CtSmB27dvJycncw8ntKljOAMBEDBCoFToE6X02rVrnERlZ2fnYAEBAYHs7GxOnAy+XczIBwfVIAACVidQWvRJq9VyEpWMBQQMEbh27Rr/Xg+rf+zgAARAwAQCpUWfOBQajUbwvRlFEHhMAKf1TJgr0AQEbE2gdOmTrenCHwiAAAiAgLkEoE/mkkM/EAABEAABaxKAPlmTLmyDAAiAAAiYSwD6ZC459AMBEAABELAmAXvTp4yMDEJIenp6JhYQAAEQAAElE0hPTyeEZGRkGBRB5b0/l8uHYAEBEAABELALAunp6XaiT4WFhenp6RkZGdb70sBJoBIP0RC59fYKY5bB3BgZ69WDufXYGrNsJeYZGRnp6emFhYV2ok8G07BspfgpUcv6sqw1RG5ZnqZYA3NTKFm2DZhblqcp1iRhrrzze6agLGEbSUaihDFz3RG5RTAWywiYFwuXRRqDuUUwFsuIJMyhTwbGSJKRMBBH8asQefGZlbQHmJeUYPH7g3nxmZW0hyTMoU8Ghi03Nzc2NvbRvwa2ybsKkdt+fMAczE0ngL3FdFaUUuhTsXChMQiAAAiAgI0IQJ9sBBpuQAAEQAAEikUA+lQsXGgMAiAAAiBgIwLQJxuBhhsQAAEQAIFiEYA+FQsXGoMACIAACNiIQKnQp5kzZ9avX9/T0zMgIKBLly4pKSk83UcvVI2NjQ0ODnZ1dY2Ojj558iS/KTc3d/jw4X5+fu7u7p06dRI+gePu3bu9evXy/nfp1avXvXv3+F7WK8ycOZMQMmrUKM6F/CO/cuVKz549fX193dzc6tSpc+TIEUVEXlBQMGHChIiICFdX14oVK3788cf8j9tlyDwxMbFjx47BwcGEkI0bN/K7n8VDvXTpUseOHd3d3f38/EaMGJGXl8f7Mq9gMPL8/Pxx48bVrFnT3d09ODi4d+/eV69e5e2b95G0TeR8kJTSwYMHE0Lmz5/PV8o/8uTk5E6dOnl7e3t6ejZs2PDSpUtc8NJGXir0qW3btkuXLj158uSxY8defvnlChUqZGVlcfRnz57t5eW1YcOGv//++8033wwODr5//z63aciQIaGhoQkJCUlJSc2bN69Tpw7/DtZ27drVrFnz93+XmjVrduzYkd8RrVQ4dOhQRERE7dq1eX2SeeR3794NDw/v27fvn3/+mZaWtnPnznPnzimC+fTp0/38/LZs2ZKWlrZu3TpPT8/PPvtMtpFv27ZtwoQJGzZs0NEny+4eGo2mZs2azZs3T0pKSkhICAkJGT58eAl3dYORZ2RktGrVas2aNSkpKQcPHmzYsGG9evV4R2Z8JG0WOR/kxo0b69SpExISItQnmUd+7tw5X1/fsWPHJiUlnT9/fsuWLTdu3OAykjbyUqFP/K5DKb158yYhJDExkVKq1WqDgoJmz57NNcjNzfXx8Vm0aBGlNCMjw9nZefXq1dymq1evOjg47Nixg1KanJxMCPnjjz+4TQcPHiSECI/JhO4sUn7w4EHVqlUTEhKio6M5fZJ/5B988MGLL76on778I3/55Zf79+/PR/7KK6/06tVL/nuLUJ8sDnnbtm0ODg78ocyPP/6oVqszMzN5SiUpCCPXsXPo0CFCCPdd3ryPpI0jv3LlSmho6MmTJ8PDw3l9kn/kb775JreT6/CXPPJSp0+pqamEkL///ptSev78eUJIUlISPyqdO3fu06cPpXTXrl2EkLt37/KbateuPXnyZErpd9999//2zi2miaaN41Na6OFFGgkgYgOCIBqhHiFAoohavFCkRi8kEKtiPQBGbgSVmBIJIBdqiEIICYoKFC44RG6MECAh5vOUthEiQVQOUUgUjKkHAgjzESdO9l2qEShl991nL8h0T/zn98zsvzv7dEepVNL1GGOlUnnr1i3mGvuWDx8+nJ6ejjGm/sR95WvXrk1PTz948KCnp+eGDRtKS0sJE+4rz8/P9/Pz6+7uxhhbLBYvL6+qqirutxbmVd7ukC9duqRWq2mr/vTpE0KopaWFrplPgamcdZ6mpiaRSESMcG5d0pHKJycnY2JiyN020584rnxyctLV1fXy5cuxsbGenp7h4eF0oHjRlQvLn6ampuLi4uj3+kePHiGE6LdCjLFer4+NjcUYV1ZWuri4MHuLRqM5ceIExjg3NzcoKIi5KSgoKC8vj7nGjmWj0RgSEjI6Osr0J+4rl/5cLly4YDKZSkpKpp/l3LlzB2PMfeVTU1Pnz58XiUQSiUQkEtHIclw58ypvd6l6vV6j0TBbtYuLC7Ft5sq5lZnKmWcYHR3dvHlzYmIiWTm3LulI5Xl5eRqNZvrJH8aY6U8cVz40NIQQUigU165dM5vN+fn5IpGora1tzpdBOzIXlj+lpKT4+fnRTAfSjQcHB2mvOH78+O7du20GZteuXSdPniT+tHr1anoIxjgwMDA/P5+5xl7lgYEBLy8vi8VCTkjvn7iv3NnZOTIyknI4c+ZMREQE9ScuMzcajSqVymg0vnjx4u7du+7u7uXl5dxXzrzK27150O9tNKDOzs5Go5F+nE+BqZyeZ3x8PD4+fuPGjXQUceZV/m+6pMOUP3/+fNmyZfTL7p/9iVPK379/jxBKSEig8OPi4g4dOjTny6AdmQvIn9LS0lQq1du3b2kY7D4MQs9sr0J9fT1CSPxrQQiJRCKxWPz69WuOj0z6+vomJydTDsXFxT4+PtwfJcMYq1SqmzdvUuU5OTnBwcHcV868ytu9YTtylAxjPD4+rtVq1Wr18PAwDcSijzVRJbTAZH79+nXSN0lnRQg5OTn5+fnN+WGBw5iPjY1JJJKcnBxar4yMjKioKC4oF4Q/TU1Npaam+vj4vHr1isaAPvEuKCggK8fGxlj5ETU1NWTT4OAgKz/iyZMnZNPjx48XLj/CarV2Q+TdiwAABmxJREFUMJYtW7YkJSV1dHSQB+BcVp6QkEDHUafzTdLT08ntFPeVu7u7FxcX03aSl5dHhnM5rpx5rbS7VJJlQO96q6urFy4/gpjTunXrPnz4QKNAU5Zm2yUdpnx4eJjRUzt8fHwyMzNJ2hTJMuCscoxxZGQkMz9Cq9WS26lFVy4Ifzp9+rRSqWxraxv6tXz//p00/StXriiVyrq6uo6OjoSEBFZ+uUqlam5uNplMO3bsYOWXq9Xq//1cQkNDHZBfTtTS8T2MMceVP336VCKR5Obm9vT0VFZWKhSKiooKXjDX6XQrVqwg+eV1dXUeHh4ZGRmcVf7lyxfzzwUhRJ4fkGw3+zYPkqW9c+dOk8nU3NysUqnmn19uU/nExMS+fftUKpXFYvnVWYfob61OnTo12y7pMOWkhdC/zPE9jDHHldfV1Tk7O5eWlvb09Ny4cUMsFre3t5O6LK5yQfgTmrHcvn2b0Cc/Y/T29pZKpdu2bSN5fWTT6OhoWloa+Xnp3r17BwYGaOMbGRlJTExc8nNJTEx0zO9zmfkR5ObPYDBwWXljY2NISIhUKl2zZg3N3+O+cqvVevbsWV9fX5lMFhAQkJWVRa+PHGwtra2trNat0+kWAnJ/f/+ePXvkcrm7u3taWtr8Z5+xqby3t5dVHYRQa2vrfLqkY5TTiwMpsPxpbhcTRyovKysLDAyUyWTr169vaGig1Vlc5YLwJ8oaCkAACAABIMAXAuBPfIkU6AQCQAAICIsA+JOw4g21BQJAAAjwhQD4E18iBTqBABAAAsIiAP4krHhDbYEAEAACfCEA/sSXSIFOIAAEgICwCIA/CSveUFsgAASAAF8IgD/xJVKgEwgAASAgLALgT8KKN9SW7wSY7xDhe11APxD4MwHwpz/zga1AYBYEdDpdfHz83x8wB7MZGRmhUzz//T+CPYEAHwmAP/ExaqCZowQc4E8crTnIAgILQAD8aQGgwimFSuB3/tTW1hYWFubi4uLt7Z2ZmTkxMYEx1ul0zHfN9fb2srAVFRVNTy0mlUq9vLwOHDhAttJbLpvvryP73L9/f9OmTVKp1N/fPzs7m/w71snhIxDgPgHwJ+7HCBTyhoBNf3r37p1CoUhJSenq6qqvr/fw8DAYDGTCiMjISL1eT17U/ePHD2Y9nz17JhaLq6qq+vr6TCZTYWEh2Ur9aWxsjL7hu6WlRSaTlZWVYYwfPHjg5uZWXl7+5s2bhw8frly5Mjs7m3lmKAMBvhAAf+JLpEAnDwjY9KeLFy8GBweTab8xxkVFRa6urpOTk6wX0rOqV1tb6+bmNvNRE/Unuv/w8PCqVatSUlLImq1bt9I56THG9+7dW758Od0ZCkCARwTAn3gULJDKdQI2/Wn//v1Hjhyh0i0WC0KIzNI002zoblarNTQ01MPDIykpqaKi4tu3b2QT65Dx8fHo6OiYmBg6iKdQKGQy2T+/FplMhhCih9PzQwEIcJ8A+BP3YwQKeUPApj9ptdqjR4/SOpjNZoQQmU6MZTZ0H1KYmJhoamo6d+5cQEBAYGAgmWaMdUhycrK/vz9zHnSZTFZQUNDz74XcrrHODx+BAMcJgD9xPEAgj08EbPrTzPG9JUuWEMPQaDR/MxHt169fJRJJbW0ta0jw6tWrrq6uzEk1McZRUVHHjh3jEzXQCgR+QwD86TdgYDUQmD0BnU63fft2MuE6+dvf30/yI1JTU7u6uhoaGmh+BMZYr9eHhYX19vZ+/PiRdYvT2NhYWFhoNpv7+vqKi4udnJw6OzuZ/tTU1CQWi0tKSmiWxOfPn0l+hEQiMRgMnZ2dL1++rK6uzsrKmn1V4AggsPgEwJ8WPwag4D9DgJUyjhAis63bzC/HGHd3d0dERMjl8uk9Wfnl7e3t0dHRS5culcvlarW6pqaGUKLjewaDgZmeTv8XsaioqCi5XO7m5hYeHl5aWvqfIQwVERQB8CdBhRsqCwSAABDgDQHwJ96ECoQCASAABARFAPxJUOGGygIBIAAEeEMA/Ik3oQKhQAAIAAFBEQB/ElS4obJAAAgAAd4QAH/iTahAKBAAAkBAUATAnwQVbqgsEAACQIA3BMCfeBMqEAoEgAAQEBQB8CdBhRsqCwSAABDgDQHwJ96ECoQCASAABARFAPxJUOGGygIBIAAEeEMA/Ik3oQKhQAAIAAFBEQB/ElS4obJAAAgAAd4Q+D+SItaI/utXqQAAAABJRU5ErkJggg==;" vertex="1" parent="1">
          <mxGeometry x="-41" y="400" width="425.31" height="341" as="geometry" />
        </mxCell>
        <mxCell id="ZC6dXS9VG-4Vkqp6-rwn-5" value="" style="shape=image;verticalLabelPosition=bottom;labelBackgroundColor=default;verticalAlign=top;aspect=fixed;imageAspect=0;image=data:image/png,iVBORw0KGgoAAAANSUhEUgAAAjUAAAHFCAIAAACFDZ9LAAAAAXNSR0IArs4c6QAAIABJREFUeAHsnQdYFEcfxudoRxMUBEVAUMHeiMauxN5LitHYsEeNNX4YEgt2Y+xJTEyMooYYG1GjYo9iLIkNNYogdmyxgiIgHjef4+pmvTuWA+5u9+7efXh0bnbmX36zN+9tJxQLCIAACIAACMiPAJFfSIgIBEAABEAABCj0CRsBCIAACICAHAlAn+Q4KogJBEAABEAA+oRtAARAAARAQI4EoE9yHBXEBAIgAAIgAH3CNgACIAACICBHAtAnOY4KYgIBEAABEIA+YRsAARAAARCQIwHokxxHBTGBAAiAAAhAn6xrG4iKiiKvF1tbW19f3759+964cUMfCqEvF31amrjNvn37CCH79u3Tx694Y24tR8jGxqZ48eIdOnQ4duyYPpbl04Yb5StXrkgS0vjx4/39/W1tbd3d3XMLYPv27e3atStevLiDg4Ofn1+fPn3OnTuXW2ORekJIZGSkSIP8rlq5cmW3bt3Kly+vUCgCAgI0uj9+/Dg8PLxly5bFixc3uGsNX/hIKe7PtbKtgJu5oqKijhw58scff0yePFmpVJYpUyY9PT1PErLVp7S0tCNHjqSlpeWZAqVUH32aOXPmkSNHDhw4sGjRIg8PD2dn5wsXLuhjXCZt7t69e+TIkaysLNPHs2nTJkLI+PHjDx48mJuuh4eHE0LatGmzbt26uLi4pUuXVqpUSalUxsTE5Ddgg4tEixYtqlat2qtXr6CgIG19unLliru7e5MmTQYOHGhw1/nN3RraY//JGkb5vxw5fRJOHBMnTiSEREdH/9col5Js9SmXeHVX66NP69ev5zuvXLmSEDJp0iS+xoCFp0+fGtCaHExNnz6dEPLvv//mFszq1atfNBg6dKiwQXp6eq1atZydnS9duiSs58u5gSqwSGRnZz9//py3zxdycnK4cvv27bX1Sf1yoZTeu3evwK55XyjkSQD6lCcii2qgrU/btm0jhMyYMYNSmpmZGRERERgYaG9vX6pUqWHDhj169IjPn9cntVodFBTUqlUrfhWl9MmTJ25ubsOGDeP3UVavXv3FF1/4+PgUKVKkefPmiYmJwvbLli2rXr26UqksVqxYly5dEhIS+LVhYWEuLi7nz59v1aqVs7NzyZIlZ82aRSk9cuRIw4YNnZ2dg4ODV6xYwbfXkJxjx45169YtICDA0dExICCge/fuV69eza0xX88VOFNCfTp37hwh5OOPP+ZbXrhw4aOPPvLy8nJwcKhYseK3337Lr6KUnj17tmXLlk5OTsWLFx82bNjWrVuFxx5DQ0OrVKkSFxdXv359Jyenbt26UUrT0tLGjh3LYx81apRwd3bdunV16tRxc3NzcnIqU6ZMv379OHc5OTnTpk0rX768o6Oju7t7tWrVFi5cyK3SPr6XJ+3k5OS2bdu6uLj4+fl9+umnIvteOTk5s2fPrlChgoODg5eXV+/evVNSUji/AQEBrw8es/91HnmrUqVKsWLFtPXm8OHDhJDhw4dzprht4MyZMy1btnR1da1Xrx4HauDAgR4eHi4uLq1bt05KStLwIjI03MiuWrXq008/LVWqlEKhOH/+POdL57869YlvCX3iURi1AH0yKl7ZGdfWp0WLFhFCfvzxR7Va3bp1azs7u4kTJ+7atWvu3LkuLi4hISH8VMXrE6V00aJFCoVCeNRr8eLFhBDuLAI3FwQGBvbs2XPbtm2//vpr6dKlg4ODVSoVR2TmzJmEkI8++mjbtm2rVq0qW7asu7s7by0sLMzBwaFSpUqLFi3avXt3v379CCGff/55+fLlly1btnPnzg4dOhBCjh8/zlnT0Kf169dPmjRp48aNcXFxa9asCQ0N9fLyunfvns7GGiOkrU+cwMybN49ree7cOU4MVq1atWvXrrFjx9rY2EyePJlbe+vWLU9Pz9KlS69YsSI2NrZ3796BgYEa+uTh4eHv7//NN9/s27cvLi7u6dOnNWvWLF68+Pz58/fs2bNo0SJ3d/dmzZqp1WpK6eHDhxUKRffu3WNjY//444+oqKjevXtzvmbNmmVraxsZGbl3794dO3YsXLiQD0NDn/SkPXfu3D179kyaNEmhUEyZMkWDDP9x8ODBnJDs2LFjyZIlXl5e/v7+HN6TJ08OGDCAELJjx44jR47wusX3vXXrFiGEU2W+ki94e3tXqFCB+xgWFmZvbx8YGDhr1qy9e/fu3LlTrVY3bdpUqVTOmDFj165dkZGRZcuWFeqT+NBwI+vr6/vBBx/8/vvvW7duffDgAe9auwB90mZi+hrok+mZS+mRm7n++uuv58+fP3nyZOvWrV5eXkWKFLlz586OHTsIIV999RUf39q1aznp4mqE+vT48eMiRYqMGjWKb1y5cuWmTZtyH7m5oF27dvzadevWEUKOHDlCKX306JGTk5Nw7fXr15VKZY8ePbj2YWFhhBD+bMTz58+9vLwIISdPnuQaPHjwwNbW9tNPPxW603l9hEqlSk9Pd3FxWbRoUZ6N+T2/tWvXPn/+PCMj49ChQxUqVKhcuTK/H9m6dWs/Pz/hua7hw4c7Ojo+fPiQUhoeHq5QKISn+lu3bq2hT4SQvXv3csFQSmfNmmVjYyM84rphwwZCSGxsLKV07ty5hJDU1FS+PV/o0KFDzZo1+Y/CglCf9KS9bt063kK7du14neArucL58+cJIdxeMlfz999/E0K++OIL7mNkZCQhhP81oNH9r7/+IoRERERo1HMf69at6+TkxJW5bWD58uV8y+3btxNC+HGklM6YMUOoT+JDw22TTZo04Q2KF6BP4nxMs9Zc9SkuLq5Dhw4+Pj6EkI0bN+YJKzEx8Z133vH29uYuBxg/fnx2djbfa//+/W+99Ra36vvvv+frLa/AzVzCgzDVqlU7ePAgpXTcuHEvpp67d+/yWavV6hfH2fhfu0J9opSOHDnS3d2dOxK1d+9eoaJwc8GSJUt4U4mJiYSQNWvWUEpjY2MJIcIJkVLatm3bEiVKcO3DwsIUCkVmZibfvX79+j4+PvxHSqmPj8/777/P1XDueH168uTJuHHjypUrZ2try2c6ZMgQnY2FNnl94nsRQnx8fPgL4TIzM+3s7EaMGPFcsHDpcHJSp06datWqCW2uWLFCQ5+KFSsmbNCwYcPq1asL7LHfDQqFYty4cZTSuLg4QkirVq3Wrl2rcZnl1KlTFQrF0KFDd+zYIdRLSqlQnwpAOyIiwtHRURgkX/7uu+8IIUePHuVrKKWVKlWqW7cuV1MYfapTp46zszNnh9MnYV7c9nn//n3e9ZUrV3h9ynNouI1EKG+8HZ0F6JNOLCauNFd9io2NHT9+fExMjJ76dOnSpeXLl586derq1aubN2/29vb+/PPPOdaXL192dnYeNWpUQkLC0qVL7e3tN2zYYOJhMJk7buZatWrVsWPH4uPjb926xbseMGCAnZ0d/5ErlCtXrkWLFlxZQ5+Sk5NtbGx++OEHSum7777r5+fHH77j5gLhWRxuKomKiqKU/vzzz4SQP//8U+hL6J079yBcy522EdYEBAS0b9+eq9HQp44dOzo7O8+aNWvPnj1Hjx49duyYl5dXWFiYzsZCm7w+zZ49+9ixY3FxcePHj7exsalRowZ3kPPGjRtC6RKWV61a9SI1IS7OMvern9fO0NDQypUrC50GBQUJ7fDl/v37c802bdrUrFkzpVJJCKlSpcrq1au5+ufPn8+bNy8kJEShUNjZ2TVr1ozfCRPqUwFocxojDJIvT5s2jRCiceCuefPmQUFBXBtxfRI/vleiRAl+vy0sLIzXKs6ycAvhajIzM3l9ynNouI1E41cRn5d2AfqkzcT0NeaqTzwpDX169uxZeHh4qVKlnJ2d69Spw88LfHuuMGbMmEaNGnHlcePGVaxYkW/w8ccfcydj+RpLKnAzFz+RCVPLbf+pe/fuXDMNfaKUtm/fvnr16tevX7e1tZ0+fTpvTVyfcvtFX7JkSc5CYfQpNTVVoVDwZ2IopVlZWba2tvnSJ6GychekzZkz58Xhu6dPn9ra2vbt2/eY1sL9rtfef+KA89uhttDWq1evWrVqWvaO8TttHJOsrKz9+/dzRwsPHz7Mo+aOl65fvz44ONjDw4O77kCoTwWgLaJPue0/8V8ZcX2ilObr+ghhmuL7T3kOjfY2KTSuXYY+aTMxfY2l6VOPHj0aNGhw4MCBixcvzpkz58VZDf6sOw83OTm5UqVK48eP52oaN248cuRIfu1vv/1mZ2cnPPrHr7KAgog+7dy5kxAyf/58Ps3169cTQpYuXcrVaOvTrl27CCFNmzZ1cHAQXlKsPRcI95+4MyKdOnXiHaWkpCiVyp49e3I1hdGntLQ0Qgh3vR9n7dtvvyWEFFifsrOzg4KCPD09Hz9+TClt0aJFjRo1nj17xgcvLOhz/qlKlSrCLtOnT3d2dr58+bKwMrfyqVOnCCGLFy/WbvDi+gj++hShPhWAtog+ccdphd+Xo0ePcjc8cSHlqU+5XV9eu3Zt4fXl2ttAnuefxIdGe5vUZiisgT4JaUhVtih9unjxokKhuHnzJk+zefPm/HE8Smn9+vW54ySDBw/mb3QIDg7mrq7meh06dIgQIjzwxVuzgIKIPnHX79nb20+ePHn37t3z5s1zdXXN7fo9HkXlypUJIb169eJr+KNkwr0QoT5RSrkrynr37h0bG/vzzz8HBQVpXL/n4uIiNKi92yFyfK9JkyYeHh5Lly7dvXv3hAkTfHx8ihYtWmB9opRyF3dMmzaNUnru3LlixYrVqVMnKipq3759v//++/z58/kLQ27evMlfv7d9+/bevXtzl1zHxcVx6Wgnkp6eHhIS4ufnN2/evN27d+/cuXPp0qVdu3b966+/KKUTJ07s169fdHT0/v37N23a1LRpU3t7+7Nnz1JKO3ToEBERsWHDhri4uFWrVgUGBgYEBHC/q4T6VADaIvpEKR08eLBCoRg9evTOnTt/+OEHb29vf39//rRQnvpEKf3f//5HCGnbtu369esPHDiwdOnSypUra9yfq61POTk5TZo0USqVM2fOzO36PZGh0VOfzp07t/7lUqtWLS8vL64svOAlNjZ2/fr1y5cvf/FroGvXrlwD7cvlhVsvygUmYFH6xM0jLoLFzs7uww8/5Olcv3793Llzq1ev9vX1nT17NlcfHBw8c+ZMvs3Bgwdf3O9y+/ZtvsaSCiL6xN3/9NlnnwUEBNjb2/v4+AwdOpS/bu2F6mjvP714AMnkyZNfPAuAm0x5UNpzgYY+UUp/+umn6tWrOzg4uLu7d+7cWTgFaM9N2tO6iD7duHHj/fffL1asWJEiRdq0aXP27NmAgIDC6BOltG7dusWKFeOuo7ty5Ur//v19fX3t7e29vLwaNGggPLZ59uzZFi1aODo6enh4DBgwgLu99/Tp0xwc7URezNfp6ekTJkzg7ijiLl4fM2bMnTt3KKVbt25t27atr6+vg4ODt7d3u3bt+PN28+bNa9CgAfeIoNKlSw8YMIC/zUtDn/JLW1yfuPufypcvb29vX7x48V69eglPR+mjT9w1Mu3atfP09LS3t/f19e3du7dwA6CUam8DlNLU1NT+/fsXLVrU2dm5ZcuW3M6c8C4rkaHR3ib5zVVY4OLnzwJyBaELjXu8uAYaB2OFBlEuDAGL0qc1a9bY2tomJiYmCxadSvPzzz87OTlx5/Ot6vheYbYVnX1r1apVu3ZtnatQSSkdNGiQq6trbscDgQgEQECEgEXpE3c/+YEDB0QS5latWrXKzs6Oe8DJuHHjKlWqxHcZMmQIf7KXr0RBg0BaWtqhQ4c+//xzjetTNJpZ4ccpU6YsXbp07969mzdvHjRokEKhmDhxohVyQMogUHgC5qpPT548iX+5cKf04+Pjr127Rint2bNnYGBgTEzM5cuXjx49+uWXX27bto1SGh0dvXbt2oSEhEuXLq1bt87X15c/G89dXz5mzJiEhIRly5ZZ9vXlhd9iOAvc0RJPT0/hoQ9DGTdrOzNnzixfvryzs7ODg0OVKlUWLFjAPQnCrJNC8CAgCQFz1SdufhQeJuZOMGRnZ0+aNIl7lFnJkiXffffdM2fOUErXrFnz1ltvubq6uri4VK5ceebMmcLbP/fv3x8SEuLg4BAYGGjZ9+dKspHBKQiAAAgUgIC56lMBUkUXEAABEAABMyIAfTKjwUKoIAACIGBFBKBPVjTYSBUEQAAEzIiA+elTTk5OSkpKampqGhYQAAEQAAFzJpCampqSksI/LUFDO81Pn1JSUoSXRaAMAiAAAiBg1gSEt3gLJcr89Ck1NZV7grI5/2hA7CAAAiAAAmnc/obON5y9eDyN+ekT9wBQ4YthhHqLMgiAAAiAgLkQEJ/PoU/mMo6IEwRAAAQsjQD0ydJGFPmAAAiAgGUQgD5ZxjgiCxAAARCwNALQJ0sbUeQDAiAAApZBAPpkGeOILEAABEDA0ghAnyxtRJEPCIAACFgGAeiTZYwjsgABEAABSyMAfbK0EUU+IAACIGAZBKBPljGOyAIEQAAELI0A9EnHiKpUdN8+uno1+1el+q+BSkX37KFffEF79WL/7tlD796lVarQIkWonx/duJE+e/aq47ZttFMnWq0a+3fLFjphAmv/1Vc0IoJ+9BFt1ow2bEi7dqV169KAAFq8OA0Kok2b0g8+oAoFJYTa2tIOHai/P3V0ZDU2NtTBgZYsSStVYvUDB7KOHh6sJfdnY8Ni4D86O1MXF/ZXsiRr5u1NfXyos/N/DfhepUoxp+3a0XLlWHt7e+bIwYG6utLAwP/aBwcz+8WL07Zt6ZgxtGZN6ubGYvPyoqGhzELZsuyjvT2r6dqVzpzJ0qxalaU5YwYdNIgGBzOD773HUihenJYoQZ2cWPsSJeiaNQxO9+6vsHTvzhJs2JD9ffwx/eknVuBTK1OGNmhA58yhGRl0507aowdb26QJi0epZDF4eNCiRVkYSiWzb2PDYCqVtHZt+tZbtH179levHhu1mjWZqa5d2cfAQLZ25ky6fDnt2JGV33qLduvGAtu5kw30ihWsPjiYli7NOnbqxEZz1y66ahX95BM6bBidO5fGxrKBnjCBtVep2MYwbx7t0oWhGDiQ+WrQgGW0ahVr2bkz2zy6dKGpqcxO796s/OWXzOyQIaw8dChdsIAZ4RZum1yxgq1q2ZK1iYmhLVqwvIYMYTRy22j5zVejgfAjt91GRzOP0dEs/j17dGz/lLJ4Fiygw4e/ERulLIBPPqGtWrF/MzKYT6F94ZeIj0dY0NlYpWLwe/ViKc+d+x8KYUeRsk6bIu3FV+VmLbd6cWtmtLZgCRaslzYWM9CnxYsXBwYGKpXKt95668CBA9o5CGvE8xG2zK0cE8PEhp8Q/fzYREAp+9fT8796vgEKIKBNgPthoV2f3xpbWxoezrY94Tap04ij438bJ7/R8hu5hgVPzzc2Zlvb//pqGBeaCg9nYs834GKjlGktX8kV3n77jYCFRviQ+IJGbFzjmBj2I0lo1saGodBz0WlTz77azXKzllu9tgUzrSlYggXrpROR+Hwu/fON1qxZY29vv3Tp0oSEhFGjRrm4uFy7dk1nJlyleD4iHblVMTGv9mD4L4ZCwWrCw9/4qvBrUQABGRLgNlrudxX304rbLy9AqLyp3L4C5crl/dXgjWh/AXV+40Ti1EeidNpUKF790NSOQbwmN2vh4brnCh67uFn5r80tcfEEC9YrNxri87n0+lSnTp0hQ4bw0VesWDEiIoL/qF0Qz0e7vbBGpWI/+rzJndLkqsZfGRvNGo0G1vDRn1wz5Z8fua7Pny9JEf6VIjeEfz7kJv9Xktzi/kqQ29yfN7nD/XmRf73Iv8XJ3eLkrie550nueZD7HuR+MfKgGHlQlDx0J4/cSKobSS1C0lzJYxfyxIU8cSbpTuSpkmQ6kCx78syOZNuS5wqSQ4haZIY1zSqFgh0fVqnYX577XuIhKRTU1/eNPSfx9jrX8vFof+N0ts+t0tY2jwN9ueWrMwBhMDrLItaEu5J8tAXzotO1tJUiiXPblc7wCtZLpymuUnw+l1ifnj17Zmtr+9tvv/EJjBw5skmTJvxHrpCVlcU/iZ57HnvBnl++bx/7JbidtM77ByG/PaIAArkQyCEKFbHJJnZZxCGTKJ8SpyfE5TFxTSVuD0nRe8TzX+J1i5S8QUpdI/5XSMBFUvYCCTpPKpwllU+R6idIyN/k7cOk3gHSaB8J3U2abyett5D2v5Eua0nXaNIjioT9SAYuJkMXkpFzyNjp5ItJZPJnZNZoMn8Y+XYAWdqLrDo7ae2ZaZtakR2NyIFa5FhlcjaQXC5BbruRVDuSnUvgRtz89+1747vLfePyG8aCBW8Y0fggblMjAI2+2h/FreUWeX69aPuVvEY88dwSLFgvkWRlrU83b94khBw6dIhPYMaMGeXLl+c/coXIyEiNt28VTJ9Wr2bfzM2kYwZxxJ+0BDKJMre/LOKQ298zYi/8yyZ2/N9zYsv9qYgN95dDFNyfEefj3CYwedQ/J7aPiHsK8U0gFY+S2ntJ002kUzTp8T35eA4ZO4FM/YR804NEtyXb6pHDFch5b3LHnjwrTOyrV7/x3eW+cfk1OHz4G0Y0Pojb1AhAo6/2R3FruUWeXy/afiWvEU88twQL1kskWTPQp8OHD/MJTJ8+vUKFCvxHrmDY/afctjnUWwcBNSFqBclRkBwborIhKlvy3I5k25Nn9uSZA8lSkkxHkuFIMpzIU2eS7kKeuJLHbiTVnTwqSh4WIw88yP3i5K4X+deb3ClJbpUiN3xJij+5FkCulCGXypKLwSSpPEmsRM5VIf9UJ6dqkpNvkeNvk7/rkiMNyMHGJO4d8kcLsqs12d6ebOlENr1HNnQla7uT1b3Jyv7kp8FkySfkm9FkfjiZ/QWZHkkip5MvZpPwhWTkd2TIMtIvmvRYT97fTDruIK0e1QhNrVwvntRIJOWvEf+7pHg6cc4hLy8SLehwphPna8T/GKm1lbRbTvrOIp+NJvN7kOjmZHdVcsaL/CtyeFPjd7f4z+3cAsT+k8YEaIyP4kOjMY58AAXrxXfXLshan/Q8vifMSjwfYUvtMnfwVOeZZJ3HmnP7/qAeBCQnwJ8I0bVVqx1Iljt55ENuBpELIeREE7K/Hdnajfw6kPw4msyfSKZ8Rf73Axm0jnywmzQ/Tt66alvmISmqp7BlEmUSCd5Nmi8j/SJJZD+yrDnZXYEkBvs+1bjQXFdseezN6nn+SftbzAPR/uKL1OQWoUKh+4RcwbyIBCDVKpHE8zz/ZCj4lFLx+Vzi80+U0jp16gwdOpQfpEqVKhnv+gj+SichX1y/J/lUiwDyS0DjejnukirhVq2/Qd4Uu1yN5BQlD8uQS7XJ0XZkaz+yLILMXO4++hfy0R7S7Ayp+i/xykPD/Pxo8+bsJqmvv2a3fV2/HrM+h3PBhyQep/7X7wnt8FnwM4n+BW16nDXu+j1DedE/HpO1zC1xfa7fMxQWuesTd335smXLEhISRo8e7eLicvXqVZEREs9HpCO/SuPifX9/3P+Ux09afmZBgSfg5KR58TG/Kl+Fgt3/xG+0uW3V+t//JDSlz/1PdiQ7gFwZXDFuRLGfvyDTl5DBsaRNkl3l544uujcjZ+dHZUI2OXWPIDNbkF3FyAPOo2HvfxJmwTPRvyAyJwivjSykF/3jMVnL3BIXD6BgvXTaFJ/Ppd9/opQuXrw4ICDAwcHhrbfeiouL05kGXymeD99MvJDbzc94fgSeH4HnRxTw+RFqNb1/nx4+zB7R8dln7J7eihWpnZ22aKnLlGGPJPnyS9XOPXs3PMTzI8QnK2OvzW0yFPdbsF7aNsXnc1nok3bQIjXi+Yh0xCoQAAFTE8jOpklJdPNm9mSn7t3ZY7609y7LlaM9e9Jly6jogRNTRw5/JiEgPp9Dn0wyCHACAiDAEXj0iO7dy55C+OGH7KGQGnJVtix7mOOaNfTffwHMGghAn6xhlJEjCJgngYcP6e7ddOJE9mxdjYtoq1Wjo0fTbdtoVpZ55oao8yYAfcqbEVqAAAhIT+DxY7p1K3t+fvXqb+xXubvTsDAmVPzD3qWPFREYhgD0yTAcYQUEQMB0BO7epWvX0sGD2Ztj+GOARYvSfv3o9u00O9t0kcCTMQlAn4xJF7ZBAASMSiAnhx44wF5IVbLkf0Ll4UEHDGAvj9K4H9iokcC4EQhAn4wAFSZBAARMTEClovv3szdFenv/J1Rly7IXKaammjgWuDMUAeiToUjCDgiAgAwIqFT0jz/YS4WLFn0lVC4u7IkV58/LIDiEkD8C0Kf88UJrEAAB8yCQnk6XLKGVK/+3O9W6NbuMIifHPOJHlPJ//l5+x0hcb/NrDe1BAATMm4BaTffsYY+r4B8JFxREFy2iT56Yd17WEb34fI77c61jK0CWIGDxBC5domPHUnf3V7tTJUuyvavnzy0+b7NOEPpk1sOH4EEABPJD4MkT+v33tGzZVypVsSLdtImq1fkxgbamIwB9Mh1reAIBEJAFgWfP2As+ihd/pVKNGtEjR2QRGIJ4kwD06U0e+AQCIGAlBFJT6RdfUEfHVyr1wQf0wgUrSd1c0oQ+mctIIU4QAAEjEEhJof37UxsbplJ2duxW37t3jeAGJgtCAPpUEGroAwIgYFEEzpyh7dq92pEqXpz+9ptFZWe2yUCfzHboEDgIgIBhCfzxB61W7ZVK9e1L09IMax7W8ksA+pRfYmgPAiBguQSysmhExKvDfQEBdN8+y03VDDKDPpnBICFEEAABkxI4ePDVNegKBf30U5qZaVLvcPaaAPTpNQn8DwIgAAI8gceP2bt6uZd3VKlCT57k16BgMgLQJ5OhhiMQAAFzI7BlCy1RgqmUvT2dORMv7DDx+EGfTAwc7kAABMyKwN279N13X+1INWqEq89NOXjQJ1PShi8QAAEzJKBW0xUrqJsbU6ly5XAbr8mGEPpbCUVUAAAgAElEQVRkMtRwBAIgYM4Ezp+ngYFMojw96cGD5pyJ2cQOfTKboUKgIAACEhO4c4e+/TaTKKWSrl0rcTBW4B76ZAWDjBRBAAQMRSA9nb1Niruub/ZsPPvcUFx12oE+6cSCShAAARDIhYBKRUeOfCVRQ4bgJVK5YDJANfTJABBhAgRAwOoILFz46p287drhbbxGGn3ok5HAwiwIgIClE/jtt1ev5wgJoTdvWnq2EuQHfZIAOlyCAAhYCIG//qJeXuxYn78/vXzZQpKSTRrQJ9kMBQIBARAwRwIXL9Ly5ZlElStH79wxxwxkGzP0SbZDg8BAAATMhMDNm69ujapZk6ammknQZhAm9MkMBgkhggAIyJ1AcjL19mZ7UaGheN65oQYL+mQokrADAiBg3QROnnz1DKTOnXHRuUE2BeiTQTDCCAiAAAhQun8/e7QEIbRfP9y6W/gNAvpUeIawAAIgAAKvCWzc+Or1u+Hhr6vwfwEJQJ8KCA7dQAAEQEA3gWXL2C4UIfSrr3Q3QK1+BKBP+nFCKxAAARDQn8BXX72SqOXL9e+ElhoEoE8aQPARBEAABAxBIDycSZSNDd20yRDmrNEG9MkaRx05gwAIGJ2AWs2ukuBexnH4sNHdWaID6JMljipyAgEQkAOB589pp05Movz96YMHcojIvGKAPpnXeCFaEAABsyLw+DENCmIS1aULrjjP78hBn/JLDO1BAARAID8ETpygDg5Mor7+Oj/d0JZCn7ARgAAIgICRCSxaxPTJwYGeOGFkTxZlHvpkUcOJZEAABORIQK1+9Vb44GD6+LEcI5RlTNAnWQ4LggIBELAwAg8esKskCKG9euFElJ5jC33SExSagQAIgEDhCPz5J7W1ZRIVFVU4Q9bSG/pkLSONPEEABKQnMH060ydnZ5qQIH0wso8A+iT7IUKAIAACFkNApaLNmzOJqlaNZmRYTFpGSgT6ZCSwMAsCIAACugjcvv3qTYZDhuhajbr/CECf/mOBEgiAAAiYgsDOnWwXihC6bp0p3JmtD+iT2Q4dAgcBEDBfAhERTJ/c3enly+abhLEjhz4ZmzDsgwAIgIAWgexsWr8+k6hmzXC5uRadVxXQp9zIoB4EQAAEjEng0iXq6IijfCKIoU8icLAKBEAABIxJYPJkpk9+fjQ93ZhuzNU29MlcRw5xgwAImD2BjAxapgyTqM8/N/tcjJAA9MkIUGESBEAABPQksHkz0yd7e5qUpGcP62kGfbKesUamIAAC8iOgVtO2bZlEtWmDCyU0hgf6pAEEH0EABEDAtAQuXHj1gqhNm0zrWO7eoE9yHyHEBwIgYPkEvviC7UIFBuKhR8Kxhj4JaaAMAiAAAlIQSE9nV/G9eKjE5MlSuJepT+iTTAcGYYEACFgXgXXrmD45OuKJEvy4Q594FCiAAAiAgHQE1OpXjzbv3Fm6IOTlGfokr/FANCAAAtZL4Nw5amfH9qJiY60XgiBz6JMABoogAAIgIC2BsWOZPgUF0awsaQORg3fokxxGATGAAAiAwEsCaWnUx4dJ1MyZIAJ9wjYAAiAAAnIiEB3N9MnZmV6/LqewJIhF1vo0ffr0+vXrOzk5ubu768lGPB89jaAZCIAACEhGQK2mjRszierWTbIY5OFYfD4n0gY5adKk+fPnf/rpp9AnaQcC3kEABExK4NQpqlAwiTp71qR+ZeZM1vrEsYqKioI+yWyzQTggAAJGJvD++0yfevY0shtZm4c+yXp4EBwIgICVEjh5kumTjQ1NTrZSApRagj5lZWWlvV5SUlIIIWlpaVY7okgcBEDAQgi0a8ckauBAC0kn/2lIqU+RkZEkl+XYsWN8Lnke39O2A33i6aEAAiBgrgQOHWL6ZG9vtRfySalP9+7dO5/LkpmZyW9SeeoT9p94ViiAAAhYFIGmTZlEjRhhUUnpnYyU+qRnkHnqk9COeD7CliiDAAiAgNwJ7NnD9MnRkd65I/dQjRCf+Hwu8fXl165di4+PnzJliqura/zL5cmTJ+IQxPMR74u1IAACICAvAmo1rVePSdS4cfIKzCTRiM/nEutTWFiYxvmpffv2iWMRz0e8L9aCAAiAgOwIbNnC9MnVlT54ILvYjByQ+HwusT4VIHfxfApgEF1AAARAQEoCajWtUYNJVGSklGFI4Vt8Poc+STEm8AkCIAACQgLcqwuLFaNWducM9Em4FaAMAiAAAvIjoFLRChXYLtSXX8ovOCNGBH0yIlyYBgEQAAHDEFi5kumTtzfNyDCMQXOwAn0yh1FCjCAAAlZOIDubBgYyifr6a+shAX2ynrFGpiAAAuZMYMkSpk9+fvTZM3NOIx+xQ5/yAQtNQQAEQEAyAllZtFQpJlFLl0oWg2kdQ59MyxveQAAEQKDABObPZ/pUtix9/rzANsyoI/TJjAYLoYIACFg3gfR0Wrw4k6joaGsAAX2yhlFGjiAAApZCYMYMpk+VK9OcHEtJKdc8oE+5osEKEAABEJAdgdRUWqQIk6g//pBdbIYOCPpkaKKwBwIgAAJGJTBkCNOnjz4yqhM5GIc+yWEUEAMIgAAI6E3g+HGmTw4O9P59vfuYZUPok1kOG4IGARCwagIhIUyiFi60bAjQJ8seX2QHAiBgiQQWL2b6VLUqVastMb1XOUGfLHhwkRoIgICFEnj0iDo5MYk6csRCM2RpQZ8seHCRGgiAgOUS6NOH6dOAAZabIfTJgscWqYEACFgwgT//ZPrk4kIfP7bULLH/ZKkji7xAAAQsmoBaTStWZBL144+Wmif0yVJHFnmBAAhYOoG5c5k+vf22peYJfbLUkUVeIAAClk7g7l1qb88k6tQpi0wV+mSRw4qkQAAErINA165Mn4YPt8hsoU8WOaxICgRAwDoI7NzJ9KloUYt87zv0yTo2YmQJAiBgkQRycmhAAJOon3+2vPygT5Y3psgIBEDAmghMncr0KTTU8nKGPlnemCIjEAABayKQkkJtbJhEJSVZWNrQJwsbUKQDAiBgfQTat2f6NG6chWUOfbKwAUU6IAAC1kdg40amT97e9NkzS0oe+mRJo4lcQAAErJJAdjYtWZJJVEyMJeUPfbKk0UQuIAAC1kogIoLpU5s2lpQ/9MmSRhO5gAAIWCuB5GSmTwoFvXbNYhBAnyxmKJEICICAdRNo2pRJVGSkxVCAPlnMUCIREAAB6yawejXTJ39/qlJZBgjok2WMI7IAARCwegKZmdTDg0nUrl2WwQL6ZBnjiCxAAARAgNJBg5g+DRliGSygT5YxjsgCBEAABCjdsYPpU4kSlnGID/qEbRoEQAAELIXAs2fU3Z1J1MGDFpAS9MkCBhEpgAAIgMBrAr16MX369NPXn834f+iTGQ8eQgcBEAABTQK//cb0KTCQqtWaq8ztM/TJ3EYM8YIACICACIGnT6mTE5OoEydEWpnFKuiTWQwTggQBEAABvQm89x7Tp/Hj9e4g04bQJ5kODMICARAAgQISiI5m+lSpUgG7y6Yb9Ek2Q4FAQAAEQMAgBB49ovb2TKISEgxiTyoj0CepyMMvCIAACBiNQNu2TJ9mzDCaA1MYhj6ZgjJ8gAAIgIBJCSxdyvSpVi2TOjW0M8Po06NHj5YuXRoREfHgwQNK6YkTJ27cuGHoUPWyJ56PXibQCARAAATMncC//1IbGyZRV6+abyri8znRJ7HTp097eXkFBQXZ2dldunSJUjphwoTevXvr09fgbcTzMbg7GAQBEAABmRIIDWX6tGCBTMPTIyzx+VwvfWrevHl4eDil1NXVldOnQ4cOBQQE6OHd8E3E8zG8P1gEARAAAXkSWLSI6VPjxvKMTp+oxOdzvfTJzc3t4sWLQn26evWqUqnUx73B24jnY3B3MAgCIAACMiVw/TrTJ4WC3r4t0wjzCkt8PtdLn7y9vU+ePCnUp507d/r5+eXl2ijrxfMxiksYBQEQAAF5Enj7bSZRS5bIM7o8oxKfz/XSp0GDBnXp0iU7O9vV1fXy5cvXrl0LCQkZNWpUnr6N0UA8H2N4hE0QAAEQkCmBWbOYPrVqJdPw8gpLfD7XS5/S0tIaNmxYtGhRW1tbf39/e3v7Jk2apKen5+XaKOvF8zGKSxgFARAAAXkSSEpi+mRnRx8+lGeA4lGJz+d66RPnYO/evXPmzJk9e/bu3bvFXRp1rXg+RnUN4yAAAiAgOwJVqzKJWrVKdoHpEZD4fJ4PfdLDlymaiOdjigjgAwRAAATkQ2DSJKZPXbrIJyL9IxGfz/XSpxEjRixatEjo8ptvvsH5JyEQlEEABEBAGgKnTjF9cnSkEp1zKUzWBtCnUqVKHT9+XBjEiRMnfH19hTUmK4vnY7Iw4AgEQAAEZEFAraZlyzKJ2rBBFvHkJwjx+Vyv/SelUpmcnCx0mpycjPufhEBQBgEQAAHJCPzvf0yfevSQLICCOjaAPlWpUuWbb74RBvD1119XkujVI+L5CINEGQRAAASsgsDhw0yf3NxoVpZ55Ss+n+u1/7Rs2TInJ6dJkybtf7lMnDjR2dn5xx9/lASEeD6ShASnIAACICAlgZwc6uPDJGrbNinDyL9v8flcL32ilH733Xe+vr6Kl0uZMmVWrlyZ/0gM00M8H8P4gBUQAAEQMC8Cw4YxfRowwLyiFp/P9dUnLue7d+8+efJE2vzF85E2NngHARAAAWkI7N3L9Kl4cfr8uTQBFMir+HyeP30qUAAG7iSej4GdwRwIgAAImAWB58+phweTqH37zCJeLkjx+VxMn0JCQh6+fGZGzZo1Q3QtklAQz0eSkOAUBEAABKQn0Lcv06exY6WPRO8IxOdzMX2aPHny06dPKaWTc1n0jsGQDcXzMaQn2AIBEAABMyKwejXTp5o1zShk8flcTJ+4JFUq1f79+7kdKTmkLZ6PHCJEDCAAAiAgAYE7d5g+EULv3ZPAe4Fcis/neesTpVSpVF6+fLlA3g3fSTwfw/uDRRAAARAwFwLVqjF9WrvWXOIVn8/10qfatWvv2bNHJgmL5yOTIBEGCIAACEhAYPRopk+DB0vgukAuxedzvfRp586dNWvW3LJly61bt9IES4HiKWwn8XwKax39QQAEQMB8CWzZwvSpXDlzyUB8PtdLn7jbchUKhc3rhSsXEsGVK1f69+8fGBjo6OhYtmzZSZMmPXv2LE+b4vnk2R0NQAAEQMBiCTx+TG1tmURduWIWOYrP53rpE/dYI+1/C5n/9u3b+/btu3PnzkuXLm3evNnb23usHldGiudTyJDQHQRAAATMm0CDBkyffvrJLLIQn8/10ifT5PnVV1+VKVMmT1/i+eTZHQ1AAARAwJIJcK8r7N7dLHIUn8/11aeHDx/OmTOnf//+AwYMmDt37oMHDwye/Pjx42vVqqXTbFZWFn/aKyUlhRCSlpamsyUqQQAEQMCqCcTFsf0nLy+akyN/DgbQp/3797u5ufn7+7/7cildurSbm9v+/fsNmPzFixfd3NyWLl2q02ZkZCR5c4E+6QSFShAAAWsn8OwZdXZmEnX6tPxRGECfqlSpMmjQIJVKxWWrUqkGDx5cpUqVPJPX1hVeZY4dO8Z3v3nzZlBQ0IDcn7yL/SeeFQogAAIgkAeBNm2YPs2fn0czGaw2gD45OjomJiYKc0lMTHR0dBTW6Czfu3fvfC5LZmYm1+XmzZvly5fv3bt3jn57o+L56AwDlSAAAiBgRQTmzGH61L69/FMWn8/1Ov/UoEGDjRs3ClPduHFjvXr1hDUFK9+4cSM4OLh79+78zlmedsTzybM7GoAACICAhROIj2f65OpKs7Nlnqn4fK6XPq1Zs6Z06dJz5sz58+UyZ86cwMDANWvWnH69FAwBd1ivWbNmN27cuP16ydOUeD55dkcDEAABELBwAjk57EVQhNCDB2Weqfh8rpc+8ffnahRsbGwKc6NuVFQUfzqKL+RJUzyfPLujAQiAAAhYPoGuXZk+TZ4s80zF53O99OlqXospEYjnY8pI4AsEQAAEZErghx+YPjVuLNPwXoclPp/rpU+vTcnif/F8ZBEiggABEAABaQlcvMj0yd6ePnkibSDi3sXnc+iTOD2sBQEQAAEzJKBW08BAJlGxsXKOHvok59FBbCAAAiBgHAIDBjB90uOhpsZxr5dV6JNemNAIBEAABCyKAPe69xo15JwU9EnOo4PYQAAEQMA4BPjXvd+9axwHBrBqGH169OjR0qVLIyIiuCfDnjhx4saNGwaILv8mxPPJvz30AAEQAAELJSD7172Lz+d6XR9x+vRpLy+voKAgOzu7S5cuUUonTJjQu3dvSYZUPB9JQoJTEAABEJAjgTFj2CmoQYPkGNvLmMTnc730qXnz5uHh4ZRSV1dXTp8OHToUEBAgSc7i+UgSEpyCAAiAgBwJbN3K9KlsWTnG9jIm8flcL31yc3O7ePGiUJ+uXr2qVColyVk8H0lCglMQAAEQkCOBx4+pnR2TqMuX5RgepeLzuV765O3tffLkSaE+7dy508/PT5KExfORJCQ4BQEQAAGZEmjYkOlTLq/Wkzxm8flcL30aNGhQly5dsrOzXV1dL1++fO3atZCQkFGjRkmSm3g+koQEpyAAAiAgUwLc6967dZNneOLzuV76lJaW1rBhw6JFi9ra2vr7+9vb2zdp0iQ9PV2ShMXzkSQkOAUBEAABmRI4cIDtP8n1de/i87le+sRx37t375w5c2bPnr17924JR0I8HwkDg2sQAAEQkB0Beb/uXXw+z4c+8dwfPXrEl01fEM/H9PHAIwiAAAjImgD3uvd582QYpPh8rpc+ffnll2vWrOFy69q1q42NTalSpU6dOiVJtuL5SBISnIIACICAfAnMncsO8bVrJ8MIxedzvfSpTJkyhw4dopTu2rWraNGiO3fuHDBgQMuWLSXJVjwfSUKCUxAAARCQLwHude8uLvTZM7kFKT6f66VPjo6O169fp5SOHDly8ODBlNKkpKSiRYtKkqp4PpKEBKcgAAIgIF8C/Ove//xTbkGKz+d66ZOPjw+3/1S+fPl169ZRShMTE4sUKSJJquL5SBISnIIACICArAl8+CE7xCe/172Lz+d66dMnn3wSEBDQokULT0/PJy/fxrhmzZqQkBBJxkM8H0lCglMQAAEQkDWBJUuYPjVtKrcgxedzvfQpOzt7zpw5I0eO5J4iQSldsGDBUoluSBbPR270EQ8IgAAISE/g9GmmT66uVKWSPhhBBOLzuV76JLAmfVE8H+njQwQgAAIgIDcCKhV1cWES9c8/sgpNfD7XS59W5rJIkqd4PpKEBKcgAAIgIHcC77zD9Emi4165wRGfz/XSp6KCxcXFRaFQKJXKYsWK5ebSqPXi+RjVNYyDAAiAgLkSiIhg+jRwoKziF5/P9dInjXwuXLjQvHnzHTt2aNSb5qN4PqaJAV5AAARAwMwIbNzI9KlqVVmFLT6fF0SfKKXHjh2rUKGCJHmK5yNJSHAKAiAAAnIncOsW0yeFgj5+LJ9QxefzAurTyZMncf+TfMYYkYAACIBA3gRKl2YStXdv3i1N1cIA+rRZsGzatOn777+vUqVKmzZtTJXCG37E83mjKT6AAAiAAAjwBLi7dGfO5CskL4jP53rtPykEi42NTYkSJT766KNbt25Jkpt4PpKEBKcgAAIgYAYE5s1j+0+dOsknVPH5XC99kk8yNK/31csqVAQDAiAAAjIicOgQ06cSJahaLZOoDKlP6peLtImJ5yNtbPAOAiAAAvIlkJFB7eyYRF25IpMgxedzffefVq5cWbVqVeXLpVq1aqtWrZIqPfF8pIoKfkEABEDADAjUrs306fX7/CQPWHw+10uf5s2b5+zsPG7cuM2bN2/atCk8PNzZ2Xn+/PmS5CaejyQhwSkIgAAImAeBTz5h+jR6tEyiFZ/P9dKnwMDAlStXCvNZsWJFYGCgsMZkZfF8TBYGHIEACICA+RH4+WemT/XryyRy8flcL31SKpXJycnCfC5cuKBUKoU1JiuL52OyMOAIBEAABMyPwIULTJ+USpm8S1d8PtdLn6pUqTJjxgzhSEybNq2qRM/JEM9HGCTKIAACIAACbxBQq6mHB5Ooo0ffqJfog/h8rpc+bdiwwdbWtnXr1lOnTp02bVrr1q3t7Ox+++03STISz0eSkOAUBEAABMyGQNu2TJ++/loOAYvP53rpE6X0+PHjPXv2fOutt0JCQnr27Mm/qND0GYrnY/p44BEEQAAEzInAlClMn3r2lEPM4vO5vvokh0y4GMTzkU+ciAQEQAAE5Ehgxw6mT+XKySE28fk8D31KE10kSU88H0lCglMQAAEQMBsCDx8yfSKE3rsneczi83ke+qRQKGx0LVy9JLmJ5yNJSHAKAiAAAuZEoEIFpk9bt0oes/h8noc+7X+97Nu3z8nJ6Zdffnldwf6XJDfxfCQJCU5BAARAwJwIhIUxfZowQfKYxefzPPRJGL2rq+ulS5eENZKUxfORJCQ4BQEQAAFzIvDdd0yfWraUPGbx+Rz6JPkAIQAQAAEQMC2BkyeZPrm50Zwc0zrW9AZ90iSCzyAAAiBg1QSeP6dOTkyiEhKk5WBIfbp8+bK0yeD9T5LzRwAgAAKWQKBxY6ZPy5dLm0uh9OldwWJnZ9eqVStBxbuSJCaejyQhwSkIgAAImBmB//2P6dPHH0sbtvh8nsf5p76iiySJiecjSUhwCgIgAAJmRmDDBqZPNWpIG7b4fJ6HPkkbuk7v4vno7IJKEAABEACBNwikpDB9srGh6elv1Jv2g/h8Dn0y7WjAGwiAAAjIhICvL5Moie5k5RhAn2SyLSAMEAABEJATgffeY/o0e7aEMUGfJIQP1yAAAiAgVwJffcX06V1prnTjoECf5LpxIC4QAAEQkJBAXBzTJx8fqlZLFQX0SSry8AsCIAACMiaQnk5tbZlEXb8uVZTQJ6nIwy8IgAAIyJtAzZpMn9avlypK6JNU5OEXBEAABORNYMgQpk9jx0oVJfRJKvLwCwIgAALyJhAVxfSpUSOpooQ+SUUefkEABEBA3gTOn2f65OhIs7MlCRT6JAl2OAUBEAAB2RPIyaHu7kyiTpyQJFbokyTY4RQEQAAEzIFAq1ZMnxYvliRW6JMk2OEUBEAABMyBwMSJTJ/69JEkVuiTJNjhFARAAATMgcC2bUyfKlSQJFbokyTY4RQEQAAEzIHA7dtMnxQK+vSp6cOFPpmeOTyCAAiAgJkQUKuplxeTqGPHTB8x9Mn0zOERBEAABMyHQPPmTJ+WLTN9xNAn0zOHRxAAARAwHwJjxjB9GjXK9BFDn0zPHB5BAARAwHwILF/O9KlpU9NHLGt96tixo7+/v1KpLFmyZK9evW7evJknIPF88uyOBiAAAiAAAm8QOH6c6ZOnp+lftCE+n0v8fvf58+cfOXLk6tWrhw4dqv9yeYOarg/i+ejqgToQAAEQAIHcCWRkUBsbJlF67CHkbqUga8Tnc4n1SZjQ5s2bFQpFdl6PgRLPR2gQZRAAARAAAb0IVKzI9Gn7dr0aG66R+HwuF3168ODBhx9+2LBhwzwTF88nz+5oAAIgAAIgoEngww+ZPs2erVlv5M/i87n0+jRu3DhnZ2dCSL169e7fv6+TRlZWVtrrJSUlhRCSlpamsyUqQQAEQAAE8k1g+nSmTz175rtj4TpIqU+RkZEkl+XY63vB7t27l5SUtGvXroYNG7Zr106tVmvnq20H+qRNCTUgAAIgUEACv//O9Kl69QJ2L2g3KfXp3r1753NZMjMzNTLidowOHz6sUU8pxf6TNhPUgAAIgIDBCFy9yvTJ3p4+e2Ywm3oYklKf9AjvvybXr18nhOzbt++/Kl0l8Xx09UAdCIAACICAKAG1mrq5MYk6c0a0nYFXis/nUp5/+vvvv7/55pv4+PirV6/+8ccfjRo1KleuXFZWljgA8XzE+2ItCIAACICAbgKNGjF9io7WvdY4teLzuZT6dObMmaZNm3p4eCiVysDAwCFDhty4cSNPCOL55NkdDUAABEAABHQQGDaM6dO4cTpWGa1KfD6XUp8KlrJ4PgWziV4gAAIgYO0Evv+e6VObNqbkID6fQ59MORbwBQIgAAJyJXDoENOnUqVMGR/0yZS04QsEQAAEzJNAWhrTJ0JoLvehGiMr6JMxqMImCIAACFgcgTJlmD7ldRG1AdOGPhkQJkyBAAiAgOUS6NyZ6dOiRSbLEPpkMtRwBAIgAALmTGDiRKZPAwaYLAfok8lQwxEIgAAImDOB9euZPr39tslygD6ZDDUcgQAIgIA5E0hKYvrk5ERVKtOkAX0yDWd4AQEQAAEzJ6BSMXEihCYlmSYT6JNpOMMLCIAACJg/gbffZvq0fr1pMoE+mYYzvIAACICA+RMYMIDp08SJpskE+mQazvACAiAAAuZPYOFCpk+dO5smE+iTaTjDCwiAAAiYP4E//mD6VLasaTKBPpmGM7yAAAiAgPkTuHeP6RMh9PFjEyQDfTIBZLgAARAAAUshUKoU0yddrzI3eIbQJ4MjhUEQAAEQsFwCbdowfVqyxAQZQp9MABkuQAAEQMBSCIwbx/Rp2DAT5AN9MgFkuAABEAABSyEQHc30qVEjE+QDfTIBZLgAARAAAUshcOYM0yc3N6pWGzsl6JOxCcM+CIAACFgQgWfPqL09k6irV42dFfTJ2IRhHwRAAAQsi0D16kyffv/d2FlBn4xNGPZBAARAwLII9OrF9GnGDGNnBX0yNmHYBwEQAAHLIjB7NtOnbt2MnRX0ydiEYR8EQAAELIvA9u1MnypVMnZW0CdjE4Z9EAABELAsAjdvMn2ysaGZmUZNDPpkVLwwDgIgAAIWR0Ctpp6eTKJOnDBqbtAno+KFcRAAARCwRAJNmzJ9iooyam7QJ6PihXEQAAEQsEQCo0YxfRozxqi5QZ+MihfGQQAEQMASCSxbxvSpeXOj5gZ9MipeGAcBEAABSyRw7BjTJy8vo+YGfTIqXhgHARAAAUsk8D3BYKYAACAASURBVPQpu36PEHrnjvHSgz4Zjy0sgwAIgIDlEqhQgenTrl3GyxD6ZDy2sAwCIAAClkuga1emT3PnGi9D6JPx2MIyCIAACFgugalTmT716WO8DKFPxmMLyyAAAiBguQQ2bWL6VLOm8TKEPhmPLSyDAAiAgOUSuHyZ6ZODA83ONlKS0CcjgYVZEAABELBoAmo1dXFhEpWUZKQ8oU9GAguzIAACIGDpBGrWZPq0ZYuR8oQ+GQkszIIACICApRP48EOmT/PmGSlP6JORwMIsCIAACFg6gQkTmD59/LGR8oQ+GQkszIIACICApRNYtYrpU9OmRsoT+mQksDALAiAAApZO4K+/mD75+hopT+iTkcDCLAiAAAhYOoGHD5k+EUKfPDFGqtAnY1CFTRAAARCwDgJeXkyf4uONkS30yRhUYRMEQAAErINAw4ZMn9auNUa20CdjUIVNEAABELAOAv36MX2aNs0Y2UKfjEEVNkEABEDAOgjMmsX0qVcvY2QLfTIGVdgEARAAAesgEBPD9KlOHWNkC30yBlXYBAEQAAHrIPDPP0yfihalarXBE4Y+GRwpDIIACICA1RDIyKAKBZOou3cNnjP0yeBIYRAEQAAErIlAQADTp4MHDZ4z9MngSGEQBEAABKyJQMuWTJ+WLzd4ztAngyOFQRAAARCwJgKffML0KSLC4DlDnwyOFAZBAARAwJoILFrE9Om99wyeM/TJ4EhhEARAAASsicD27UyfqlY1eM7QJ4MjhUEQAAEQsCYCly4xfVIqaU6OYdOGPhmWJ6yBAAiAgJURUKmogwOTqKtXDZs59MmwPGENBEAABKyPQOXKTJ927TJs5tAnw/KENRAAARCwPgJdujB9+vZbw2YOfTIsT1gDARAAAesjMG4c06eRIw2bOfTJsDxhDQRAAASsj8BPPzF9at3asJlblz6pVKpMLCCQHwI5hr4kybBfYFgDAVkQOHCA6VOZMoYNxlr0Sa1W37p1KwELCOSTQGJi4rNnzwz7rYM1ELA0AnfuMH1SKGhWlgFTsxZ94sTp/v37GRkZ+fn1jLZWTeDp06fJyclXr15VG+HdAQb8GsMUCEhMQK2mbm5Mos6dM2AkVqFPKpUqISHh/v37BgQHU1ZCIDU1NSEhITs720ryRZogUEACtWszfdq4sYDddXWzCn3KzMxMSEjIyMjQRQB1ICBGICMjIyEhITMzU6wR1oEACPTowfRp9mwDkrAifcIUY8DtxnpMcT9usPFYz4gj0wISmDyZ6dOAAQXsrqsb9EkXFbnWhYaGjho1Sjy6K1euEELi4+PFmxVs7b59+wghjx49Klh3c+wFfTLHUUPMEhBYvZrpU+PGBnRtBvqUlZVVo0YNPedcnfnIZIohuSxhYWF6juiDBw8eP34s3lilUt2+ffv58+fizQq2Vk990kdHCxaA6XvJZOMxfeLwCAL5I3D8ONOnEiXy10u0tc75nO9B+JKEhZEjR7Zt29YC9On262XhwoVubm6vP91OTU3l8cr8PDz0iR8pFEAABN4gkJbG9IkQKpjQ3miQ/w9y16fY2NiKFSueO3fO9PqkUtF9++jq1exflSr/aHPvERUV5e7uzq3nDsetXbs2NDRUqVQuX778/v373bt39/X1dXJyqlq16urVq3lLwv2SgICAGTNm9OvXz9XV1d/f/4cffhAa5I7vcXKyZ8+eWrVqOTk51a9fPzExkbc2bdo0Ly8vV1fXAQMGfPbZZzVq1OBXCQvbtm0LDg52dHR85513oqKi+ON7ucUZFhYm3FG8cuWKSqXq379/YGCgo6Nj+fLlFy5cKLQv8zL2n2Q+QAhPRgRKlmT6dOyYoUKStT7duXPH19f32LFj4udUsrKy0l4vKSkphJC0tDQhoAJMMTEx1M/v1a8BQlg5JkZoslBlbX0KDAyMiYm5fPnyzZs3b9y4MWfOnPj4+EuXLn399de2trZ//fUX509Dnzw8PBYvXpycnDxr1iwbG5vz589TSoWsOH2qW7fu/v37z50717hx4wYNGnCmoqOjHR0dly9fnpSUNGXKFDc3N536dP36daVSOWrUqMTExOjo6BIlSvD6lFucqamp9evXHzRoELeDqFKpsrOzJ02adPTo0cuXL0dHRzs7O69du7ZQBE3YuQAbjwmjgysQkBOB0FA2af7yi6Fikq8+qdXqNm3aTJs2TWPO1c48MjJS+IO98PoUE8Pug+Z2Vbl/FQpWYyiJ0tYnkV2Kdu3ajR07lstaQ5969erF1avVam9v7++//16DFb//xDXbtm0bIYS7FK1u3bqffPIJD7Nhw4Y69enzzz+vVKkSf3fqZ599xusT35cr5BanRjNK6bBhw95//33tennWQJ/kOS6ISo4EBg1i82ZkpKFik1KftHWFl5ljx44tWrSoQYMGqpdH1oT7BNqZG3b/SaV6Y8+JVymFgvr7G+ZAn7Y+HTx4kM9LpVJNnz69WrVqHh4eLi4udnZ2Xbt25dZq6NNXX33F96pevfqUKVN06tPdu3e5ZidPniSEXLt2jVJatGjRlStX8t3HjBmjU5+6dOnSr18/vtmmTZt4fdIzTq7v999/X6tWreLFi7u4uNjb27/99tu8TZkXoE8yHyCEJyMCc+YwffroI0OFJKU+3bt373wuS2ZmZufOnW1sbGxfL4QQW1vbPn36iGeuM598TTH79r2x58TrE1fYt0/cv15rtfVJeDn47NmzPT09f/7551OnTiUnJ7dv375z586cXQ19WrBgAe/vhbpEvvzZItRyjcsZ4uPjCSFXrlzh9GnVqlV899GjR+vUp86dO+emT3rGSSldu3ato6Pj4sWLT548mZycPHjwYJ2++GBkVcjXxiOryBEMCJiawObNbPasVctQfnXO57xxKa/fu3bt2j+vl507dxJCNmzYkJKSwgens6Azn3xNMdxF/BqyxH8UXKyg079eleL61KFDh/79+3OGcnJyypcvbwx9qlu37vDhw/lwGzVqpFMzuON7fLOIiAh+/0kkzpYtWwqNDx8+vFmzZryR5s2b6/TFN5BVIV8bj6wiRzAgYGoC588zfXJ1pQZ6XqXO+ZxPSkp94oPQOGYlrNcu68wnX1OM5PtPo0eP9vf3P3ToUEJCwsCBA93c3IyhT9HR0U5OTitWrLhw4cK0adPc3Nxq1qypzfPatWsODg5jxoxJTEz85ZdfSpYsyeuTSJyDBg16++23r1y5cu/evZycHO56+h07diQlJU2YMCG3azG0vcuhJl8bjxwCRgwgIBmBZ8+ojQ2TqFu3DBKDzvmct2yN+sSdf9K4PoJ7crzxzj8Jj+89ePCgc+fOrq6u3t7eEyZM6NOnjzH0iVI6derU4sWLu7q69u/ff+TIkfXq1eMHXljYsmVLUFCQUqls3Ljx8uXLeX0SiTMpKalevXpOTk7c4cSsrKy+ffu6u7sXLVp06NChERER2H8SEkYZBCyHQLlyTJ/27zdIRuahT/qnqjOf/P4E5q7fE0qUYa/f0z8dk7Vs0aIFfzWgyZyahaP8bjxmkRSCBAFjEWjblunTjz8axL7O+Zy3LJf9Jz6gPAs68ynAFKNx/5O/v8EuLs8zBdM0ePr06bx5886ePXv+/PlJkyYRQnbv3m0a1+blpQAbj3kliGhBwJAERo1i+vS//xnEps75nLdsvfpEKbuU3EjPj+D5SljIyMho3rx5sWLFnJ2dQ0JCYgx1b5eEKRnHNfTJOFxh1UIJLF7M9KlTJ4OkB30yCEYYsVgC0CeLHVokZgwCu3czfapY0SC2oU8GwQgjFksA+mSxQ4vEjEHg2jWmT/b21BCvUIA+GWOIYNNyCECfLGcskYkJCOTkUEdHJlEXLxbeG/Sp8AxhwZIJQJ8seXSRmzEIVKvG9Ck2tvC2oU+FZwgLlkwA+mTJo4vcjEHg/feZPhniNTrQJ2OMD2xaDgHok+WMJTIxDYEvvmD6NGxY4b1BnwrPEBYsmQD0yZJHF7kZg8CKFUyfWrQovG3oU+EZGtGCxgPIjegpF9PCR9nm0oRVBwQECB+mLtIyX6skT59SCn3K15ChMQjQw4eZPpUuXXgU0KfCM8yHBf7d53Z2dmXKlBk7dmx6erpIf8kn6IyMjH///VckQm6ViD49ePBg1KhRL95Gb29vX7Jkyb59+3IvoMrTJqXUIOnHxcV16NDBx8eHELJx40ah35iYmFatWnl6ehJChI9AFLaBPglpoAwCeRO4f5/pEyE0IyPvxqItoE+ieAy9MiwsrE2bNrdv375+/fovv/zi5OQ0ZMgQEScGmaBF7BtqVW769ODBg+Dg4CpVqmzbtu3atWtxcXGNGzf29va+dOmStutnz55pVBYgfW0jsbGx48ePj4mJ0danVatWTZkyZenSpdAnDfL4CAKFIuDhwfTp9OlCGaEU+lRIgPnrHhYWxj+MnFI6cODAkiVLUkqzsrJGjBjh5eWlVCobNmx49OhRzi4/QaenpxcpUmT9+vW8v99//93Z2fnx48fcCwljYmLeeecdJyen6tWrHz58mG+2YcOGypUrOzg4BAQEzJ07l68PCAiYNm1a7969XVxcSpcuvWnTprt373bq1MnFxaVq1arHjh3jWgqP7128eLFTp07e3t4uLi61a9cWPq8vN30aMmSIi4vL7du3eb8ZGRm+vr5t2rThakJDQz/55JMxY8Z4eno2adKEUrpt27bg4GBHR8d33nknKiqKf1w6pfTQoUONGzd2dHT08/MbMWIEv+vJ5RIWFubm5ibyBkttfeJiEL7RkY+TL2D/iUeBAgjoS6BePaZPgvlK345vtrM+fVKraXq6sf7yeiuXhj6NGDHC09OTUjpy5MhSpUrFxsaeO3cuLCysWLFiDx480DjANWjQoHbt2vHD9+6773JzMTe9VqxYcevWrUlJSR988EFAQMDzlzdvHz9+3MbGZurUqUlJSVFRUU5OTlFRUZyFgIAADw+PJUuWXLhwYejQoUWKFGnTps26deuSkpK6dOlSqVIl9ctchPp06tSpJUuWnDlz5sKFC+PHj3d0dOSP1OnUpxdvfipatOjgwYP5mLnCjBkzFAoFl2BoaKirq2t4eHhiYuL58+evX7+uVCpHjRqVmJgYHR1dokQJXp/OnDnj6uq6YMGCCxcuHDp0KCQkpG/fvnwubm5uc+bMSX65aLjjP0KfeBQogIBxCfTpw/RpxoxCerE+fUpPZ+CM9Cd6MunFixaF+vT33397enp++OGH6enp9vb2v/zyCzeW2dnZpUqV+uqrrzT06e+//7a1tb158yal9N69e/b29vtfvmSF06effvqJ637u3DlCyPnz5ymlPXr0aNmyJb+JhIeHV65cmfsYEBDAv1Dj9u3bhJCJEydyq44cOUII4XZ6hPrE2+EKlStX/uabb3hr2tdH3LlzhxCiXf/bb78RQv7+++8XCYaGhgrfi8i9rpeTxhfXJnz22We8PvXu3VsodX/++aeNjU1mZiZ3dUaXLl00wtP+CH3SZoIaEDAKgenT2RwbFlZI49Ang2qVHvpka2vr4uKiVCptbGzefffdf//99/Tp04SQq1ev8mPZpUuXfv36aegTpbR69eqzZs2ilM6fP79cuXLcPM7pE39I8OHDh4SQuLg4SmlISMjkyZN5s5s2bbK3t1epVNyczkkgpVStVhNC1q1bx7W8fPkyIeT0y2PHQn1KT08PDw+vVKmSu7u7i4uLjY1NeHg410Xn/lNu+sSdCuICDg0NHThwIB8hnzhXs2nTJl6fuKOULq8XZ2dnQkhCQgKXy/Tp03kjuRWgT7mRQT0IGJjAunVMn+rXL6RZ69MnqY/vtWjRIjk5+erVq9nZ2dzgnTp1ihDCHyujlHbu3Ll///7a+vT111+XL1+eUlqtWjV+RtY4ffLo0SNCyL59+yilNWvWnDJlCr+JbNy4UahPwj0b4dwtNCjUp6FDh5YtW/a33347c+ZMcnJyjRo1Ro0axRnXqU/c8b1BgwbxAXAFjeN7vBEucU6YuZZCfapYseKIESO4I3j8v9zVEDq9azillApzFK4V5ius58o4/6TNBDUgkAeBU6eYPr08eZFHS9HV1qdPojiMvVJ4fI/3lZ6e7uDgIDy+5+vrO2fOHG19evjwoaOj46JFi2xsbFJSUjgLGtOrUJ+0j+9VqVKF66UxpwvnbqFBoT5VrVp16tSpXPcnT564u7vz0qJhjU9t8ODBeV4fwRuhlHLH9/juERER/P5Tjx49mjVrxq8SFnLzLmwDfdKggY8gYEQC/GmU+/cL4wX6VBh6+e6rU58opaNGjSpVqtT27dv56yMePnyorU/cKSUHBwf++rcX57SEcvLClFCfTpw4wV8fsWLFCo3rI/K7/9SlS5eaNWvGx8efOnWqY8eORYoU4aUlN4W4d+9euXLlqlatGhsbe/36de3ry0NDQ3kjlNJr1645ODiMGTMmMTHxl19+KVmyJK9Pp0+fdnJyGjZsWHx8/IULFzZv3jx8+HBuAHLzzq198uRJ/MuFEDJ//vz4+Hh+V/XBgwfx8fHbtm0jhKxZsyY+Pl54qSHXHftP+d7K0QEEKKV+fmwX6siRwsCAPhWGXr775qZPmZmZI0aMKF68eG7Xl/Oe9u7dKzxXJK5PlFLu+nJ7e/vSpUtz+2ScKY05XZ/9pytXrjRt2tTJycnf3//bb78VSouGNT5a7lKOESNG+Pv729nZlShRIiwsjJeHFwIsNML12rJlS1BQkFKpbNy48fLly3l9opQePXq0ZcuWrq6uLi4u1atXn/H66iAR77zGE8ES9vq0LXf9umANiYyMFAaP50do0MBHENCXQLNm1N2dbtmib3td7aBPuqjIuC46OtrT01P7LlQZh2zeoWH/ybzHD9FLReDpU5rX/TZ5hgZ9yhORXBo8ffr07NmzVapU+eKLL+QSkxXEAX2ygkFGijIlAH2S6cBohxUZGWlnZ9esWbMnT55or0WNkQhAn4wEFmZBIE8C0Kc8EaGBVROAPln18CN5SQlAnyTFD+eyJwB9kv0QIUCLJQB9stihRWIGIQB9MghGGAGBAhCwIn3KKPTLSArAF13MnUBGRkZCQgL3oD9zzwXxg4B5EbAKfVKpVAkJCfcLdyezeY0rojUUgdTU1ISEBP5hVIYyCzsgAAJ5ErAKfaKU3rp1i5OojIyMTCwgoB+Bp0+fcg9L5B+pnuc3Cg1AAAQMRcBa9EmtVnMSlYAFBPJDIDExEXdDG2q6gR0QyBcBa9EnDopKpdLvdzNagcArAjk5Ofn6RqExCICAoQhYlz4ZihrsgAAIgAAIGJsA9MnYhGEfBEAABECgIASgTwWhhj4gAAIgAALGJgB9MjZh2AcBEAABECgIAUvTp9TUVEJISkpKGhYQAAEQAAFzJpCSkkIISU1N1SluRGetnCu5fIRvnEMZBEAABEDAfAmkpKToFB3z06ecnJyUlJTU1FTj/WjgJNAcd9EQufG2itwsg3luZIxXD+bGY5ubZSMxT01NTUlJye0eD/PTJ50ya9hK8UOihvVlWGuI3LA89bEG5vpQMmwbMDcsT32sScIc+qRjaCQZCR1x5L8KkeefWWF7gHlhCea/P5jnn1lhe0jCHPqkY9gkGQkdceS/CpHnn1lhe4B5YQnmvz+Y559ZYXtIwhz6pGPYsrKyIiMjX/yrY528qxC56ccHzMFcfwLYWvRnRSmFPuULFxqDAAiAAAiYiAD0yUSg4QYEQAAEQCBfBKBP+cKFxiAAAiAAAiYiAH0yEWi4AQEQAAEQyBcB6FO+cKExCIAACICAiQhYhT7NnDmzdu3arq6uXl5enTt3TkxM5Om+eKt3ZGSkj4+Po6NjaGjo2bNn+VVZWVnDhw/39PR0dnbu2LGj8AkcDx8+7NWrl9vLpVevXo8ePeJ7Ga8wc+ZMQsioUaM4F/KP/MaNGz179vTw8HBycqpRo8bx48fNIvLnz5+PHz8+MDDQ0dGxTJkyU6ZM4W9ulyHzuLi4Dh06+Pj4EEI2btzIb34GD/XatWsdOnRwdnb29PQcMWJE4d84rDPy7OzscePGVa1a1dnZ2cfHp3fv3jdv3uSTKthX0jSR80FSSgcPHkwIWbBgAV8p/8gTEhI6duzo5ubm6upat27da9euccFLG7lV6FPr1q2joqLOnj176tSp9u3bly5dOj09naP/5ZdfFilSJCYm5p9//unWrZuPj8/jx4+5VUOGDPH19d29e/fJkyebNm1ao0YNlUrFrWrTpk3VqlUPv1yqVq3aoUMHrt54/x49ejQwMLB69eq8Psk88ocPHwYEBPTt2/fvv/++cuXKnj17Ll68yPGReeTTp0/39PTcunXrlStX1q9f7+rqunDhQtlGHhsbO378+JiYGA19MixklUpVtWrVpk2bnjx5cvfu3aVKlRo+fHght3adkaemprZo0WLt2rWJiYlHjhypW7durVq1eEcF+EqaLHI+yI0bN9aoUaNUqVJCfZJ55BcvXvTw8AgPDz958uSlS5e2bt3677//chlJG7lV6BO/6VBK7969SwiJi4ujlKrV6pIlS3755Zdcg6ysLHd39yVLllBKU1NT7e3t16xZw626efOmjY3Njh07KKUJCQmEkL/++otbdeTIEUKIcJ9M6M4g5SdPngQHB+/evTs0NJTTJ/lH/tlnnzVq1Eg7fflH3r59+/79+/ORv/fee7169ZL/1iLUJ4NDjo2NtbGx4Xdlfv31V6VSmZaWxlMqTEEYuYado0ePEkK43/IF+0qaOPIbN274+vqePXs2ICCA1yf5R96tWzduI9fgL3nkVqdPycnJhJB//vmHUnrp0iVCyMmTJ/lR6dSpU58+fSile/fuJYQ8fPiQX1W9evVJkyZRSpctW+bu7s7XU0rd3d2XL18urDFsuU+fPqNHj6aU8vok/8grVao0evToDz74wMvLq2bNmj/++CPHRP6Rz5o1KyAgICkpiVJ66tQpb2/v1atXy39rEc7yBoc8ceLE6tWr81v1w4cPCSF//PEHX1OYgjByDTu7d+9WKBScEBbsK2nKyHNycpo2bcrtbQv1SeaR5+TkuLq6Tp06tVWrVl5eXnXq1OEPFEseuXXpk1qt7tixI/+7/tChQ4QQ/lchpXTQoEGtWrWilP7yyy8ODg7Cb0vLli0HDx5MKZ0xY0ZwcLBwVXBw8MyZM4U1Biz/+uuvVatWzczMFOqT/CNXvlw+//zzkydPLlmy5MW5nJUrV1JK5R+5Wq2OiIhQKBR2dnYKhYIfWZlHLpzlDR7qoEGDWrZsKdyqHRwcONkWVhasLIxcaCEzM7NWrVo9e/bkKgv2lTRl5DNnzmzZsuWLM3+UUqE+yTzy27dvE0KcnZ3nz58fHx8/a9YshUKxf//+Ak+DBmRuXfo0bNiwgIAA/koH7mt869Yt/lsxcODA1q1b6xyYFi1afPzxx5w+lS9fnu9CKQ0KCpo1a5awxlDl69eve3t7nzp1ijPI7z/JP3J7e/v69evzHEaMGFGvXj1en+TM/Ndff/Xz8/v111/PnDmzatUqDw+PFStWyD9y4Sxv8M2D/93GD6i9vf2vv/7KfyxMQRg5byc7O7tz584hISH8UUTtWV6fr6TJIj9+/HiJEiX4H7vi+iSryG/evEkI+eijj3j4HTt27N69e4GnQQMytyJ9Gj58uJ+f3+XLl/lhMPhhEN6yoQobN24khNi+XgghCoXC1tb24sWLMj8yWbp06QEDBvAcvvvuu1KlSsn/KBml1M/P79tvv+UjnzZtWoUKFeQfuXCWN/iGbcqjZJTS7OzsLl26VK9e/f79+/xASH6siY+ELwiZL1iwgPtucl9WQoiNjU1AQECBTxaYjPmz/7d3diFRdGEcH9zNnd1XV5Il1JZIEwpKA8nQhTKLrpRUuhKF6QOhVMibFPJihTDywgsJJQQp8AO9cJW8kRQVvHhLYVdYUWqJ1YgCP0DWSrZVzxsePMw7bqGV65zO/1wsszsf+39+z8z8mTPPzAkGjUbjw4cPWVzV1dUOh0MPyoXwp83NzYqKiqSkpLdv37IcsDveDQ0N9MdgMKipj+jp6aGzPn78qKmPeP36NZ316tWr/auPCAQCXlU7d+5caWmp1+ulN8D1rLy4uJj1o36vN6mqqqKXU/pXHh8f39LSwvaTR48e0e5cnStXnyv/uFRaZcCueru7u/evPoKa0+nTpxcWFlgWWMnSXg/JiClfWlpSHanepKSkmpoaWjZFqwx0q5wQkp2dra6PKCwspJdTB65cCH+6e/duXFzc2NjYp+329etXuus/fvw4Li7O5XJ5vd7i4mJNfbndbh8eHna73ZcvX9bUl6enp/+71dLS0iJQX07Vsv49QojOlU9MTBiNxvr6ep/P19nZabFYOjo6uGCuKMrRo0dpfbnL5bLZbNXV1bpVvrq66tlqkiTR+we02u3P7h60SvvKlStut3t4eNhut/9+fXlY5aFQ6Nq1a3a7fWpqavtg/cSetbpz585eD8mIKad7CPtU9+8RQnSu3OVyHTp0qLW11efzPXnyxGAwjI+P01gOVrkQ/iTtaM+ePaP06WOMCQkJJpPp4sWLtK6PzlpbW6usrKSPl+bn579//57tfMvLyyUlJbFbraSkJDLP56rrI+jFn9Pp1LPygYGBM2fOmEymU6dOsfo9/SsPBAL37t07duyYLMspKSm1tbXs/KjDvWV0dFSzdyuKsh+Q5+fn8/LyzGZzfHx8ZWXl748+E1a53+/XhCNJ0ujo6O8ckpFRzk4OdELjT792Momk8ra2ttTUVFmWz54929/fz8I5WOVC+BNjjQkQAAEQAAFeCMCfeMkUdIIACICAWATgT2LlG9GCAAiAAC8E4E+8ZAo6QQAEQEAsAvAnsfKNaEEABECAFwLwJ14yBZ0gAAIgIBYB+JNY+Ua0IAACIMALAfgTL5mCThAAARAQiwD8Sax8I1reCajfIcJ7LNAPAj8nAH/658hkDAAAA7tJREFUOR/MBYE9EFAUpaCgYPcr/ILZLC8vsyGed/9HWBIEeCQAf+Ixa9CsUwIR8CedRg5ZILAPBOBP+wAVmxSVwI/8aWxsLDMzMzo6OiEhoaamJhQKEUIURVG/a87v92uwNTc3fx9azGQyHTly5Pr163Quu+QK+/46usyLFy8yMjJMJlNycnJdXR39O83G8RUE9E8A/qT/HEEhNwTC+tOHDx8sFkt5efns7GxfX5/NZnM6nXTAiOzs7LKyMvqi7vX1dXWck5OTBoOhq6trbm7O7XY3NTXRucyfgsEge8P3yMiILMttbW2EkMHBQavV+vz583fv3r18+fL48eN1dXXqLWMaBHghAH/iJVPQyQGBsP704MGDkydP0mG/CSHNzc0xMTEbGxuaF9Jrwuvt7bVarTtvNTF/YssvLS2dOHGivLyc/nLhwgU2Jj0hpL29PTExkS2MCRDgiAD8iaNkQareCYT1p6Kiohs3bjDpU1NTkiTRUZp2mg1bLBAIpKWl2Wy20tLSjo6OL1++0FmaVb59+5aTk5Obm8s68SwWiyzL/2w3WZYlSWKrs+1jAgT0TwD+pP8cQSE3BML6U2Fh4c2bN1kMHo9HkiQ6nJjGbNgydCIUCg0NDd2/fz8lJSU1NZUOM6ZZ5fbt28nJyepx0GVZbmho8P2/0cs1zfbxFQR0TgD+pPMEQR5PBML6087+vdjYWGoYV69e3c1AtJ8/fzYajb29vZouwcbGxpiYGPWgmoQQh8Nx69YtnqhBKwj8gAD86Qdg8DMI7J2AoiiXLl2iA67Tz/n5eVofUVFRMTs729/fz+ojCCFlZWWZmZl+v39xcVFziTMwMNDU1OTxeObm5lpaWqKioqanp9X+NDQ0ZDAYnj59yqokVlZWaH2E0Wh0Op3T09MzMzPd3d21tbV7DwVrgMDBE4A/HXwOoOCvIaApGZckiY62Hra+nBDy5s2brKwss9n8fUlNffn4+HhOTs7hw4fNZnN6enpPTw+lxPr3nE6nujyd/Re1KIfDYTabrVbr+fPnW1tb/xrCCEQoAvAnodKNYEEABECAGwLwJ25SBaEgAAIgIBQB+JNQ6UawIAACIMANAfgTN6mCUBAAARAQigD8Sah0I1gQAAEQ4IYA/ImbVEEoCIAACAhFAP4kVLoRLAiAAAhwQwD+xE2qIBQEQAAEhCIAfxIq3QgWBEAABLghAH/iJlUQCgIgAAJCEYA/CZVuBAsCIAAC3BCAP3GTKggFARAAAaEIwJ+ESjeCBQEQAAFuCPwHw+e7ihEe6rQAAAAASUVORK5CYII=;" vertex="1" parent="1">
          <mxGeometry x="398.71" y="397" width="442.77" height="355" as="geometry" />
        </mxCell>
      </root>
    </mxGraphModel>
  </diagram>
</mxfile>
